G04 Layer: BottomLayer*
G04 EasyEDA v6.4.25, 2021-12-02T19:10:48+01:00*
G04 15ecca0207564e248d2aa7e8b5e7a0d8,208c6ab82c1b43e5b5e4dc1230921930,10*
G04 Gerber Generator version 0.2*
G04 Scale: 100 percent, Rotated: No, Reflected: No *
G04 Dimensions in millimeters *
G04 leading zeros omitted , absolute positions ,4 integer and 5 decimal *
%FSLAX45Y45*%
%MOMM*%

%ADD10C,0.2540*%
%ADD11C,0.6100*%
%ADD14C,1.5240*%
%ADD15C,1.5748*%
%ADD16R,1.5748X1.5748*%
%ADD17C,3.5001*%
%ADD19C,1.8796*%
%ADD20C,5.0800*%

%LPD*%
G36*
X798068Y6121908D02*
G01*
X794156Y6122670D01*
X790905Y6124905D01*
X788670Y6128156D01*
X787908Y6132068D01*
X787908Y11139932D01*
X788670Y11143843D01*
X790905Y11147094D01*
X794156Y11149330D01*
X798068Y11150092D01*
X6821931Y11150092D01*
X6825843Y11149330D01*
X6829094Y11147094D01*
X6831330Y11143843D01*
X6832092Y11139932D01*
X6832092Y6132068D01*
X6831330Y6128156D01*
X6829094Y6124905D01*
X6825843Y6122670D01*
X6821931Y6121908D01*
G37*

%LPC*%
G36*
X1943100Y10558272D02*
G01*
X1966214Y10559237D01*
X1989175Y10562082D01*
X2011832Y10566857D01*
X2033981Y10573461D01*
X2055520Y10581843D01*
X2076297Y10592003D01*
X2096211Y10603839D01*
X2115007Y10617301D01*
X2132685Y10632236D01*
X2149043Y10648594D01*
X2163978Y10666272D01*
X2177440Y10685068D01*
X2189276Y10704982D01*
X2199436Y10725759D01*
X2207818Y10747298D01*
X2214422Y10769447D01*
X2219198Y10792104D01*
X2222042Y10815066D01*
X2223008Y10838180D01*
X2222042Y10861294D01*
X2219198Y10884255D01*
X2214422Y10906912D01*
X2207818Y10929061D01*
X2199436Y10950600D01*
X2189276Y10971377D01*
X2177440Y10991291D01*
X2163978Y11010087D01*
X2149043Y11027765D01*
X2132685Y11044123D01*
X2115007Y11059058D01*
X2096211Y11072520D01*
X2076297Y11084356D01*
X2055520Y11094516D01*
X2033981Y11102898D01*
X2011832Y11109502D01*
X1989175Y11114278D01*
X1966214Y11117122D01*
X1943100Y11118088D01*
X1919986Y11117122D01*
X1897024Y11114278D01*
X1874367Y11109502D01*
X1852218Y11102898D01*
X1830679Y11094516D01*
X1809902Y11084356D01*
X1789988Y11072520D01*
X1771192Y11059058D01*
X1753514Y11044123D01*
X1737156Y11027765D01*
X1722221Y11010087D01*
X1708759Y10991291D01*
X1696923Y10971377D01*
X1686763Y10950600D01*
X1678381Y10929061D01*
X1671777Y10906912D01*
X1667002Y10884255D01*
X1664157Y10861294D01*
X1663192Y10838180D01*
X1664157Y10815066D01*
X1667002Y10792104D01*
X1671777Y10769447D01*
X1678381Y10747298D01*
X1686763Y10725759D01*
X1696923Y10704982D01*
X1708759Y10685068D01*
X1722221Y10666272D01*
X1737156Y10648594D01*
X1753514Y10632236D01*
X1771192Y10617301D01*
X1789988Y10603839D01*
X1809902Y10592003D01*
X1830679Y10581843D01*
X1852218Y10573461D01*
X1874367Y10566857D01*
X1897024Y10562082D01*
X1919986Y10559237D01*
G37*
G36*
X4152900Y6194552D02*
G01*
X4166565Y6195466D01*
X4179976Y6198158D01*
X4192930Y6202527D01*
X4205224Y6208572D01*
X4216603Y6216192D01*
X4226864Y6225235D01*
X4235907Y6235496D01*
X4243527Y6246876D01*
X4249572Y6259169D01*
X4253941Y6272123D01*
X4256633Y6285534D01*
X4257548Y6299200D01*
X4256633Y6312865D01*
X4253941Y6326276D01*
X4249572Y6339230D01*
X4243527Y6351524D01*
X4235907Y6362903D01*
X4226864Y6373164D01*
X4216603Y6382207D01*
X4205224Y6389827D01*
X4192930Y6395872D01*
X4179976Y6400241D01*
X4166565Y6402933D01*
X4152900Y6403848D01*
X4139234Y6402933D01*
X4125823Y6400241D01*
X4112869Y6395872D01*
X4100576Y6389827D01*
X4089196Y6382207D01*
X4078935Y6373164D01*
X4069892Y6362903D01*
X4062272Y6351524D01*
X4056227Y6339230D01*
X4051858Y6326276D01*
X4049166Y6312865D01*
X4048251Y6299200D01*
X4049166Y6285534D01*
X4051858Y6272123D01*
X4056227Y6259169D01*
X4062272Y6246876D01*
X4069892Y6235496D01*
X4078935Y6225235D01*
X4089196Y6216192D01*
X4100576Y6208572D01*
X4112869Y6202527D01*
X4125823Y6198158D01*
X4139234Y6195466D01*
G37*
G36*
X4406900Y6194552D02*
G01*
X4420565Y6195466D01*
X4433976Y6198158D01*
X4446930Y6202527D01*
X4459224Y6208572D01*
X4470603Y6216192D01*
X4480864Y6225235D01*
X4489907Y6235496D01*
X4497527Y6246876D01*
X4503572Y6259169D01*
X4507941Y6272123D01*
X4510633Y6285534D01*
X4511548Y6299200D01*
X4510633Y6312865D01*
X4507941Y6326276D01*
X4503572Y6339230D01*
X4497527Y6351524D01*
X4489907Y6362903D01*
X4480864Y6373164D01*
X4470603Y6382207D01*
X4459224Y6389827D01*
X4446930Y6395872D01*
X4433976Y6400241D01*
X4420565Y6402933D01*
X4406900Y6403848D01*
X4393234Y6402933D01*
X4379823Y6400241D01*
X4366869Y6395872D01*
X4354576Y6389827D01*
X4343196Y6382207D01*
X4332935Y6373164D01*
X4323892Y6362903D01*
X4316272Y6351524D01*
X4310227Y6339230D01*
X4305858Y6326276D01*
X4303166Y6312865D01*
X4302252Y6299200D01*
X4303166Y6285534D01*
X4305858Y6272123D01*
X4310227Y6259169D01*
X4316272Y6246876D01*
X4323892Y6235496D01*
X4332935Y6225235D01*
X4343196Y6216192D01*
X4354576Y6208572D01*
X4366869Y6202527D01*
X4379823Y6198158D01*
X4393234Y6195466D01*
G37*
G36*
X4914900Y6194552D02*
G01*
X4928565Y6195466D01*
X4941976Y6198158D01*
X4954930Y6202527D01*
X4967224Y6208572D01*
X4978603Y6216192D01*
X4988864Y6225235D01*
X4997907Y6235496D01*
X5005527Y6246876D01*
X5011572Y6259169D01*
X5015941Y6272123D01*
X5018633Y6285534D01*
X5019548Y6299200D01*
X5018633Y6312865D01*
X5015941Y6326276D01*
X5011572Y6339230D01*
X5005527Y6351524D01*
X4997907Y6362903D01*
X4988864Y6373164D01*
X4978603Y6382207D01*
X4967224Y6389827D01*
X4954930Y6395872D01*
X4941976Y6400241D01*
X4928565Y6402933D01*
X4914900Y6403848D01*
X4901234Y6402933D01*
X4887823Y6400241D01*
X4874869Y6395872D01*
X4862576Y6389827D01*
X4851196Y6382207D01*
X4840935Y6373164D01*
X4831892Y6362903D01*
X4824272Y6351524D01*
X4818227Y6339230D01*
X4813858Y6326276D01*
X4811166Y6312865D01*
X4810252Y6299200D01*
X4811166Y6285534D01*
X4813858Y6272123D01*
X4818227Y6259169D01*
X4824272Y6246876D01*
X4831892Y6235496D01*
X4840935Y6225235D01*
X4851196Y6216192D01*
X4862576Y6208572D01*
X4874869Y6202527D01*
X4887823Y6198158D01*
X4901234Y6195466D01*
G37*
G36*
X3898900Y6194552D02*
G01*
X3912565Y6195466D01*
X3925976Y6198158D01*
X3938930Y6202527D01*
X3951224Y6208572D01*
X3962603Y6216192D01*
X3972864Y6225235D01*
X3981907Y6235496D01*
X3989527Y6246876D01*
X3995572Y6259169D01*
X3999941Y6272123D01*
X4002633Y6285534D01*
X4003548Y6299200D01*
X4002633Y6312865D01*
X3999941Y6326276D01*
X3995572Y6339230D01*
X3989527Y6351524D01*
X3981907Y6362903D01*
X3972864Y6373164D01*
X3962603Y6382207D01*
X3951224Y6389827D01*
X3938930Y6395872D01*
X3925976Y6400241D01*
X3912565Y6402933D01*
X3898900Y6403848D01*
X3885234Y6402933D01*
X3871823Y6400241D01*
X3858869Y6395872D01*
X3846576Y6389827D01*
X3835196Y6382207D01*
X3824935Y6373164D01*
X3815892Y6362903D01*
X3808272Y6351524D01*
X3802227Y6339230D01*
X3797858Y6326276D01*
X3795166Y6312865D01*
X3794251Y6299200D01*
X3795166Y6285534D01*
X3797858Y6272123D01*
X3802227Y6259169D01*
X3808272Y6246876D01*
X3815892Y6235496D01*
X3824935Y6225235D01*
X3835196Y6216192D01*
X3846576Y6208572D01*
X3858869Y6202527D01*
X3871823Y6198158D01*
X3885234Y6195466D01*
G37*
G36*
X4660900Y6194552D02*
G01*
X4674565Y6195466D01*
X4687976Y6198158D01*
X4700930Y6202527D01*
X4713224Y6208572D01*
X4724603Y6216192D01*
X4734864Y6225235D01*
X4743907Y6235496D01*
X4751527Y6246876D01*
X4757572Y6259169D01*
X4761941Y6272123D01*
X4764633Y6285534D01*
X4765548Y6299200D01*
X4764633Y6312865D01*
X4761941Y6326276D01*
X4757572Y6339230D01*
X4751527Y6351524D01*
X4743907Y6362903D01*
X4734864Y6373164D01*
X4724603Y6382207D01*
X4713224Y6389827D01*
X4700930Y6395872D01*
X4687976Y6400241D01*
X4674565Y6402933D01*
X4660900Y6403848D01*
X4647234Y6402933D01*
X4633823Y6400241D01*
X4620869Y6395872D01*
X4608576Y6389827D01*
X4597196Y6382207D01*
X4586935Y6373164D01*
X4577892Y6362903D01*
X4570272Y6351524D01*
X4564227Y6339230D01*
X4559858Y6326276D01*
X4557166Y6312865D01*
X4556252Y6299200D01*
X4557166Y6285534D01*
X4559858Y6272123D01*
X4564227Y6259169D01*
X4570272Y6246876D01*
X4577892Y6235496D01*
X4586935Y6225235D01*
X4597196Y6216192D01*
X4608576Y6208572D01*
X4620869Y6202527D01*
X4633823Y6198158D01*
X4647234Y6195466D01*
G37*
G36*
X3644900Y6194552D02*
G01*
X3658565Y6195466D01*
X3671976Y6198158D01*
X3684930Y6202527D01*
X3697224Y6208572D01*
X3708603Y6216192D01*
X3718864Y6225235D01*
X3727907Y6235496D01*
X3735527Y6246876D01*
X3741572Y6259169D01*
X3745941Y6272123D01*
X3748633Y6285534D01*
X3749548Y6299200D01*
X3748633Y6312865D01*
X3745941Y6326276D01*
X3741572Y6339230D01*
X3735527Y6351524D01*
X3727907Y6362903D01*
X3718864Y6373164D01*
X3708603Y6382207D01*
X3697224Y6389827D01*
X3684930Y6395872D01*
X3671976Y6400241D01*
X3658565Y6402933D01*
X3644900Y6403848D01*
X3631234Y6402933D01*
X3617823Y6400241D01*
X3604869Y6395872D01*
X3592576Y6389827D01*
X3581196Y6382207D01*
X3570935Y6373164D01*
X3561892Y6362903D01*
X3554272Y6351524D01*
X3548227Y6339230D01*
X3543858Y6326276D01*
X3541166Y6312865D01*
X3540251Y6299200D01*
X3541166Y6285534D01*
X3543858Y6272123D01*
X3548227Y6259169D01*
X3554272Y6246876D01*
X3561892Y6235496D01*
X3570935Y6225235D01*
X3581196Y6216192D01*
X3592576Y6208572D01*
X3604869Y6202527D01*
X3617823Y6198158D01*
X3631234Y6195466D01*
G37*
G36*
X3390900Y6194552D02*
G01*
X3404565Y6195466D01*
X3417976Y6198158D01*
X3430930Y6202527D01*
X3443224Y6208572D01*
X3454603Y6216192D01*
X3464864Y6225235D01*
X3473907Y6235496D01*
X3481527Y6246876D01*
X3487572Y6259169D01*
X3491941Y6272123D01*
X3494633Y6285534D01*
X3495548Y6299200D01*
X3494633Y6312865D01*
X3491941Y6326276D01*
X3487572Y6339230D01*
X3481527Y6351524D01*
X3473907Y6362903D01*
X3464864Y6373164D01*
X3454603Y6382207D01*
X3443224Y6389827D01*
X3430930Y6395872D01*
X3417976Y6400241D01*
X3404565Y6402933D01*
X3390900Y6403848D01*
X3377234Y6402933D01*
X3363823Y6400241D01*
X3350869Y6395872D01*
X3338576Y6389827D01*
X3327196Y6382207D01*
X3316935Y6373164D01*
X3307892Y6362903D01*
X3300272Y6351524D01*
X3294227Y6339230D01*
X3289858Y6326276D01*
X3287166Y6312865D01*
X3286251Y6299200D01*
X3287166Y6285534D01*
X3289858Y6272123D01*
X3294227Y6259169D01*
X3300272Y6246876D01*
X3307892Y6235496D01*
X3316935Y6225235D01*
X3327196Y6216192D01*
X3338576Y6208572D01*
X3350869Y6202527D01*
X3363823Y6198158D01*
X3377234Y6195466D01*
G37*
G36*
X1026718Y6194552D02*
G01*
X1183081Y6194552D01*
X1189380Y6195263D01*
X1194866Y6197193D01*
X1199743Y6200241D01*
X1203858Y6204356D01*
X1206906Y6209233D01*
X1208836Y6214719D01*
X1209548Y6221018D01*
X1209548Y6377381D01*
X1208836Y6383680D01*
X1206906Y6389166D01*
X1203858Y6394043D01*
X1199743Y6398158D01*
X1194866Y6401206D01*
X1189380Y6403136D01*
X1183081Y6403848D01*
X1026718Y6403848D01*
X1020419Y6403136D01*
X1014933Y6401206D01*
X1010056Y6398158D01*
X1005941Y6394043D01*
X1002893Y6389166D01*
X1000963Y6383680D01*
X1000252Y6377381D01*
X1000252Y6221018D01*
X1000963Y6214719D01*
X1002893Y6209233D01*
X1005941Y6204356D01*
X1010056Y6200241D01*
X1014933Y6197193D01*
X1020419Y6195263D01*
G37*
G36*
X5097576Y10446816D02*
G01*
X5116931Y10448239D01*
X5136032Y10451490D01*
X5154777Y10456621D01*
X5172913Y10463479D01*
X5190337Y10472115D01*
X5206847Y10482326D01*
X5222240Y10494111D01*
X5236464Y10507370D01*
X5249316Y10521899D01*
X5260746Y10537596D01*
X5270601Y10554309D01*
X5278780Y10571937D01*
X5285232Y10590225D01*
X5289854Y10609072D01*
X5292648Y10628274D01*
X5293614Y10647680D01*
X5292648Y10667085D01*
X5289854Y10686288D01*
X5285232Y10705134D01*
X5278780Y10723422D01*
X5270601Y10741050D01*
X5260746Y10757763D01*
X5249316Y10773460D01*
X5236464Y10787989D01*
X5222240Y10801248D01*
X5206847Y10813034D01*
X5190337Y10823244D01*
X5172913Y10831880D01*
X5154777Y10838738D01*
X5136032Y10843869D01*
X5116931Y10847120D01*
X5097576Y10848543D01*
X5078171Y10848035D01*
X5058867Y10845698D01*
X5039918Y10841532D01*
X5021478Y10835538D01*
X5003647Y10827766D01*
X4986680Y10818317D01*
X4970729Y10807293D01*
X4955895Y10794796D01*
X4942332Y10780877D01*
X4930190Y10765790D01*
X4919522Y10749534D01*
X4910531Y10732363D01*
X4903165Y10714380D01*
X4897628Y10695736D01*
X4893919Y10676686D01*
X4892040Y10657382D01*
X4892040Y10637977D01*
X4893919Y10618673D01*
X4897628Y10599623D01*
X4903165Y10580979D01*
X4910531Y10562996D01*
X4919522Y10545826D01*
X4930190Y10529570D01*
X4942332Y10514482D01*
X4955895Y10500563D01*
X4970729Y10488066D01*
X4986680Y10477042D01*
X5003647Y10467594D01*
X5021478Y10459821D01*
X5039918Y10453827D01*
X5058867Y10449661D01*
X5078171Y10447324D01*
G37*
G36*
X3644900Y6448552D02*
G01*
X3658565Y6449466D01*
X3671976Y6452158D01*
X3684930Y6456527D01*
X3697224Y6462572D01*
X3708603Y6470192D01*
X3718864Y6479235D01*
X3727907Y6489496D01*
X3735527Y6500876D01*
X3741572Y6513169D01*
X3745941Y6526123D01*
X3748633Y6539534D01*
X3749548Y6553200D01*
X3748633Y6566865D01*
X3745941Y6580276D01*
X3741572Y6593230D01*
X3735527Y6605524D01*
X3727907Y6616903D01*
X3718864Y6627164D01*
X3708603Y6636207D01*
X3697224Y6643827D01*
X3684930Y6649872D01*
X3671976Y6654241D01*
X3658565Y6656933D01*
X3644900Y6657848D01*
X3631234Y6656933D01*
X3617823Y6654241D01*
X3604869Y6649872D01*
X3592576Y6643827D01*
X3581196Y6636207D01*
X3570935Y6627164D01*
X3561892Y6616903D01*
X3554272Y6605524D01*
X3548227Y6593230D01*
X3543858Y6580276D01*
X3541166Y6566865D01*
X3540251Y6553200D01*
X3541166Y6539534D01*
X3543858Y6526123D01*
X3548227Y6513169D01*
X3554272Y6500876D01*
X3561892Y6489496D01*
X3570935Y6479235D01*
X3581196Y6470192D01*
X3592576Y6462572D01*
X3604869Y6456527D01*
X3617823Y6452158D01*
X3631234Y6449466D01*
G37*
G36*
X4660900Y6448552D02*
G01*
X4674565Y6449466D01*
X4687976Y6452158D01*
X4700930Y6456527D01*
X4713224Y6462572D01*
X4724603Y6470192D01*
X4734864Y6479235D01*
X4743907Y6489496D01*
X4751527Y6500876D01*
X4757572Y6513169D01*
X4761941Y6526123D01*
X4764633Y6539534D01*
X4765548Y6553200D01*
X4764633Y6566865D01*
X4761941Y6580276D01*
X4757572Y6593230D01*
X4751527Y6605524D01*
X4743907Y6616903D01*
X4734864Y6627164D01*
X4724603Y6636207D01*
X4713224Y6643827D01*
X4700930Y6649872D01*
X4687976Y6654241D01*
X4674565Y6656933D01*
X4660900Y6657848D01*
X4647234Y6656933D01*
X4633823Y6654241D01*
X4620869Y6649872D01*
X4608576Y6643827D01*
X4597196Y6636207D01*
X4586935Y6627164D01*
X4577892Y6616903D01*
X4570272Y6605524D01*
X4564227Y6593230D01*
X4559858Y6580276D01*
X4557166Y6566865D01*
X4556252Y6553200D01*
X4557166Y6539534D01*
X4559858Y6526123D01*
X4564227Y6513169D01*
X4570272Y6500876D01*
X4577892Y6489496D01*
X4586935Y6479235D01*
X4597196Y6470192D01*
X4608576Y6462572D01*
X4620869Y6456527D01*
X4633823Y6452158D01*
X4647234Y6449466D01*
G37*
G36*
X3306876Y10446816D02*
G01*
X3326231Y10448239D01*
X3345332Y10451490D01*
X3364077Y10456621D01*
X3382213Y10463479D01*
X3399637Y10472115D01*
X3416147Y10482326D01*
X3431540Y10494111D01*
X3445764Y10507370D01*
X3458616Y10521899D01*
X3470046Y10537596D01*
X3479901Y10554309D01*
X3488080Y10571937D01*
X3494532Y10590225D01*
X3499154Y10609072D01*
X3501948Y10628274D01*
X3502914Y10647680D01*
X3501948Y10667085D01*
X3499154Y10686288D01*
X3494532Y10705134D01*
X3488080Y10723422D01*
X3479901Y10741050D01*
X3470046Y10757763D01*
X3458616Y10773460D01*
X3445764Y10787989D01*
X3431540Y10801248D01*
X3416147Y10813034D01*
X3399637Y10823244D01*
X3382213Y10831880D01*
X3364077Y10838738D01*
X3345332Y10843869D01*
X3326231Y10847120D01*
X3306876Y10848543D01*
X3287471Y10848035D01*
X3268167Y10845698D01*
X3249218Y10841532D01*
X3230778Y10835538D01*
X3212947Y10827766D01*
X3195980Y10818317D01*
X3180029Y10807293D01*
X3165195Y10794796D01*
X3151632Y10780877D01*
X3139490Y10765790D01*
X3128822Y10749534D01*
X3119831Y10732363D01*
X3112465Y10714380D01*
X3106928Y10695736D01*
X3103219Y10676686D01*
X3101340Y10657382D01*
X3101340Y10637977D01*
X3103219Y10618673D01*
X3106928Y10599623D01*
X3112465Y10580979D01*
X3119831Y10562996D01*
X3128822Y10545826D01*
X3139490Y10529570D01*
X3151632Y10514482D01*
X3165195Y10500563D01*
X3180029Y10488066D01*
X3195980Y10477042D01*
X3212947Y10467594D01*
X3230778Y10459821D01*
X3249218Y10453827D01*
X3268167Y10449661D01*
X3287471Y10447324D01*
G37*
G36*
X2631236Y10365536D02*
G01*
X2650591Y10366959D01*
X2669692Y10370210D01*
X2688437Y10375341D01*
X2706573Y10382199D01*
X2723997Y10390835D01*
X2740507Y10401046D01*
X2755900Y10412831D01*
X2770124Y10426090D01*
X2782976Y10440619D01*
X2794406Y10456316D01*
X2804261Y10473029D01*
X2812440Y10490657D01*
X2818892Y10508945D01*
X2823514Y10527792D01*
X2826308Y10546994D01*
X2827274Y10566400D01*
X2826308Y10585805D01*
X2823514Y10605008D01*
X2818892Y10623854D01*
X2812440Y10642142D01*
X2804261Y10659770D01*
X2794406Y10676483D01*
X2782976Y10692180D01*
X2770124Y10706709D01*
X2755900Y10719968D01*
X2740507Y10731754D01*
X2723997Y10741964D01*
X2706573Y10750600D01*
X2688437Y10757458D01*
X2669692Y10762589D01*
X2650591Y10765840D01*
X2631236Y10767263D01*
X2611831Y10766755D01*
X2592527Y10764418D01*
X2573578Y10760252D01*
X2555138Y10754258D01*
X2537307Y10746486D01*
X2520340Y10737037D01*
X2504389Y10726013D01*
X2489555Y10713516D01*
X2475992Y10699597D01*
X2463850Y10684510D01*
X2453182Y10668254D01*
X2444191Y10651083D01*
X2436825Y10633100D01*
X2431288Y10614456D01*
X2427579Y10595406D01*
X2425700Y10576102D01*
X2425700Y10556697D01*
X2427579Y10537393D01*
X2431288Y10518343D01*
X2436825Y10499699D01*
X2444191Y10481716D01*
X2453182Y10464546D01*
X2463850Y10448290D01*
X2475992Y10433202D01*
X2489555Y10419283D01*
X2504389Y10406786D01*
X2520340Y10395762D01*
X2537307Y10386314D01*
X2555138Y10378541D01*
X2573578Y10372547D01*
X2592527Y10368381D01*
X2611831Y10366044D01*
G37*
G36*
X3987596Y10365536D02*
G01*
X4006951Y10366959D01*
X4026052Y10370210D01*
X4044797Y10375341D01*
X4062933Y10382199D01*
X4080357Y10390835D01*
X4096867Y10401046D01*
X4112260Y10412831D01*
X4126484Y10426090D01*
X4139336Y10440619D01*
X4150766Y10456316D01*
X4160621Y10473029D01*
X4168800Y10490657D01*
X4175251Y10508945D01*
X4179874Y10527792D01*
X4182668Y10546994D01*
X4183634Y10566400D01*
X4182668Y10585805D01*
X4179874Y10605008D01*
X4175251Y10623854D01*
X4168800Y10642142D01*
X4160621Y10659770D01*
X4150766Y10676483D01*
X4139336Y10692180D01*
X4126484Y10706709D01*
X4112260Y10719968D01*
X4096867Y10731754D01*
X4080357Y10741964D01*
X4062933Y10750600D01*
X4044797Y10757458D01*
X4026052Y10762589D01*
X4006951Y10765840D01*
X3987596Y10767263D01*
X3968191Y10766755D01*
X3948887Y10764418D01*
X3929938Y10760252D01*
X3911498Y10754258D01*
X3893667Y10746486D01*
X3876700Y10737037D01*
X3860749Y10726013D01*
X3845915Y10713516D01*
X3832351Y10699597D01*
X3820210Y10684510D01*
X3809542Y10668254D01*
X3800551Y10651083D01*
X3793185Y10633100D01*
X3787648Y10614456D01*
X3783939Y10595406D01*
X3782060Y10576102D01*
X3782060Y10556697D01*
X3783939Y10537393D01*
X3787648Y10518343D01*
X3793185Y10499699D01*
X3800551Y10481716D01*
X3809542Y10464546D01*
X3820210Y10448290D01*
X3832351Y10433202D01*
X3845915Y10419283D01*
X3860749Y10406786D01*
X3876700Y10395762D01*
X3893667Y10386314D01*
X3911498Y10378541D01*
X3929938Y10372547D01*
X3948887Y10368381D01*
X3968191Y10366044D01*
G37*
G36*
X5778296Y10365536D02*
G01*
X5797651Y10366959D01*
X5816752Y10370210D01*
X5835497Y10375341D01*
X5853633Y10382199D01*
X5871057Y10390835D01*
X5887567Y10401046D01*
X5902960Y10412831D01*
X5917184Y10426090D01*
X5930036Y10440619D01*
X5941466Y10456316D01*
X5951321Y10473029D01*
X5959500Y10490657D01*
X5965952Y10508945D01*
X5970574Y10527792D01*
X5973368Y10546994D01*
X5974334Y10566400D01*
X5973368Y10585805D01*
X5970574Y10605008D01*
X5965952Y10623854D01*
X5959500Y10642142D01*
X5951321Y10659770D01*
X5941466Y10676483D01*
X5930036Y10692180D01*
X5917184Y10706709D01*
X5902960Y10719968D01*
X5887567Y10731754D01*
X5871057Y10741964D01*
X5853633Y10750600D01*
X5835497Y10757458D01*
X5816752Y10762589D01*
X5797651Y10765840D01*
X5778296Y10767263D01*
X5758891Y10766755D01*
X5739587Y10764418D01*
X5720638Y10760252D01*
X5702198Y10754258D01*
X5684367Y10746486D01*
X5667400Y10737037D01*
X5651449Y10726013D01*
X5636615Y10713516D01*
X5623052Y10699597D01*
X5610910Y10684510D01*
X5600242Y10668254D01*
X5591251Y10651083D01*
X5583885Y10633100D01*
X5578348Y10614456D01*
X5574639Y10595406D01*
X5572760Y10576102D01*
X5572760Y10556697D01*
X5574639Y10537393D01*
X5578348Y10518343D01*
X5583885Y10499699D01*
X5591251Y10481716D01*
X5600242Y10464546D01*
X5610910Y10448290D01*
X5623052Y10433202D01*
X5636615Y10419283D01*
X5651449Y10406786D01*
X5667400Y10395762D01*
X5684367Y10386314D01*
X5702198Y10378541D01*
X5720638Y10372547D01*
X5739587Y10368381D01*
X5758891Y10366044D01*
G37*
G36*
X6637020Y7134352D02*
G01*
X6669481Y7134352D01*
X6675780Y7135063D01*
X6681266Y7136993D01*
X6686143Y7140041D01*
X6690258Y7144156D01*
X6693306Y7149033D01*
X6695236Y7154519D01*
X6695948Y7160818D01*
X6695948Y7193280D01*
X6637020Y7193280D01*
G37*
G36*
X1150620Y7350252D02*
G01*
X1183081Y7350252D01*
X1189380Y7350963D01*
X1194866Y7352893D01*
X1199743Y7355941D01*
X1203858Y7360056D01*
X1206906Y7364933D01*
X1208836Y7370419D01*
X1209548Y7376718D01*
X1209548Y7409180D01*
X1150620Y7409180D01*
G37*
G36*
X1026718Y7350252D02*
G01*
X1059180Y7350252D01*
X1059180Y7409180D01*
X1000252Y7409180D01*
X1000252Y7376718D01*
X1000963Y7370419D01*
X1002893Y7364933D01*
X1005941Y7360056D01*
X1010056Y7355941D01*
X1014933Y7352893D01*
X1020419Y7350963D01*
G37*
G36*
X3882491Y7385862D02*
G01*
X3897274Y7386320D01*
X3911854Y7388606D01*
X3926027Y7392670D01*
X3939641Y7398410D01*
X3952392Y7405776D01*
X3964178Y7414666D01*
X3974795Y7424928D01*
X3984040Y7436459D01*
X3991813Y7449007D01*
X3997960Y7462418D01*
X4002430Y7476439D01*
X4005173Y7490968D01*
X4006087Y7505700D01*
X4005173Y7520431D01*
X4002430Y7534960D01*
X3997960Y7548981D01*
X3991813Y7562392D01*
X3984040Y7574940D01*
X3974795Y7586472D01*
X3964178Y7596733D01*
X3952392Y7605623D01*
X3939641Y7612989D01*
X3926027Y7618730D01*
X3911854Y7622794D01*
X3897274Y7625080D01*
X3882491Y7625486D01*
X3867810Y7624165D01*
X3853383Y7621016D01*
X3839464Y7616088D01*
X3826256Y7609484D01*
X3813962Y7601356D01*
X3802735Y7591755D01*
X3792829Y7580833D01*
X3784295Y7568793D01*
X3777284Y7555788D01*
X3771950Y7542022D01*
X3768394Y7527747D01*
X3766565Y7513066D01*
X3766565Y7498334D01*
X3768394Y7483652D01*
X3771950Y7469378D01*
X3777284Y7455611D01*
X3784295Y7442606D01*
X3792829Y7430566D01*
X3802735Y7419644D01*
X3813962Y7410043D01*
X3826256Y7401915D01*
X3839464Y7395311D01*
X3853383Y7390384D01*
X3867810Y7387234D01*
G37*
G36*
X1150620Y7500620D02*
G01*
X1209548Y7500620D01*
X1209548Y7533081D01*
X1208836Y7539380D01*
X1206906Y7544866D01*
X1203858Y7549743D01*
X1199743Y7553858D01*
X1194866Y7556906D01*
X1189380Y7558836D01*
X1183081Y7559548D01*
X1150620Y7559548D01*
G37*
G36*
X1000252Y7500620D02*
G01*
X1059180Y7500620D01*
X1059180Y7559548D01*
X1026718Y7559548D01*
X1020419Y7558836D01*
X1014933Y7556906D01*
X1010056Y7553858D01*
X1005941Y7549743D01*
X1002893Y7544866D01*
X1000963Y7539380D01*
X1000252Y7533081D01*
G37*
G36*
X4421936Y10365536D02*
G01*
X4441291Y10366959D01*
X4460392Y10370210D01*
X4479137Y10375341D01*
X4497273Y10382199D01*
X4514697Y10390835D01*
X4531207Y10401046D01*
X4546600Y10412831D01*
X4560824Y10426090D01*
X4573676Y10440619D01*
X4585106Y10456316D01*
X4594961Y10473029D01*
X4603140Y10490657D01*
X4609592Y10508945D01*
X4614214Y10527792D01*
X4617008Y10546994D01*
X4617974Y10566400D01*
X4617008Y10585805D01*
X4614214Y10605008D01*
X4609592Y10623854D01*
X4603140Y10642142D01*
X4594961Y10659770D01*
X4585106Y10676483D01*
X4573676Y10692180D01*
X4560824Y10706709D01*
X4546600Y10719968D01*
X4531207Y10731754D01*
X4514697Y10741964D01*
X4497273Y10750600D01*
X4479137Y10757458D01*
X4460392Y10762589D01*
X4441291Y10765840D01*
X4421936Y10767263D01*
X4402531Y10766755D01*
X4383227Y10764418D01*
X4364278Y10760252D01*
X4345838Y10754258D01*
X4328007Y10746486D01*
X4311040Y10737037D01*
X4295089Y10726013D01*
X4280255Y10713516D01*
X4266692Y10699597D01*
X4254550Y10684510D01*
X4243882Y10668254D01*
X4234891Y10651083D01*
X4227525Y10633100D01*
X4221988Y10614456D01*
X4218279Y10595406D01*
X4216400Y10576102D01*
X4216400Y10556697D01*
X4218279Y10537393D01*
X4221988Y10518343D01*
X4227525Y10499699D01*
X4234891Y10481716D01*
X4243882Y10464546D01*
X4254550Y10448290D01*
X4266692Y10433202D01*
X4280255Y10419283D01*
X4295089Y10406786D01*
X4311040Y10395762D01*
X4328007Y10386314D01*
X4345838Y10378541D01*
X4364278Y10372547D01*
X4383227Y10368381D01*
X4402531Y10366044D01*
G37*
G36*
X3882491Y7754162D02*
G01*
X3897274Y7754620D01*
X3911854Y7756906D01*
X3926027Y7760970D01*
X3939641Y7766710D01*
X3952392Y7774076D01*
X3964178Y7782966D01*
X3974795Y7793228D01*
X3984040Y7804759D01*
X3991813Y7817307D01*
X3997960Y7830718D01*
X4002430Y7844739D01*
X4005173Y7859268D01*
X4006087Y7874000D01*
X4005173Y7888731D01*
X4002430Y7903260D01*
X3997960Y7917281D01*
X3991813Y7930692D01*
X3984040Y7943240D01*
X3974795Y7954772D01*
X3964178Y7965033D01*
X3952392Y7973923D01*
X3939641Y7981289D01*
X3926027Y7987030D01*
X3911854Y7991094D01*
X3897274Y7993380D01*
X3882491Y7993786D01*
X3867810Y7992465D01*
X3853383Y7989316D01*
X3839464Y7984388D01*
X3826256Y7977784D01*
X3813962Y7969656D01*
X3802735Y7960055D01*
X3792829Y7949133D01*
X3784295Y7937093D01*
X3777284Y7924088D01*
X3771950Y7910322D01*
X3768394Y7896047D01*
X3766565Y7881366D01*
X3766565Y7866634D01*
X3768394Y7851952D01*
X3771950Y7837678D01*
X3777284Y7823911D01*
X3784295Y7810906D01*
X3792829Y7798866D01*
X3802735Y7787944D01*
X3813962Y7778343D01*
X3826256Y7770215D01*
X3839464Y7763611D01*
X3853383Y7758684D01*
X3867810Y7755534D01*
G37*
G36*
X2864612Y10308590D02*
G01*
X2919730Y10308590D01*
X2919730Y10363708D01*
X2891078Y10363708D01*
X2884779Y10362996D01*
X2879293Y10361066D01*
X2874416Y10358018D01*
X2870301Y10353903D01*
X2867253Y10349026D01*
X2865323Y10343540D01*
X2864612Y10337241D01*
G37*
G36*
X3470198Y8124647D02*
G01*
X3484930Y8125104D01*
X3499510Y8127390D01*
X3513734Y8131403D01*
X3527298Y8137194D01*
X3540099Y8144560D01*
X3551885Y8153450D01*
X3562451Y8163712D01*
X3571697Y8175193D01*
X3579469Y8187740D01*
X3585667Y8201152D01*
X3590137Y8215223D01*
X3592829Y8229752D01*
X3593744Y8244484D01*
X3592829Y8259216D01*
X3590137Y8273694D01*
X3585667Y8287766D01*
X3579469Y8301177D01*
X3571697Y8313724D01*
X3562451Y8325205D01*
X3551885Y8335518D01*
X3540099Y8344408D01*
X3527298Y8351774D01*
X3518712Y8355431D01*
X3515410Y8357616D01*
X3513277Y8360918D01*
X3512515Y8364778D01*
X3512515Y8491423D01*
X3513277Y8495284D01*
X3515410Y8498535D01*
X3518712Y8500770D01*
X3532378Y8506561D01*
X3545179Y8513927D01*
X3556965Y8522817D01*
X3567531Y8533079D01*
X3576777Y8544610D01*
X3584549Y8557158D01*
X3590747Y8570569D01*
X3595217Y8584641D01*
X3597910Y8599119D01*
X3598824Y8613851D01*
X3597910Y8628583D01*
X3595217Y8643112D01*
X3590747Y8657183D01*
X3584549Y8670544D01*
X3576777Y8683091D01*
X3567531Y8694623D01*
X3556965Y8704884D01*
X3545179Y8713774D01*
X3532378Y8721140D01*
X3518814Y8726932D01*
X3504590Y8730945D01*
X3490010Y8733231D01*
X3475278Y8733688D01*
X3460597Y8732316D01*
X3446170Y8729167D01*
X3432251Y8724239D01*
X3419043Y8717686D01*
X3406749Y8709507D01*
X3395522Y8699906D01*
X3385565Y8688984D01*
X3377031Y8676944D01*
X3370072Y8663940D01*
X3364737Y8650173D01*
X3361131Y8635898D01*
X3359302Y8621217D01*
X3359302Y8606485D01*
X3361131Y8591854D01*
X3364737Y8577529D01*
X3370072Y8563762D01*
X3377031Y8550757D01*
X3385565Y8538718D01*
X3395522Y8527796D01*
X3406749Y8518194D01*
X3419043Y8510066D01*
X3429660Y8504783D01*
X3432606Y8502497D01*
X3434587Y8499348D01*
X3435299Y8495690D01*
X3435299Y8364931D01*
X3434435Y8360867D01*
X3432048Y8357463D01*
X3413963Y8348268D01*
X3401618Y8340140D01*
X3390442Y8330539D01*
X3380486Y8319617D01*
X3371951Y8307578D01*
X3364992Y8294573D01*
X3359658Y8280806D01*
X3356051Y8266480D01*
X3354222Y8251850D01*
X3354222Y8237118D01*
X3356051Y8222437D01*
X3359658Y8208111D01*
X3364992Y8194395D01*
X3371951Y8181390D01*
X3380486Y8169300D01*
X3390442Y8158429D01*
X3401618Y8148828D01*
X3413963Y8140649D01*
X3427171Y8134096D01*
X3441090Y8129168D01*
X3455466Y8126018D01*
G37*
G36*
X3926840Y8134959D02*
G01*
X3939692Y8142376D01*
X3951478Y8151266D01*
X3962095Y8161528D01*
X3971340Y8173059D01*
X3979113Y8185607D01*
X3980637Y8188959D01*
X3926840Y8188959D01*
G37*
G36*
X3820160Y8135213D02*
G01*
X3820160Y8188959D01*
X3766362Y8188959D01*
X3771595Y8179206D01*
X3780129Y8167166D01*
X3790035Y8156244D01*
X3801262Y8146643D01*
X3813556Y8138515D01*
G37*
G36*
X3766362Y8295640D02*
G01*
X3820160Y8295640D01*
X3820160Y8349386D01*
X3813556Y8346084D01*
X3801262Y8337956D01*
X3790035Y8328355D01*
X3780129Y8317433D01*
X3771595Y8305393D01*
G37*
G36*
X3926840Y8295640D02*
G01*
X3980637Y8295640D01*
X3979113Y8298992D01*
X3971340Y8311540D01*
X3962095Y8323072D01*
X3951478Y8333333D01*
X3939692Y8342223D01*
X3926840Y8349640D01*
G37*
G36*
X3926840Y8515959D02*
G01*
X3939692Y8523376D01*
X3951478Y8532266D01*
X3962095Y8542528D01*
X3971340Y8554059D01*
X3979113Y8566607D01*
X3980637Y8569960D01*
X3926840Y8569960D01*
G37*
G36*
X3820160Y8516213D02*
G01*
X3820160Y8569960D01*
X3766362Y8569960D01*
X3771595Y8560206D01*
X3780129Y8548166D01*
X3790035Y8537244D01*
X3801262Y8527643D01*
X3813556Y8519515D01*
G37*
G36*
X3766362Y8676640D02*
G01*
X3820160Y8676640D01*
X3820160Y8730386D01*
X3813556Y8727084D01*
X3801262Y8718956D01*
X3790035Y8709355D01*
X3780129Y8698433D01*
X3771595Y8686393D01*
G37*
G36*
X1976170Y6151778D02*
G01*
X2425750Y6151778D01*
X2433777Y6152591D01*
X2440990Y6154775D01*
X2447696Y6158331D01*
X2453894Y6163462D01*
X2529128Y6238697D01*
X2532938Y6241084D01*
X2537358Y6241643D01*
X2541574Y6240221D01*
X2544775Y6237173D01*
X2545892Y6235496D01*
X2554935Y6225235D01*
X2565196Y6216192D01*
X2576576Y6208572D01*
X2588869Y6202527D01*
X2601823Y6198158D01*
X2615234Y6195466D01*
X2628900Y6194552D01*
X2642565Y6195466D01*
X2655976Y6198158D01*
X2668930Y6202527D01*
X2681224Y6208572D01*
X2692603Y6216192D01*
X2702864Y6225235D01*
X2711907Y6235496D01*
X2719527Y6246876D01*
X2725572Y6259169D01*
X2729941Y6272123D01*
X2732633Y6285534D01*
X2733548Y6299200D01*
X2732633Y6312865D01*
X2729941Y6326276D01*
X2725572Y6339230D01*
X2719425Y6351676D01*
X2717800Y6355740D01*
X2718054Y6360058D01*
X2720136Y6363919D01*
X2723591Y6366560D01*
X2727858Y6367475D01*
X2783941Y6367475D01*
X2788208Y6366560D01*
X2791663Y6363919D01*
X2793746Y6360058D01*
X2794000Y6355740D01*
X2792272Y6351524D01*
X2786227Y6339230D01*
X2781858Y6326276D01*
X2779166Y6312865D01*
X2778252Y6299200D01*
X2779166Y6285534D01*
X2781858Y6272123D01*
X2786227Y6259169D01*
X2792272Y6246876D01*
X2799892Y6235496D01*
X2808935Y6225235D01*
X2819196Y6216192D01*
X2830576Y6208572D01*
X2842869Y6202527D01*
X2855823Y6198158D01*
X2869234Y6195466D01*
X2882900Y6194552D01*
X2896565Y6195466D01*
X2909976Y6198158D01*
X2922930Y6202527D01*
X2935224Y6208572D01*
X2946603Y6216192D01*
X2956864Y6225235D01*
X2965907Y6235496D01*
X2973527Y6246876D01*
X2979572Y6259169D01*
X2983941Y6272123D01*
X2986633Y6285534D01*
X2987548Y6299200D01*
X2986633Y6312865D01*
X2983941Y6326276D01*
X2979572Y6339230D01*
X2973425Y6351676D01*
X2971800Y6355740D01*
X2972054Y6360058D01*
X2974136Y6363919D01*
X2977591Y6366560D01*
X2981858Y6367475D01*
X3037941Y6367475D01*
X3042208Y6366560D01*
X3045663Y6363919D01*
X3047746Y6360058D01*
X3048000Y6355740D01*
X3046272Y6351524D01*
X3040227Y6339230D01*
X3035858Y6326276D01*
X3033166Y6312865D01*
X3032252Y6299200D01*
X3033166Y6285534D01*
X3035858Y6272123D01*
X3040227Y6259169D01*
X3046272Y6246876D01*
X3053892Y6235496D01*
X3062935Y6225235D01*
X3073196Y6216192D01*
X3084576Y6208572D01*
X3096869Y6202527D01*
X3109823Y6198158D01*
X3123234Y6195466D01*
X3136900Y6194552D01*
X3150565Y6195466D01*
X3163976Y6198158D01*
X3176930Y6202527D01*
X3189224Y6208572D01*
X3200603Y6216192D01*
X3210864Y6225235D01*
X3219907Y6235496D01*
X3227527Y6246876D01*
X3233572Y6259169D01*
X3237941Y6272123D01*
X3240633Y6285534D01*
X3241548Y6299200D01*
X3240633Y6312865D01*
X3237941Y6326276D01*
X3233572Y6339230D01*
X3227527Y6351524D01*
X3219907Y6362903D01*
X3210864Y6373164D01*
X3199942Y6382715D01*
X3197453Y6386017D01*
X3196488Y6390030D01*
X3197199Y6394094D01*
X3199485Y6397548D01*
X3270707Y6468821D01*
X3275838Y6475069D01*
X3279394Y6481724D01*
X3281578Y6488938D01*
X3282238Y6495491D01*
X3283458Y6499402D01*
X3286150Y6502552D01*
X3289909Y6504330D01*
X3294024Y6504482D01*
X3297834Y6503009D01*
X3300780Y6500114D01*
X3307892Y6489496D01*
X3316935Y6479235D01*
X3327196Y6470192D01*
X3338576Y6462572D01*
X3350869Y6456527D01*
X3363823Y6452158D01*
X3377234Y6449466D01*
X3390900Y6448552D01*
X3404565Y6449466D01*
X3417976Y6452158D01*
X3430930Y6456527D01*
X3443224Y6462572D01*
X3454603Y6470192D01*
X3464864Y6479235D01*
X3473907Y6489496D01*
X3481527Y6500876D01*
X3487572Y6513169D01*
X3491941Y6526123D01*
X3494633Y6539534D01*
X3495548Y6553200D01*
X3494633Y6566865D01*
X3491941Y6580276D01*
X3487572Y6593230D01*
X3481527Y6605524D01*
X3473907Y6616903D01*
X3464864Y6627164D01*
X3454603Y6636207D01*
X3443224Y6643827D01*
X3430930Y6649872D01*
X3417976Y6654241D01*
X3409797Y6655866D01*
X3405835Y6657644D01*
X3402939Y6660896D01*
X3401669Y6665061D01*
X3402279Y6669379D01*
X3404615Y6673037D01*
X3459124Y6727545D01*
X3462426Y6729780D01*
X3466337Y6730542D01*
X4028643Y6730542D01*
X4032554Y6729780D01*
X4035856Y6727545D01*
X4038041Y6724294D01*
X4038803Y6720382D01*
X4038041Y6716471D01*
X4035856Y6713220D01*
X3966260Y6643624D01*
X3963415Y6641592D01*
X3960063Y6640677D01*
X3956608Y6640931D01*
X3953408Y6642353D01*
X3951224Y6643827D01*
X3938930Y6649872D01*
X3925976Y6654241D01*
X3912565Y6656933D01*
X3898900Y6657848D01*
X3885234Y6656933D01*
X3871823Y6654241D01*
X3858869Y6649872D01*
X3846576Y6643827D01*
X3835196Y6636207D01*
X3824935Y6627164D01*
X3815892Y6616903D01*
X3808272Y6605524D01*
X3802227Y6593230D01*
X3797858Y6580276D01*
X3795166Y6566865D01*
X3794251Y6553200D01*
X3795166Y6539534D01*
X3797858Y6526123D01*
X3802227Y6513169D01*
X3808272Y6500876D01*
X3815892Y6489496D01*
X3824935Y6479235D01*
X3835196Y6470192D01*
X3846576Y6462572D01*
X3858869Y6456527D01*
X3871823Y6452158D01*
X3885234Y6449466D01*
X3898900Y6448552D01*
X3912565Y6449466D01*
X3925976Y6452158D01*
X3938930Y6456527D01*
X3951224Y6462572D01*
X3962603Y6470192D01*
X3972864Y6479235D01*
X3981907Y6489496D01*
X3989527Y6500876D01*
X3995572Y6513169D01*
X3999941Y6526123D01*
X4002633Y6539534D01*
X4003548Y6553200D01*
X4002684Y6565950D01*
X4003344Y6570167D01*
X4005630Y6573774D01*
X4043019Y6611162D01*
X4046423Y6613448D01*
X4050385Y6614159D01*
X4054348Y6613296D01*
X4057650Y6610908D01*
X4059783Y6607454D01*
X4060342Y6603441D01*
X4059326Y6599529D01*
X4056227Y6593230D01*
X4051858Y6580276D01*
X4049166Y6566865D01*
X4048251Y6553200D01*
X4049166Y6539534D01*
X4051858Y6526123D01*
X4056227Y6513169D01*
X4062272Y6500876D01*
X4069892Y6489496D01*
X4078935Y6479235D01*
X4089196Y6470192D01*
X4100576Y6462572D01*
X4112869Y6456527D01*
X4125823Y6452158D01*
X4139234Y6449466D01*
X4152900Y6448552D01*
X4166565Y6449466D01*
X4179976Y6452158D01*
X4192930Y6456527D01*
X4205224Y6462572D01*
X4216603Y6470192D01*
X4226864Y6479235D01*
X4235907Y6489496D01*
X4243527Y6500876D01*
X4249572Y6513169D01*
X4253941Y6526123D01*
X4256633Y6539534D01*
X4257548Y6553200D01*
X4256633Y6566865D01*
X4253941Y6580276D01*
X4251096Y6588759D01*
X4250537Y6592468D01*
X4251401Y6596125D01*
X4253534Y6599224D01*
X5366918Y7712608D01*
X5370169Y7714792D01*
X5374081Y7715554D01*
X5377992Y7714792D01*
X5381244Y7712608D01*
X5383479Y7709306D01*
X5384241Y7705394D01*
X5384241Y7589367D01*
X5383479Y7585456D01*
X5381244Y7582153D01*
X4452924Y6653834D01*
X4449826Y6651701D01*
X4446168Y6650837D01*
X4442460Y6651396D01*
X4433976Y6654241D01*
X4420565Y6656933D01*
X4406900Y6657848D01*
X4393234Y6656933D01*
X4379823Y6654241D01*
X4366869Y6649872D01*
X4354576Y6643827D01*
X4343196Y6636207D01*
X4332935Y6627164D01*
X4323892Y6616903D01*
X4316272Y6605524D01*
X4310227Y6593230D01*
X4305858Y6580276D01*
X4303166Y6566865D01*
X4302252Y6553200D01*
X4303166Y6539534D01*
X4305858Y6526123D01*
X4310227Y6513169D01*
X4316272Y6500876D01*
X4323892Y6489496D01*
X4332935Y6479235D01*
X4343196Y6470192D01*
X4354576Y6462572D01*
X4366869Y6456527D01*
X4379823Y6452158D01*
X4393234Y6449466D01*
X4406900Y6448552D01*
X4420565Y6449466D01*
X4433976Y6452158D01*
X4446930Y6456527D01*
X4459224Y6462572D01*
X4470603Y6470192D01*
X4480864Y6479235D01*
X4489907Y6489496D01*
X4497527Y6500876D01*
X4503572Y6513169D01*
X4507941Y6526123D01*
X4510633Y6539534D01*
X4511548Y6553200D01*
X4510633Y6566865D01*
X4507941Y6580276D01*
X4505096Y6588759D01*
X4504537Y6592468D01*
X4505401Y6596125D01*
X4507534Y6599224D01*
X4858969Y6950659D01*
X4862220Y6952843D01*
X4866132Y6953605D01*
X4870043Y6952843D01*
X4873294Y6950659D01*
X4875530Y6947357D01*
X4876292Y6943445D01*
X4876292Y6656882D01*
X4875580Y6653225D01*
X4873599Y6650024D01*
X4870602Y6647789D01*
X4862576Y6643827D01*
X4851196Y6636207D01*
X4840935Y6627164D01*
X4831892Y6616903D01*
X4824272Y6605524D01*
X4818227Y6593230D01*
X4813858Y6580276D01*
X4811166Y6566865D01*
X4810252Y6553200D01*
X4811166Y6539534D01*
X4813858Y6526123D01*
X4818227Y6513169D01*
X4824272Y6500876D01*
X4831892Y6489496D01*
X4840935Y6479235D01*
X4851196Y6470192D01*
X4862576Y6462572D01*
X4874869Y6456527D01*
X4887823Y6452158D01*
X4901234Y6449466D01*
X4914900Y6448552D01*
X4928565Y6449466D01*
X4941976Y6452158D01*
X4954930Y6456527D01*
X4967224Y6462572D01*
X4978603Y6470192D01*
X4988864Y6479235D01*
X4998008Y6489649D01*
X5001056Y6492646D01*
X5005120Y6494068D01*
X5009388Y6493713D01*
X5013147Y6491630D01*
X5015687Y6488176D01*
X5016601Y6484010D01*
X5016601Y6413398D01*
X5017414Y6405372D01*
X5019598Y6398158D01*
X5023154Y6391452D01*
X5028285Y6385255D01*
X5068265Y6345224D01*
X5070398Y6342126D01*
X5071262Y6338468D01*
X5070703Y6334760D01*
X5067858Y6326276D01*
X5065166Y6312865D01*
X5064252Y6299200D01*
X5065166Y6285534D01*
X5067858Y6272123D01*
X5072227Y6259169D01*
X5078272Y6246876D01*
X5085892Y6235496D01*
X5094935Y6225235D01*
X5105196Y6216192D01*
X5116576Y6208572D01*
X5128869Y6202527D01*
X5141823Y6198158D01*
X5155234Y6195466D01*
X5168900Y6194552D01*
X5182565Y6195466D01*
X5195976Y6198158D01*
X5208930Y6202527D01*
X5221224Y6208572D01*
X5232603Y6216192D01*
X5242864Y6225235D01*
X5251907Y6235496D01*
X5259527Y6246876D01*
X5265572Y6259169D01*
X5269941Y6272123D01*
X5272633Y6285534D01*
X5273548Y6299200D01*
X5272633Y6312865D01*
X5269941Y6326276D01*
X5265572Y6339230D01*
X5259527Y6351524D01*
X5251907Y6362903D01*
X5242864Y6373164D01*
X5232603Y6382207D01*
X5221224Y6389827D01*
X5208930Y6395872D01*
X5195976Y6400241D01*
X5182565Y6402933D01*
X5168900Y6403848D01*
X5155234Y6402933D01*
X5141823Y6400241D01*
X5133340Y6397396D01*
X5129631Y6396837D01*
X5125974Y6397701D01*
X5122875Y6399834D01*
X5096814Y6425895D01*
X5094579Y6429197D01*
X5093817Y6433108D01*
X5093817Y6458813D01*
X5094732Y6463030D01*
X5097373Y6466535D01*
X5101234Y6468567D01*
X5105552Y6468821D01*
X5109616Y6467246D01*
X5116576Y6462572D01*
X5128869Y6456527D01*
X5141823Y6452158D01*
X5155234Y6449466D01*
X5168900Y6448552D01*
X5182565Y6449466D01*
X5195976Y6452158D01*
X5208930Y6456527D01*
X5221224Y6462572D01*
X5232603Y6470192D01*
X5242864Y6479235D01*
X5251907Y6489496D01*
X5259527Y6500876D01*
X5265572Y6513169D01*
X5269941Y6526123D01*
X5272633Y6539534D01*
X5273548Y6553200D01*
X5272633Y6566865D01*
X5269941Y6580276D01*
X5265572Y6593230D01*
X5259527Y6605524D01*
X5251907Y6616903D01*
X5242864Y6627164D01*
X5232603Y6636207D01*
X5221224Y6643827D01*
X5213197Y6647789D01*
X5210200Y6650024D01*
X5208219Y6653225D01*
X5207508Y6656882D01*
X5207508Y7067956D01*
X5208270Y7071868D01*
X5210505Y7075170D01*
X5502859Y7367524D01*
X5506567Y7369911D01*
X5510936Y7370470D01*
X5515102Y7369149D01*
X5518353Y7366152D01*
X5520690Y7362799D01*
X5527649Y7355840D01*
X5535726Y7350252D01*
X5544616Y7346086D01*
X5554116Y7343546D01*
X5563920Y7342682D01*
X5573674Y7343546D01*
X5583174Y7346086D01*
X5592064Y7350252D01*
X5600141Y7355840D01*
X5607100Y7362799D01*
X5612688Y7370876D01*
X5616854Y7379766D01*
X5619394Y7389266D01*
X5620105Y7397292D01*
X5621020Y7400696D01*
X5623052Y7403592D01*
X6470091Y8250631D01*
X6473240Y8252764D01*
X6477050Y8253577D01*
X6480810Y8252917D01*
X6484112Y8250936D01*
X6486398Y8247837D01*
X6487363Y8244078D01*
X6487566Y8241334D01*
X6490258Y8227923D01*
X6493103Y8219440D01*
X6493662Y8215731D01*
X6492798Y8212074D01*
X6490665Y8208975D01*
X5395976Y7114235D01*
X5390845Y7108037D01*
X5387289Y7101331D01*
X5385104Y7094118D01*
X5384292Y7086092D01*
X5384292Y6656882D01*
X5383580Y6653225D01*
X5381599Y6650024D01*
X5378602Y6647789D01*
X5370576Y6643827D01*
X5359196Y6636207D01*
X5348935Y6627164D01*
X5339892Y6616903D01*
X5332272Y6605524D01*
X5326227Y6593230D01*
X5321858Y6580276D01*
X5319166Y6566865D01*
X5318252Y6553200D01*
X5319166Y6539534D01*
X5321858Y6526123D01*
X5326227Y6513169D01*
X5332272Y6500876D01*
X5339892Y6489496D01*
X5348935Y6479235D01*
X5359196Y6470192D01*
X5370576Y6462572D01*
X5382869Y6456527D01*
X5395823Y6452158D01*
X5409234Y6449466D01*
X5422900Y6448552D01*
X5436565Y6449466D01*
X5449976Y6452158D01*
X5462930Y6456527D01*
X5475224Y6462572D01*
X5486603Y6470192D01*
X5494426Y6477050D01*
X5497779Y6479032D01*
X5501589Y6479590D01*
X5505348Y6478676D01*
X5508447Y6476441D01*
X5510580Y6473240D01*
X5511292Y6469430D01*
X5511292Y6446418D01*
X5510530Y6442506D01*
X5508294Y6439204D01*
X5468924Y6399834D01*
X5465826Y6397701D01*
X5462168Y6396837D01*
X5458460Y6397396D01*
X5449976Y6400241D01*
X5436565Y6402933D01*
X5422900Y6403848D01*
X5409234Y6402933D01*
X5395823Y6400241D01*
X5382869Y6395872D01*
X5370576Y6389827D01*
X5359196Y6382207D01*
X5348935Y6373164D01*
X5339892Y6362903D01*
X5332272Y6351524D01*
X5326227Y6339230D01*
X5321858Y6326276D01*
X5319166Y6312865D01*
X5318252Y6299200D01*
X5319166Y6285534D01*
X5321858Y6272123D01*
X5326227Y6259169D01*
X5332272Y6246876D01*
X5339892Y6235496D01*
X5348935Y6225235D01*
X5359196Y6216192D01*
X5370576Y6208572D01*
X5382869Y6202527D01*
X5395823Y6198158D01*
X5409234Y6195466D01*
X5422900Y6194552D01*
X5436565Y6195466D01*
X5449976Y6198158D01*
X5462930Y6202527D01*
X5475224Y6208572D01*
X5486603Y6216192D01*
X5496864Y6225235D01*
X5505907Y6235496D01*
X5513527Y6246876D01*
X5519572Y6259169D01*
X5523941Y6272123D01*
X5526633Y6285534D01*
X5527548Y6299200D01*
X5526633Y6312865D01*
X5523941Y6326276D01*
X5521096Y6334760D01*
X5520537Y6338468D01*
X5521401Y6342126D01*
X5523534Y6345224D01*
X5576824Y6398564D01*
X5581954Y6404762D01*
X5585510Y6411468D01*
X5587695Y6418681D01*
X5588508Y6426708D01*
X5588508Y6469430D01*
X5589219Y6473240D01*
X5591352Y6476441D01*
X5594451Y6478676D01*
X5598210Y6479590D01*
X5602020Y6479032D01*
X5605373Y6477050D01*
X5613196Y6470192D01*
X5624576Y6462572D01*
X5636869Y6456527D01*
X5649823Y6452158D01*
X5663234Y6449466D01*
X5676900Y6448552D01*
X5690565Y6449466D01*
X5703976Y6452158D01*
X5716930Y6456527D01*
X5729224Y6462572D01*
X5740603Y6470192D01*
X5750864Y6479235D01*
X5759907Y6489496D01*
X5767527Y6500876D01*
X5773572Y6513169D01*
X5777941Y6526123D01*
X5780633Y6539534D01*
X5781548Y6553200D01*
X5780633Y6566865D01*
X5777941Y6580276D01*
X5773572Y6593230D01*
X5767527Y6605524D01*
X5759907Y6616903D01*
X5750864Y6627164D01*
X5740603Y6636207D01*
X5729224Y6643827D01*
X5716930Y6649872D01*
X5703976Y6654241D01*
X5690565Y6656933D01*
X5676900Y6657848D01*
X5663234Y6656933D01*
X5649823Y6654241D01*
X5636869Y6649872D01*
X5624576Y6643827D01*
X5613196Y6636207D01*
X5605373Y6629349D01*
X5602020Y6627368D01*
X5598210Y6626809D01*
X5594451Y6627723D01*
X5591352Y6629958D01*
X5589219Y6633159D01*
X5588508Y6636969D01*
X5588508Y6685381D01*
X5589270Y6689293D01*
X5591505Y6692595D01*
X6545275Y7646365D01*
X6548374Y7648498D01*
X6552031Y7649362D01*
X6555740Y7648803D01*
X6564223Y7645958D01*
X6577634Y7643266D01*
X6591300Y7642352D01*
X6604965Y7643266D01*
X6618376Y7645958D01*
X6631330Y7650327D01*
X6643624Y7656372D01*
X6654393Y7663586D01*
X6658457Y7665212D01*
X6662826Y7664958D01*
X6666636Y7662875D01*
X6669278Y7659420D01*
X6670243Y7655153D01*
X6670243Y7584846D01*
X6669278Y7580579D01*
X6666636Y7577124D01*
X6662826Y7575042D01*
X6658457Y7574788D01*
X6654393Y7576413D01*
X6643624Y7583627D01*
X6631330Y7589672D01*
X6618376Y7594041D01*
X6604965Y7596733D01*
X6591300Y7597648D01*
X6577634Y7596733D01*
X6564223Y7594041D01*
X6551269Y7589672D01*
X6538976Y7583627D01*
X6527596Y7576007D01*
X6517335Y7566964D01*
X6508292Y7556703D01*
X6500672Y7545324D01*
X6494627Y7533030D01*
X6490258Y7520076D01*
X6487566Y7506665D01*
X6486652Y7493000D01*
X6487718Y7475880D01*
X6486753Y7472730D01*
X6484823Y7470038D01*
X6067298Y7052462D01*
X6062167Y7046264D01*
X6058611Y7039559D01*
X6056426Y7032345D01*
X6055614Y7024319D01*
X6055614Y6577888D01*
X6054852Y6573977D01*
X6052616Y6570675D01*
X6050432Y6568490D01*
X6046774Y6566103D01*
X6042456Y6565544D01*
X6038291Y6566814D01*
X6035040Y6569659D01*
X6033262Y6573672D01*
X6031941Y6580276D01*
X6027572Y6593230D01*
X6021527Y6605524D01*
X6013907Y6616903D01*
X6004864Y6627164D01*
X5994603Y6636207D01*
X5983224Y6643827D01*
X5970930Y6649872D01*
X5957976Y6654241D01*
X5944565Y6656933D01*
X5930900Y6657848D01*
X5917234Y6656933D01*
X5903823Y6654241D01*
X5890869Y6649872D01*
X5878576Y6643827D01*
X5867196Y6636207D01*
X5856935Y6627164D01*
X5847892Y6616903D01*
X5840272Y6605524D01*
X5834227Y6593230D01*
X5829858Y6580276D01*
X5827166Y6566865D01*
X5826252Y6553200D01*
X5827166Y6539534D01*
X5829858Y6526123D01*
X5834227Y6513169D01*
X5840272Y6500876D01*
X5847892Y6489496D01*
X5854750Y6481673D01*
X5856732Y6478320D01*
X5857290Y6474510D01*
X5856376Y6470751D01*
X5854141Y6467652D01*
X5850940Y6465519D01*
X5847130Y6464808D01*
X5804408Y6464808D01*
X5796381Y6463995D01*
X5789168Y6461810D01*
X5782462Y6458254D01*
X5776264Y6453124D01*
X5722924Y6399834D01*
X5719826Y6397701D01*
X5716168Y6396837D01*
X5712460Y6397396D01*
X5703976Y6400241D01*
X5690565Y6402933D01*
X5676900Y6403848D01*
X5663234Y6402933D01*
X5649823Y6400241D01*
X5636869Y6395872D01*
X5624576Y6389827D01*
X5613196Y6382207D01*
X5602935Y6373164D01*
X5593892Y6362903D01*
X5586272Y6351524D01*
X5580227Y6339230D01*
X5575858Y6326276D01*
X5573166Y6312865D01*
X5572252Y6299200D01*
X5573166Y6285534D01*
X5575858Y6272123D01*
X5580227Y6259169D01*
X5586272Y6246876D01*
X5593892Y6235496D01*
X5602935Y6225235D01*
X5613196Y6216192D01*
X5624576Y6208572D01*
X5636869Y6202527D01*
X5649823Y6198158D01*
X5663234Y6195466D01*
X5676900Y6194552D01*
X5690565Y6195466D01*
X5703976Y6198158D01*
X5716930Y6202527D01*
X5729224Y6208572D01*
X5740603Y6216192D01*
X5750864Y6225235D01*
X5759907Y6235496D01*
X5767527Y6246876D01*
X5773572Y6259169D01*
X5777941Y6272123D01*
X5780633Y6285534D01*
X5781548Y6299200D01*
X5780633Y6312865D01*
X5777941Y6326276D01*
X5775096Y6334760D01*
X5774537Y6338468D01*
X5775401Y6342126D01*
X5777534Y6345224D01*
X5816904Y6384594D01*
X5820206Y6386830D01*
X5824118Y6387592D01*
X5847130Y6387592D01*
X5850940Y6386880D01*
X5854141Y6384747D01*
X5856376Y6381648D01*
X5857290Y6377889D01*
X5856732Y6374079D01*
X5854750Y6370726D01*
X5847892Y6362903D01*
X5840272Y6351524D01*
X5834227Y6339230D01*
X5829858Y6326276D01*
X5827166Y6312865D01*
X5826252Y6299200D01*
X5827166Y6285534D01*
X5829858Y6272123D01*
X5834227Y6259169D01*
X5840272Y6246876D01*
X5847892Y6235496D01*
X5856935Y6225235D01*
X5867196Y6216192D01*
X5878576Y6208572D01*
X5890869Y6202527D01*
X5903823Y6198158D01*
X5917234Y6195466D01*
X5930900Y6194552D01*
X5944565Y6195466D01*
X5957976Y6198158D01*
X5970930Y6202527D01*
X5983224Y6208572D01*
X5994603Y6216192D01*
X6004864Y6225235D01*
X6013907Y6235496D01*
X6021527Y6246876D01*
X6027572Y6259169D01*
X6031941Y6272123D01*
X6034633Y6285534D01*
X6035548Y6299200D01*
X6034633Y6312865D01*
X6031941Y6326276D01*
X6029096Y6334760D01*
X6028537Y6338468D01*
X6029401Y6342126D01*
X6031534Y6345224D01*
X6482791Y6796481D01*
X6487922Y6802729D01*
X6491478Y6809384D01*
X6493662Y6816598D01*
X6494475Y6824624D01*
X6494475Y7125106D01*
X6495338Y7129221D01*
X6497828Y7132675D01*
X6501536Y7134758D01*
X6505752Y7135164D01*
X6513118Y7134352D01*
X6545580Y7134352D01*
X6545580Y7193280D01*
X6504635Y7193280D01*
X6500723Y7194042D01*
X6497421Y7196277D01*
X6495237Y7199528D01*
X6494475Y7203440D01*
X6494475Y7274559D01*
X6495237Y7278471D01*
X6497421Y7281722D01*
X6500723Y7283958D01*
X6504635Y7284720D01*
X6545580Y7284720D01*
X6545580Y7327900D01*
X6546342Y7331811D01*
X6548577Y7335113D01*
X6551828Y7337298D01*
X6555740Y7338059D01*
X6626859Y7338059D01*
X6630771Y7337298D01*
X6634022Y7335113D01*
X6636258Y7331811D01*
X6637020Y7327900D01*
X6637020Y7284720D01*
X6695948Y7284720D01*
X6695948Y7317181D01*
X6695236Y7323480D01*
X6693306Y7328966D01*
X6690258Y7333843D01*
X6686143Y7337958D01*
X6681266Y7341006D01*
X6675780Y7342936D01*
X6672834Y7343292D01*
X6669227Y7344409D01*
X6666230Y7346746D01*
X6664350Y7349998D01*
X6663791Y7353757D01*
X6664655Y7357414D01*
X6666788Y7360564D01*
X6735775Y7429550D01*
X6740906Y7435799D01*
X6744462Y7442453D01*
X6746646Y7449667D01*
X6747459Y7457694D01*
X6747459Y7882991D01*
X6746646Y7891018D01*
X6744462Y7898231D01*
X6740906Y7904886D01*
X6735775Y7911134D01*
X6691934Y7954975D01*
X6689801Y7958074D01*
X6688937Y7961731D01*
X6689496Y7965440D01*
X6692341Y7973923D01*
X6695033Y7987334D01*
X6695948Y8001000D01*
X6695033Y8014665D01*
X6692341Y8028076D01*
X6687972Y8041030D01*
X6681927Y8053324D01*
X6674307Y8064703D01*
X6665264Y8074964D01*
X6655003Y8084007D01*
X6643624Y8091627D01*
X6631330Y8097672D01*
X6618376Y8102041D01*
X6604965Y8104733D01*
X6591300Y8105648D01*
X6577634Y8104733D01*
X6564223Y8102041D01*
X6551269Y8097672D01*
X6538976Y8091627D01*
X6527596Y8084007D01*
X6517335Y8074964D01*
X6508292Y8064703D01*
X6500672Y8053324D01*
X6494627Y8041030D01*
X6490258Y8028076D01*
X6487566Y8014665D01*
X6486652Y8001000D01*
X6487566Y7987334D01*
X6490258Y7973923D01*
X6494627Y7960969D01*
X6500672Y7948675D01*
X6508292Y7937296D01*
X6517335Y7927035D01*
X6527596Y7917992D01*
X6538976Y7910372D01*
X6551269Y7904327D01*
X6564223Y7899958D01*
X6577634Y7897266D01*
X6591300Y7896352D01*
X6604965Y7897266D01*
X6618376Y7899958D01*
X6626859Y7902803D01*
X6630568Y7903362D01*
X6634225Y7902498D01*
X6637324Y7900365D01*
X6667246Y7870444D01*
X6669430Y7867142D01*
X6670243Y7863281D01*
X6670243Y7838846D01*
X6669278Y7834579D01*
X6666636Y7831124D01*
X6662826Y7829042D01*
X6658457Y7828788D01*
X6654393Y7830413D01*
X6643624Y7837627D01*
X6631330Y7843672D01*
X6618376Y7848041D01*
X6604965Y7850733D01*
X6591300Y7851648D01*
X6577634Y7850733D01*
X6564223Y7848041D01*
X6551269Y7843672D01*
X6538976Y7837627D01*
X6527596Y7830007D01*
X6517335Y7820964D01*
X6508292Y7810703D01*
X6500672Y7799324D01*
X6494627Y7787030D01*
X6490258Y7774076D01*
X6487566Y7760665D01*
X6486652Y7747000D01*
X6487566Y7733334D01*
X6490258Y7719923D01*
X6493103Y7711440D01*
X6493662Y7707731D01*
X6492798Y7704074D01*
X6490665Y7700975D01*
X5522976Y6733235D01*
X5517845Y6727037D01*
X5514289Y6720331D01*
X5512104Y6713118D01*
X5511292Y6705092D01*
X5511292Y6636969D01*
X5510580Y6633159D01*
X5508447Y6629958D01*
X5505348Y6627723D01*
X5501589Y6626809D01*
X5497779Y6627368D01*
X5494426Y6629349D01*
X5486603Y6636207D01*
X5475224Y6643827D01*
X5467197Y6647789D01*
X5464200Y6650024D01*
X5462219Y6653225D01*
X5461508Y6656882D01*
X5461508Y7066381D01*
X5462270Y7070293D01*
X5464505Y7073595D01*
X6545275Y8154365D01*
X6548374Y8156498D01*
X6552031Y8157362D01*
X6555740Y8156803D01*
X6564223Y8153958D01*
X6577634Y8151266D01*
X6591300Y8150352D01*
X6604965Y8151266D01*
X6618376Y8153958D01*
X6631330Y8158327D01*
X6643624Y8164372D01*
X6655003Y8171992D01*
X6665264Y8181035D01*
X6674307Y8191296D01*
X6681927Y8202675D01*
X6687972Y8214969D01*
X6692341Y8227923D01*
X6695033Y8241334D01*
X6695948Y8255000D01*
X6695033Y8268665D01*
X6692341Y8282076D01*
X6687972Y8295030D01*
X6681927Y8307324D01*
X6674307Y8318703D01*
X6665264Y8328964D01*
X6655003Y8338007D01*
X6643624Y8345627D01*
X6631330Y8351672D01*
X6618376Y8356041D01*
X6604965Y8358733D01*
X6591300Y8359648D01*
X6586524Y8359292D01*
X6582206Y8359952D01*
X6578549Y8362391D01*
X6576263Y8366099D01*
X6575755Y8370468D01*
X6576009Y8373059D01*
X6576009Y8394547D01*
X6576872Y8398560D01*
X6579209Y8401964D01*
X6582765Y8404098D01*
X6586829Y8404656D01*
X6591300Y8404352D01*
X6604965Y8405266D01*
X6618376Y8407958D01*
X6631330Y8412327D01*
X6643624Y8418372D01*
X6655003Y8425992D01*
X6665264Y8435035D01*
X6674307Y8445296D01*
X6681927Y8456676D01*
X6687972Y8468969D01*
X6692341Y8481923D01*
X6695033Y8495334D01*
X6695948Y8509000D01*
X6695033Y8522665D01*
X6692341Y8536076D01*
X6687972Y8549030D01*
X6681927Y8561324D01*
X6674307Y8572703D01*
X6665264Y8582964D01*
X6655003Y8592007D01*
X6643624Y8599627D01*
X6631330Y8605672D01*
X6618376Y8610041D01*
X6604965Y8612733D01*
X6591300Y8613648D01*
X6586829Y8613343D01*
X6582765Y8613902D01*
X6579209Y8616035D01*
X6576872Y8619439D01*
X6576009Y8623452D01*
X6576009Y9007246D01*
X6576720Y9011005D01*
X6578803Y9014256D01*
X6581952Y9016492D01*
X6585712Y9017406D01*
X6589522Y9016847D01*
X6595719Y9014663D01*
X6602018Y9013952D01*
X6634480Y9013952D01*
X6634480Y9072880D01*
X6586169Y9072880D01*
X6582257Y9073642D01*
X6579006Y9075877D01*
X6576771Y9079128D01*
X6576009Y9083040D01*
X6576009Y9154160D01*
X6576771Y9158071D01*
X6579006Y9161322D01*
X6582257Y9163558D01*
X6586169Y9164320D01*
X6634480Y9164320D01*
X6634480Y9223248D01*
X6602018Y9223248D01*
X6595719Y9222536D01*
X6589522Y9220352D01*
X6585712Y9219793D01*
X6581952Y9220708D01*
X6578803Y9222943D01*
X6576720Y9226194D01*
X6576009Y9229953D01*
X6576009Y9705390D01*
X6575196Y9713417D01*
X6573012Y9720630D01*
X6569456Y9727336D01*
X6564325Y9733534D01*
X6435953Y9861956D01*
X6433870Y9864953D01*
X6433007Y9868509D01*
X6433464Y9872116D01*
X6436614Y9882327D01*
X6438849Y9895789D01*
X6439306Y9909403D01*
X6437985Y9922967D01*
X6434785Y9936226D01*
X6429908Y9948976D01*
X6423355Y9960914D01*
X6415278Y9971887D01*
X6405778Y9981692D01*
X6395059Y9990175D01*
X6383324Y9997135D01*
X6370777Y10002418D01*
X6357620Y10006025D01*
X6344107Y10007854D01*
X6330492Y10007854D01*
X6316980Y10006025D01*
X6303822Y10002418D01*
X6291275Y9997135D01*
X6283045Y9992258D01*
X6279032Y9990886D01*
X6274816Y9991344D01*
X6271107Y9993426D01*
X6268618Y9996830D01*
X6267754Y10000996D01*
X6267754Y10031628D01*
X6268516Y10035489D01*
X6270701Y10038791D01*
X6293307Y10061397D01*
X6296406Y10063530D01*
X6300063Y10064343D01*
X6303822Y10063784D01*
X6310325Y10061549D01*
X6323685Y10058806D01*
X6337300Y10057892D01*
X6350914Y10058806D01*
X6364274Y10061549D01*
X6377178Y10066020D01*
X6389319Y10072166D01*
X6400546Y10079888D01*
X6410706Y10089032D01*
X6419494Y10099446D01*
X6426809Y10110927D01*
X6432550Y10123322D01*
X6436614Y10136327D01*
X6438849Y10149789D01*
X6439306Y10163403D01*
X6437985Y10176967D01*
X6434785Y10190226D01*
X6429908Y10202976D01*
X6423355Y10214914D01*
X6415278Y10225887D01*
X6405778Y10235692D01*
X6395059Y10244175D01*
X6391351Y10246360D01*
X6388557Y10248798D01*
X6386830Y10252049D01*
X6386372Y10255707D01*
X6387236Y10259263D01*
X6389319Y10262311D01*
X6468567Y10341559D01*
X6473698Y10347756D01*
X6477254Y10354462D01*
X6479438Y10361676D01*
X6479997Y10366959D01*
X6481368Y10371124D01*
X6484315Y10374325D01*
X6488379Y10376001D01*
X6492748Y10375798D01*
X6496659Y10373715D01*
X6499301Y10370261D01*
X6501790Y10364927D01*
X6509105Y10353446D01*
X6517894Y10343032D01*
X6528054Y10333888D01*
X6539280Y10326166D01*
X6551422Y10320020D01*
X6564325Y10315549D01*
X6577685Y10312806D01*
X6591300Y10311892D01*
X6604914Y10312806D01*
X6618274Y10315549D01*
X6631178Y10320020D01*
X6643319Y10326166D01*
X6654546Y10333888D01*
X6664706Y10343032D01*
X6673494Y10353446D01*
X6680809Y10364927D01*
X6686550Y10377322D01*
X6690614Y10390327D01*
X6692849Y10403789D01*
X6693306Y10417403D01*
X6691985Y10430967D01*
X6688785Y10444226D01*
X6687667Y10447223D01*
X6686956Y10451033D01*
X6687769Y10454843D01*
X6689953Y10458043D01*
X6738924Y10507014D01*
X6744055Y10513263D01*
X6747611Y10519918D01*
X6749796Y10527131D01*
X6750608Y10535158D01*
X6750608Y10710062D01*
X6749796Y10718088D01*
X6747611Y10725302D01*
X6744055Y10731957D01*
X6738924Y10738205D01*
X6664756Y10812322D01*
X6658559Y10817453D01*
X6651040Y10821466D01*
X6647891Y10824108D01*
X6646011Y10827816D01*
X6645808Y10831931D01*
X6647230Y10835843D01*
X6650075Y10838789D01*
X6654546Y10841888D01*
X6664706Y10851032D01*
X6673494Y10861446D01*
X6680809Y10872927D01*
X6686550Y10885322D01*
X6690614Y10898327D01*
X6692849Y10911789D01*
X6693306Y10925403D01*
X6691985Y10938967D01*
X6688785Y10952226D01*
X6683908Y10964976D01*
X6677355Y10976914D01*
X6669278Y10987887D01*
X6659778Y10997692D01*
X6649059Y11006175D01*
X6637324Y11013135D01*
X6624777Y11018418D01*
X6611620Y11022025D01*
X6598107Y11023854D01*
X6584492Y11023854D01*
X6570980Y11022025D01*
X6557822Y11018418D01*
X6545275Y11013135D01*
X6533540Y11006175D01*
X6522821Y10997692D01*
X6513322Y10987887D01*
X6505244Y10976914D01*
X6498691Y10964976D01*
X6493814Y10952226D01*
X6490614Y10938967D01*
X6489293Y10925403D01*
X6489750Y10911789D01*
X6491986Y10898327D01*
X6496050Y10885322D01*
X6501790Y10872927D01*
X6509105Y10861446D01*
X6517894Y10851032D01*
X6528257Y10841685D01*
X6530644Y10838434D01*
X6531559Y10834522D01*
X6530898Y10830509D01*
X6528714Y10827105D01*
X6525361Y10824819D01*
X6521399Y10824006D01*
X6407200Y10824006D01*
X6403238Y10824819D01*
X6399885Y10827105D01*
X6397701Y10830509D01*
X6397040Y10834522D01*
X6397955Y10838434D01*
X6400342Y10841685D01*
X6410706Y10851032D01*
X6419494Y10861446D01*
X6426809Y10872927D01*
X6432550Y10885322D01*
X6436614Y10898327D01*
X6438849Y10911789D01*
X6439306Y10925403D01*
X6437985Y10938967D01*
X6434785Y10952226D01*
X6429908Y10964976D01*
X6423355Y10976914D01*
X6415278Y10987887D01*
X6405778Y10997692D01*
X6395059Y11006175D01*
X6383324Y11013135D01*
X6370777Y11018418D01*
X6357620Y11022025D01*
X6344107Y11023854D01*
X6330492Y11023854D01*
X6316980Y11022025D01*
X6303822Y11018418D01*
X6291275Y11013135D01*
X6279540Y11006175D01*
X6268821Y10997692D01*
X6259322Y10987887D01*
X6251244Y10976914D01*
X6244691Y10964976D01*
X6239814Y10952226D01*
X6236614Y10938967D01*
X6235293Y10925403D01*
X6235750Y10911789D01*
X6237986Y10898327D01*
X6242050Y10885322D01*
X6247790Y10872927D01*
X6255105Y10861446D01*
X6263894Y10851032D01*
X6274054Y10841888D01*
X6281318Y10836859D01*
X6284214Y10833862D01*
X6285636Y10830001D01*
X6285433Y10825886D01*
X6283553Y10822178D01*
X6280404Y10819536D01*
X6276492Y10817453D01*
X6270294Y10812322D01*
X6184087Y10726115D01*
X6178956Y10719917D01*
X6175400Y10713212D01*
X6173216Y10705998D01*
X6172403Y10697972D01*
X6172403Y10595559D01*
X6171641Y10591647D01*
X6169406Y10588345D01*
X5547410Y9966350D01*
X5544159Y9964166D01*
X5540248Y9963404D01*
X5536336Y9964166D01*
X5533085Y9966350D01*
X5530850Y9969652D01*
X5530088Y9973564D01*
X5530088Y10088321D01*
X5529376Y10094620D01*
X5527446Y10100106D01*
X5524398Y10104983D01*
X5520283Y10109098D01*
X5515406Y10112146D01*
X5509920Y10114076D01*
X5503621Y10114788D01*
X5362498Y10114788D01*
X5356199Y10114076D01*
X5350713Y10112146D01*
X5345836Y10109098D01*
X5341721Y10104983D01*
X5338673Y10100106D01*
X5336743Y10094620D01*
X5336032Y10088321D01*
X5336032Y9947198D01*
X5336743Y9940899D01*
X5338673Y9935413D01*
X5341721Y9930536D01*
X5345836Y9926421D01*
X5350713Y9923373D01*
X5356199Y9921443D01*
X5362498Y9920732D01*
X5477256Y9920732D01*
X5481167Y9919970D01*
X5484469Y9917734D01*
X5486654Y9914483D01*
X5487416Y9910572D01*
X5486654Y9906660D01*
X5484469Y9903409D01*
X5234482Y9653422D01*
X5229352Y9647174D01*
X5225796Y9640519D01*
X5223611Y9633305D01*
X5222849Y9625279D01*
X5222849Y7904378D01*
X5222036Y7900517D01*
X5219852Y7897215D01*
X4880406Y7557770D01*
X4877104Y7555534D01*
X4873244Y7554772D01*
X4869332Y7555534D01*
X4866030Y7557770D01*
X4863846Y7561072D01*
X4863084Y7564932D01*
X4863084Y8139734D01*
X4863795Y8143494D01*
X4865827Y8146745D01*
X4868976Y8148980D01*
X4872685Y8149894D01*
X4876495Y8149336D01*
X4893056Y8138515D01*
X4906264Y8131911D01*
X4920183Y8126984D01*
X4934610Y8123834D01*
X4949291Y8122462D01*
X4964074Y8122920D01*
X4978654Y8125206D01*
X4992827Y8129270D01*
X5006441Y8135010D01*
X5019192Y8142376D01*
X5030978Y8151266D01*
X5041595Y8161528D01*
X5050840Y8173059D01*
X5058613Y8185607D01*
X5064760Y8199018D01*
X5069230Y8213039D01*
X5071973Y8227568D01*
X5072888Y8242300D01*
X5071973Y8257031D01*
X5069230Y8271560D01*
X5064760Y8285581D01*
X5058613Y8298992D01*
X5050840Y8311540D01*
X5041595Y8323072D01*
X5030978Y8333333D01*
X5019192Y8342223D01*
X5006441Y8349589D01*
X4992827Y8355330D01*
X4978654Y8359394D01*
X4964074Y8361680D01*
X4949291Y8362086D01*
X4934610Y8360765D01*
X4920183Y8357616D01*
X4906264Y8352688D01*
X4893056Y8346084D01*
X4876495Y8335264D01*
X4872685Y8334705D01*
X4868976Y8335619D01*
X4865827Y8337854D01*
X4863795Y8341106D01*
X4863084Y8344865D01*
X4863084Y8474557D01*
X4863846Y8478418D01*
X4866030Y8481720D01*
X4895037Y8510778D01*
X4898186Y8512911D01*
X4901895Y8513724D01*
X4905603Y8513165D01*
X4920183Y8507984D01*
X4934610Y8504834D01*
X4949291Y8503462D01*
X4964074Y8503920D01*
X4978654Y8506206D01*
X4992827Y8510270D01*
X5006441Y8516010D01*
X5019192Y8523376D01*
X5030978Y8532266D01*
X5041595Y8542528D01*
X5050840Y8554059D01*
X5058613Y8566607D01*
X5064760Y8580018D01*
X5069230Y8594039D01*
X5071973Y8608568D01*
X5072888Y8623300D01*
X5071973Y8638032D01*
X5069230Y8652560D01*
X5064760Y8666581D01*
X5058613Y8679992D01*
X5050840Y8692540D01*
X5041595Y8704072D01*
X5030978Y8714333D01*
X5019192Y8723223D01*
X5006441Y8730589D01*
X4992827Y8736330D01*
X4978654Y8740394D01*
X4964074Y8742680D01*
X4949291Y8743086D01*
X4934610Y8741765D01*
X4920183Y8738616D01*
X4905603Y8733434D01*
X4901895Y8732875D01*
X4898186Y8733688D01*
X4895037Y8735822D01*
X4854498Y8776411D01*
X4852263Y8779713D01*
X4851501Y8783624D01*
X4851501Y8875623D01*
X4852466Y8879992D01*
X4855260Y8883497D01*
X4859223Y8885478D01*
X4863693Y8885580D01*
X4867808Y8883751D01*
X4874107Y8878976D01*
X4886858Y8871610D01*
X4900472Y8865870D01*
X4914646Y8861806D01*
X4929225Y8859520D01*
X4944008Y8859062D01*
X4958689Y8860434D01*
X4973116Y8863584D01*
X4987036Y8868511D01*
X5000244Y8875115D01*
X5012537Y8883243D01*
X5023764Y8892844D01*
X5033670Y8903766D01*
X5042204Y8915806D01*
X5049215Y8928811D01*
X5054549Y8942578D01*
X5058105Y8956852D01*
X5059934Y8971534D01*
X5059934Y8986266D01*
X5058105Y9000947D01*
X5054549Y9015222D01*
X5049215Y9028988D01*
X5042204Y9041993D01*
X5033670Y9054033D01*
X5023764Y9064955D01*
X5012537Y9074556D01*
X5000244Y9082684D01*
X4987036Y9089288D01*
X4973116Y9094216D01*
X4958689Y9097365D01*
X4944008Y9098686D01*
X4929225Y9098280D01*
X4914646Y9095994D01*
X4900472Y9091930D01*
X4886858Y9086189D01*
X4874107Y9078823D01*
X4867808Y9074048D01*
X4863693Y9072219D01*
X4859223Y9072321D01*
X4855260Y9074302D01*
X4852466Y9077807D01*
X4851501Y9082176D01*
X4851501Y9286849D01*
X4852466Y9291167D01*
X4855260Y9294723D01*
X4859223Y9296704D01*
X4863693Y9296806D01*
X4867808Y9294926D01*
X4873244Y9290812D01*
X4886045Y9283446D01*
X4899609Y9277705D01*
X4913833Y9273641D01*
X4928412Y9271355D01*
X4943144Y9270898D01*
X4957826Y9272270D01*
X4972253Y9275419D01*
X4986172Y9280347D01*
X4999380Y9286951D01*
X5011674Y9295079D01*
X5022900Y9304680D01*
X5032857Y9315602D01*
X5041392Y9327642D01*
X5048351Y9340646D01*
X5053685Y9354413D01*
X5057292Y9368688D01*
X5059121Y9383369D01*
X5059121Y9398101D01*
X5057292Y9412782D01*
X5053685Y9427057D01*
X5048351Y9440824D01*
X5041392Y9453829D01*
X5032857Y9465868D01*
X5022900Y9476790D01*
X5011674Y9486392D01*
X4999380Y9494520D01*
X4986172Y9501124D01*
X4972253Y9506051D01*
X4957826Y9509201D01*
X4943144Y9510522D01*
X4928260Y9510064D01*
X4924298Y9510776D01*
X4920945Y9512909D01*
X4918608Y9516211D01*
X4917795Y9520123D01*
X4918557Y9524085D01*
X4920792Y9527438D01*
X4990084Y9596780D01*
X4995214Y9602978D01*
X4998770Y9609683D01*
X5000955Y9616897D01*
X5001768Y9624923D01*
X5001768Y10159492D01*
X5002530Y10163403D01*
X5004765Y10166654D01*
X5008016Y10168890D01*
X5011928Y10169652D01*
X5033721Y10169652D01*
X5040020Y10170363D01*
X5045506Y10172293D01*
X5050383Y10175341D01*
X5054498Y10179456D01*
X5057546Y10184333D01*
X5059476Y10189819D01*
X5060188Y10196118D01*
X5060188Y10337241D01*
X5059476Y10343540D01*
X5057546Y10349026D01*
X5054498Y10353903D01*
X5050383Y10358018D01*
X5045506Y10361066D01*
X5040020Y10362996D01*
X5033721Y10363708D01*
X4892598Y10363708D01*
X4886299Y10362996D01*
X4880813Y10361066D01*
X4875936Y10358018D01*
X4871821Y10353903D01*
X4868773Y10349026D01*
X4867351Y10344962D01*
X4865217Y10341406D01*
X4861814Y10339019D01*
X4857750Y10338155D01*
X4853686Y10339019D01*
X4850282Y10341406D01*
X4848148Y10344962D01*
X4846726Y10349026D01*
X4843678Y10353903D01*
X4839563Y10358018D01*
X4834686Y10361066D01*
X4829200Y10362996D01*
X4822901Y10363708D01*
X4794250Y10363708D01*
X4794250Y10308590D01*
X4855972Y10308590D01*
X4859883Y10307828D01*
X4863134Y10305592D01*
X4865370Y10302341D01*
X4866132Y10298430D01*
X4866132Y10234930D01*
X4865370Y10231018D01*
X4863134Y10227767D01*
X4859883Y10225532D01*
X4855972Y10224770D01*
X4794250Y10224770D01*
X4794250Y10169652D01*
X4822901Y10169652D01*
X4829200Y10170363D01*
X4834686Y10172293D01*
X4839563Y10175341D01*
X4843678Y10179456D01*
X4846726Y10184333D01*
X4848148Y10188397D01*
X4850282Y10191953D01*
X4853686Y10194340D01*
X4857750Y10195204D01*
X4861814Y10194340D01*
X4865217Y10191953D01*
X4867351Y10188397D01*
X4868773Y10184333D01*
X4871821Y10179456D01*
X4875936Y10175341D01*
X4880813Y10172293D01*
X4886299Y10170363D01*
X4892598Y10169652D01*
X4914392Y10169652D01*
X4918303Y10168890D01*
X4921554Y10166654D01*
X4923790Y10163403D01*
X4924552Y10159492D01*
X4924552Y9644634D01*
X4923790Y9640722D01*
X4921554Y9637420D01*
X4815027Y9530892D01*
X4811776Y9528708D01*
X4807864Y9527946D01*
X4803952Y9528708D01*
X4800701Y9530892D01*
X4798466Y9534194D01*
X4797704Y9538106D01*
X4797704Y9915652D01*
X4798466Y9919563D01*
X4800701Y9922814D01*
X4803952Y9925050D01*
X4807864Y9925812D01*
X4822901Y9925812D01*
X4829200Y9926523D01*
X4834686Y9928453D01*
X4839563Y9931501D01*
X4843678Y9935616D01*
X4846726Y9940493D01*
X4848656Y9945979D01*
X4849368Y9952278D01*
X4849368Y10093401D01*
X4848656Y10099700D01*
X4846726Y10105186D01*
X4843678Y10110063D01*
X4839563Y10114178D01*
X4834686Y10117226D01*
X4829200Y10119156D01*
X4822901Y10119868D01*
X4681778Y10119868D01*
X4675479Y10119156D01*
X4669993Y10117226D01*
X4665116Y10114178D01*
X4661001Y10110063D01*
X4657953Y10105186D01*
X4656023Y10099700D01*
X4655312Y10093401D01*
X4655312Y9952278D01*
X4656023Y9945979D01*
X4657953Y9940493D01*
X4661001Y9935616D01*
X4665116Y9931501D01*
X4669993Y9928453D01*
X4675479Y9926523D01*
X4681778Y9925812D01*
X4704334Y9925812D01*
X4707991Y9925151D01*
X4711192Y9923170D01*
X4713427Y9920224D01*
X4716729Y9908844D01*
X4719269Y9904018D01*
X4720183Y9901732D01*
X4720488Y9899243D01*
X4720488Y9485934D01*
X4719777Y9482175D01*
X4717694Y9478975D01*
X4714595Y9476740D01*
X4710836Y9475825D01*
X4707026Y9476333D01*
X4703724Y9478213D01*
X4694174Y9486392D01*
X4681880Y9494520D01*
X4668672Y9501124D01*
X4654753Y9506051D01*
X4640326Y9509201D01*
X4625644Y9510522D01*
X4610912Y9510115D01*
X4596333Y9507829D01*
X4582109Y9503765D01*
X4568545Y9498025D01*
X4555744Y9490659D01*
X4543958Y9481769D01*
X4533392Y9471507D01*
X4524146Y9459976D01*
X4516374Y9447428D01*
X4510176Y9434017D01*
X4505706Y9419996D01*
X4503013Y9405467D01*
X4502099Y9390735D01*
X4503013Y9376003D01*
X4505706Y9361474D01*
X4510176Y9347454D01*
X4516374Y9334042D01*
X4524146Y9321495D01*
X4533392Y9309963D01*
X4543958Y9299702D01*
X4555744Y9290812D01*
X4568545Y9283446D01*
X4582109Y9277705D01*
X4596333Y9273641D01*
X4610912Y9271355D01*
X4625644Y9270898D01*
X4640326Y9272270D01*
X4654753Y9275419D01*
X4668672Y9280347D01*
X4681880Y9286951D01*
X4694174Y9295079D01*
X4703724Y9303258D01*
X4707026Y9305137D01*
X4710836Y9305645D01*
X4714595Y9304731D01*
X4717694Y9302496D01*
X4719777Y9299295D01*
X4720488Y9295536D01*
X4720488Y9085021D01*
X4719574Y9080804D01*
X4716932Y9077299D01*
X4713122Y9075267D01*
X4708753Y9075013D01*
X4704740Y9076537D01*
X4695444Y9082684D01*
X4682236Y9089288D01*
X4668316Y9094216D01*
X4653889Y9097365D01*
X4639208Y9098686D01*
X4624425Y9098280D01*
X4609846Y9095994D01*
X4595672Y9091930D01*
X4582058Y9086189D01*
X4569307Y9078823D01*
X4557522Y9069933D01*
X4546904Y9059672D01*
X4537659Y9048140D01*
X4529886Y9035592D01*
X4524298Y9023400D01*
X4522063Y9020302D01*
X4518812Y9018219D01*
X4515053Y9017508D01*
X4505248Y9017508D01*
X4501388Y9018270D01*
X4498086Y9020505D01*
X3615182Y9903409D01*
X3612946Y9906660D01*
X3612184Y9910572D01*
X3612946Y9914483D01*
X3615182Y9917734D01*
X3618484Y9919970D01*
X3622344Y9920732D01*
X3712921Y9920732D01*
X3719220Y9921443D01*
X3724706Y9923373D01*
X3729583Y9926421D01*
X3733698Y9930536D01*
X3736746Y9935413D01*
X3738676Y9940899D01*
X3739387Y9947198D01*
X3739387Y10088321D01*
X3738676Y10094620D01*
X3736746Y10100106D01*
X3733698Y10104983D01*
X3729583Y10109098D01*
X3724706Y10112146D01*
X3719220Y10114076D01*
X3712921Y10114788D01*
X3571798Y10114788D01*
X3565499Y10114076D01*
X3560013Y10112146D01*
X3555136Y10109098D01*
X3551021Y10104983D01*
X3547973Y10100106D01*
X3546043Y10094620D01*
X3545332Y10088321D01*
X3545332Y9997744D01*
X3544570Y9993884D01*
X3542334Y9990582D01*
X3539083Y9988346D01*
X3535172Y9987584D01*
X3531260Y9988346D01*
X3528009Y9990582D01*
X3366262Y10152329D01*
X3364026Y10155580D01*
X3363264Y10159492D01*
X3364026Y10163403D01*
X3366262Y10166654D01*
X3369564Y10168890D01*
X3373424Y10169652D01*
X3502101Y10169652D01*
X3508400Y10170363D01*
X3513886Y10172293D01*
X3518763Y10175341D01*
X3522878Y10179456D01*
X3525926Y10184333D01*
X3527348Y10188397D01*
X3529482Y10191953D01*
X3532886Y10194340D01*
X3536950Y10195204D01*
X3541014Y10194340D01*
X3544417Y10191953D01*
X3546551Y10188397D01*
X3547973Y10184333D01*
X3551021Y10179456D01*
X3555136Y10175341D01*
X3560013Y10172293D01*
X3565499Y10170363D01*
X3571798Y10169652D01*
X3712921Y10169652D01*
X3719220Y10170363D01*
X3724706Y10172293D01*
X3729583Y10175341D01*
X3733698Y10179456D01*
X3736746Y10184333D01*
X3738676Y10189819D01*
X3739387Y10196118D01*
X3739387Y10337241D01*
X3738676Y10343540D01*
X3736746Y10349026D01*
X3733698Y10353903D01*
X3729583Y10358018D01*
X3724706Y10361066D01*
X3719220Y10362996D01*
X3712921Y10363708D01*
X3571798Y10363708D01*
X3565499Y10362996D01*
X3560013Y10361066D01*
X3555136Y10358018D01*
X3551021Y10353903D01*
X3547973Y10349026D01*
X3546551Y10344962D01*
X3544417Y10341406D01*
X3541014Y10339019D01*
X3536950Y10338155D01*
X3532886Y10339019D01*
X3529482Y10341406D01*
X3527348Y10344962D01*
X3525926Y10349026D01*
X3522878Y10353903D01*
X3518763Y10358018D01*
X3513886Y10361066D01*
X3508400Y10362996D01*
X3502101Y10363708D01*
X3360978Y10363708D01*
X3354679Y10362996D01*
X3349193Y10361066D01*
X3344316Y10358018D01*
X3340201Y10353903D01*
X3337153Y10349026D01*
X3335223Y10343540D01*
X3334512Y10337241D01*
X3334512Y10208564D01*
X3333750Y10204704D01*
X3331514Y10201402D01*
X3328263Y10199166D01*
X3324351Y10198404D01*
X3320440Y10199166D01*
X3317189Y10201402D01*
X3313277Y10205262D01*
X3311093Y10208564D01*
X3310331Y10212476D01*
X3310331Y10266172D01*
X3309518Y10274198D01*
X3307334Y10281412D01*
X3303778Y10288117D01*
X3298951Y10293959D01*
X3293110Y10298734D01*
X3286455Y10302290D01*
X3275076Y10305592D01*
X3272129Y10307828D01*
X3270148Y10311028D01*
X3269488Y10314686D01*
X3269488Y10337241D01*
X3268776Y10343540D01*
X3266846Y10349026D01*
X3263798Y10353903D01*
X3259683Y10358018D01*
X3254806Y10361066D01*
X3249320Y10362996D01*
X3243021Y10363708D01*
X3101898Y10363708D01*
X3095599Y10362996D01*
X3090113Y10361066D01*
X3085236Y10358018D01*
X3081121Y10353903D01*
X3078073Y10349026D01*
X3076651Y10344962D01*
X3074517Y10341406D01*
X3071114Y10339019D01*
X3067050Y10338155D01*
X3062986Y10339019D01*
X3059582Y10341406D01*
X3057448Y10344962D01*
X3056026Y10349026D01*
X3052978Y10353903D01*
X3048863Y10358018D01*
X3043986Y10361066D01*
X3038500Y10362996D01*
X3032201Y10363708D01*
X3003550Y10363708D01*
X3003550Y10308590D01*
X3065272Y10308590D01*
X3069183Y10307828D01*
X3072434Y10305592D01*
X3074670Y10302341D01*
X3075432Y10298430D01*
X3075432Y10234930D01*
X3074670Y10231018D01*
X3072434Y10227767D01*
X3069183Y10225532D01*
X3065272Y10224770D01*
X3003550Y10224770D01*
X3003550Y10169652D01*
X3032201Y10169652D01*
X3038500Y10170363D01*
X3043986Y10172293D01*
X3048863Y10175341D01*
X3052978Y10179456D01*
X3056026Y10184333D01*
X3057448Y10188397D01*
X3059582Y10191953D01*
X3062986Y10194340D01*
X3067050Y10195204D01*
X3071114Y10194340D01*
X3074517Y10191953D01*
X3076651Y10188397D01*
X3078073Y10184333D01*
X3081121Y10179456D01*
X3085236Y10175341D01*
X3090113Y10172293D01*
X3095599Y10170363D01*
X3101898Y10169652D01*
X3235807Y10169652D01*
X3240125Y10168686D01*
X3243681Y10165943D01*
X3244748Y10164622D01*
X3882491Y9526879D01*
X3884777Y9523425D01*
X3885488Y9519361D01*
X3884523Y9515348D01*
X3882034Y9512046D01*
X3878478Y9510014D01*
X3874363Y9509556D01*
X3863644Y9510522D01*
X3848912Y9510115D01*
X3834333Y9507829D01*
X3820109Y9503765D01*
X3806545Y9498025D01*
X3793744Y9490659D01*
X3781958Y9481769D01*
X3771392Y9471507D01*
X3762146Y9459976D01*
X3754374Y9447428D01*
X3748176Y9434017D01*
X3743706Y9419996D01*
X3741013Y9405467D01*
X3740099Y9390735D01*
X3741013Y9376003D01*
X3743706Y9361474D01*
X3748176Y9347454D01*
X3754374Y9334042D01*
X3762146Y9321495D01*
X3771392Y9309963D01*
X3781958Y9299702D01*
X3793744Y9290812D01*
X3806545Y9283446D01*
X3815130Y9279788D01*
X3818432Y9277553D01*
X3820566Y9274302D01*
X3821379Y9270441D01*
X3821379Y9092793D01*
X3820718Y9089339D01*
X3818991Y9086291D01*
X3816299Y9084005D01*
X3807307Y9078823D01*
X3795522Y9069933D01*
X3784904Y9059672D01*
X3775659Y9048140D01*
X3767886Y9035592D01*
X3761740Y9022181D01*
X3757269Y9008160D01*
X3754526Y8993632D01*
X3753612Y8978900D01*
X3753764Y8977020D01*
X3753154Y8973007D01*
X3751072Y8969552D01*
X3747770Y8967165D01*
X3743807Y8966250D01*
X3739794Y8967012D01*
X3736441Y8969248D01*
X3488893Y9216745D01*
X3486505Y9220504D01*
X3485946Y9224924D01*
X3487369Y9229140D01*
X3490417Y9232341D01*
X3494532Y9233966D01*
X3504590Y9235541D01*
X3518814Y9239605D01*
X3532378Y9245346D01*
X3545179Y9252712D01*
X3556965Y9261602D01*
X3567531Y9271863D01*
X3576777Y9283395D01*
X3584549Y9295942D01*
X3590747Y9309354D01*
X3595217Y9323374D01*
X3597910Y9337903D01*
X3598824Y9352635D01*
X3597910Y9367367D01*
X3595217Y9381896D01*
X3590747Y9395917D01*
X3584549Y9409328D01*
X3576777Y9421876D01*
X3567531Y9433407D01*
X3556965Y9443669D01*
X3545179Y9452559D01*
X3532378Y9459925D01*
X3518814Y9465665D01*
X3504590Y9469729D01*
X3490010Y9472015D01*
X3475278Y9472422D01*
X3460597Y9471101D01*
X3446170Y9467951D01*
X3432251Y9463024D01*
X3419043Y9456420D01*
X3406749Y9448292D01*
X3395522Y9438690D01*
X3385565Y9427768D01*
X3377031Y9415729D01*
X3370072Y9402724D01*
X3364737Y9388957D01*
X3361131Y9374682D01*
X3360369Y9368485D01*
X3358845Y9364268D01*
X3355644Y9361119D01*
X3351377Y9359646D01*
X3346907Y9360154D01*
X3343097Y9362541D01*
X2479598Y10226040D01*
X2473401Y10231170D01*
X2466695Y10234726D01*
X2459482Y10236911D01*
X2451455Y10237673D01*
X2010664Y10237673D01*
X2002637Y10236911D01*
X1995424Y10234726D01*
X1988718Y10231170D01*
X1982520Y10226040D01*
X1826056Y10069576D01*
X1822805Y10067391D01*
X1818995Y10066629D01*
X1815134Y10067340D01*
X1811832Y10069423D01*
X1809597Y10072624D01*
X1808734Y10076434D01*
X1808480Y10084714D01*
X1806193Y10099294D01*
X1802130Y10113467D01*
X1796389Y10127081D01*
X1789023Y10139832D01*
X1780133Y10151618D01*
X1769872Y10162235D01*
X1758340Y10171480D01*
X1745792Y10179253D01*
X1732381Y10185400D01*
X1718360Y10189870D01*
X1703832Y10192613D01*
X1689100Y10193528D01*
X1674368Y10192613D01*
X1659839Y10189870D01*
X1645818Y10185400D01*
X1632407Y10179253D01*
X1619859Y10171480D01*
X1608328Y10162235D01*
X1598066Y10151618D01*
X1589176Y10139832D01*
X1581810Y10127081D01*
X1576070Y10113467D01*
X1572006Y10099294D01*
X1569720Y10084714D01*
X1569313Y10069931D01*
X1570634Y10055250D01*
X1573784Y10040823D01*
X1578711Y10026904D01*
X1585315Y10013696D01*
X1593443Y10001402D01*
X1603044Y9990175D01*
X1613966Y9980269D01*
X1626006Y9971735D01*
X1634642Y9967061D01*
X1638046Y9964166D01*
X1639824Y9960051D01*
X1639671Y9955580D01*
X1637639Y9951618D01*
X1634083Y9948875D01*
X1632407Y9948113D01*
X1619859Y9940340D01*
X1608328Y9931095D01*
X1598066Y9920478D01*
X1589176Y9908692D01*
X1581810Y9895941D01*
X1576070Y9882327D01*
X1572006Y9868154D01*
X1569720Y9853574D01*
X1569313Y9838791D01*
X1570634Y9824110D01*
X1573784Y9809683D01*
X1578711Y9795764D01*
X1585315Y9782556D01*
X1593443Y9770262D01*
X1603044Y9759035D01*
X1613966Y9749129D01*
X1626006Y9740595D01*
X1632153Y9737293D01*
X1635353Y9734550D01*
X1637233Y9730740D01*
X1637334Y9726523D01*
X1635760Y9722612D01*
X1632712Y9719716D01*
X1619859Y9711740D01*
X1608328Y9702495D01*
X1598066Y9691878D01*
X1589176Y9680092D01*
X1581810Y9667341D01*
X1576070Y9653727D01*
X1572006Y9639554D01*
X1569720Y9624974D01*
X1569313Y9610191D01*
X1570634Y9595510D01*
X1573784Y9581083D01*
X1578711Y9567164D01*
X1585315Y9553956D01*
X1593443Y9541662D01*
X1603044Y9530435D01*
X1613966Y9520529D01*
X1626006Y9511995D01*
X1632153Y9508693D01*
X1635353Y9505950D01*
X1637233Y9502140D01*
X1637334Y9497923D01*
X1635760Y9494012D01*
X1632712Y9491116D01*
X1619859Y9483140D01*
X1608328Y9473895D01*
X1598066Y9463278D01*
X1589176Y9451492D01*
X1581810Y9438741D01*
X1576070Y9425127D01*
X1572006Y9410954D01*
X1569720Y9396374D01*
X1569313Y9381591D01*
X1570634Y9366910D01*
X1573784Y9352483D01*
X1578711Y9338564D01*
X1585315Y9325356D01*
X1593443Y9313062D01*
X1603044Y9301835D01*
X1613966Y9291929D01*
X1626006Y9283395D01*
X1632153Y9280093D01*
X1635353Y9277350D01*
X1637233Y9273540D01*
X1637334Y9269323D01*
X1635760Y9265412D01*
X1632712Y9262516D01*
X1619859Y9254540D01*
X1608328Y9245295D01*
X1598066Y9234678D01*
X1589176Y9222892D01*
X1581810Y9210141D01*
X1576070Y9196527D01*
X1572006Y9182354D01*
X1569720Y9167774D01*
X1569313Y9152991D01*
X1570634Y9138310D01*
X1573784Y9123883D01*
X1578711Y9109964D01*
X1585315Y9096756D01*
X1593443Y9084462D01*
X1603044Y9073235D01*
X1613966Y9063329D01*
X1626006Y9054795D01*
X1639011Y9047784D01*
X1652778Y9042450D01*
X1667052Y9038894D01*
X1681734Y9037066D01*
X1696466Y9037066D01*
X1711147Y9038894D01*
X1725422Y9042450D01*
X1739188Y9047784D01*
X1752193Y9054795D01*
X1764233Y9063329D01*
X1775155Y9073235D01*
X1784756Y9084462D01*
X1792884Y9096756D01*
X1799488Y9109964D01*
X1804416Y9123883D01*
X1807565Y9138310D01*
X1808937Y9152991D01*
X1808480Y9167774D01*
X1806193Y9182354D01*
X1802130Y9196527D01*
X1796389Y9210141D01*
X1789023Y9222892D01*
X1780133Y9234678D01*
X1769872Y9245295D01*
X1758340Y9254540D01*
X1745488Y9262516D01*
X1742439Y9265412D01*
X1740865Y9269323D01*
X1740966Y9273540D01*
X1742846Y9277350D01*
X1746046Y9280093D01*
X1752193Y9283395D01*
X1764233Y9291929D01*
X1775155Y9301835D01*
X1784756Y9313062D01*
X1792884Y9325356D01*
X1799488Y9338564D01*
X1804416Y9352483D01*
X1807565Y9366910D01*
X1808937Y9381591D01*
X1808480Y9396374D01*
X1806193Y9410954D01*
X1802130Y9425127D01*
X1796389Y9438741D01*
X1789023Y9451492D01*
X1780133Y9463278D01*
X1769872Y9473895D01*
X1758340Y9483140D01*
X1745488Y9491116D01*
X1742439Y9494012D01*
X1740865Y9497923D01*
X1740966Y9502140D01*
X1742846Y9505950D01*
X1746046Y9508693D01*
X1752193Y9511995D01*
X1764233Y9520529D01*
X1775155Y9530435D01*
X1784756Y9541662D01*
X1792884Y9553956D01*
X1799488Y9567164D01*
X1804416Y9581083D01*
X1807565Y9595510D01*
X1808937Y9610191D01*
X1808480Y9624974D01*
X1806193Y9639554D01*
X1802130Y9653727D01*
X1796389Y9667341D01*
X1789023Y9680092D01*
X1780133Y9691878D01*
X1769872Y9702495D01*
X1758340Y9711740D01*
X1745488Y9719716D01*
X1742439Y9722612D01*
X1740865Y9726523D01*
X1740966Y9730740D01*
X1742846Y9734550D01*
X1746046Y9737293D01*
X1752193Y9740595D01*
X1764233Y9749129D01*
X1775155Y9759035D01*
X1784756Y9770262D01*
X1792884Y9782556D01*
X1799488Y9795764D01*
X1804416Y9809683D01*
X1807565Y9824110D01*
X1808937Y9838791D01*
X1808480Y9853574D01*
X1806193Y9868154D01*
X1802130Y9882327D01*
X1796389Y9895941D01*
X1786432Y9913213D01*
X1786026Y9916820D01*
X1786889Y9920325D01*
X1788972Y9923322D01*
X1875383Y10009682D01*
X1878685Y10011918D01*
X1882546Y10012680D01*
X1889760Y10012680D01*
X1889760Y10019893D01*
X1890522Y10023754D01*
X1892757Y10027056D01*
X2023160Y10157510D01*
X2026462Y10159695D01*
X2030374Y10160457D01*
X2092350Y10160457D01*
X2096719Y10159492D01*
X2100224Y10156748D01*
X2102205Y10152735D01*
X2102307Y10148265D01*
X2100478Y10144201D01*
X2097176Y10139832D01*
X2089759Y10126980D01*
X2143760Y10126980D01*
X2143760Y10150297D01*
X2144522Y10154208D01*
X2146757Y10157510D01*
X2150008Y10159695D01*
X2153920Y10160457D01*
X2240280Y10160457D01*
X2244191Y10159695D01*
X2247442Y10157510D01*
X2249678Y10154208D01*
X2250440Y10150297D01*
X2250440Y10126980D01*
X2304440Y10126980D01*
X2297023Y10139832D01*
X2293721Y10144201D01*
X2291892Y10148265D01*
X2291994Y10152735D01*
X2293975Y10156748D01*
X2297480Y10159492D01*
X2301849Y10160457D01*
X2431745Y10160457D01*
X2435656Y10159695D01*
X2438958Y10157510D01*
X3476142Y9120327D01*
X3478276Y9117177D01*
X3479088Y9113469D01*
X3478479Y9109710D01*
X3476548Y9106408D01*
X3473551Y9104071D01*
X3469894Y9103055D01*
X3455466Y9101683D01*
X3441090Y9098534D01*
X3427171Y9093657D01*
X3413963Y9087053D01*
X3401618Y9078925D01*
X3390442Y9069324D01*
X3380486Y9058402D01*
X3371951Y9046362D01*
X3364992Y9033357D01*
X3359658Y9019590D01*
X3356051Y9005265D01*
X3354222Y8990634D01*
X3354222Y8975852D01*
X3356051Y8961221D01*
X3359658Y8946896D01*
X3364992Y8933129D01*
X3371951Y8920124D01*
X3380486Y8908084D01*
X3390442Y8897213D01*
X3401618Y8887612D01*
X3413963Y8879433D01*
X3427171Y8872880D01*
X3441090Y8867952D01*
X3455466Y8864803D01*
X3470198Y8863431D01*
X3484930Y8863888D01*
X3499510Y8866174D01*
X3513734Y8870188D01*
X3527298Y8875928D01*
X3540099Y8883345D01*
X3551885Y8892235D01*
X3562451Y8902496D01*
X3571697Y8913977D01*
X3579469Y8926525D01*
X3585667Y8939936D01*
X3590137Y8954008D01*
X3592829Y8968536D01*
X3593490Y8979103D01*
X3594455Y8982811D01*
X3596741Y8985910D01*
X3600043Y8987942D01*
X3603853Y8988602D01*
X3607612Y8987790D01*
X3610813Y8985656D01*
X3822293Y8774176D01*
X3828542Y8769045D01*
X3835196Y8765489D01*
X3842410Y8763304D01*
X3850436Y8762492D01*
X3856786Y8762492D01*
X3860647Y8761730D01*
X3863949Y8759494D01*
X3923842Y8699601D01*
X3926078Y8696299D01*
X3926840Y8692438D01*
X3926840Y8676640D01*
X3942638Y8676640D01*
X3946499Y8675878D01*
X3949801Y8673642D01*
X4360418Y8263026D01*
X4362653Y8259724D01*
X4363415Y8255863D01*
X4363415Y7752384D01*
X4364228Y7744358D01*
X4366412Y7737144D01*
X4369968Y7730439D01*
X4375099Y7724241D01*
X4535779Y7563510D01*
X4537964Y7560259D01*
X4538776Y7556500D01*
X4538065Y7552639D01*
X4533950Y7542022D01*
X4530394Y7527747D01*
X4528566Y7513066D01*
X4528566Y7498334D01*
X4530394Y7483652D01*
X4533950Y7469378D01*
X4539284Y7455611D01*
X4546295Y7442606D01*
X4554829Y7430566D01*
X4564735Y7419644D01*
X4575962Y7410043D01*
X4588256Y7401915D01*
X4601464Y7395311D01*
X4615383Y7390384D01*
X4629912Y7387234D01*
X4633823Y7385405D01*
X4636668Y7382154D01*
X4637887Y7378039D01*
X4637278Y7373772D01*
X4634941Y7370114D01*
X4075531Y6810756D01*
X4072229Y6808520D01*
X4068368Y6807758D01*
X3446627Y6807758D01*
X3438601Y6806946D01*
X3431387Y6804761D01*
X3424682Y6801205D01*
X3418484Y6796074D01*
X3236417Y6614058D01*
X3232658Y6611670D01*
X3228238Y6611112D01*
X3224022Y6612534D01*
X3220770Y6615582D01*
X3219907Y6616903D01*
X3210864Y6627164D01*
X3200603Y6636207D01*
X3189224Y6643827D01*
X3181197Y6647789D01*
X3178200Y6650024D01*
X3176219Y6653225D01*
X3175508Y6656882D01*
X3175508Y7080199D01*
X3174695Y7088225D01*
X3172510Y7095439D01*
X3168954Y7102094D01*
X3163824Y7108342D01*
X2824276Y7447889D01*
X2822041Y7451293D01*
X2821330Y7455357D01*
X2822244Y7459319D01*
X2823667Y7462418D01*
X2828137Y7476439D01*
X2830830Y7490968D01*
X2831744Y7505700D01*
X2830830Y7520431D01*
X2828137Y7534909D01*
X2823667Y7548981D01*
X2817469Y7562392D01*
X2809697Y7574940D01*
X2800451Y7586472D01*
X2789885Y7596733D01*
X2778099Y7605623D01*
X2764739Y7613294D01*
X2761843Y7615885D01*
X2760065Y7619339D01*
X2759760Y7623251D01*
X2760929Y7626959D01*
X2763418Y7629956D01*
X2766872Y7631836D01*
X2776423Y7634782D01*
X2783078Y7638338D01*
X2789326Y7643469D01*
X2910332Y7764475D01*
X2915462Y7770723D01*
X2919018Y7777378D01*
X2921203Y7784592D01*
X2922016Y7792618D01*
X2922016Y8072475D01*
X2921203Y8080502D01*
X2919018Y8087715D01*
X2915462Y8094370D01*
X2910332Y8100618D01*
X2824276Y8186674D01*
X2822041Y8190077D01*
X2821330Y8194141D01*
X2822244Y8198103D01*
X2823667Y8201152D01*
X2828137Y8215223D01*
X2830830Y8229752D01*
X2831744Y8244484D01*
X2830830Y8259216D01*
X2828137Y8273694D01*
X2823667Y8287766D01*
X2817469Y8301177D01*
X2809697Y8313724D01*
X2800451Y8325205D01*
X2789885Y8335518D01*
X2778099Y8344408D01*
X2765298Y8351774D01*
X2751734Y8357514D01*
X2737510Y8361578D01*
X2734208Y8362086D01*
X2730093Y8363712D01*
X2727045Y8366912D01*
X2725674Y8371128D01*
X2726182Y8375548D01*
X2728569Y8379307D01*
X2869438Y8520176D01*
X2874568Y8526373D01*
X2878124Y8533079D01*
X2880309Y8540292D01*
X2881122Y8548319D01*
X2881122Y8852154D01*
X2880309Y8860180D01*
X2878124Y8867394D01*
X2874568Y8874048D01*
X2869438Y8880297D01*
X2824276Y8925458D01*
X2822041Y8928862D01*
X2821330Y8932875D01*
X2822244Y8936888D01*
X2823667Y8939936D01*
X2828137Y8954008D01*
X2830830Y8968536D01*
X2831744Y8983268D01*
X2830830Y8998000D01*
X2828137Y9012478D01*
X2823667Y9026550D01*
X2817469Y9039961D01*
X2809697Y9052509D01*
X2800451Y9063990D01*
X2789885Y9074302D01*
X2778099Y9083192D01*
X2765298Y9090558D01*
X2751734Y9096298D01*
X2737510Y9100362D01*
X2722930Y9102598D01*
X2708198Y9103055D01*
X2693466Y9101683D01*
X2679090Y9098534D01*
X2665171Y9093657D01*
X2651963Y9087053D01*
X2639618Y9078925D01*
X2628442Y9069324D01*
X2618486Y9058402D01*
X2609951Y9046362D01*
X2602992Y9033357D01*
X2597658Y9019590D01*
X2594051Y9005265D01*
X2592222Y8990634D01*
X2592222Y8975852D01*
X2594051Y8961221D01*
X2597658Y8946896D01*
X2602992Y8933129D01*
X2609951Y8920124D01*
X2618486Y8908084D01*
X2628442Y8897213D01*
X2639618Y8887612D01*
X2651963Y8879433D01*
X2665171Y8872880D01*
X2679090Y8867952D01*
X2693466Y8864803D01*
X2708198Y8863431D01*
X2722930Y8863888D01*
X2737510Y8866174D01*
X2751734Y8870188D01*
X2758490Y8873083D01*
X2762402Y8873845D01*
X2766314Y8873083D01*
X2769616Y8870899D01*
X2800908Y8839606D01*
X2803093Y8836304D01*
X2803906Y8832443D01*
X2803906Y8718550D01*
X2802890Y8714181D01*
X2800146Y8710676D01*
X2796133Y8708694D01*
X2791663Y8708593D01*
X2787599Y8710422D01*
X2783179Y8713774D01*
X2770378Y8721140D01*
X2756814Y8726932D01*
X2742590Y8730945D01*
X2728010Y8733231D01*
X2713278Y8733688D01*
X2698597Y8732316D01*
X2684170Y8729167D01*
X2670251Y8724239D01*
X2657043Y8717686D01*
X2644749Y8709507D01*
X2633522Y8699906D01*
X2623566Y8688984D01*
X2615031Y8676944D01*
X2608072Y8663940D01*
X2602738Y8650173D01*
X2599131Y8635898D01*
X2597302Y8621217D01*
X2597302Y8606485D01*
X2599131Y8591854D01*
X2602738Y8577529D01*
X2606852Y8566912D01*
X2607513Y8563051D01*
X2606751Y8559292D01*
X2604566Y8556040D01*
X2416860Y8368385D01*
X2413609Y8366150D01*
X2409698Y8365388D01*
X2405786Y8366150D01*
X2402535Y8368385D01*
X2400300Y8371687D01*
X2399538Y8375548D01*
X2399538Y8976410D01*
X2400300Y8980271D01*
X2402535Y8983573D01*
X2659024Y9240113D01*
X2662123Y9242247D01*
X2665831Y9243060D01*
X2669590Y9242501D01*
X2684170Y9237319D01*
X2698597Y9234170D01*
X2713278Y9232798D01*
X2728010Y9233255D01*
X2742590Y9235541D01*
X2756814Y9239605D01*
X2770378Y9245346D01*
X2783179Y9252712D01*
X2794965Y9261602D01*
X2805531Y9271863D01*
X2814777Y9283395D01*
X2822549Y9295942D01*
X2828747Y9309354D01*
X2833217Y9323374D01*
X2835757Y9337141D01*
X2837484Y9341154D01*
X2840736Y9344101D01*
X2844901Y9345422D01*
X2849270Y9344812D01*
X2852928Y9342475D01*
X3190087Y9005316D01*
X3192322Y9002014D01*
X3193084Y8998102D01*
X3193084Y8122869D01*
X3193897Y8114842D01*
X3196082Y8107629D01*
X3199638Y8100923D01*
X3204768Y8094725D01*
X3366566Y7932877D01*
X3368751Y7929676D01*
X3369513Y7925866D01*
X3368852Y7922056D01*
X3364737Y7911439D01*
X3361131Y7897114D01*
X3359302Y7882483D01*
X3359302Y7867700D01*
X3361131Y7853070D01*
X3364737Y7838744D01*
X3370072Y7824978D01*
X3377031Y7811973D01*
X3385565Y7799933D01*
X3395522Y7789011D01*
X3406749Y7779410D01*
X3419043Y7771282D01*
X3437128Y7762087D01*
X3439515Y7758684D01*
X3440379Y7754620D01*
X3440379Y7627924D01*
X3439515Y7623860D01*
X3437128Y7620508D01*
X3433572Y7618323D01*
X3427171Y7616088D01*
X3413963Y7609484D01*
X3401618Y7601356D01*
X3390442Y7591755D01*
X3380486Y7580833D01*
X3371951Y7568793D01*
X3364992Y7555788D01*
X3359658Y7542022D01*
X3356051Y7527747D01*
X3354222Y7513066D01*
X3354222Y7498334D01*
X3356051Y7483652D01*
X3359658Y7469378D01*
X3364992Y7455611D01*
X3371951Y7442606D01*
X3380486Y7430566D01*
X3390442Y7419644D01*
X3401618Y7410043D01*
X3413963Y7401864D01*
X3427171Y7395311D01*
X3441090Y7390384D01*
X3455466Y7387234D01*
X3470198Y7385862D01*
X3484930Y7386320D01*
X3499510Y7388606D01*
X3513734Y7392619D01*
X3527298Y7398410D01*
X3540099Y7405776D01*
X3551885Y7414666D01*
X3562451Y7424928D01*
X3571697Y7436459D01*
X3579469Y7449007D01*
X3585667Y7462418D01*
X3590137Y7476439D01*
X3592829Y7490968D01*
X3593744Y7505700D01*
X3592829Y7520431D01*
X3590137Y7534909D01*
X3585667Y7548981D01*
X3579469Y7562392D01*
X3571697Y7574940D01*
X3562451Y7586472D01*
X3551885Y7596733D01*
X3540099Y7605623D01*
X3527298Y7612989D01*
X3523792Y7614513D01*
X3520490Y7616698D01*
X3518357Y7620000D01*
X3517595Y7623860D01*
X3517595Y7754772D01*
X3518357Y7758633D01*
X3520490Y7761935D01*
X3523792Y7764119D01*
X3532378Y7767777D01*
X3545179Y7775143D01*
X3556965Y7784033D01*
X3567531Y7794345D01*
X3576777Y7805826D01*
X3584549Y7818374D01*
X3590747Y7831785D01*
X3595217Y7845856D01*
X3597910Y7860334D01*
X3598824Y7875066D01*
X3597910Y7889798D01*
X3595217Y7904327D01*
X3590747Y7918399D01*
X3584549Y7931810D01*
X3576777Y7944358D01*
X3567531Y7955838D01*
X3556965Y7966100D01*
X3545179Y7974990D01*
X3532378Y7982407D01*
X3518814Y7988147D01*
X3504590Y7992160D01*
X3490010Y7994446D01*
X3475278Y7994903D01*
X3460597Y7993532D01*
X3446170Y7990382D01*
X3431590Y7985252D01*
X3427831Y7984642D01*
X3424174Y7985506D01*
X3421024Y7987639D01*
X3273298Y8135366D01*
X3271062Y8138668D01*
X3270300Y8142579D01*
X3270300Y9017812D01*
X3269488Y9025839D01*
X3267303Y9033052D01*
X3263747Y9039758D01*
X3258616Y9045956D01*
X2663748Y9640824D01*
X2657551Y9645954D01*
X2650845Y9649510D01*
X2643632Y9651695D01*
X2635605Y9652508D01*
X2317394Y9652508D01*
X2313533Y9653270D01*
X2310282Y9655454D01*
X2308047Y9658705D01*
X2304389Y9667341D01*
X2297023Y9680092D01*
X2288133Y9691878D01*
X2277872Y9702495D01*
X2266340Y9711740D01*
X2253488Y9719716D01*
X2250440Y9722612D01*
X2248865Y9726523D01*
X2248966Y9730740D01*
X2250846Y9734550D01*
X2254046Y9737293D01*
X2260193Y9740595D01*
X2272233Y9749129D01*
X2283155Y9759035D01*
X2292756Y9770262D01*
X2300884Y9782556D01*
X2307488Y9795764D01*
X2312416Y9809683D01*
X2315565Y9824110D01*
X2316886Y9838791D01*
X2316480Y9853574D01*
X2314194Y9868154D01*
X2310130Y9882327D01*
X2304389Y9895941D01*
X2297023Y9908692D01*
X2288133Y9920478D01*
X2277872Y9931095D01*
X2266340Y9940340D01*
X2253792Y9948113D01*
X2252116Y9948875D01*
X2248560Y9951618D01*
X2246528Y9955580D01*
X2246477Y9957104D01*
X2244648Y9955784D01*
X2240991Y9954818D01*
X2237181Y9955276D01*
X2226360Y9958730D01*
X2211832Y9961473D01*
X2197100Y9962388D01*
X2182368Y9961473D01*
X2167839Y9958730D01*
X2157018Y9955276D01*
X2153208Y9954818D01*
X2149551Y9955784D01*
X2147722Y9957104D01*
X2147671Y9955580D01*
X2145639Y9951618D01*
X2142083Y9948875D01*
X2140407Y9948113D01*
X2127859Y9940340D01*
X2116328Y9931095D01*
X2106066Y9920478D01*
X2097176Y9908692D01*
X2089810Y9895941D01*
X2084070Y9882327D01*
X2080006Y9868154D01*
X2077720Y9853574D01*
X2077313Y9838791D01*
X2078634Y9824110D01*
X2081784Y9809683D01*
X2086711Y9795764D01*
X2093315Y9782556D01*
X2101443Y9770262D01*
X2111044Y9759035D01*
X2121966Y9749129D01*
X2134006Y9740595D01*
X2140153Y9737293D01*
X2143353Y9734550D01*
X2145233Y9730740D01*
X2145334Y9726523D01*
X2143760Y9722612D01*
X2140712Y9719716D01*
X2127859Y9711740D01*
X2116328Y9702495D01*
X2106066Y9691878D01*
X2097176Y9680092D01*
X2089810Y9667341D01*
X2084070Y9653727D01*
X2080006Y9639554D01*
X2077720Y9624974D01*
X2077313Y9610191D01*
X2078634Y9595510D01*
X2081784Y9581083D01*
X2086711Y9567164D01*
X2093315Y9553956D01*
X2101443Y9541662D01*
X2111044Y9530435D01*
X2121966Y9520529D01*
X2134006Y9511995D01*
X2140153Y9508693D01*
X2143353Y9505950D01*
X2145233Y9502140D01*
X2145334Y9497923D01*
X2143760Y9494012D01*
X2140712Y9491116D01*
X2127859Y9483140D01*
X2116328Y9473895D01*
X2106066Y9463278D01*
X2097176Y9451492D01*
X2089810Y9438741D01*
X2084070Y9425127D01*
X2080006Y9410954D01*
X2077720Y9396374D01*
X2077313Y9381591D01*
X2078634Y9366910D01*
X2081784Y9352483D01*
X2086711Y9338564D01*
X2093315Y9325356D01*
X2101443Y9313062D01*
X2111044Y9301835D01*
X2121966Y9291929D01*
X2134006Y9283395D01*
X2140153Y9280093D01*
X2143353Y9277350D01*
X2145233Y9273540D01*
X2145334Y9269323D01*
X2143760Y9265412D01*
X2140712Y9262516D01*
X2127859Y9254540D01*
X2116328Y9245295D01*
X2106066Y9234678D01*
X2097176Y9222892D01*
X2089810Y9210141D01*
X2084070Y9196527D01*
X2080006Y9182354D01*
X2077720Y9167774D01*
X2077313Y9152991D01*
X2078634Y9138310D01*
X2081784Y9123883D01*
X2086711Y9109964D01*
X2093315Y9096756D01*
X2101443Y9084462D01*
X2111044Y9073235D01*
X2121966Y9063329D01*
X2134006Y9054795D01*
X2147011Y9047784D01*
X2160778Y9042450D01*
X2175052Y9038894D01*
X2189734Y9037066D01*
X2204466Y9037066D01*
X2219147Y9038894D01*
X2233422Y9042450D01*
X2247188Y9047784D01*
X2260193Y9054795D01*
X2272233Y9063329D01*
X2283155Y9073235D01*
X2292756Y9084462D01*
X2300884Y9096756D01*
X2307488Y9109964D01*
X2312416Y9123883D01*
X2315565Y9138310D01*
X2316886Y9152991D01*
X2316480Y9167774D01*
X2314194Y9182354D01*
X2310130Y9196527D01*
X2304389Y9210141D01*
X2297023Y9222892D01*
X2288133Y9234678D01*
X2277872Y9245295D01*
X2266340Y9254540D01*
X2253488Y9262516D01*
X2250440Y9265412D01*
X2248865Y9269323D01*
X2248966Y9273540D01*
X2250846Y9277350D01*
X2254046Y9280093D01*
X2260193Y9283395D01*
X2272233Y9291929D01*
X2283155Y9301835D01*
X2292756Y9313062D01*
X2300884Y9325356D01*
X2307488Y9338564D01*
X2312416Y9352483D01*
X2315565Y9366910D01*
X2316886Y9381591D01*
X2316480Y9396374D01*
X2314194Y9410954D01*
X2310130Y9425127D01*
X2304389Y9438741D01*
X2297023Y9451492D01*
X2288133Y9463278D01*
X2277872Y9473895D01*
X2266340Y9483140D01*
X2253488Y9491116D01*
X2250440Y9494012D01*
X2248865Y9497923D01*
X2248966Y9502140D01*
X2250846Y9505950D01*
X2254046Y9508693D01*
X2260193Y9511995D01*
X2272233Y9520529D01*
X2283155Y9530435D01*
X2292756Y9541662D01*
X2300884Y9553956D01*
X2310079Y9572040D01*
X2313482Y9574428D01*
X2317546Y9575292D01*
X2615895Y9575292D01*
X2619806Y9574530D01*
X2623108Y9572294D01*
X2706827Y9488576D01*
X2708960Y9485426D01*
X2709824Y9481718D01*
X2709214Y9477959D01*
X2707284Y9474657D01*
X2704236Y9472320D01*
X2700578Y9471253D01*
X2698597Y9471101D01*
X2684170Y9467951D01*
X2670251Y9463024D01*
X2657043Y9456420D01*
X2644749Y9448292D01*
X2633522Y9438690D01*
X2623566Y9427768D01*
X2615031Y9415729D01*
X2608072Y9402724D01*
X2602738Y9388957D01*
X2599131Y9374682D01*
X2597302Y9360001D01*
X2597302Y9345269D01*
X2599131Y9330588D01*
X2602738Y9316313D01*
X2606852Y9305696D01*
X2607513Y9301835D01*
X2606751Y9298076D01*
X2604566Y9294825D01*
X2334006Y9024264D01*
X2328875Y9018016D01*
X2325319Y9011361D01*
X2323134Y9004147D01*
X2322322Y8996121D01*
X2322322Y8372906D01*
X2321560Y8368995D01*
X2319324Y8365693D01*
X2236114Y8282431D01*
X2232456Y8280146D01*
X2228189Y8279485D01*
X2224074Y8280704D01*
X2220823Y8283498D01*
X2218994Y8287410D01*
X2219198Y8292744D01*
X2222042Y8315706D01*
X2223008Y8338820D01*
X2222042Y8361934D01*
X2219198Y8384895D01*
X2214422Y8407552D01*
X2207818Y8429701D01*
X2199436Y8451240D01*
X2189276Y8472017D01*
X2177440Y8491931D01*
X2163978Y8510727D01*
X2149043Y8528405D01*
X2132685Y8544763D01*
X2115007Y8559698D01*
X2096211Y8573160D01*
X2076297Y8584996D01*
X2055520Y8595156D01*
X2033981Y8603538D01*
X2011832Y8610142D01*
X1989175Y8614918D01*
X1966214Y8617762D01*
X1943100Y8618728D01*
X1919986Y8617762D01*
X1897024Y8614918D01*
X1874367Y8610142D01*
X1852218Y8603538D01*
X1830679Y8595156D01*
X1809902Y8584996D01*
X1789988Y8573160D01*
X1771192Y8559698D01*
X1753514Y8544763D01*
X1737156Y8528405D01*
X1722221Y8510727D01*
X1708759Y8491931D01*
X1696923Y8472017D01*
X1686763Y8451240D01*
X1678381Y8429701D01*
X1671777Y8407552D01*
X1667002Y8384895D01*
X1664157Y8361934D01*
X1663192Y8338820D01*
X1664157Y8315706D01*
X1667002Y8292744D01*
X1671777Y8270087D01*
X1678381Y8247938D01*
X1686763Y8226399D01*
X1696923Y8205622D01*
X1708759Y8185708D01*
X1722221Y8166912D01*
X1737156Y8149234D01*
X1753514Y8132876D01*
X1771192Y8117941D01*
X1789988Y8104479D01*
X1809902Y8092643D01*
X1830679Y8082483D01*
X1852218Y8074101D01*
X1874367Y8067497D01*
X1897024Y8062722D01*
X1919986Y8059877D01*
X1943100Y8058912D01*
X1966214Y8059877D01*
X1989175Y8062722D01*
X1994509Y8062925D01*
X1998421Y8061096D01*
X2001215Y8057845D01*
X2002434Y8053730D01*
X2001774Y8049463D01*
X1999488Y8045805D01*
X1077976Y7124293D01*
X1072845Y7118096D01*
X1069289Y7111390D01*
X1067104Y7104176D01*
X1066292Y7096150D01*
X1066292Y6656882D01*
X1065580Y6653225D01*
X1063599Y6650024D01*
X1060602Y6647789D01*
X1052576Y6643827D01*
X1041196Y6636207D01*
X1030935Y6627164D01*
X1021892Y6616903D01*
X1014272Y6605524D01*
X1008227Y6593230D01*
X1003858Y6580276D01*
X1001166Y6566865D01*
X1000252Y6553200D01*
X1001166Y6539534D01*
X1003858Y6526123D01*
X1008227Y6513169D01*
X1014272Y6500876D01*
X1021892Y6489496D01*
X1030935Y6479235D01*
X1041196Y6470192D01*
X1052576Y6462572D01*
X1064869Y6456527D01*
X1077823Y6452158D01*
X1091234Y6449466D01*
X1104900Y6448552D01*
X1118565Y6449466D01*
X1131976Y6452158D01*
X1144930Y6456527D01*
X1157224Y6462572D01*
X1168603Y6470192D01*
X1178864Y6479235D01*
X1187907Y6489496D01*
X1195527Y6500876D01*
X1201572Y6513169D01*
X1205941Y6526123D01*
X1208633Y6539534D01*
X1209548Y6553200D01*
X1208633Y6566865D01*
X1205941Y6580276D01*
X1201572Y6593230D01*
X1195527Y6605524D01*
X1187907Y6616903D01*
X1178864Y6627164D01*
X1168603Y6636207D01*
X1157224Y6643827D01*
X1149197Y6647789D01*
X1146200Y6650024D01*
X1144219Y6653225D01*
X1143508Y6656882D01*
X1143508Y7076440D01*
X1144270Y7080351D01*
X1146505Y7083653D01*
X1302969Y7240117D01*
X1306220Y7242302D01*
X1310132Y7243064D01*
X1314043Y7242302D01*
X1317294Y7240117D01*
X1319530Y7236815D01*
X1320292Y7232903D01*
X1320292Y6656882D01*
X1319580Y6653225D01*
X1317599Y6650024D01*
X1314602Y6647789D01*
X1306576Y6643827D01*
X1295196Y6636207D01*
X1284935Y6627164D01*
X1275892Y6616903D01*
X1268272Y6605524D01*
X1262227Y6593230D01*
X1257858Y6580276D01*
X1255166Y6566865D01*
X1254252Y6553200D01*
X1255166Y6539534D01*
X1257858Y6526123D01*
X1262227Y6513169D01*
X1268272Y6500876D01*
X1275892Y6489496D01*
X1284935Y6479235D01*
X1295196Y6470192D01*
X1306576Y6462572D01*
X1318869Y6456527D01*
X1331823Y6452158D01*
X1345234Y6449466D01*
X1358900Y6448552D01*
X1372565Y6449466D01*
X1385976Y6452158D01*
X1398930Y6456527D01*
X1411224Y6462572D01*
X1422603Y6470192D01*
X1432864Y6479235D01*
X1441907Y6489496D01*
X1449984Y6501587D01*
X1452626Y6504330D01*
X1456080Y6505854D01*
X1459890Y6506057D01*
X1463497Y6504787D01*
X1466392Y6502298D01*
X1468120Y6498945D01*
X1470406Y6491528D01*
X1473962Y6484823D01*
X1479092Y6478625D01*
X1556207Y6401460D01*
X1558594Y6397701D01*
X1559102Y6393281D01*
X1557731Y6389065D01*
X1554683Y6385864D01*
X1549196Y6382207D01*
X1538935Y6373164D01*
X1529892Y6362903D01*
X1522272Y6351524D01*
X1516227Y6339230D01*
X1511858Y6326276D01*
X1509166Y6312865D01*
X1508252Y6299200D01*
X1509166Y6285534D01*
X1511858Y6272123D01*
X1516227Y6259169D01*
X1522272Y6246876D01*
X1529892Y6235496D01*
X1538935Y6225235D01*
X1549196Y6216192D01*
X1560576Y6208572D01*
X1572869Y6202527D01*
X1585823Y6198158D01*
X1599234Y6195466D01*
X1612900Y6194552D01*
X1626565Y6195466D01*
X1639976Y6198158D01*
X1652930Y6202527D01*
X1665224Y6208572D01*
X1676603Y6216192D01*
X1686864Y6225235D01*
X1695907Y6235496D01*
X1703527Y6246876D01*
X1709572Y6259169D01*
X1713941Y6272123D01*
X1716633Y6285534D01*
X1717548Y6299200D01*
X1716633Y6312865D01*
X1713941Y6326276D01*
X1709572Y6339230D01*
X1703527Y6351524D01*
X1695907Y6362903D01*
X1689049Y6370726D01*
X1687068Y6374079D01*
X1686509Y6377889D01*
X1687423Y6381648D01*
X1689658Y6384747D01*
X1692859Y6386880D01*
X1696669Y6387592D01*
X1783130Y6387592D01*
X1786940Y6386880D01*
X1790141Y6384747D01*
X1792376Y6381648D01*
X1793290Y6377889D01*
X1792732Y6374079D01*
X1790750Y6370726D01*
X1783892Y6362903D01*
X1776272Y6351524D01*
X1770227Y6339230D01*
X1765858Y6326276D01*
X1763166Y6312865D01*
X1762252Y6299200D01*
X1763166Y6285534D01*
X1765858Y6272123D01*
X1770227Y6259169D01*
X1776272Y6246876D01*
X1783892Y6235496D01*
X1792935Y6225235D01*
X1803196Y6216192D01*
X1814575Y6208572D01*
X1826869Y6202527D01*
X1839823Y6198158D01*
X1853234Y6195466D01*
X1866900Y6194552D01*
X1880565Y6195466D01*
X1893976Y6198158D01*
X1902460Y6201003D01*
X1906168Y6201562D01*
X1909825Y6200698D01*
X1912924Y6198565D01*
X1948027Y6163462D01*
X1954275Y6158331D01*
X1960930Y6154775D01*
X1968144Y6152591D01*
G37*
G36*
X4655312Y10308590D02*
G01*
X4710430Y10308590D01*
X4710430Y10363708D01*
X4681778Y10363708D01*
X4675479Y10362996D01*
X4669993Y10361066D01*
X4665116Y10358018D01*
X4661001Y10353903D01*
X4657953Y10349026D01*
X4656023Y10343540D01*
X4655312Y10337241D01*
G37*
G36*
X5151678Y10169652D02*
G01*
X5292801Y10169652D01*
X5299100Y10170363D01*
X5304586Y10172293D01*
X5309463Y10175341D01*
X5313578Y10179456D01*
X5316626Y10184333D01*
X5318048Y10188397D01*
X5320182Y10191953D01*
X5323586Y10194340D01*
X5327650Y10195204D01*
X5331714Y10194340D01*
X5335117Y10191953D01*
X5337251Y10188397D01*
X5338673Y10184333D01*
X5341721Y10179456D01*
X5345836Y10175341D01*
X5350713Y10172293D01*
X5356199Y10170363D01*
X5362498Y10169652D01*
X5503621Y10169652D01*
X5509920Y10170363D01*
X5515406Y10172293D01*
X5520283Y10175341D01*
X5524398Y10179456D01*
X5527446Y10184333D01*
X5529376Y10189819D01*
X5530088Y10196118D01*
X5530088Y10337241D01*
X5529376Y10343540D01*
X5527446Y10349026D01*
X5524398Y10353903D01*
X5520283Y10358018D01*
X5515406Y10361066D01*
X5509920Y10362996D01*
X5503621Y10363708D01*
X5362498Y10363708D01*
X5356199Y10362996D01*
X5350713Y10361066D01*
X5345836Y10358018D01*
X5341721Y10353903D01*
X5338673Y10349026D01*
X5337251Y10344962D01*
X5335117Y10341406D01*
X5331714Y10339019D01*
X5327650Y10338155D01*
X5323586Y10339019D01*
X5320182Y10341406D01*
X5318048Y10344962D01*
X5316626Y10349026D01*
X5313578Y10353903D01*
X5309463Y10358018D01*
X5304586Y10361066D01*
X5299100Y10362996D01*
X5292801Y10363708D01*
X5151678Y10363708D01*
X5145379Y10362996D01*
X5139893Y10361066D01*
X5135016Y10358018D01*
X5130901Y10353903D01*
X5127853Y10349026D01*
X5125923Y10343540D01*
X5125212Y10337241D01*
X5125212Y10196118D01*
X5125923Y10189819D01*
X5127853Y10184333D01*
X5130901Y10179456D01*
X5135016Y10175341D01*
X5139893Y10172293D01*
X5145379Y10170363D01*
G37*
G36*
X1889760Y8935262D02*
G01*
X1889760Y8989060D01*
X1836013Y8989060D01*
X1839315Y8982456D01*
X1847443Y8970162D01*
X1857044Y8958935D01*
X1867966Y8949029D01*
X1880006Y8940495D01*
G37*
G36*
X1996439Y8935262D02*
G01*
X2006193Y8940495D01*
X2018233Y8949029D01*
X2029155Y8958935D01*
X2038756Y8970162D01*
X2046884Y8982456D01*
X2050186Y8989060D01*
X1996439Y8989060D01*
G37*
G36*
X6725920Y9013952D02*
G01*
X6758381Y9013952D01*
X6764680Y9014663D01*
X6770166Y9016593D01*
X6775043Y9019641D01*
X6779158Y9023756D01*
X6782206Y9028633D01*
X6784136Y9034119D01*
X6784848Y9040418D01*
X6784848Y9072880D01*
X6725920Y9072880D01*
G37*
G36*
X2891078Y10169652D02*
G01*
X2919730Y10169652D01*
X2919730Y10224770D01*
X2864612Y10224770D01*
X2864612Y10196118D01*
X2865323Y10189819D01*
X2867253Y10184333D01*
X2870301Y10179456D01*
X2874416Y10175341D01*
X2879293Y10172293D01*
X2884779Y10170363D01*
G37*
G36*
X4681778Y10169652D02*
G01*
X4710430Y10169652D01*
X4710430Y10224770D01*
X4655312Y10224770D01*
X4655312Y10196118D01*
X4656023Y10189819D01*
X4657953Y10184333D01*
X4661001Y10179456D01*
X4665116Y10175341D01*
X4669993Y10172293D01*
X4675479Y10170363D01*
G37*
G36*
X1358900Y6194552D02*
G01*
X1372565Y6195466D01*
X1385976Y6198158D01*
X1398930Y6202527D01*
X1411224Y6208572D01*
X1422603Y6216192D01*
X1432864Y6225235D01*
X1441907Y6235496D01*
X1449527Y6246876D01*
X1455572Y6259169D01*
X1459941Y6272123D01*
X1462633Y6285534D01*
X1463548Y6299200D01*
X1462633Y6312865D01*
X1459941Y6326276D01*
X1455572Y6339230D01*
X1449527Y6351524D01*
X1441907Y6362903D01*
X1432864Y6373164D01*
X1422603Y6382207D01*
X1411224Y6389827D01*
X1398930Y6395872D01*
X1385976Y6400241D01*
X1372565Y6402933D01*
X1358900Y6403848D01*
X1345234Y6402933D01*
X1331823Y6400241D01*
X1318869Y6395872D01*
X1306576Y6389827D01*
X1295196Y6382207D01*
X1284935Y6373164D01*
X1275892Y6362903D01*
X1268272Y6351524D01*
X1262227Y6339230D01*
X1257858Y6326276D01*
X1255166Y6312865D01*
X1254252Y6299200D01*
X1255166Y6285534D01*
X1257858Y6272123D01*
X1262227Y6259169D01*
X1268272Y6246876D01*
X1275892Y6235496D01*
X1284935Y6225235D01*
X1295196Y6216192D01*
X1306576Y6208572D01*
X1318869Y6202527D01*
X1331823Y6198158D01*
X1345234Y6195466D01*
G37*
G36*
X1996439Y9095740D02*
G01*
X2050440Y9095740D01*
X2043023Y9108592D01*
X2034133Y9120378D01*
X2023872Y9130995D01*
X2012340Y9140240D01*
X1999488Y9148216D01*
X1996439Y9151162D01*
G37*
G36*
X1889760Y9162237D02*
G01*
X1889760Y9217660D01*
X1836013Y9217660D01*
X1839315Y9211056D01*
X1847443Y9198762D01*
X1857044Y9187535D01*
X1867966Y9177629D01*
X1880006Y9169095D01*
X1886153Y9165793D01*
X1889353Y9163050D01*
G37*
G36*
X1996439Y9162237D02*
G01*
X1996846Y9163050D01*
X2000046Y9165793D01*
X2006193Y9169095D01*
X2018233Y9177629D01*
X2029155Y9187535D01*
X2038756Y9198762D01*
X2046884Y9211056D01*
X2050186Y9217660D01*
X1996439Y9217660D01*
G37*
G36*
X6725920Y9164320D02*
G01*
X6784848Y9164320D01*
X6784848Y9196781D01*
X6784136Y9203080D01*
X6782206Y9208566D01*
X6779158Y9213443D01*
X6775043Y9217558D01*
X6770166Y9220606D01*
X6764680Y9222536D01*
X6758381Y9223248D01*
X6725920Y9223248D01*
G37*
G36*
X6591300Y10057892D02*
G01*
X6604914Y10058806D01*
X6618274Y10061549D01*
X6631178Y10066020D01*
X6643319Y10072166D01*
X6654546Y10079888D01*
X6664706Y10089032D01*
X6673494Y10099446D01*
X6680809Y10110927D01*
X6686550Y10123322D01*
X6690614Y10136327D01*
X6692849Y10149789D01*
X6693306Y10163403D01*
X6691985Y10176967D01*
X6688785Y10190226D01*
X6683908Y10202976D01*
X6677355Y10214914D01*
X6669278Y10225887D01*
X6659778Y10235692D01*
X6649059Y10244175D01*
X6637324Y10251135D01*
X6624777Y10256418D01*
X6611620Y10260025D01*
X6598107Y10261854D01*
X6584492Y10261854D01*
X6570980Y10260025D01*
X6557822Y10256418D01*
X6545275Y10251135D01*
X6533540Y10244175D01*
X6522821Y10235692D01*
X6513322Y10225887D01*
X6505244Y10214914D01*
X6498691Y10202976D01*
X6493814Y10190226D01*
X6490614Y10176967D01*
X6489293Y10163403D01*
X6489750Y10149789D01*
X6491986Y10136327D01*
X6496050Y10123322D01*
X6501790Y10110927D01*
X6509105Y10099446D01*
X6517894Y10089032D01*
X6528054Y10079888D01*
X6539280Y10072166D01*
X6551422Y10066020D01*
X6564325Y10061549D01*
X6577685Y10058806D01*
G37*
G36*
X1996439Y10012680D02*
G01*
X2050440Y10012680D01*
X2043023Y10025532D01*
X2034133Y10037318D01*
X2023872Y10047935D01*
X2012340Y10057180D01*
X1999792Y10064953D01*
X1996439Y10066477D01*
G37*
G36*
X1835759Y9324340D02*
G01*
X1889760Y9324340D01*
X1889760Y9379712D01*
X1886712Y9376816D01*
X1873859Y9368840D01*
X1862328Y9359595D01*
X1852066Y9348978D01*
X1843176Y9337192D01*
G37*
G36*
X1996439Y9324340D02*
G01*
X2050440Y9324340D01*
X2043023Y9337192D01*
X2034133Y9348978D01*
X2023872Y9359595D01*
X2012340Y9368840D01*
X1999488Y9376816D01*
X1996439Y9379762D01*
G37*
G36*
X1889760Y9390837D02*
G01*
X1889760Y9446260D01*
X1836013Y9446260D01*
X1839315Y9439656D01*
X1847443Y9427362D01*
X1857044Y9416135D01*
X1867966Y9406229D01*
X1880006Y9397695D01*
X1886153Y9394393D01*
X1889353Y9391650D01*
G37*
G36*
X1996439Y9390837D02*
G01*
X1996846Y9391650D01*
X2000046Y9394393D01*
X2006193Y9397695D01*
X2018233Y9406229D01*
X2029155Y9416135D01*
X2038756Y9427362D01*
X2046884Y9439656D01*
X2050186Y9446260D01*
X1996439Y9446260D01*
G37*
G36*
X2250440Y9966096D02*
G01*
X2251557Y9967061D01*
X2260193Y9971735D01*
X2272233Y9980269D01*
X2283155Y9990175D01*
X2292756Y10001402D01*
X2300884Y10013696D01*
X2304186Y10020300D01*
X2250440Y10020300D01*
G37*
G36*
X2143760Y9966096D02*
G01*
X2143760Y10020300D01*
X2090013Y10020300D01*
X2093315Y10013696D01*
X2101443Y10001402D01*
X2111044Y9990175D01*
X2121966Y9980269D01*
X2134006Y9971735D01*
X2142642Y9967061D01*
G37*
G36*
X1996439Y9552940D02*
G01*
X2050440Y9552940D01*
X2043023Y9565792D01*
X2034133Y9577578D01*
X2023872Y9588195D01*
X2012340Y9597440D01*
X1996439Y9607245D01*
G37*
G36*
X1835759Y9552940D02*
G01*
X1889760Y9552940D01*
X1889760Y9607245D01*
X1873859Y9597440D01*
X1862328Y9588195D01*
X1852066Y9577578D01*
X1843176Y9565792D01*
G37*
G36*
X1889760Y9623196D02*
G01*
X1889760Y9677400D01*
X1836013Y9677400D01*
X1839315Y9670796D01*
X1847443Y9658502D01*
X1857044Y9647275D01*
X1867966Y9637369D01*
X1880006Y9628835D01*
X1888642Y9624161D01*
G37*
G36*
X1996439Y9623196D02*
G01*
X1997557Y9624161D01*
X2006193Y9628835D01*
X2018233Y9637369D01*
X2029155Y9647275D01*
X2038756Y9658502D01*
X2046884Y9670796D01*
X2050186Y9677400D01*
X1996439Y9677400D01*
G37*
G36*
X1835759Y9784080D02*
G01*
X1889760Y9784080D01*
X1889760Y9839452D01*
X1886712Y9836556D01*
X1873859Y9828580D01*
X1862328Y9819335D01*
X1852066Y9808718D01*
X1843176Y9796932D01*
G37*
G36*
X1996439Y9784080D02*
G01*
X2050440Y9784080D01*
X2043023Y9796932D01*
X2034133Y9808718D01*
X2023872Y9819335D01*
X2012340Y9828580D01*
X1999488Y9836556D01*
X1996439Y9839502D01*
G37*
G36*
X6546850Y9814356D02*
G01*
X6546850Y9861550D01*
X6499656Y9861550D01*
X6501790Y9856927D01*
X6509105Y9845446D01*
X6517894Y9835032D01*
X6528054Y9825888D01*
X6539280Y9818166D01*
G37*
G36*
X6635750Y9814356D02*
G01*
X6643319Y9818166D01*
X6654546Y9825888D01*
X6664706Y9835032D01*
X6673494Y9845446D01*
X6680809Y9856927D01*
X6682943Y9861550D01*
X6635750Y9861550D01*
G37*
G36*
X1889760Y9850577D02*
G01*
X1889760Y9906000D01*
X1836013Y9906000D01*
X1839315Y9899396D01*
X1847443Y9887102D01*
X1857044Y9875875D01*
X1867966Y9865969D01*
X1880006Y9857435D01*
X1886153Y9854133D01*
X1889353Y9851390D01*
G37*
G36*
X1996439Y9850577D02*
G01*
X1996846Y9851390D01*
X2000046Y9854133D01*
X2006193Y9857435D01*
X2018233Y9865969D01*
X2029155Y9875875D01*
X2038756Y9887102D01*
X2046884Y9899396D01*
X2050186Y9906000D01*
X1996439Y9906000D01*
G37*
G36*
X2891078Y9925812D02*
G01*
X3032201Y9925812D01*
X3038500Y9926523D01*
X3043986Y9928453D01*
X3048863Y9931501D01*
X3052978Y9935616D01*
X3056026Y9940493D01*
X3057956Y9945979D01*
X3058668Y9952278D01*
X3058668Y10093401D01*
X3057956Y10099700D01*
X3056026Y10105186D01*
X3052978Y10110063D01*
X3048863Y10114178D01*
X3043986Y10117226D01*
X3038500Y10119156D01*
X3032201Y10119868D01*
X2891078Y10119868D01*
X2884779Y10119156D01*
X2879293Y10117226D01*
X2874416Y10114178D01*
X2870301Y10110063D01*
X2867253Y10105186D01*
X2865323Y10099700D01*
X2864612Y10093401D01*
X2864612Y9952278D01*
X2865323Y9945979D01*
X2867253Y9940493D01*
X2870301Y9935616D01*
X2874416Y9931501D01*
X2879293Y9928453D01*
X2884779Y9926523D01*
G37*
G36*
X6499504Y9950450D02*
G01*
X6546850Y9950450D01*
X6546850Y9997795D01*
X6545275Y9997135D01*
X6533540Y9990175D01*
X6522821Y9981692D01*
X6513322Y9971887D01*
X6505244Y9960914D01*
G37*
G36*
X6635750Y9950450D02*
G01*
X6683095Y9950450D01*
X6677355Y9960914D01*
X6669278Y9971887D01*
X6659778Y9981692D01*
X6649059Y9990175D01*
X6637324Y9997135D01*
X6635750Y9997795D01*
G37*
G36*
X1835759Y9095740D02*
G01*
X1889760Y9095740D01*
X1889760Y9151112D01*
X1886712Y9148216D01*
X1873859Y9140240D01*
X1862328Y9130995D01*
X1852066Y9120378D01*
X1843176Y9108592D01*
G37*

%LPD*%
G36*
X5471617Y7618882D02*
G01*
X5467705Y7619644D01*
X5464454Y7621879D01*
X5462219Y7625181D01*
X5461457Y7629042D01*
X5461457Y9392716D01*
X5462219Y9396628D01*
X5464454Y9399930D01*
X6218732Y10154208D01*
X6222441Y10156545D01*
X6226810Y10157104D01*
X6231026Y10155783D01*
X6234226Y10152786D01*
X6235903Y10148722D01*
X6237986Y10136327D01*
X6241135Y10126116D01*
X6241592Y10122509D01*
X6240729Y10118953D01*
X6238646Y10115956D01*
X6202172Y10079482D01*
X6197041Y10073233D01*
X6193485Y10066578D01*
X6191300Y10059365D01*
X6190538Y10051338D01*
X6190538Y9818878D01*
X6191300Y9810851D01*
X6193485Y9803638D01*
X6197041Y9796932D01*
X6202172Y9790734D01*
X6240881Y9751974D01*
X6243116Y9748672D01*
X6243878Y9744811D01*
X6243878Y9215272D01*
X6242964Y9211005D01*
X6240322Y9207550D01*
X6236462Y9205518D01*
X6232144Y9205264D01*
X6228080Y9206839D01*
X6224524Y9209227D01*
X6212230Y9215272D01*
X6199276Y9219641D01*
X6185865Y9222333D01*
X6172200Y9223248D01*
X6158534Y9222333D01*
X6145123Y9219641D01*
X6132169Y9215272D01*
X6119876Y9209227D01*
X6108496Y9201607D01*
X6098235Y9192564D01*
X6089192Y9182303D01*
X6081572Y9170924D01*
X6075527Y9158630D01*
X6071158Y9145676D01*
X6068466Y9132265D01*
X6067552Y9118600D01*
X6068466Y9104934D01*
X6071158Y9091523D01*
X6075527Y9078569D01*
X6081572Y9066276D01*
X6089192Y9054896D01*
X6098235Y9044635D01*
X6108496Y9035592D01*
X6119876Y9027972D01*
X6127902Y9024010D01*
X6130899Y9021775D01*
X6132880Y9018574D01*
X6133592Y9014917D01*
X6133592Y8280857D01*
X6132830Y8276996D01*
X6130594Y8273694D01*
X5478780Y7621879D01*
X5475528Y7619644D01*
G37*

%LPC*%
G36*
X5648960Y8871559D02*
G01*
X5648960Y8925560D01*
X5595162Y8925560D01*
X5596686Y8922207D01*
X5604459Y8909659D01*
X5613704Y8898128D01*
X5624322Y8887866D01*
X5636107Y8878976D01*
G37*
G36*
X5754827Y9444075D02*
G01*
X5808624Y9444075D01*
X5803392Y9453829D01*
X5794857Y9465868D01*
X5784900Y9476790D01*
X5773674Y9486392D01*
X5761380Y9494520D01*
X5754827Y9497822D01*
G37*
G36*
X5594299Y9444075D02*
G01*
X5648147Y9444075D01*
X5648147Y9498076D01*
X5635244Y9490659D01*
X5623458Y9481769D01*
X5612892Y9471507D01*
X5603646Y9459976D01*
X5595874Y9447428D01*
G37*
G36*
X5754827Y9283649D02*
G01*
X5761380Y9286951D01*
X5773674Y9295079D01*
X5784900Y9304680D01*
X5794857Y9315602D01*
X5803392Y9327642D01*
X5808624Y9337395D01*
X5754827Y9337395D01*
G37*
G36*
X5648147Y9283395D02*
G01*
X5648147Y9337395D01*
X5594299Y9337395D01*
X5595874Y9334042D01*
X5603646Y9321495D01*
X5612892Y9309963D01*
X5623458Y9299702D01*
X5635244Y9290812D01*
G37*
G36*
X5595162Y9032240D02*
G01*
X5648960Y9032240D01*
X5648960Y9086240D01*
X5636107Y9078823D01*
X5624322Y9069933D01*
X5613704Y9059672D01*
X5604459Y9048140D01*
X5596686Y9035592D01*
G37*
G36*
X5755640Y9032240D02*
G01*
X5809437Y9032240D01*
X5804204Y9041993D01*
X5795670Y9054033D01*
X5785764Y9064955D01*
X5774537Y9074556D01*
X5762244Y9082684D01*
X5755640Y9085986D01*
G37*
G36*
X5755640Y8871813D02*
G01*
X5762244Y8875115D01*
X5774537Y8883243D01*
X5785764Y8892844D01*
X5795670Y8903766D01*
X5804204Y8915806D01*
X5809437Y8925560D01*
X5755640Y8925560D01*
G37*
G36*
X5711291Y8122462D02*
G01*
X5726074Y8122920D01*
X5740654Y8125206D01*
X5754827Y8129270D01*
X5768441Y8135010D01*
X5781192Y8142376D01*
X5792978Y8151266D01*
X5803595Y8161528D01*
X5812840Y8173059D01*
X5820613Y8185607D01*
X5826760Y8199018D01*
X5831230Y8213039D01*
X5833973Y8227568D01*
X5834888Y8242300D01*
X5833973Y8257031D01*
X5831230Y8271560D01*
X5826760Y8285581D01*
X5820613Y8298992D01*
X5812840Y8311540D01*
X5803595Y8323072D01*
X5792978Y8333333D01*
X5781192Y8342223D01*
X5768441Y8349589D01*
X5759805Y8353247D01*
X5756554Y8355482D01*
X5754370Y8358733D01*
X5753608Y8362594D01*
X5753608Y8503005D01*
X5754370Y8506866D01*
X5756554Y8510117D01*
X5759805Y8512352D01*
X5768441Y8516010D01*
X5781192Y8523376D01*
X5792978Y8532266D01*
X5803595Y8542528D01*
X5812840Y8554059D01*
X5820613Y8566607D01*
X5826760Y8580018D01*
X5831230Y8594039D01*
X5833973Y8608568D01*
X5834888Y8623300D01*
X5833973Y8638032D01*
X5831230Y8652560D01*
X5826760Y8666581D01*
X5820613Y8679992D01*
X5812840Y8692540D01*
X5803595Y8704072D01*
X5792978Y8714333D01*
X5781192Y8723223D01*
X5768441Y8730589D01*
X5754827Y8736330D01*
X5740654Y8740394D01*
X5726074Y8742680D01*
X5711291Y8743086D01*
X5696610Y8741765D01*
X5682183Y8738616D01*
X5668264Y8733688D01*
X5655056Y8727084D01*
X5642762Y8718956D01*
X5631535Y8709355D01*
X5621629Y8698433D01*
X5613095Y8686393D01*
X5606084Y8673388D01*
X5600750Y8659622D01*
X5597194Y8645347D01*
X5595366Y8630666D01*
X5595366Y8615934D01*
X5597194Y8601252D01*
X5600750Y8586978D01*
X5606084Y8573211D01*
X5613095Y8560206D01*
X5621629Y8548166D01*
X5631535Y8537244D01*
X5642762Y8527643D01*
X5655056Y8519515D01*
X5673140Y8510320D01*
X5675528Y8506917D01*
X5676392Y8502853D01*
X5676392Y8362746D01*
X5675528Y8358682D01*
X5673140Y8355279D01*
X5655056Y8346084D01*
X5642762Y8337956D01*
X5631535Y8328355D01*
X5621629Y8317433D01*
X5613095Y8305393D01*
X5606084Y8292388D01*
X5600750Y8278622D01*
X5597194Y8264347D01*
X5595366Y8249666D01*
X5595366Y8234934D01*
X5597194Y8220252D01*
X5600750Y8205978D01*
X5606084Y8192211D01*
X5613095Y8179206D01*
X5621629Y8167166D01*
X5631535Y8156244D01*
X5642762Y8146643D01*
X5655056Y8138515D01*
X5668264Y8131911D01*
X5682183Y8126984D01*
X5696610Y8123834D01*
G37*

%LPD*%
G36*
X2464663Y6360617D02*
G01*
X2460396Y6361480D01*
X2456891Y6364071D01*
X2448864Y6373164D01*
X2438603Y6382207D01*
X2427224Y6389827D01*
X2414930Y6395872D01*
X2401976Y6400241D01*
X2388565Y6402933D01*
X2374900Y6403848D01*
X2361234Y6402933D01*
X2347823Y6400241D01*
X2339340Y6397396D01*
X2335631Y6396837D01*
X2331974Y6397701D01*
X2328875Y6399834D01*
X2275535Y6453124D01*
X2269337Y6458254D01*
X2262632Y6461810D01*
X2255418Y6463995D01*
X2247392Y6464808D01*
X2204669Y6464808D01*
X2200859Y6465519D01*
X2197658Y6467652D01*
X2195423Y6470751D01*
X2194509Y6474510D01*
X2195068Y6478320D01*
X2197049Y6481673D01*
X2203907Y6489496D01*
X2211527Y6500876D01*
X2217572Y6513169D01*
X2221941Y6526123D01*
X2224633Y6539534D01*
X2225548Y6553200D01*
X2224633Y6566865D01*
X2221941Y6580276D01*
X2217572Y6593230D01*
X2211527Y6605524D01*
X2203907Y6616903D01*
X2194864Y6627164D01*
X2184603Y6636207D01*
X2173224Y6643827D01*
X2160930Y6649872D01*
X2147976Y6654241D01*
X2134565Y6656933D01*
X2120900Y6657848D01*
X2107234Y6656933D01*
X2093823Y6654241D01*
X2080869Y6649872D01*
X2068575Y6643827D01*
X2057196Y6636207D01*
X2046935Y6627164D01*
X2037892Y6616903D01*
X2030272Y6605524D01*
X2024227Y6593230D01*
X2019858Y6580276D01*
X2017166Y6566865D01*
X2016252Y6553200D01*
X2017166Y6539534D01*
X2019858Y6526123D01*
X2024227Y6513169D01*
X2030272Y6500876D01*
X2037892Y6489496D01*
X2044750Y6481673D01*
X2046732Y6478320D01*
X2047290Y6474510D01*
X2046376Y6470751D01*
X2044141Y6467652D01*
X2040940Y6465519D01*
X2037130Y6464808D01*
X1950669Y6464808D01*
X1946859Y6465519D01*
X1943658Y6467652D01*
X1941423Y6470751D01*
X1940509Y6474510D01*
X1941068Y6478320D01*
X1943049Y6481673D01*
X1949907Y6489496D01*
X1957527Y6500876D01*
X1963572Y6513169D01*
X1967941Y6526123D01*
X1970633Y6539534D01*
X1971548Y6553200D01*
X1970633Y6566865D01*
X1967941Y6580276D01*
X1963572Y6593230D01*
X1957527Y6605524D01*
X1949907Y6616903D01*
X1940864Y6627164D01*
X1930603Y6636207D01*
X1919224Y6643827D01*
X1906930Y6649872D01*
X1893976Y6654241D01*
X1880565Y6656933D01*
X1866900Y6657848D01*
X1853234Y6656933D01*
X1839823Y6654241D01*
X1826869Y6649872D01*
X1814575Y6643827D01*
X1803196Y6636207D01*
X1792935Y6627164D01*
X1783892Y6616903D01*
X1776272Y6605524D01*
X1770227Y6593230D01*
X1765858Y6580276D01*
X1763166Y6566865D01*
X1762252Y6553200D01*
X1763166Y6539534D01*
X1765858Y6526123D01*
X1770227Y6513169D01*
X1776272Y6500876D01*
X1783892Y6489496D01*
X1790750Y6481673D01*
X1792732Y6478320D01*
X1793290Y6474510D01*
X1792376Y6470751D01*
X1790141Y6467652D01*
X1786940Y6465519D01*
X1783130Y6464808D01*
X1696669Y6464808D01*
X1692859Y6465519D01*
X1689658Y6467652D01*
X1687423Y6470751D01*
X1686509Y6474510D01*
X1687068Y6478320D01*
X1689049Y6481673D01*
X1695907Y6489496D01*
X1703527Y6500876D01*
X1709572Y6513169D01*
X1713941Y6526123D01*
X1716633Y6539534D01*
X1717548Y6553200D01*
X1716633Y6566865D01*
X1713941Y6580276D01*
X1709572Y6593230D01*
X1703527Y6605524D01*
X1695907Y6616903D01*
X1686864Y6627164D01*
X1676603Y6636207D01*
X1665224Y6643827D01*
X1657197Y6647789D01*
X1654200Y6650024D01*
X1652219Y6653225D01*
X1651507Y6656882D01*
X1651507Y6750812D01*
X1652270Y6754723D01*
X1654505Y6758025D01*
X2485593Y7589113D01*
X2488996Y7591399D01*
X2493060Y7592110D01*
X2497074Y7591145D01*
X2500325Y7588707D01*
X2502408Y7585151D01*
X2502916Y7581087D01*
X2499156Y7569149D01*
X2498344Y7561122D01*
X2498344Y6645656D01*
X2499156Y6637629D01*
X2501341Y6630416D01*
X2504897Y6623710D01*
X2510028Y6617512D01*
X2528265Y6599224D01*
X2530398Y6596125D01*
X2531262Y6592468D01*
X2530703Y6588759D01*
X2527858Y6580276D01*
X2525166Y6566865D01*
X2524252Y6553200D01*
X2525166Y6539534D01*
X2527858Y6526123D01*
X2532227Y6513169D01*
X2538272Y6500876D01*
X2545892Y6489496D01*
X2554935Y6479235D01*
X2565196Y6470192D01*
X2575509Y6463284D01*
X2578506Y6460236D01*
X2579979Y6456172D01*
X2579624Y6451904D01*
X2577541Y6448145D01*
X2574086Y6445605D01*
X2568651Y6444691D01*
X2560624Y6443878D01*
X2553411Y6441694D01*
X2546705Y6438138D01*
X2540508Y6433007D01*
X2474976Y6367475D01*
X2472334Y6364325D01*
X2468930Y6361633D01*
G37*

%LPC*%
G36*
X2281021Y6598920D02*
G01*
X2329180Y6598920D01*
X2329180Y6647078D01*
X2322576Y6643827D01*
X2311196Y6636207D01*
X2300935Y6627164D01*
X2291892Y6616903D01*
X2284272Y6605524D01*
G37*
G36*
X2420620Y6598920D02*
G01*
X2468778Y6598920D01*
X2465527Y6605524D01*
X2457907Y6616903D01*
X2448864Y6627164D01*
X2438603Y6636207D01*
X2427224Y6643827D01*
X2420620Y6647078D01*
G37*
G36*
X2420620Y6459321D02*
G01*
X2427224Y6462572D01*
X2438603Y6470192D01*
X2448864Y6479235D01*
X2457907Y6489496D01*
X2465527Y6500876D01*
X2468778Y6507480D01*
X2420620Y6507480D01*
G37*
G36*
X2329180Y6459321D02*
G01*
X2329180Y6507480D01*
X2281021Y6507480D01*
X2284272Y6500876D01*
X2291892Y6489496D01*
X2300935Y6479235D01*
X2311196Y6470192D01*
X2322576Y6462572D01*
G37*

%LPD*%
D10*
X1943100Y9042400D02*
G01*
X1104900Y8204200D01*
X1104900Y7454900D01*
X1943100Y9271000D02*
G01*
X1943100Y9042400D01*
X2374900Y6553200D02*
G01*
X2374900Y6805879D01*
X2056079Y7124700D01*
X6680200Y9118600D02*
G01*
X6680200Y9011742D01*
X6680200Y9011742D02*
G01*
X6760921Y8931020D01*
X6760921Y7408621D01*
X6591300Y7239000D01*
X6591300Y9906000D02*
G01*
X6680200Y9817100D01*
X6680200Y9118600D01*
X5702300Y8978900D02*
G01*
X5701461Y8979738D01*
X5701461Y9390735D01*
X3873500Y8242300D02*
G01*
X3873500Y8623300D01*
X1943100Y9499600D02*
G01*
X1943100Y9271000D01*
X1943100Y9730739D02*
G01*
X1943100Y9499600D01*
X1943100Y9959339D02*
G01*
X1943100Y9730739D01*
X3172459Y10266679D02*
G01*
X3271697Y10266679D01*
X4635500Y8978900D02*
G01*
X4485055Y8978900D01*
X3271697Y10192258D01*
X3271697Y10266679D01*
X5168900Y6299200D02*
G01*
X5055209Y6412890D01*
X5055209Y7032345D01*
X6282486Y8259622D01*
X6282486Y9765004D01*
X6229121Y9818370D01*
X6229121Y10051821D01*
X6337300Y10160000D01*
X6426200Y9118600D02*
G01*
X6426200Y8345474D01*
X5168900Y7088174D01*
X5168900Y6553200D01*
X6537401Y8603411D02*
G01*
X6537401Y9705898D01*
X6337300Y9906000D01*
X6591300Y8509000D02*
G01*
X6537401Y8562898D01*
X6537401Y8603411D01*
X6537401Y8603411D02*
G01*
X6537401Y8372551D01*
X5563895Y7399045D01*
X1689100Y9842500D02*
G01*
X1689100Y9878034D01*
X2010156Y10199090D01*
X2451963Y10199090D01*
X3849954Y8801100D01*
X3876979Y8801100D01*
X4402023Y8276056D01*
X4402023Y7751876D01*
X4648200Y7505700D01*
X6591300Y7493000D02*
G01*
X6562394Y7493000D01*
X6094222Y7024827D01*
X6094222Y6557670D01*
X5962751Y6426200D01*
X5803900Y6426200D01*
X5676900Y6299200D01*
X1854200Y7467600D02*
G01*
X1854200Y7360742D01*
X1854200Y7360742D02*
G01*
X1506016Y7012559D01*
X1506016Y6506260D01*
X1586077Y6426200D01*
X2247900Y6426200D01*
X2374900Y6299200D01*
X3873500Y8978900D02*
G01*
X3859961Y8992438D01*
X3859961Y9390735D01*
X5715000Y8242300D02*
G01*
X5715000Y8623300D01*
X6591300Y8001000D02*
G01*
X6708825Y7883474D01*
X6708825Y7457211D01*
X6628307Y7376693D01*
X6503873Y7376693D01*
X6455841Y7328662D01*
X6455841Y6824141D01*
X5930900Y6299200D01*
X1358900Y6553200D02*
G01*
X1358900Y7255789D01*
X2716961Y8613851D01*
X3898900Y6553200D02*
G01*
X3930446Y6553200D01*
X5261432Y7884185D01*
X5261432Y9625761D01*
X6211011Y10575340D01*
X6211011Y10698479D01*
X6297929Y10785398D01*
X6637121Y10785398D01*
X6711975Y10710545D01*
X6711975Y10534675D01*
X6591300Y10414000D01*
X4152900Y6553200D02*
G01*
X5341111Y7741412D01*
X5341111Y9417812D01*
X6337300Y10414000D01*
X4752340Y10022839D02*
G01*
X4752340Y9923602D01*
X4635500Y8242300D02*
G01*
X4759096Y8365896D01*
X4759096Y9916845D01*
X4752340Y9923602D01*
X2716961Y9352635D02*
G01*
X2360929Y8996603D01*
X2360929Y8352688D01*
X1104900Y7096658D01*
X1104900Y6553200D01*
X2716961Y7875092D02*
G01*
X1612900Y6771030D01*
X1612900Y6553200D01*
X4406900Y6553200D02*
G01*
X5422849Y7569149D01*
X5422849Y9412935D01*
X6296913Y10287000D01*
X6359448Y10287000D01*
X6441643Y10369194D01*
X6441643Y10518343D01*
X6591300Y10668000D01*
X3478961Y8613851D02*
G01*
X3473881Y8608771D01*
X3473881Y8244484D01*
X2711881Y8983243D02*
G01*
X2842488Y8852636D01*
X2842488Y8547811D01*
X2582799Y8288121D01*
X2582799Y8186318D01*
X2842539Y7926578D01*
X2842539Y7809077D01*
X2759202Y7725740D01*
X2701061Y7725740D01*
X2536952Y7561630D01*
X2536952Y6645147D01*
X2628900Y6553200D01*
X2882900Y6553200D02*
G01*
X2578633Y6857466D01*
X2578633Y7545171D01*
X2703855Y7670393D01*
X2761665Y7670393D01*
X2883408Y7792135D01*
X2883408Y8072958D01*
X2711881Y8244484D01*
X2711881Y7505700D02*
G01*
X3136900Y7080681D01*
X3136900Y6553200D01*
X4953000Y8623300D02*
G01*
X4824450Y8494750D01*
X4824450Y7505039D01*
X4088561Y6769150D01*
X3446119Y6769150D01*
X3243783Y6566814D01*
X3243783Y6496481D01*
X3153384Y6406083D01*
X2568143Y6406083D01*
X2501900Y6339839D01*
X2501900Y6266053D01*
X2426258Y6190411D01*
X1975688Y6190411D01*
X1866900Y6299200D01*
X4953000Y8623300D02*
G01*
X4812893Y8763406D01*
X4812893Y9474149D01*
X4963159Y9624415D01*
X4963159Y10266679D01*
X2197100Y9613900D02*
G01*
X2636113Y9613900D01*
X3231692Y9018320D01*
X3231692Y8122361D01*
X3478961Y7875092D01*
X3473881Y7505700D02*
G01*
X3478961Y7510779D01*
X3478961Y7875092D01*
X5422900Y6553200D02*
G01*
X5422900Y7086600D01*
X6591300Y8255000D01*
X6172200Y9118600D02*
G01*
X6172200Y8260664D01*
X4914900Y7003364D01*
X4914900Y6553200D01*
X5422900Y6299200D02*
G01*
X5549900Y6426200D01*
X5549900Y6705600D01*
X6591300Y7747000D01*
D14*
G01*
X6337300Y9906000D03*
G01*
X6591300Y9906000D03*
G01*
X6337300Y10160000D03*
G01*
X6591300Y10160000D03*
G01*
X6337300Y10414000D03*
G01*
X6591300Y10414000D03*
G01*
X6337300Y10668000D03*
G01*
X6591300Y10668000D03*
G01*
X6337300Y10922000D03*
G01*
X6591300Y10922000D03*
D15*
G01*
X6591300Y8509000D03*
G01*
X6591300Y8255000D03*
G01*
X6591300Y8001000D03*
G01*
X6591300Y7747000D03*
G01*
X6591300Y7493000D03*
G36*
X6670040Y7160260D02*
G01*
X6670040Y7317739D01*
X6512559Y7317739D01*
X6512559Y7160260D01*
G37*
G36*
X1026160Y6377939D02*
G01*
X1183639Y6377939D01*
X1183639Y6220460D01*
X1026160Y6220460D01*
G37*
G01*
X1104900Y6553200D03*
G01*
X1358900Y6299200D03*
G01*
X1358900Y6553200D03*
G01*
X1612900Y6299200D03*
G01*
X1612900Y6553200D03*
G01*
X1866900Y6299200D03*
G01*
X1866900Y6553200D03*
G01*
X2120900Y6299200D03*
G01*
X2120900Y6553200D03*
G01*
X2374900Y6299200D03*
G01*
X2374900Y6553200D03*
G01*
X2628900Y6299200D03*
G01*
X2628900Y6553200D03*
G01*
X2882900Y6299200D03*
G01*
X2882900Y6553200D03*
G01*
X3136900Y6299200D03*
G01*
X3136900Y6553200D03*
G01*
X3390900Y6299200D03*
G01*
X3390900Y6553200D03*
G01*
X3644900Y6299200D03*
G01*
X3644900Y6553200D03*
G01*
X3898900Y6299200D03*
G01*
X3898900Y6553200D03*
G01*
X4152900Y6299200D03*
G01*
X4152900Y6553200D03*
G01*
X4406900Y6299200D03*
G01*
X4406900Y6553200D03*
G01*
X4660900Y6299200D03*
G01*
X4660900Y6553200D03*
G01*
X4914900Y6299200D03*
G01*
X4914900Y6553200D03*
G01*
X5168900Y6299200D03*
G01*
X5168900Y6553200D03*
G01*
X5422900Y6299200D03*
G01*
X5422900Y6553200D03*
G01*
X5676900Y6299200D03*
G01*
X5676900Y6553200D03*
G01*
X5930900Y6299200D03*
G01*
X5930900Y6553200D03*
D17*
G01*
X3982720Y10566400D03*
G01*
X2626359Y10566400D03*
G01*
X3302000Y10647679D03*
G36*
X3360420Y10337800D02*
G01*
X3502659Y10337800D01*
X3502659Y10195560D01*
X3360420Y10195560D01*
G37*
G36*
X3101340Y10337800D02*
G01*
X3243579Y10337800D01*
X3243579Y10195560D01*
X3101340Y10195560D01*
G37*
G36*
X2890520Y10337800D02*
G01*
X3032759Y10337800D01*
X3032759Y10195560D01*
X2890520Y10195560D01*
G37*
G36*
X3571240Y10337800D02*
G01*
X3713479Y10337800D01*
X3713479Y10195560D01*
X3571240Y10195560D01*
G37*
G36*
X3571240Y10088879D02*
G01*
X3713479Y10088879D01*
X3713479Y9946639D01*
X3571240Y9946639D01*
G37*
G36*
X2890520Y10093960D02*
G01*
X3032759Y10093960D01*
X3032759Y9951720D01*
X2890520Y9951720D01*
G37*
G01*
X5773420Y10566400D03*
G01*
X4417059Y10566400D03*
G01*
X5092700Y10647679D03*
G36*
X5151120Y10337800D02*
G01*
X5293359Y10337800D01*
X5293359Y10195560D01*
X5151120Y10195560D01*
G37*
G36*
X4892040Y10337800D02*
G01*
X5034279Y10337800D01*
X5034279Y10195560D01*
X4892040Y10195560D01*
G37*
G36*
X4681220Y10337800D02*
G01*
X4823459Y10337800D01*
X4823459Y10195560D01*
X4681220Y10195560D01*
G37*
G36*
X5361940Y10337800D02*
G01*
X5504179Y10337800D01*
X5504179Y10195560D01*
X5361940Y10195560D01*
G37*
G36*
X5361940Y10088879D02*
G01*
X5504179Y10088879D01*
X5504179Y9946639D01*
X5361940Y9946639D01*
G37*
G36*
X4681220Y10093960D02*
G01*
X4823459Y10093960D01*
X4823459Y9951720D01*
X4681220Y9951720D01*
G37*
D16*
G01*
X1854200Y7467600D03*
D15*
G01*
X6172200Y9118600D03*
G01*
X6426200Y9118600D03*
D16*
G01*
X6680200Y9118600D03*
D19*
G01*
X3886200Y7874000D03*
G01*
X4648200Y7874000D03*
G01*
X3886200Y7505700D03*
G01*
X4648200Y7505700D03*
G01*
X4621961Y9390735D03*
G01*
X3859961Y9390735D03*
G01*
X5701461Y9390735D03*
G01*
X4939461Y9390735D03*
G01*
X4635500Y8978900D03*
G01*
X3873500Y8978900D03*
G01*
X5702300Y8978900D03*
G01*
X4940300Y8978900D03*
G01*
X3873500Y8623300D03*
G01*
X4635500Y8623300D03*
G01*
X4953000Y8623300D03*
G01*
X5715000Y8623300D03*
G01*
X3873500Y8242300D03*
G01*
X4635500Y8242300D03*
G01*
X4953000Y8242300D03*
G01*
X5715000Y8242300D03*
G01*
X2711881Y8983243D03*
G01*
X3473881Y8983243D03*
G01*
X2711881Y8244484D03*
G01*
X3473881Y8244484D03*
G01*
X2711881Y7505700D03*
G01*
X3473881Y7505700D03*
G01*
X2716961Y9352635D03*
G01*
X3478961Y9352635D03*
G01*
X2716961Y8613851D03*
G01*
X3478961Y8613851D03*
G01*
X2716961Y7875092D03*
G01*
X3478961Y7875092D03*
D16*
G01*
X1104900Y7454900D03*
D19*
G01*
X1943100Y9271000D03*
G01*
X1943100Y9499600D03*
G01*
X1943100Y9730739D03*
G01*
X1943100Y9959339D03*
G01*
X1689100Y9156700D03*
G01*
X1689100Y9385300D03*
G01*
X1689100Y9613900D03*
G01*
X1689100Y9842500D03*
D20*
G01*
X1943100Y8338820D03*
G01*
X1943100Y10838179D03*
D19*
G01*
X1943100Y9042400D03*
G01*
X1689100Y10073639D03*
G01*
X2197100Y9156700D03*
G01*
X2197100Y9385300D03*
G01*
X2197100Y9613900D03*
G01*
X2197100Y9842500D03*
G01*
X2197100Y10073639D03*
D11*
G01*
X2056079Y7124700D03*
G01*
X5563895Y7399045D03*
M02*
