G04 Layer: TopLayer*
G04 EasyEDA v6.4.25, 2021-12-02T19:10:48+01:00*
G04 15ecca0207564e248d2aa7e8b5e7a0d8,208c6ab82c1b43e5b5e4dc1230921930,10*
G04 Gerber Generator version 0.2*
G04 Scale: 100 percent, Rotated: No, Reflected: No *
G04 Dimensions in millimeters *
G04 leading zeros omitted , absolute positions ,4 integer and 5 decimal *
%FSLAX45Y45*%
%MOMM*%

%ADD10C,0.2540*%
%ADD11C,0.6100*%
%ADD12R,2.1590X1.0922*%
%ADD13R,2.1590X3.5052*%
%ADD14C,1.5240*%
%ADD15C,1.5748*%
%ADD16R,1.5748X1.5748*%
%ADD17C,3.5001*%
%ADD19C,1.8796*%
%ADD20C,5.0800*%

%LPD*%
G36*
X798068Y6121908D02*
G01*
X794156Y6122670D01*
X790905Y6124905D01*
X788670Y6128156D01*
X787908Y6132068D01*
X787908Y11139932D01*
X788670Y11143843D01*
X790905Y11147094D01*
X794156Y11149330D01*
X798068Y11150092D01*
X6821931Y11150092D01*
X6825843Y11149330D01*
X6829094Y11147094D01*
X6831330Y11143843D01*
X6832092Y11139932D01*
X6832092Y6132068D01*
X6831330Y6128156D01*
X6829094Y6124905D01*
X6825843Y6122670D01*
X6821931Y6121908D01*
G37*

%LPC*%
G36*
X6337300Y10819892D02*
G01*
X6350914Y10820806D01*
X6364274Y10823549D01*
X6377178Y10828020D01*
X6389319Y10834166D01*
X6400546Y10841888D01*
X6410706Y10851032D01*
X6419494Y10861446D01*
X6426809Y10872927D01*
X6432550Y10885322D01*
X6436614Y10898327D01*
X6438849Y10911789D01*
X6439306Y10925403D01*
X6437985Y10938967D01*
X6434785Y10952226D01*
X6429908Y10964976D01*
X6423355Y10976914D01*
X6415278Y10987887D01*
X6405778Y10997692D01*
X6395059Y11006175D01*
X6383324Y11013135D01*
X6370777Y11018418D01*
X6357620Y11022025D01*
X6344107Y11023854D01*
X6330492Y11023854D01*
X6316980Y11022025D01*
X6303822Y11018418D01*
X6291275Y11013135D01*
X6279540Y11006175D01*
X6268821Y10997692D01*
X6259322Y10987887D01*
X6251244Y10976914D01*
X6244691Y10964976D01*
X6239814Y10952226D01*
X6236614Y10938967D01*
X6235293Y10925403D01*
X6235750Y10911789D01*
X6237986Y10898327D01*
X6242050Y10885322D01*
X6247790Y10872927D01*
X6255105Y10861446D01*
X6263894Y10851032D01*
X6274054Y10841888D01*
X6285280Y10834166D01*
X6297422Y10828020D01*
X6310325Y10823549D01*
X6323685Y10820806D01*
G37*
G36*
X3136900Y6194552D02*
G01*
X3150565Y6195466D01*
X3163976Y6198158D01*
X3176930Y6202527D01*
X3189224Y6208572D01*
X3200603Y6216192D01*
X3210864Y6225235D01*
X3219907Y6235496D01*
X3227527Y6246876D01*
X3233572Y6259169D01*
X3237941Y6272123D01*
X3240633Y6285534D01*
X3241548Y6299200D01*
X3240633Y6312865D01*
X3237941Y6326276D01*
X3233572Y6339230D01*
X3227527Y6351524D01*
X3219907Y6362903D01*
X3210864Y6373164D01*
X3200603Y6382207D01*
X3189224Y6389827D01*
X3176930Y6395872D01*
X3163976Y6400241D01*
X3150565Y6402933D01*
X3136900Y6403848D01*
X3123234Y6402933D01*
X3109823Y6400241D01*
X3096869Y6395872D01*
X3084576Y6389827D01*
X3073196Y6382207D01*
X3062935Y6373164D01*
X3053892Y6362903D01*
X3046272Y6351524D01*
X3040227Y6339230D01*
X3035858Y6326276D01*
X3033166Y6312865D01*
X3032252Y6299200D01*
X3033166Y6285534D01*
X3035858Y6272123D01*
X3040227Y6259169D01*
X3046272Y6246876D01*
X3053892Y6235496D01*
X3062935Y6225235D01*
X3073196Y6216192D01*
X3084576Y6208572D01*
X3096869Y6202527D01*
X3109823Y6198158D01*
X3123234Y6195466D01*
G37*
G36*
X5422900Y6194552D02*
G01*
X5436565Y6195466D01*
X5449976Y6198158D01*
X5462930Y6202527D01*
X5475224Y6208572D01*
X5486603Y6216192D01*
X5496864Y6225235D01*
X5505907Y6235496D01*
X5513527Y6246876D01*
X5519572Y6259169D01*
X5523941Y6272123D01*
X5526633Y6285534D01*
X5527548Y6299200D01*
X5526633Y6312865D01*
X5523941Y6326276D01*
X5519572Y6339230D01*
X5513527Y6351524D01*
X5505907Y6362903D01*
X5496864Y6373164D01*
X5486603Y6382207D01*
X5475224Y6389827D01*
X5462930Y6395872D01*
X5449976Y6400241D01*
X5436565Y6402933D01*
X5422900Y6403848D01*
X5409234Y6402933D01*
X5395823Y6400241D01*
X5382869Y6395872D01*
X5370576Y6389827D01*
X5359196Y6382207D01*
X5348935Y6373164D01*
X5339892Y6362903D01*
X5332272Y6351524D01*
X5326227Y6339230D01*
X5321858Y6326276D01*
X5319166Y6312865D01*
X5318252Y6299200D01*
X5319166Y6285534D01*
X5321858Y6272123D01*
X5326227Y6259169D01*
X5332272Y6246876D01*
X5339892Y6235496D01*
X5348935Y6225235D01*
X5359196Y6216192D01*
X5370576Y6208572D01*
X5382869Y6202527D01*
X5395823Y6198158D01*
X5409234Y6195466D01*
G37*
G36*
X3390900Y6194552D02*
G01*
X3404565Y6195466D01*
X3417976Y6198158D01*
X3430930Y6202527D01*
X3443224Y6208572D01*
X3454603Y6216192D01*
X3464864Y6225235D01*
X3473907Y6235496D01*
X3481527Y6246876D01*
X3487572Y6259169D01*
X3491941Y6272123D01*
X3494633Y6285534D01*
X3495548Y6299200D01*
X3494633Y6312865D01*
X3491941Y6326276D01*
X3487572Y6339230D01*
X3481527Y6351524D01*
X3473907Y6362903D01*
X3464864Y6373164D01*
X3454603Y6382207D01*
X3443224Y6389827D01*
X3430930Y6395872D01*
X3417976Y6400241D01*
X3404565Y6402933D01*
X3390900Y6403848D01*
X3377234Y6402933D01*
X3363823Y6400241D01*
X3350869Y6395872D01*
X3338576Y6389827D01*
X3327196Y6382207D01*
X3316935Y6373164D01*
X3307892Y6362903D01*
X3300272Y6351524D01*
X3294227Y6339230D01*
X3289858Y6326276D01*
X3287166Y6312865D01*
X3286251Y6299200D01*
X3287166Y6285534D01*
X3289858Y6272123D01*
X3294227Y6259169D01*
X3300272Y6246876D01*
X3307892Y6235496D01*
X3316935Y6225235D01*
X3327196Y6216192D01*
X3338576Y6208572D01*
X3350869Y6202527D01*
X3363823Y6198158D01*
X3377234Y6195466D01*
G37*
G36*
X5168900Y6194552D02*
G01*
X5182565Y6195466D01*
X5195976Y6198158D01*
X5208930Y6202527D01*
X5221224Y6208572D01*
X5232603Y6216192D01*
X5242864Y6225235D01*
X5251907Y6235496D01*
X5259527Y6246876D01*
X5265572Y6259169D01*
X5269941Y6272123D01*
X5272633Y6285534D01*
X5273548Y6299200D01*
X5272633Y6312865D01*
X5269941Y6326276D01*
X5265572Y6339230D01*
X5259527Y6351524D01*
X5251907Y6362903D01*
X5242864Y6373164D01*
X5232603Y6382207D01*
X5221224Y6389827D01*
X5208930Y6395872D01*
X5195976Y6400241D01*
X5182565Y6402933D01*
X5168900Y6403848D01*
X5155234Y6402933D01*
X5141823Y6400241D01*
X5128869Y6395872D01*
X5116576Y6389827D01*
X5105196Y6382207D01*
X5094935Y6373164D01*
X5085892Y6362903D01*
X5078272Y6351524D01*
X5072227Y6339230D01*
X5067858Y6326276D01*
X5065166Y6312865D01*
X5064252Y6299200D01*
X5065166Y6285534D01*
X5067858Y6272123D01*
X5072227Y6259169D01*
X5078272Y6246876D01*
X5085892Y6235496D01*
X5094935Y6225235D01*
X5105196Y6216192D01*
X5116576Y6208572D01*
X5128869Y6202527D01*
X5141823Y6198158D01*
X5155234Y6195466D01*
G37*
G36*
X3644900Y6194552D02*
G01*
X3658565Y6195466D01*
X3671976Y6198158D01*
X3684930Y6202527D01*
X3697224Y6208572D01*
X3708603Y6216192D01*
X3718864Y6225235D01*
X3727907Y6235496D01*
X3735527Y6246876D01*
X3741572Y6259169D01*
X3745941Y6272123D01*
X3748633Y6285534D01*
X3749548Y6299200D01*
X3748633Y6312865D01*
X3745941Y6326276D01*
X3741572Y6339230D01*
X3735527Y6351524D01*
X3727907Y6362903D01*
X3718864Y6373164D01*
X3708603Y6382207D01*
X3697224Y6389827D01*
X3684930Y6395872D01*
X3671976Y6400241D01*
X3658565Y6402933D01*
X3644900Y6403848D01*
X3631234Y6402933D01*
X3617823Y6400241D01*
X3604869Y6395872D01*
X3592576Y6389827D01*
X3581196Y6382207D01*
X3570935Y6373164D01*
X3561892Y6362903D01*
X3554272Y6351524D01*
X3548227Y6339230D01*
X3543858Y6326276D01*
X3541166Y6312865D01*
X3540251Y6299200D01*
X3541166Y6285534D01*
X3543858Y6272123D01*
X3548227Y6259169D01*
X3554272Y6246876D01*
X3561892Y6235496D01*
X3570935Y6225235D01*
X3581196Y6216192D01*
X3592576Y6208572D01*
X3604869Y6202527D01*
X3617823Y6198158D01*
X3631234Y6195466D01*
G37*
G36*
X2882900Y6194552D02*
G01*
X2896565Y6195466D01*
X2909976Y6198158D01*
X2922930Y6202527D01*
X2935224Y6208572D01*
X2946603Y6216192D01*
X2956864Y6225235D01*
X2965907Y6235496D01*
X2973527Y6246876D01*
X2979572Y6259169D01*
X2983941Y6272123D01*
X2986633Y6285534D01*
X2987548Y6299200D01*
X2986633Y6312865D01*
X2983941Y6326276D01*
X2979572Y6339230D01*
X2973527Y6351524D01*
X2965907Y6362903D01*
X2956864Y6373164D01*
X2946603Y6382207D01*
X2935224Y6389827D01*
X2922930Y6395872D01*
X2909976Y6400241D01*
X2896565Y6402933D01*
X2882900Y6403848D01*
X2869234Y6402933D01*
X2855823Y6400241D01*
X2842869Y6395872D01*
X2830576Y6389827D01*
X2819196Y6382207D01*
X2808935Y6373164D01*
X2799892Y6362903D01*
X2792272Y6351524D01*
X2786227Y6339230D01*
X2781858Y6326276D01*
X2779166Y6312865D01*
X2778252Y6299200D01*
X2779166Y6285534D01*
X2781858Y6272123D01*
X2786227Y6259169D01*
X2792272Y6246876D01*
X2799892Y6235496D01*
X2808935Y6225235D01*
X2819196Y6216192D01*
X2830576Y6208572D01*
X2842869Y6202527D01*
X2855823Y6198158D01*
X2869234Y6195466D01*
G37*
G36*
X4914900Y6194552D02*
G01*
X4928565Y6195466D01*
X4941976Y6198158D01*
X4954930Y6202527D01*
X4967224Y6208572D01*
X4978603Y6216192D01*
X4988864Y6225235D01*
X4997907Y6235496D01*
X5005527Y6246876D01*
X5011572Y6259169D01*
X5015941Y6272123D01*
X5018633Y6285534D01*
X5019548Y6299200D01*
X5018633Y6312865D01*
X5015941Y6326276D01*
X5011572Y6339230D01*
X5005527Y6351524D01*
X4997907Y6362903D01*
X4988864Y6373164D01*
X4978603Y6382207D01*
X4967224Y6389827D01*
X4954930Y6395872D01*
X4941976Y6400241D01*
X4928565Y6402933D01*
X4914900Y6403848D01*
X4901234Y6402933D01*
X4887823Y6400241D01*
X4874869Y6395872D01*
X4862576Y6389827D01*
X4851196Y6382207D01*
X4840935Y6373164D01*
X4831892Y6362903D01*
X4824272Y6351524D01*
X4818227Y6339230D01*
X4813858Y6326276D01*
X4811166Y6312865D01*
X4810252Y6299200D01*
X4811166Y6285534D01*
X4813858Y6272123D01*
X4818227Y6259169D01*
X4824272Y6246876D01*
X4831892Y6235496D01*
X4840935Y6225235D01*
X4851196Y6216192D01*
X4862576Y6208572D01*
X4874869Y6202527D01*
X4887823Y6198158D01*
X4901234Y6195466D01*
G37*
G36*
X4406900Y6194552D02*
G01*
X4420565Y6195466D01*
X4433976Y6198158D01*
X4446930Y6202527D01*
X4459224Y6208572D01*
X4470603Y6216192D01*
X4480864Y6225235D01*
X4489907Y6235496D01*
X4497527Y6246876D01*
X4503572Y6259169D01*
X4507941Y6272123D01*
X4510633Y6285534D01*
X4511548Y6299200D01*
X4510633Y6312865D01*
X4507941Y6326276D01*
X4503572Y6339230D01*
X4497527Y6351524D01*
X4489907Y6362903D01*
X4480864Y6373164D01*
X4470603Y6382207D01*
X4459224Y6389827D01*
X4446930Y6395872D01*
X4433976Y6400241D01*
X4420565Y6402933D01*
X4406900Y6403848D01*
X4393234Y6402933D01*
X4379823Y6400241D01*
X4366869Y6395872D01*
X4354576Y6389827D01*
X4343196Y6382207D01*
X4332935Y6373164D01*
X4323892Y6362903D01*
X4316272Y6351524D01*
X4310227Y6339230D01*
X4305858Y6326276D01*
X4303166Y6312865D01*
X4302252Y6299200D01*
X4303166Y6285534D01*
X4305858Y6272123D01*
X4310227Y6259169D01*
X4316272Y6246876D01*
X4323892Y6235496D01*
X4332935Y6225235D01*
X4343196Y6216192D01*
X4354576Y6208572D01*
X4366869Y6202527D01*
X4379823Y6198158D01*
X4393234Y6195466D01*
G37*
G36*
X5676900Y6194552D02*
G01*
X5690565Y6195466D01*
X5703976Y6198158D01*
X5716930Y6202527D01*
X5729224Y6208572D01*
X5740603Y6216192D01*
X5750864Y6225235D01*
X5759907Y6235496D01*
X5767527Y6246876D01*
X5773572Y6259169D01*
X5777941Y6272123D01*
X5780633Y6285534D01*
X5781548Y6299200D01*
X5780633Y6312865D01*
X5777941Y6326276D01*
X5773572Y6339230D01*
X5767527Y6351524D01*
X5759907Y6362903D01*
X5750864Y6373164D01*
X5740603Y6382207D01*
X5729224Y6389827D01*
X5716930Y6395872D01*
X5703976Y6400241D01*
X5690565Y6402933D01*
X5676900Y6403848D01*
X5663234Y6402933D01*
X5649823Y6400241D01*
X5636869Y6395872D01*
X5624576Y6389827D01*
X5613196Y6382207D01*
X5602935Y6373164D01*
X5593892Y6362903D01*
X5586272Y6351524D01*
X5580227Y6339230D01*
X5575858Y6326276D01*
X5573166Y6312865D01*
X5572252Y6299200D01*
X5573166Y6285534D01*
X5575858Y6272123D01*
X5580227Y6259169D01*
X5586272Y6246876D01*
X5593892Y6235496D01*
X5602935Y6225235D01*
X5613196Y6216192D01*
X5624576Y6208572D01*
X5636869Y6202527D01*
X5649823Y6198158D01*
X5663234Y6195466D01*
G37*
G36*
X3898900Y6194552D02*
G01*
X3912565Y6195466D01*
X3925976Y6198158D01*
X3938930Y6202527D01*
X3951224Y6208572D01*
X3962603Y6216192D01*
X3972864Y6225235D01*
X3981907Y6235496D01*
X3989527Y6246876D01*
X3995572Y6259169D01*
X3999941Y6272123D01*
X4002633Y6285534D01*
X4003548Y6299200D01*
X4002633Y6312865D01*
X3999941Y6326276D01*
X3995572Y6339230D01*
X3989527Y6351524D01*
X3981907Y6362903D01*
X3972864Y6373164D01*
X3962603Y6382207D01*
X3951224Y6389827D01*
X3938930Y6395872D01*
X3925976Y6400241D01*
X3912565Y6402933D01*
X3898900Y6403848D01*
X3885234Y6402933D01*
X3871823Y6400241D01*
X3858869Y6395872D01*
X3846576Y6389827D01*
X3835196Y6382207D01*
X3824935Y6373164D01*
X3815892Y6362903D01*
X3808272Y6351524D01*
X3802227Y6339230D01*
X3797858Y6326276D01*
X3795166Y6312865D01*
X3794251Y6299200D01*
X3795166Y6285534D01*
X3797858Y6272123D01*
X3802227Y6259169D01*
X3808272Y6246876D01*
X3815892Y6235496D01*
X3824935Y6225235D01*
X3835196Y6216192D01*
X3846576Y6208572D01*
X3858869Y6202527D01*
X3871823Y6198158D01*
X3885234Y6195466D01*
G37*
G36*
X4660900Y6194552D02*
G01*
X4674565Y6195466D01*
X4687976Y6198158D01*
X4700930Y6202527D01*
X4713224Y6208572D01*
X4724603Y6216192D01*
X4734864Y6225235D01*
X4743907Y6235496D01*
X4751527Y6246876D01*
X4757572Y6259169D01*
X4761941Y6272123D01*
X4764633Y6285534D01*
X4765548Y6299200D01*
X4764633Y6312865D01*
X4761941Y6326276D01*
X4757572Y6339230D01*
X4751527Y6351524D01*
X4743907Y6362903D01*
X4734864Y6373164D01*
X4724603Y6382207D01*
X4713224Y6389827D01*
X4700930Y6395872D01*
X4687976Y6400241D01*
X4674565Y6402933D01*
X4660900Y6403848D01*
X4647234Y6402933D01*
X4633823Y6400241D01*
X4620869Y6395872D01*
X4608576Y6389827D01*
X4597196Y6382207D01*
X4586935Y6373164D01*
X4577892Y6362903D01*
X4570272Y6351524D01*
X4564227Y6339230D01*
X4559858Y6326276D01*
X4557166Y6312865D01*
X4556252Y6299200D01*
X4557166Y6285534D01*
X4559858Y6272123D01*
X4564227Y6259169D01*
X4570272Y6246876D01*
X4577892Y6235496D01*
X4586935Y6225235D01*
X4597196Y6216192D01*
X4608576Y6208572D01*
X4620869Y6202527D01*
X4633823Y6198158D01*
X4647234Y6195466D01*
G37*
G36*
X5930900Y6194552D02*
G01*
X5944565Y6195466D01*
X5957976Y6198158D01*
X5970930Y6202527D01*
X5983224Y6208572D01*
X5994603Y6216192D01*
X6004864Y6225235D01*
X6013907Y6235496D01*
X6021527Y6246876D01*
X6027572Y6259169D01*
X6031941Y6272123D01*
X6034633Y6285534D01*
X6035548Y6299200D01*
X6034633Y6312865D01*
X6031941Y6326276D01*
X6027572Y6339230D01*
X6021527Y6351524D01*
X6013907Y6362903D01*
X6004864Y6373164D01*
X5994603Y6382207D01*
X5983224Y6389827D01*
X5970930Y6395872D01*
X5957976Y6400241D01*
X5944565Y6402933D01*
X5930900Y6403848D01*
X5917234Y6402933D01*
X5903823Y6400241D01*
X5890869Y6395872D01*
X5878576Y6389827D01*
X5867196Y6382207D01*
X5856935Y6373164D01*
X5847892Y6362903D01*
X5840272Y6351524D01*
X5834227Y6339230D01*
X5829858Y6326276D01*
X5827166Y6312865D01*
X5826252Y6299200D01*
X5827166Y6285534D01*
X5829858Y6272123D01*
X5834227Y6259169D01*
X5840272Y6246876D01*
X5847892Y6235496D01*
X5856935Y6225235D01*
X5867196Y6216192D01*
X5878576Y6208572D01*
X5890869Y6202527D01*
X5903823Y6198158D01*
X5917234Y6195466D01*
G37*
G36*
X4152900Y6194552D02*
G01*
X4166565Y6195466D01*
X4179976Y6198158D01*
X4192930Y6202527D01*
X4205224Y6208572D01*
X4216603Y6216192D01*
X4226864Y6225235D01*
X4235907Y6235496D01*
X4243527Y6246876D01*
X4249572Y6259169D01*
X4253941Y6272123D01*
X4256633Y6285534D01*
X4257548Y6299200D01*
X4256633Y6312865D01*
X4253941Y6326276D01*
X4249572Y6339230D01*
X4243527Y6351524D01*
X4235907Y6362903D01*
X4226864Y6373164D01*
X4216603Y6382207D01*
X4205224Y6389827D01*
X4192930Y6395872D01*
X4179976Y6400241D01*
X4166565Y6402933D01*
X4152900Y6403848D01*
X4139234Y6402933D01*
X4125823Y6400241D01*
X4112869Y6395872D01*
X4100576Y6389827D01*
X4089196Y6382207D01*
X4078935Y6373164D01*
X4069892Y6362903D01*
X4062272Y6351524D01*
X4056227Y6339230D01*
X4051858Y6326276D01*
X4049166Y6312865D01*
X4048251Y6299200D01*
X4049166Y6285534D01*
X4051858Y6272123D01*
X4056227Y6259169D01*
X4062272Y6246876D01*
X4069892Y6235496D01*
X4078935Y6225235D01*
X4089196Y6216192D01*
X4100576Y6208572D01*
X4112869Y6202527D01*
X4125823Y6198158D01*
X4139234Y6195466D01*
G37*
G36*
X2120900Y6194552D02*
G01*
X2134565Y6195466D01*
X2147976Y6198158D01*
X2160930Y6202527D01*
X2173224Y6208572D01*
X2184603Y6216192D01*
X2194864Y6225235D01*
X2203907Y6235496D01*
X2211527Y6246876D01*
X2217572Y6259169D01*
X2221941Y6272123D01*
X2224633Y6285534D01*
X2225548Y6299200D01*
X2224633Y6312865D01*
X2221941Y6326276D01*
X2217572Y6339230D01*
X2211527Y6351524D01*
X2203907Y6362903D01*
X2194864Y6373164D01*
X2184603Y6382207D01*
X2173224Y6389827D01*
X2160930Y6395872D01*
X2147976Y6400241D01*
X2134565Y6402933D01*
X2120900Y6403848D01*
X2107234Y6402933D01*
X2093823Y6400241D01*
X2080869Y6395872D01*
X2068575Y6389827D01*
X2057196Y6382207D01*
X2046935Y6373164D01*
X2037892Y6362903D01*
X2030272Y6351524D01*
X2024227Y6339230D01*
X2019858Y6326276D01*
X2017166Y6312865D01*
X2016252Y6299200D01*
X2017166Y6285534D01*
X2019858Y6272123D01*
X2024227Y6259169D01*
X2030272Y6246876D01*
X2037892Y6235496D01*
X2046935Y6225235D01*
X2057196Y6216192D01*
X2068575Y6208572D01*
X2080869Y6202527D01*
X2093823Y6198158D01*
X2107234Y6195466D01*
G37*
G36*
X1026718Y6194552D02*
G01*
X1183081Y6194552D01*
X1189380Y6195263D01*
X1194866Y6197193D01*
X1199743Y6200241D01*
X1203858Y6204356D01*
X1206906Y6209233D01*
X1208836Y6214719D01*
X1209548Y6221018D01*
X1209548Y6377381D01*
X1208836Y6383680D01*
X1206906Y6389166D01*
X1203858Y6394043D01*
X1199743Y6398158D01*
X1194866Y6401206D01*
X1189380Y6403136D01*
X1183081Y6403848D01*
X1026718Y6403848D01*
X1020419Y6403136D01*
X1014933Y6401206D01*
X1010056Y6398158D01*
X1005941Y6394043D01*
X1002893Y6389166D01*
X1000963Y6383680D01*
X1000252Y6377381D01*
X1000252Y6221018D01*
X1000963Y6214719D01*
X1002893Y6209233D01*
X1005941Y6204356D01*
X1010056Y6200241D01*
X1014933Y6197193D01*
X1020419Y6195263D01*
G37*
G36*
X1612900Y6194552D02*
G01*
X1626565Y6195466D01*
X1639976Y6198158D01*
X1652930Y6202527D01*
X1665224Y6208572D01*
X1676603Y6216192D01*
X1686864Y6225235D01*
X1695907Y6235496D01*
X1703527Y6246876D01*
X1709572Y6259169D01*
X1713941Y6272123D01*
X1716633Y6285534D01*
X1717548Y6299200D01*
X1716633Y6312865D01*
X1713941Y6326276D01*
X1711096Y6334760D01*
X1710537Y6338468D01*
X1711401Y6342126D01*
X1713534Y6345224D01*
X1752904Y6384594D01*
X1756206Y6386830D01*
X1760118Y6387592D01*
X1783130Y6387592D01*
X1786940Y6386880D01*
X1790141Y6384747D01*
X1792376Y6381648D01*
X1793290Y6377889D01*
X1792732Y6374079D01*
X1790750Y6370726D01*
X1783892Y6362903D01*
X1776272Y6351524D01*
X1770227Y6339230D01*
X1765858Y6326276D01*
X1763166Y6312865D01*
X1762252Y6299200D01*
X1763166Y6285534D01*
X1765858Y6272123D01*
X1770227Y6259169D01*
X1776272Y6246876D01*
X1783892Y6235496D01*
X1792935Y6225235D01*
X1803196Y6216192D01*
X1814575Y6208572D01*
X1826869Y6202527D01*
X1839823Y6198158D01*
X1853234Y6195466D01*
X1866900Y6194552D01*
X1880565Y6195466D01*
X1893976Y6198158D01*
X1906930Y6202527D01*
X1919224Y6208572D01*
X1930603Y6216192D01*
X1940864Y6225235D01*
X1949907Y6235496D01*
X1957527Y6246876D01*
X1963572Y6259169D01*
X1967941Y6272123D01*
X1970633Y6285534D01*
X1971548Y6299200D01*
X1970633Y6312865D01*
X1967941Y6326276D01*
X1963572Y6339230D01*
X1957527Y6351524D01*
X1949907Y6362903D01*
X1940864Y6373164D01*
X1931771Y6381140D01*
X1929180Y6384696D01*
X1928317Y6388963D01*
X1929333Y6393230D01*
X1932025Y6396634D01*
X1935175Y6399276D01*
X2000707Y6464808D01*
X2005838Y6471005D01*
X2009393Y6477711D01*
X2011578Y6484924D01*
X2012391Y6494170D01*
X2013305Y6498386D01*
X2015845Y6501841D01*
X2019604Y6503924D01*
X2023872Y6504279D01*
X2027936Y6502806D01*
X2030984Y6499809D01*
X2037892Y6489496D01*
X2046935Y6479235D01*
X2057196Y6470192D01*
X2068575Y6462572D01*
X2080869Y6456527D01*
X2093823Y6452158D01*
X2107234Y6449466D01*
X2120900Y6448552D01*
X2134565Y6449466D01*
X2147976Y6452158D01*
X2160930Y6456527D01*
X2173224Y6462572D01*
X2184603Y6470192D01*
X2194864Y6479235D01*
X2203907Y6489496D01*
X2211527Y6500876D01*
X2217572Y6513169D01*
X2221941Y6526123D01*
X2224633Y6539534D01*
X2225548Y6553200D01*
X2224633Y6566865D01*
X2221941Y6580276D01*
X2219096Y6588759D01*
X2218537Y6592468D01*
X2219401Y6596125D01*
X2221534Y6599224D01*
X2433523Y6811213D01*
X2436825Y6813397D01*
X2440686Y6814159D01*
X3232810Y6814159D01*
X3240836Y6814972D01*
X3248050Y6817156D01*
X3254705Y6820712D01*
X3260953Y6825843D01*
X3828237Y7393178D01*
X3831386Y7395311D01*
X3835095Y7396124D01*
X3838803Y7395565D01*
X3853383Y7390384D01*
X3867810Y7387234D01*
X3882491Y7385862D01*
X3897274Y7386320D01*
X3911854Y7388606D01*
X3926027Y7392670D01*
X3939641Y7398410D01*
X3952392Y7405776D01*
X3964178Y7414666D01*
X3974795Y7424928D01*
X3984040Y7436459D01*
X3991813Y7449007D01*
X3997960Y7462418D01*
X4002430Y7476439D01*
X4005173Y7490968D01*
X4006087Y7505700D01*
X4005173Y7520431D01*
X4002430Y7534960D01*
X3997960Y7548981D01*
X3991813Y7562392D01*
X3984040Y7574940D01*
X3974795Y7586472D01*
X3964178Y7596733D01*
X3952392Y7605623D01*
X3939641Y7612989D01*
X3926027Y7618730D01*
X3911854Y7622794D01*
X3905707Y7623759D01*
X3901592Y7625384D01*
X3898544Y7628585D01*
X3897172Y7632801D01*
X3897731Y7637221D01*
X3900119Y7640980D01*
X3927297Y7668158D01*
X3930599Y7670342D01*
X3934460Y7671104D01*
X4662474Y7671104D01*
X4670501Y7671917D01*
X4677714Y7674102D01*
X4684369Y7677658D01*
X4690618Y7682788D01*
X4807661Y7799882D01*
X4812792Y7806080D01*
X4816348Y7812786D01*
X4818532Y7819999D01*
X4819345Y7828025D01*
X4819345Y8193531D01*
X4820107Y8197443D01*
X4822342Y8200694D01*
X4825593Y8202930D01*
X4829505Y8203692D01*
X4832705Y8203692D01*
X4836668Y8202879D01*
X4839970Y8200593D01*
X4842154Y8197189D01*
X4844084Y8192211D01*
X4851095Y8179206D01*
X4859629Y8167166D01*
X4869535Y8156244D01*
X4880762Y8146643D01*
X4893056Y8138515D01*
X4906264Y8131911D01*
X4920183Y8126984D01*
X4934610Y8123834D01*
X4949291Y8122462D01*
X4964074Y8122920D01*
X4978654Y8125206D01*
X4992827Y8129270D01*
X5006441Y8135010D01*
X5019192Y8142376D01*
X5030978Y8151266D01*
X5041595Y8161528D01*
X5050840Y8173059D01*
X5058613Y8185607D01*
X5064760Y8199018D01*
X5069230Y8213039D01*
X5071973Y8227568D01*
X5072888Y8242300D01*
X5071973Y8257031D01*
X5069230Y8271560D01*
X5064760Y8285581D01*
X5058613Y8298992D01*
X5050840Y8311540D01*
X5041595Y8323072D01*
X5030978Y8333333D01*
X5019192Y8342223D01*
X5006441Y8349589D01*
X4992827Y8355330D01*
X4978654Y8359394D01*
X4964074Y8361680D01*
X4949291Y8362086D01*
X4934610Y8360765D01*
X4920183Y8357616D01*
X4906264Y8352688D01*
X4893056Y8346084D01*
X4880762Y8337956D01*
X4869535Y8328355D01*
X4859629Y8317433D01*
X4851095Y8305393D01*
X4844084Y8292388D01*
X4842154Y8287410D01*
X4839970Y8284006D01*
X4836668Y8281720D01*
X4832705Y8280908D01*
X4755946Y8280908D01*
X4752187Y8281619D01*
X4748936Y8283702D01*
X4746701Y8286800D01*
X4741113Y8298992D01*
X4733340Y8311540D01*
X4724095Y8323072D01*
X4713478Y8333333D01*
X4701692Y8342223D01*
X4688941Y8349589D01*
X4675327Y8355330D01*
X4661154Y8359394D01*
X4646574Y8361680D01*
X4631791Y8362086D01*
X4617110Y8360765D01*
X4602683Y8357616D01*
X4588764Y8352688D01*
X4575556Y8346084D01*
X4563262Y8337956D01*
X4552035Y8328355D01*
X4542129Y8317433D01*
X4533595Y8305393D01*
X4526584Y8292388D01*
X4521250Y8278622D01*
X4517694Y8264347D01*
X4515866Y8249666D01*
X4515866Y8234934D01*
X4517694Y8220252D01*
X4521250Y8205978D01*
X4526584Y8192211D01*
X4533595Y8179206D01*
X4542129Y8167166D01*
X4552035Y8156244D01*
X4563262Y8146643D01*
X4575556Y8138515D01*
X4588764Y8131911D01*
X4602683Y8126984D01*
X4617110Y8123834D01*
X4631791Y8122462D01*
X4646574Y8122920D01*
X4661154Y8125206D01*
X4675327Y8129270D01*
X4688941Y8135010D01*
X4701692Y8142376D01*
X4713478Y8151266D01*
X4724857Y8162391D01*
X4728159Y8164575D01*
X4732020Y8165287D01*
X4735931Y8164525D01*
X4739182Y8162290D01*
X4741367Y8158988D01*
X4742129Y8155127D01*
X4742129Y7973415D01*
X4741164Y7969046D01*
X4738370Y7965541D01*
X4734407Y7963509D01*
X4729937Y7963458D01*
X4725822Y7965287D01*
X4714392Y7973923D01*
X4701641Y7981289D01*
X4688027Y7987030D01*
X4673854Y7991094D01*
X4659274Y7993380D01*
X4644491Y7993786D01*
X4629810Y7992465D01*
X4615383Y7989316D01*
X4600803Y7984134D01*
X4597095Y7983575D01*
X4593386Y7984388D01*
X4590237Y7986522D01*
X4099001Y8477808D01*
X4092752Y8482939D01*
X4086098Y8486495D01*
X4078884Y8488680D01*
X4070858Y8489442D01*
X3540709Y8489442D01*
X3536391Y8490407D01*
X3532936Y8493099D01*
X3530904Y8497011D01*
X3530701Y8501380D01*
X3532378Y8505444D01*
X3535629Y8508441D01*
X3545179Y8513927D01*
X3556965Y8522817D01*
X3567531Y8533079D01*
X3576777Y8544610D01*
X3584549Y8557158D01*
X3590747Y8570569D01*
X3595217Y8584641D01*
X3597910Y8599119D01*
X3598824Y8613851D01*
X3597910Y8628583D01*
X3595217Y8643112D01*
X3590747Y8657183D01*
X3584549Y8670544D01*
X3576777Y8683091D01*
X3567531Y8694623D01*
X3556965Y8704884D01*
X3545179Y8713774D01*
X3532378Y8721140D01*
X3518814Y8726932D01*
X3504590Y8730945D01*
X3490010Y8733231D01*
X3475278Y8733688D01*
X3460597Y8732316D01*
X3446170Y8729167D01*
X3431590Y8723985D01*
X3427831Y8723426D01*
X3424123Y8724290D01*
X3421024Y8726424D01*
X3307486Y8839911D01*
X3301288Y8845042D01*
X3294583Y8848598D01*
X3287369Y8850782D01*
X3279343Y8851544D01*
X2757779Y8851544D01*
X2753918Y8852357D01*
X2750616Y8854541D01*
X2748381Y8857792D01*
X2747619Y8861704D01*
X2748381Y8865565D01*
X2750566Y8868867D01*
X2753817Y8871102D01*
X2765298Y8875928D01*
X2778099Y8883345D01*
X2789885Y8892235D01*
X2800451Y8902496D01*
X2809697Y8913977D01*
X2817469Y8926525D01*
X2823667Y8939936D01*
X2828137Y8954008D01*
X2830830Y8968536D01*
X2831744Y8983268D01*
X2830830Y8998000D01*
X2828137Y9012478D01*
X2823667Y9026550D01*
X2817469Y9039961D01*
X2809697Y9052509D01*
X2800451Y9063990D01*
X2789885Y9074302D01*
X2778099Y9083192D01*
X2765298Y9090558D01*
X2751734Y9096298D01*
X2745181Y9098178D01*
X2741523Y9100058D01*
X2738932Y9103258D01*
X2737866Y9107271D01*
X2738424Y9111335D01*
X2740558Y9114891D01*
X2743962Y9117228D01*
X2747975Y9118092D01*
X3280206Y9118092D01*
X3284118Y9117330D01*
X3287420Y9115094D01*
X3361486Y9041079D01*
X3363620Y9037828D01*
X3364433Y9034018D01*
X3363772Y9030208D01*
X3359658Y9019590D01*
X3356051Y9005265D01*
X3354222Y8990634D01*
X3354222Y8975852D01*
X3356051Y8961221D01*
X3359658Y8946896D01*
X3364992Y8933129D01*
X3371951Y8920124D01*
X3380486Y8908084D01*
X3390442Y8897213D01*
X3401618Y8887612D01*
X3413963Y8879433D01*
X3427171Y8872880D01*
X3441090Y8867952D01*
X3455466Y8864803D01*
X3470198Y8863431D01*
X3484930Y8863888D01*
X3499510Y8866174D01*
X3513734Y8870188D01*
X3527298Y8875928D01*
X3540099Y8883345D01*
X3551885Y8892235D01*
X3562451Y8902496D01*
X3571697Y8913977D01*
X3579469Y8926525D01*
X3585667Y8939936D01*
X3590137Y8954008D01*
X3592829Y8968536D01*
X3593744Y8983268D01*
X3592829Y8998000D01*
X3590137Y9012478D01*
X3585667Y9026550D01*
X3579469Y9039961D01*
X3571697Y9052509D01*
X3562451Y9063990D01*
X3551885Y9074302D01*
X3540099Y9083192D01*
X3527298Y9090558D01*
X3513734Y9096298D01*
X3499510Y9100362D01*
X3484930Y9102598D01*
X3470198Y9103055D01*
X3455466Y9101683D01*
X3441090Y9098534D01*
X3426510Y9093403D01*
X3422751Y9092844D01*
X3419043Y9093657D01*
X3415944Y9095790D01*
X3362198Y9149537D01*
X3360013Y9152788D01*
X3359251Y9156700D01*
X3360013Y9160611D01*
X3362198Y9163862D01*
X3433876Y9235541D01*
X3437026Y9237675D01*
X3440684Y9238538D01*
X3460597Y9234170D01*
X3475278Y9232798D01*
X3490010Y9233255D01*
X3504590Y9235541D01*
X3518814Y9239605D01*
X3532378Y9245346D01*
X3545179Y9252712D01*
X3556965Y9261602D01*
X3567531Y9271863D01*
X3576777Y9283395D01*
X3584549Y9295942D01*
X3590747Y9309354D01*
X3595217Y9323374D01*
X3597910Y9337903D01*
X3598824Y9352635D01*
X3597910Y9367367D01*
X3596843Y9373108D01*
X3596944Y9377375D01*
X3598824Y9381236D01*
X3602075Y9383979D01*
X3606190Y9385096D01*
X3610457Y9384487D01*
X3614013Y9382150D01*
X3756660Y9239554D01*
X3762857Y9234424D01*
X3769563Y9230868D01*
X3776776Y9228683D01*
X3784803Y9227870D01*
X4497222Y9227870D01*
X4505248Y9228683D01*
X4512462Y9230868D01*
X4519117Y9234424D01*
X4525365Y9239554D01*
X4564227Y9278366D01*
X4567529Y9280601D01*
X4571441Y9281363D01*
X4575352Y9280550D01*
X4582109Y9277705D01*
X4596333Y9273641D01*
X4610912Y9271355D01*
X4625644Y9270898D01*
X4640326Y9272270D01*
X4654753Y9275419D01*
X4668672Y9280347D01*
X4681880Y9286951D01*
X4694174Y9295079D01*
X4705400Y9304680D01*
X4715357Y9315602D01*
X4723892Y9327642D01*
X4730851Y9340646D01*
X4732782Y9345625D01*
X4734966Y9349028D01*
X4738319Y9351314D01*
X4742281Y9352127D01*
X4819040Y9352127D01*
X4822799Y9351416D01*
X4826000Y9349333D01*
X4828235Y9346234D01*
X4833874Y9334042D01*
X4841646Y9321495D01*
X4850892Y9309963D01*
X4861458Y9299702D01*
X4873244Y9290812D01*
X4886045Y9283446D01*
X4899609Y9277705D01*
X4913833Y9273641D01*
X4928412Y9271355D01*
X4943144Y9270898D01*
X4957826Y9272270D01*
X4972253Y9275419D01*
X4986832Y9280601D01*
X4990592Y9281160D01*
X4994300Y9280347D01*
X4997399Y9278213D01*
X5102402Y9173159D01*
X5104638Y9169908D01*
X5105400Y9165996D01*
X5104638Y9162084D01*
X5102402Y9158833D01*
X5099100Y9156598D01*
X5095240Y9155836D01*
X4012336Y9155836D01*
X4004310Y9155023D01*
X3997096Y9152839D01*
X3990390Y9149283D01*
X3984193Y9144152D01*
X3931462Y9091422D01*
X3928313Y9089288D01*
X3924604Y9088475D01*
X3920896Y9089034D01*
X3906316Y9094216D01*
X3891889Y9097365D01*
X3877208Y9098686D01*
X3862425Y9098280D01*
X3847846Y9095994D01*
X3833672Y9091930D01*
X3820058Y9086189D01*
X3807307Y9078823D01*
X3795522Y9069933D01*
X3784904Y9059672D01*
X3775659Y9048140D01*
X3767886Y9035592D01*
X3761740Y9022181D01*
X3757269Y9008160D01*
X3754526Y8993632D01*
X3753612Y8978900D01*
X3754526Y8964168D01*
X3757269Y8949639D01*
X3761740Y8935618D01*
X3767886Y8922207D01*
X3775659Y8909659D01*
X3784904Y8898128D01*
X3795522Y8887866D01*
X3807307Y8878976D01*
X3820058Y8871610D01*
X3833672Y8865870D01*
X3847846Y8861806D01*
X3862425Y8859520D01*
X3877208Y8859062D01*
X3891889Y8860434D01*
X3906316Y8863584D01*
X3920236Y8868511D01*
X3933444Y8875115D01*
X3945737Y8883243D01*
X3956964Y8892844D01*
X3966870Y8903766D01*
X3975404Y8915806D01*
X3982415Y8928811D01*
X3987749Y8942578D01*
X3991305Y8956852D01*
X3993134Y8971534D01*
X3993134Y8986266D01*
X3991305Y9000947D01*
X3987749Y9015222D01*
X3983634Y9025839D01*
X3982923Y9029700D01*
X3983736Y9033459D01*
X3985920Y9036710D01*
X4024833Y9075623D01*
X4028135Y9077858D01*
X4032046Y9078620D01*
X4541418Y9078620D01*
X4545330Y9077858D01*
X4548632Y9075623D01*
X4550816Y9072270D01*
X4551578Y9068358D01*
X4550714Y9064447D01*
X4548479Y9061145D01*
X4546904Y9059672D01*
X4537659Y9048140D01*
X4529886Y9035592D01*
X4523740Y9022181D01*
X4519269Y9008160D01*
X4516526Y8993632D01*
X4515612Y8978900D01*
X4516526Y8964168D01*
X4519269Y8949639D01*
X4523740Y8935618D01*
X4529886Y8922207D01*
X4537659Y8909659D01*
X4546904Y8898128D01*
X4557522Y8887866D01*
X4569307Y8878976D01*
X4582058Y8871610D01*
X4595672Y8865870D01*
X4609846Y8861806D01*
X4624425Y8859520D01*
X4639208Y8859062D01*
X4653889Y8860434D01*
X4668316Y8863584D01*
X4682236Y8868511D01*
X4695444Y8875115D01*
X4707737Y8883243D01*
X4718964Y8892844D01*
X4728870Y8903766D01*
X4737404Y8915806D01*
X4744415Y8928811D01*
X4746345Y8933789D01*
X4748530Y8937193D01*
X4751832Y8939479D01*
X4755794Y8940292D01*
X4819853Y8940292D01*
X4823612Y8939580D01*
X4826863Y8937498D01*
X4829098Y8934399D01*
X4834686Y8922207D01*
X4842459Y8909659D01*
X4851704Y8898128D01*
X4862322Y8887866D01*
X4874107Y8878976D01*
X4886858Y8871610D01*
X4900472Y8865870D01*
X4914646Y8861806D01*
X4929225Y8859520D01*
X4944008Y8859062D01*
X4958689Y8860434D01*
X4973116Y8863584D01*
X4987036Y8868511D01*
X5000244Y8875115D01*
X5012537Y8883243D01*
X5023764Y8892844D01*
X5033670Y8903766D01*
X5042204Y8915806D01*
X5049215Y8928811D01*
X5051145Y8933789D01*
X5053330Y8937193D01*
X5056632Y8939479D01*
X5060594Y8940292D01*
X5134508Y8940292D01*
X5138369Y8939530D01*
X5141671Y8937294D01*
X5701233Y8377783D01*
X5703570Y8374125D01*
X5704179Y8369858D01*
X5702960Y8365744D01*
X5700166Y8362442D01*
X5696204Y8360664D01*
X5682183Y8357616D01*
X5668264Y8352688D01*
X5655056Y8346084D01*
X5642762Y8337956D01*
X5631535Y8328355D01*
X5621629Y8317433D01*
X5613095Y8305393D01*
X5606084Y8292388D01*
X5600750Y8278622D01*
X5597194Y8264347D01*
X5595366Y8249666D01*
X5595366Y8234934D01*
X5597194Y8220252D01*
X5600750Y8205978D01*
X5606084Y8192211D01*
X5613095Y8179206D01*
X5621629Y8167166D01*
X5631535Y8156244D01*
X5642762Y8146643D01*
X5655056Y8138515D01*
X5673140Y8129320D01*
X5675528Y8125917D01*
X5676392Y8121853D01*
X5676392Y8012582D01*
X5675630Y8008670D01*
X5673394Y8005368D01*
X5398312Y7730286D01*
X5395010Y7728102D01*
X5391150Y7727289D01*
X5338470Y7727289D01*
X5338470Y7674609D01*
X5337657Y7670749D01*
X5335473Y7667447D01*
X5322214Y7654188D01*
X5318912Y7651953D01*
X5315000Y7651191D01*
X5149951Y7651191D01*
X5141925Y7650378D01*
X5134711Y7648194D01*
X5128056Y7644638D01*
X5121808Y7639507D01*
X5115102Y7632801D01*
X5109972Y7626603D01*
X5106416Y7619898D01*
X5104231Y7612684D01*
X5103469Y7604658D01*
X5103469Y7321448D01*
X5102656Y7317536D01*
X5100472Y7314234D01*
X4522114Y6735876D01*
X4518812Y6733692D01*
X4514900Y6732879D01*
X2860598Y6732879D01*
X2852572Y6732117D01*
X2845358Y6729933D01*
X2838653Y6726377D01*
X2832455Y6721246D01*
X2727147Y6615938D01*
X2723692Y6613652D01*
X2719628Y6612991D01*
X2715615Y6613956D01*
X2712313Y6616446D01*
X2702864Y6627164D01*
X2692603Y6636207D01*
X2681224Y6643827D01*
X2668930Y6649872D01*
X2655976Y6654241D01*
X2642565Y6656933D01*
X2628900Y6657848D01*
X2615234Y6656933D01*
X2601823Y6654241D01*
X2588869Y6649872D01*
X2576576Y6643827D01*
X2565196Y6636207D01*
X2554935Y6627164D01*
X2545892Y6616903D01*
X2538272Y6605524D01*
X2532227Y6593230D01*
X2527858Y6580276D01*
X2525166Y6566865D01*
X2524252Y6553200D01*
X2525166Y6539534D01*
X2527858Y6526123D01*
X2532227Y6513169D01*
X2538272Y6500876D01*
X2545892Y6489496D01*
X2552750Y6481673D01*
X2554732Y6478320D01*
X2555290Y6474510D01*
X2554376Y6470751D01*
X2552141Y6467652D01*
X2548940Y6465519D01*
X2545130Y6464808D01*
X2502408Y6464808D01*
X2494381Y6463995D01*
X2487168Y6461810D01*
X2480462Y6458254D01*
X2474264Y6453124D01*
X2420924Y6399834D01*
X2417826Y6397701D01*
X2414168Y6396837D01*
X2410460Y6397396D01*
X2401976Y6400241D01*
X2388565Y6402933D01*
X2374900Y6403848D01*
X2361234Y6402933D01*
X2347823Y6400241D01*
X2334869Y6395872D01*
X2322576Y6389827D01*
X2311196Y6382207D01*
X2300935Y6373164D01*
X2291892Y6362903D01*
X2284272Y6351524D01*
X2278227Y6339230D01*
X2273858Y6326276D01*
X2271166Y6312865D01*
X2270252Y6299200D01*
X2271166Y6285534D01*
X2273858Y6272123D01*
X2278227Y6259169D01*
X2284272Y6246876D01*
X2291892Y6235496D01*
X2300935Y6225235D01*
X2311196Y6216192D01*
X2322576Y6208572D01*
X2334869Y6202527D01*
X2347823Y6198158D01*
X2361234Y6195466D01*
X2374900Y6194552D01*
X2388565Y6195466D01*
X2401976Y6198158D01*
X2414930Y6202527D01*
X2427224Y6208572D01*
X2438603Y6216192D01*
X2448864Y6225235D01*
X2457907Y6235496D01*
X2465527Y6246876D01*
X2471572Y6259169D01*
X2475941Y6272123D01*
X2478633Y6285534D01*
X2479548Y6299200D01*
X2478633Y6312865D01*
X2475941Y6326276D01*
X2473096Y6334760D01*
X2472537Y6338468D01*
X2473401Y6342126D01*
X2475534Y6345224D01*
X2514904Y6384594D01*
X2518206Y6386830D01*
X2522118Y6387592D01*
X2545130Y6387592D01*
X2548940Y6386880D01*
X2552141Y6384747D01*
X2554376Y6381648D01*
X2555290Y6377889D01*
X2554732Y6374079D01*
X2552750Y6370726D01*
X2545892Y6362903D01*
X2538272Y6351524D01*
X2532227Y6339230D01*
X2527858Y6326276D01*
X2525166Y6312865D01*
X2524252Y6299200D01*
X2525166Y6285534D01*
X2527858Y6272123D01*
X2532227Y6259169D01*
X2538272Y6246876D01*
X2545892Y6235496D01*
X2554935Y6225235D01*
X2565196Y6216192D01*
X2576576Y6208572D01*
X2588869Y6202527D01*
X2601823Y6198158D01*
X2615234Y6195466D01*
X2628900Y6194552D01*
X2642565Y6195466D01*
X2655976Y6198158D01*
X2668930Y6202527D01*
X2681224Y6208572D01*
X2692603Y6216192D01*
X2702864Y6225235D01*
X2711907Y6235496D01*
X2719527Y6246876D01*
X2725572Y6259169D01*
X2729941Y6272123D01*
X2732633Y6285534D01*
X2733548Y6299200D01*
X2732633Y6312865D01*
X2729941Y6326276D01*
X2725572Y6339230D01*
X2719527Y6351524D01*
X2711907Y6362903D01*
X2702864Y6373164D01*
X2693771Y6381140D01*
X2691180Y6384696D01*
X2690317Y6388963D01*
X2691333Y6393230D01*
X2694025Y6396634D01*
X2697175Y6399276D01*
X2762707Y6464808D01*
X2767838Y6471005D01*
X2771394Y6477711D01*
X2773578Y6484924D01*
X2774391Y6494170D01*
X2775305Y6498386D01*
X2777845Y6501841D01*
X2781604Y6503924D01*
X2785872Y6504279D01*
X2789936Y6502806D01*
X2792984Y6499809D01*
X2799892Y6489496D01*
X2808935Y6479235D01*
X2819196Y6470192D01*
X2830576Y6462572D01*
X2842869Y6456527D01*
X2855823Y6452158D01*
X2869234Y6449466D01*
X2882900Y6448552D01*
X2896565Y6449466D01*
X2909976Y6452158D01*
X2922930Y6456527D01*
X2935224Y6462572D01*
X2946603Y6470192D01*
X2956864Y6479235D01*
X2965907Y6489496D01*
X2973527Y6500876D01*
X2979572Y6513169D01*
X2983941Y6526123D01*
X2986633Y6539534D01*
X2987548Y6553200D01*
X2986633Y6566865D01*
X2983941Y6580276D01*
X2979572Y6593230D01*
X2973527Y6605524D01*
X2965907Y6616903D01*
X2956864Y6627164D01*
X2946603Y6636207D01*
X2945282Y6637070D01*
X2942285Y6640169D01*
X2940862Y6644182D01*
X2941218Y6648500D01*
X2943301Y6652209D01*
X2946755Y6654800D01*
X2950921Y6655663D01*
X3068878Y6655663D01*
X3073044Y6654800D01*
X3076498Y6652209D01*
X3078581Y6648500D01*
X3078937Y6644182D01*
X3077514Y6640169D01*
X3074517Y6637070D01*
X3073196Y6636207D01*
X3062935Y6627164D01*
X3053892Y6616903D01*
X3046272Y6605524D01*
X3040227Y6593230D01*
X3035858Y6580276D01*
X3033166Y6566865D01*
X3032252Y6553200D01*
X3033166Y6539534D01*
X3035858Y6526123D01*
X3040227Y6513169D01*
X3046272Y6500876D01*
X3053892Y6489496D01*
X3062935Y6479235D01*
X3073196Y6470192D01*
X3084576Y6462572D01*
X3096869Y6456527D01*
X3109823Y6452158D01*
X3123234Y6449466D01*
X3136900Y6448552D01*
X3150565Y6449466D01*
X3163976Y6452158D01*
X3176930Y6456527D01*
X3189224Y6462572D01*
X3200603Y6470192D01*
X3210864Y6479235D01*
X3219907Y6489496D01*
X3227527Y6500876D01*
X3233572Y6513169D01*
X3237941Y6526123D01*
X3240633Y6539534D01*
X3241548Y6553200D01*
X3240633Y6566865D01*
X3237941Y6580276D01*
X3233572Y6593230D01*
X3227527Y6605524D01*
X3219907Y6616903D01*
X3210864Y6627164D01*
X3200603Y6636207D01*
X3199282Y6637070D01*
X3196285Y6640169D01*
X3194862Y6644182D01*
X3195218Y6648500D01*
X3197301Y6652209D01*
X3200755Y6654800D01*
X3204921Y6655663D01*
X3322878Y6655663D01*
X3327044Y6654800D01*
X3330498Y6652209D01*
X3332581Y6648500D01*
X3332937Y6644182D01*
X3331514Y6640169D01*
X3328517Y6637070D01*
X3327196Y6636207D01*
X3316935Y6627164D01*
X3307892Y6616903D01*
X3300272Y6605524D01*
X3294227Y6593230D01*
X3289858Y6580276D01*
X3287166Y6566865D01*
X3286251Y6553200D01*
X3287166Y6539534D01*
X3289858Y6526123D01*
X3294227Y6513169D01*
X3300272Y6500876D01*
X3307892Y6489496D01*
X3316935Y6479235D01*
X3327196Y6470192D01*
X3338576Y6462572D01*
X3350869Y6456527D01*
X3363823Y6452158D01*
X3377234Y6449466D01*
X3390900Y6448552D01*
X3404565Y6449466D01*
X3417976Y6452158D01*
X3430930Y6456527D01*
X3443224Y6462572D01*
X3454603Y6470192D01*
X3464864Y6479235D01*
X3473907Y6489496D01*
X3481527Y6500876D01*
X3487572Y6513169D01*
X3491941Y6526123D01*
X3494633Y6539534D01*
X3495548Y6553200D01*
X3494633Y6566865D01*
X3491941Y6580276D01*
X3487572Y6593230D01*
X3481527Y6605524D01*
X3473907Y6616903D01*
X3464864Y6627164D01*
X3454603Y6636207D01*
X3453282Y6637070D01*
X3450285Y6640169D01*
X3448862Y6644182D01*
X3449218Y6648500D01*
X3451301Y6652209D01*
X3454755Y6654800D01*
X3458921Y6655663D01*
X3576878Y6655663D01*
X3581044Y6654800D01*
X3584498Y6652209D01*
X3586581Y6648500D01*
X3586937Y6644182D01*
X3585514Y6640169D01*
X3582517Y6637070D01*
X3581196Y6636207D01*
X3570935Y6627164D01*
X3561892Y6616903D01*
X3554272Y6605524D01*
X3548227Y6593230D01*
X3543858Y6580276D01*
X3541166Y6566865D01*
X3540251Y6553200D01*
X3541166Y6539534D01*
X3543858Y6526123D01*
X3548227Y6513169D01*
X3554272Y6500876D01*
X3561892Y6489496D01*
X3570935Y6479235D01*
X3581196Y6470192D01*
X3592576Y6462572D01*
X3604869Y6456527D01*
X3617823Y6452158D01*
X3631234Y6449466D01*
X3644900Y6448552D01*
X3658565Y6449466D01*
X3671976Y6452158D01*
X3684930Y6456527D01*
X3697224Y6462572D01*
X3708603Y6470192D01*
X3718864Y6479235D01*
X3727907Y6489496D01*
X3735527Y6500876D01*
X3741572Y6513169D01*
X3745941Y6526123D01*
X3748633Y6539534D01*
X3749548Y6553200D01*
X3748633Y6566865D01*
X3745941Y6580276D01*
X3741572Y6593230D01*
X3735527Y6605524D01*
X3727907Y6616903D01*
X3718864Y6627164D01*
X3708603Y6636207D01*
X3707282Y6637070D01*
X3704285Y6640169D01*
X3702862Y6644182D01*
X3703218Y6648500D01*
X3705301Y6652209D01*
X3708755Y6654800D01*
X3712921Y6655663D01*
X3830878Y6655663D01*
X3835044Y6654800D01*
X3838498Y6652209D01*
X3840581Y6648500D01*
X3840937Y6644182D01*
X3839514Y6640169D01*
X3836517Y6637070D01*
X3835196Y6636207D01*
X3824935Y6627164D01*
X3815892Y6616903D01*
X3808272Y6605524D01*
X3802227Y6593230D01*
X3797858Y6580276D01*
X3795166Y6566865D01*
X3794251Y6553200D01*
X3795166Y6539534D01*
X3797858Y6526123D01*
X3802227Y6513169D01*
X3808272Y6500876D01*
X3815892Y6489496D01*
X3824935Y6479235D01*
X3835196Y6470192D01*
X3846576Y6462572D01*
X3858869Y6456527D01*
X3871823Y6452158D01*
X3885234Y6449466D01*
X3898900Y6448552D01*
X3912565Y6449466D01*
X3925976Y6452158D01*
X3938930Y6456527D01*
X3951224Y6462572D01*
X3962603Y6470192D01*
X3972864Y6479235D01*
X3981907Y6489496D01*
X3989527Y6500876D01*
X3995572Y6513169D01*
X3999941Y6526123D01*
X4002633Y6539534D01*
X4003548Y6553200D01*
X4002633Y6566865D01*
X3999941Y6580276D01*
X3995572Y6593230D01*
X3989527Y6605524D01*
X3981907Y6616903D01*
X3972864Y6627164D01*
X3962603Y6636207D01*
X3961282Y6637070D01*
X3958285Y6640169D01*
X3956862Y6644182D01*
X3957218Y6648500D01*
X3959301Y6652209D01*
X3962755Y6654800D01*
X3966921Y6655663D01*
X4084878Y6655663D01*
X4089044Y6654800D01*
X4092498Y6652209D01*
X4094581Y6648500D01*
X4094937Y6644182D01*
X4093514Y6640169D01*
X4090517Y6637070D01*
X4089196Y6636207D01*
X4078935Y6627164D01*
X4069892Y6616903D01*
X4062272Y6605524D01*
X4056227Y6593230D01*
X4051858Y6580276D01*
X4049166Y6566865D01*
X4048251Y6553200D01*
X4049166Y6539534D01*
X4051858Y6526123D01*
X4056227Y6513169D01*
X4062272Y6500876D01*
X4069892Y6489496D01*
X4078935Y6479235D01*
X4089196Y6470192D01*
X4100576Y6462572D01*
X4112869Y6456527D01*
X4125823Y6452158D01*
X4139234Y6449466D01*
X4152900Y6448552D01*
X4166565Y6449466D01*
X4179976Y6452158D01*
X4192930Y6456527D01*
X4205224Y6462572D01*
X4216603Y6470192D01*
X4226864Y6479235D01*
X4235907Y6489496D01*
X4243527Y6500876D01*
X4249572Y6513169D01*
X4253941Y6526123D01*
X4256633Y6539534D01*
X4257548Y6553200D01*
X4256633Y6566865D01*
X4253941Y6580276D01*
X4249572Y6593230D01*
X4243527Y6605524D01*
X4235907Y6616903D01*
X4226864Y6627164D01*
X4216603Y6636207D01*
X4215282Y6637070D01*
X4212285Y6640169D01*
X4210862Y6644182D01*
X4211218Y6648500D01*
X4213301Y6652209D01*
X4216755Y6654800D01*
X4220921Y6655663D01*
X4338878Y6655663D01*
X4343044Y6654800D01*
X4346498Y6652209D01*
X4348581Y6648500D01*
X4348937Y6644182D01*
X4347514Y6640169D01*
X4344517Y6637070D01*
X4343196Y6636207D01*
X4332935Y6627164D01*
X4323892Y6616903D01*
X4316272Y6605524D01*
X4310227Y6593230D01*
X4305858Y6580276D01*
X4303166Y6566865D01*
X4302252Y6553200D01*
X4303166Y6539534D01*
X4305858Y6526123D01*
X4310227Y6513169D01*
X4316272Y6500876D01*
X4323892Y6489496D01*
X4332935Y6479235D01*
X4343196Y6470192D01*
X4354576Y6462572D01*
X4366869Y6456527D01*
X4379823Y6452158D01*
X4393234Y6449466D01*
X4406900Y6448552D01*
X4420565Y6449466D01*
X4433976Y6452158D01*
X4446930Y6456527D01*
X4459224Y6462572D01*
X4470603Y6470192D01*
X4480864Y6479235D01*
X4489907Y6489496D01*
X4497527Y6500876D01*
X4503572Y6513169D01*
X4507941Y6526123D01*
X4510633Y6539534D01*
X4511548Y6553200D01*
X4510633Y6566865D01*
X4507941Y6580276D01*
X4503572Y6593230D01*
X4497527Y6605524D01*
X4489907Y6616903D01*
X4480864Y6627164D01*
X4470603Y6636207D01*
X4469282Y6637070D01*
X4466285Y6640169D01*
X4464862Y6644182D01*
X4465218Y6648500D01*
X4467301Y6652209D01*
X4470755Y6654800D01*
X4474921Y6655663D01*
X4534611Y6655663D01*
X4542637Y6656476D01*
X4549851Y6658660D01*
X4556556Y6662216D01*
X4562754Y6667347D01*
X5131663Y7236256D01*
X5134660Y7238339D01*
X5138166Y7239203D01*
X5141772Y7238796D01*
X5145024Y7237171D01*
X5147462Y7234478D01*
X5149951Y7230516D01*
X5154066Y7226401D01*
X5158943Y7223353D01*
X5164429Y7221423D01*
X5170728Y7220712D01*
X5385511Y7220712D01*
X5391810Y7221423D01*
X5397296Y7223353D01*
X5402173Y7226401D01*
X5406288Y7230516D01*
X5409336Y7235393D01*
X5411266Y7240879D01*
X5411978Y7247178D01*
X5411978Y7355281D01*
X5411266Y7361580D01*
X5409336Y7367066D01*
X5406288Y7371943D01*
X5402173Y7376058D01*
X5397296Y7379106D01*
X5391810Y7381036D01*
X5385511Y7381748D01*
X5190845Y7381748D01*
X5186934Y7382509D01*
X5183632Y7384745D01*
X5181447Y7387996D01*
X5180685Y7391908D01*
X5180685Y7439152D01*
X5181447Y7443063D01*
X5183632Y7446314D01*
X5186934Y7448550D01*
X5190845Y7449312D01*
X5385511Y7449312D01*
X5391810Y7450023D01*
X5397296Y7451953D01*
X5402173Y7455001D01*
X5406288Y7459116D01*
X5408777Y7463078D01*
X5411216Y7465771D01*
X5414467Y7467396D01*
X5418074Y7467803D01*
X5421579Y7466939D01*
X5424576Y7464856D01*
X5510784Y7378649D01*
X5512816Y7375753D01*
X5515102Y7370876D01*
X5520690Y7362799D01*
X5527649Y7355840D01*
X5535726Y7350252D01*
X5544616Y7346086D01*
X5554116Y7343546D01*
X5563920Y7342682D01*
X5573674Y7343546D01*
X5583174Y7346086D01*
X5592064Y7350252D01*
X5600141Y7355840D01*
X5607100Y7362799D01*
X5612688Y7370876D01*
X5616854Y7379766D01*
X5618327Y7385202D01*
X5620207Y7388910D01*
X5623407Y7391552D01*
X5627370Y7392670D01*
X5631484Y7392162D01*
X5635040Y7390028D01*
X5637428Y7386624D01*
X5638292Y7382560D01*
X5638292Y6656882D01*
X5637580Y6653225D01*
X5635599Y6650024D01*
X5632602Y6647789D01*
X5624576Y6643827D01*
X5613196Y6636207D01*
X5602935Y6627164D01*
X5593892Y6616903D01*
X5586272Y6605524D01*
X5580227Y6593230D01*
X5575858Y6580276D01*
X5573166Y6566865D01*
X5572252Y6553200D01*
X5573166Y6539534D01*
X5575858Y6526123D01*
X5580227Y6513169D01*
X5586272Y6500876D01*
X5593892Y6489496D01*
X5602935Y6479235D01*
X5613196Y6470192D01*
X5624576Y6462572D01*
X5636869Y6456527D01*
X5649823Y6452158D01*
X5663234Y6449466D01*
X5676900Y6448552D01*
X5690565Y6449466D01*
X5703976Y6452158D01*
X5716930Y6456527D01*
X5729224Y6462572D01*
X5740603Y6470192D01*
X5750864Y6479235D01*
X5759907Y6489496D01*
X5767527Y6500876D01*
X5773572Y6513169D01*
X5777941Y6526123D01*
X5780633Y6539534D01*
X5781548Y6553200D01*
X5780633Y6566865D01*
X5777941Y6580276D01*
X5773572Y6593230D01*
X5767527Y6605524D01*
X5759907Y6616903D01*
X5750864Y6627164D01*
X5740603Y6636207D01*
X5729224Y6643827D01*
X5721197Y6647789D01*
X5718200Y6650024D01*
X5716219Y6653225D01*
X5715508Y6656882D01*
X5715508Y6689699D01*
X5716371Y6693712D01*
X5718708Y6697116D01*
X5722264Y6699250D01*
X5726328Y6699808D01*
X5730290Y6698742D01*
X5734253Y6695236D01*
X5830265Y6599224D01*
X5832398Y6596125D01*
X5833262Y6592468D01*
X5832703Y6588759D01*
X5829858Y6580276D01*
X5827166Y6566865D01*
X5826252Y6553200D01*
X5827166Y6539534D01*
X5829858Y6526123D01*
X5834227Y6513169D01*
X5840272Y6500876D01*
X5847892Y6489496D01*
X5856935Y6479235D01*
X5867196Y6470192D01*
X5878576Y6462572D01*
X5890869Y6456527D01*
X5903823Y6452158D01*
X5917234Y6449466D01*
X5930900Y6448552D01*
X5944565Y6449466D01*
X5957976Y6452158D01*
X5970930Y6456527D01*
X5983224Y6462572D01*
X5994603Y6470192D01*
X6004864Y6479235D01*
X6013907Y6489496D01*
X6021527Y6500876D01*
X6027572Y6513169D01*
X6031941Y6526123D01*
X6034633Y6539534D01*
X6035548Y6553200D01*
X6034633Y6566865D01*
X6031941Y6580276D01*
X6027572Y6593230D01*
X6021527Y6605524D01*
X6013907Y6616903D01*
X6004864Y6627164D01*
X5994603Y6636207D01*
X5983224Y6643827D01*
X5970930Y6649872D01*
X5957976Y6654241D01*
X5944565Y6656933D01*
X5930900Y6657848D01*
X5917234Y6656933D01*
X5903823Y6654241D01*
X5895340Y6651396D01*
X5891631Y6650837D01*
X5887974Y6651701D01*
X5884875Y6653834D01*
X5802782Y6735927D01*
X5800598Y6739229D01*
X5799836Y6743090D01*
X5799836Y7318502D01*
X5800598Y7322413D01*
X5802782Y7325664D01*
X5806084Y7327900D01*
X5809996Y7328662D01*
X6005271Y7328662D01*
X6011570Y7329373D01*
X6017056Y7331303D01*
X6021933Y7334351D01*
X6026048Y7338466D01*
X6029096Y7343343D01*
X6031026Y7348829D01*
X6031738Y7355128D01*
X6031738Y7704531D01*
X6031026Y7710830D01*
X6029096Y7716316D01*
X6026048Y7721193D01*
X6021933Y7725308D01*
X6017056Y7728356D01*
X6011570Y7730286D01*
X6005271Y7730998D01*
X5810148Y7730998D01*
X5806236Y7731759D01*
X5802934Y7733995D01*
X5800750Y7737246D01*
X5799988Y7741158D01*
X5800750Y7745069D01*
X5802934Y7748320D01*
X5918149Y7863535D01*
X5923280Y7869783D01*
X5926836Y7876438D01*
X5929020Y7883652D01*
X5929833Y7891678D01*
X5929833Y8627719D01*
X5929020Y8635746D01*
X5926836Y8642959D01*
X5923280Y8649614D01*
X5918149Y8655862D01*
X5697423Y8876588D01*
X5691174Y8881719D01*
X5684520Y8885275D01*
X5677306Y8887460D01*
X5669280Y8888222D01*
X5659120Y8888222D01*
X5655208Y8889034D01*
X5651957Y8891219D01*
X5649722Y8894521D01*
X5648960Y8898382D01*
X5648960Y8925560D01*
X5595162Y8925560D01*
X5596686Y8922207D01*
X5604459Y8909659D01*
X5608370Y8904782D01*
X5610148Y8901430D01*
X5610606Y8897670D01*
X5609640Y8894013D01*
X5607405Y8890965D01*
X5604205Y8888933D01*
X5600446Y8888222D01*
X5500776Y8888222D01*
X5496864Y8889034D01*
X5493562Y8891219D01*
X5051856Y9332925D01*
X5049672Y9336176D01*
X5048910Y9339935D01*
X5049570Y9343796D01*
X5053685Y9354413D01*
X5057292Y9368688D01*
X5059121Y9383369D01*
X5059121Y9398101D01*
X5057292Y9412782D01*
X5053685Y9427057D01*
X5048351Y9440824D01*
X5041392Y9453829D01*
X5032857Y9465868D01*
X5022900Y9476790D01*
X5011674Y9486392D01*
X4999380Y9494520D01*
X4986172Y9501124D01*
X4972253Y9506051D01*
X4957826Y9509201D01*
X4943144Y9510522D01*
X4928412Y9510115D01*
X4913833Y9507829D01*
X4899609Y9503765D01*
X4886045Y9498025D01*
X4873244Y9490659D01*
X4861458Y9481769D01*
X4850892Y9471507D01*
X4841646Y9459976D01*
X4833874Y9447428D01*
X4828235Y9435236D01*
X4826000Y9432137D01*
X4822799Y9430054D01*
X4819040Y9429343D01*
X4742281Y9429343D01*
X4738319Y9430156D01*
X4734966Y9432442D01*
X4732782Y9435846D01*
X4730851Y9440824D01*
X4723892Y9453829D01*
X4715357Y9465868D01*
X4705400Y9476790D01*
X4694174Y9486392D01*
X4681880Y9494520D01*
X4668672Y9501124D01*
X4654753Y9506051D01*
X4640326Y9509201D01*
X4625644Y9510522D01*
X4610912Y9510115D01*
X4596333Y9507829D01*
X4582109Y9503765D01*
X4568545Y9498025D01*
X4555744Y9490659D01*
X4543958Y9481769D01*
X4533392Y9471507D01*
X4524146Y9459976D01*
X4516374Y9447428D01*
X4510176Y9434017D01*
X4505706Y9419996D01*
X4503013Y9405467D01*
X4502099Y9390735D01*
X4503013Y9376003D01*
X4505706Y9361474D01*
X4510176Y9347454D01*
X4511598Y9344355D01*
X4512513Y9340392D01*
X4511802Y9336328D01*
X4509566Y9332925D01*
X4484674Y9308084D01*
X4481372Y9305848D01*
X4477512Y9305086D01*
X3965549Y9305086D01*
X3961231Y9306052D01*
X3957777Y9308744D01*
X3955745Y9312656D01*
X3955542Y9317075D01*
X3957269Y9321139D01*
X3961892Y9327642D01*
X3968851Y9340646D01*
X3974185Y9354413D01*
X3977792Y9368688D01*
X3979621Y9383369D01*
X3979621Y9398101D01*
X3977792Y9412782D01*
X3974185Y9427057D01*
X3968851Y9440824D01*
X3961892Y9453829D01*
X3953357Y9465868D01*
X3943400Y9476790D01*
X3932174Y9486392D01*
X3919880Y9494520D01*
X3901795Y9503714D01*
X3899408Y9507118D01*
X3898595Y9511182D01*
X3898595Y9979253D01*
X3899357Y9983114D01*
X3901541Y9986416D01*
X4040987Y10125862D01*
X4044289Y10128046D01*
X4048150Y10128808D01*
X4655261Y10128808D01*
X4659122Y10128046D01*
X4662424Y10125862D01*
X4664659Y10122560D01*
X4665421Y10118648D01*
X4664659Y10114788D01*
X4662424Y10111486D01*
X4661001Y10110063D01*
X4657953Y10105186D01*
X4656023Y10099700D01*
X4655312Y10093401D01*
X4655312Y9952278D01*
X4656023Y9945979D01*
X4657953Y9940493D01*
X4661001Y9935616D01*
X4665116Y9931501D01*
X4669993Y9928453D01*
X4675479Y9926523D01*
X4681778Y9925812D01*
X4822901Y9925812D01*
X4829200Y9926523D01*
X4834686Y9928453D01*
X4839563Y9931501D01*
X4843678Y9935616D01*
X4846726Y9940493D01*
X4848656Y9945979D01*
X4849368Y9952278D01*
X4849368Y10093401D01*
X4848656Y10099700D01*
X4846726Y10105186D01*
X4843678Y10110063D01*
X4842256Y10111486D01*
X4840071Y10114788D01*
X4839258Y10118648D01*
X4840071Y10122560D01*
X4842256Y10125862D01*
X4845558Y10128046D01*
X4849418Y10128808D01*
X5308549Y10128808D01*
X5316575Y10129621D01*
X5323789Y10131806D01*
X5330444Y10135362D01*
X5336692Y10140492D01*
X5360771Y10164572D01*
X5361889Y10165943D01*
X5365394Y10168686D01*
X5369712Y10169652D01*
X5503621Y10169652D01*
X5509920Y10170363D01*
X5515406Y10172293D01*
X5520283Y10175341D01*
X5524398Y10179456D01*
X5527446Y10184333D01*
X5529376Y10189819D01*
X5530088Y10196118D01*
X5530088Y10337241D01*
X5529376Y10343540D01*
X5527446Y10349026D01*
X5524398Y10353903D01*
X5520283Y10358018D01*
X5515406Y10361066D01*
X5509920Y10362996D01*
X5503621Y10363708D01*
X5362498Y10363708D01*
X5356199Y10362996D01*
X5350713Y10361066D01*
X5345836Y10358018D01*
X5341721Y10353903D01*
X5338673Y10349026D01*
X5337251Y10344962D01*
X5335117Y10341406D01*
X5331714Y10339019D01*
X5327650Y10338155D01*
X5323586Y10339019D01*
X5320182Y10341406D01*
X5318048Y10344962D01*
X5316626Y10349026D01*
X5313578Y10353903D01*
X5309463Y10358018D01*
X5304586Y10361066D01*
X5299100Y10362996D01*
X5292801Y10363708D01*
X5151678Y10363708D01*
X5145379Y10362996D01*
X5139893Y10361066D01*
X5135016Y10358018D01*
X5130901Y10353903D01*
X5127853Y10349026D01*
X5125923Y10343540D01*
X5125212Y10337241D01*
X5125212Y10216184D01*
X5124450Y10212324D01*
X5122214Y10209022D01*
X5118963Y10206837D01*
X5115052Y10206024D01*
X5070348Y10206024D01*
X5066436Y10206837D01*
X5063185Y10209022D01*
X5060950Y10212324D01*
X5060188Y10216184D01*
X5060188Y10337241D01*
X5059476Y10343540D01*
X5057546Y10349026D01*
X5054498Y10353903D01*
X5050383Y10358018D01*
X5045506Y10361066D01*
X5040020Y10362996D01*
X5033721Y10363708D01*
X4892598Y10363708D01*
X4886299Y10362996D01*
X4880813Y10361066D01*
X4875936Y10358018D01*
X4871821Y10353903D01*
X4868773Y10349026D01*
X4867351Y10344962D01*
X4865217Y10341406D01*
X4861814Y10339019D01*
X4857750Y10338155D01*
X4853686Y10339019D01*
X4850282Y10341406D01*
X4848148Y10344962D01*
X4846726Y10349026D01*
X4843678Y10353903D01*
X4839563Y10358018D01*
X4834686Y10361066D01*
X4829200Y10362996D01*
X4822901Y10363708D01*
X4794250Y10363708D01*
X4794250Y10308590D01*
X4855972Y10308590D01*
X4859883Y10307828D01*
X4863134Y10305592D01*
X4865370Y10302341D01*
X4866132Y10298430D01*
X4866132Y10234930D01*
X4865370Y10231018D01*
X4863134Y10227767D01*
X4859883Y10225532D01*
X4855972Y10224770D01*
X4794250Y10224770D01*
X4794250Y10216184D01*
X4793488Y10212324D01*
X4791252Y10209022D01*
X4788001Y10206837D01*
X4784090Y10206024D01*
X4720590Y10206024D01*
X4716678Y10206837D01*
X4713427Y10209022D01*
X4711192Y10212324D01*
X4710430Y10216184D01*
X4710430Y10224770D01*
X4655312Y10224770D01*
X4655312Y10216184D01*
X4654550Y10212324D01*
X4652314Y10209022D01*
X4649063Y10206837D01*
X4645152Y10206024D01*
X4028440Y10206024D01*
X4020413Y10205262D01*
X4013200Y10203078D01*
X4006545Y10199522D01*
X4000296Y10194391D01*
X3867150Y10061244D01*
X3863848Y10059009D01*
X3859936Y10058247D01*
X3856075Y10059009D01*
X3852773Y10061244D01*
X3739438Y10174579D01*
X3737305Y10177678D01*
X3736492Y10181386D01*
X3737051Y10185095D01*
X3738676Y10189819D01*
X3739387Y10196118D01*
X3739387Y10337241D01*
X3738676Y10343540D01*
X3736746Y10349026D01*
X3733698Y10353903D01*
X3729583Y10358018D01*
X3724706Y10361066D01*
X3719220Y10362996D01*
X3712921Y10363708D01*
X3571798Y10363708D01*
X3565499Y10362996D01*
X3560013Y10361066D01*
X3555136Y10358018D01*
X3551021Y10353903D01*
X3547973Y10349026D01*
X3546551Y10344962D01*
X3544417Y10341406D01*
X3541014Y10339019D01*
X3536950Y10338155D01*
X3532886Y10339019D01*
X3529482Y10341406D01*
X3527348Y10344962D01*
X3525926Y10349026D01*
X3522878Y10353903D01*
X3518763Y10358018D01*
X3513886Y10361066D01*
X3508400Y10362996D01*
X3502101Y10363708D01*
X3360978Y10363708D01*
X3354679Y10362996D01*
X3349193Y10361066D01*
X3344316Y10358018D01*
X3340201Y10353903D01*
X3337153Y10349026D01*
X3335223Y10343540D01*
X3334512Y10337241D01*
X3334512Y10196118D01*
X3335223Y10189819D01*
X3337153Y10184333D01*
X3340201Y10179456D01*
X3344316Y10175341D01*
X3349193Y10172293D01*
X3354679Y10170363D01*
X3360978Y10169652D01*
X3502101Y10169652D01*
X3508400Y10170363D01*
X3513886Y10172293D01*
X3518763Y10175341D01*
X3522878Y10179456D01*
X3525926Y10184333D01*
X3527348Y10188397D01*
X3529482Y10191953D01*
X3532886Y10194340D01*
X3536950Y10195204D01*
X3541014Y10194340D01*
X3544417Y10191953D01*
X3546551Y10188397D01*
X3547973Y10184333D01*
X3551021Y10179456D01*
X3555136Y10175341D01*
X3560013Y10172293D01*
X3565499Y10170363D01*
X3571798Y10169652D01*
X3594354Y10169652D01*
X3598011Y10168991D01*
X3601212Y10167010D01*
X3603447Y10164064D01*
X3606749Y10152684D01*
X3610305Y10146030D01*
X3615080Y10140188D01*
X3620922Y10135362D01*
X3623716Y10133888D01*
X3627069Y10130993D01*
X3628847Y10126929D01*
X3628745Y10122458D01*
X3626764Y10118496D01*
X3623259Y10115753D01*
X3618890Y10114788D01*
X3571798Y10114788D01*
X3565499Y10114076D01*
X3560013Y10112146D01*
X3555136Y10109098D01*
X3551021Y10104983D01*
X3547973Y10100106D01*
X3546043Y10094620D01*
X3545332Y10088321D01*
X3545332Y9947198D01*
X3546043Y9940899D01*
X3547973Y9935413D01*
X3551021Y9930536D01*
X3555136Y9926421D01*
X3560013Y9923373D01*
X3565499Y9921443D01*
X3571798Y9920732D01*
X3712921Y9920732D01*
X3719220Y9921443D01*
X3724706Y9923373D01*
X3729583Y9926421D01*
X3733698Y9930536D01*
X3736746Y9935413D01*
X3738676Y9940899D01*
X3739387Y9947198D01*
X3739387Y10040874D01*
X3740150Y10044785D01*
X3742385Y10048087D01*
X3745636Y10050272D01*
X3749548Y10051034D01*
X3753459Y10050272D01*
X3756710Y10048087D01*
X3818382Y9986416D01*
X3820566Y9983114D01*
X3821379Y9979253D01*
X3821379Y9511030D01*
X3820566Y9507169D01*
X3818432Y9503918D01*
X3815130Y9501682D01*
X3806545Y9498025D01*
X3793744Y9490659D01*
X3781958Y9481769D01*
X3771392Y9471507D01*
X3762146Y9459976D01*
X3754374Y9447428D01*
X3748176Y9434017D01*
X3743706Y9419996D01*
X3741013Y9405467D01*
X3740099Y9390380D01*
X3739540Y9386366D01*
X3737457Y9382861D01*
X3734155Y9380524D01*
X3730193Y9379610D01*
X3726179Y9380321D01*
X3722776Y9382607D01*
X3102457Y10002926D01*
X3100273Y10006228D01*
X3099511Y10010089D01*
X3099511Y10022332D01*
X3098698Y10030358D01*
X3096514Y10037572D01*
X3092958Y10044277D01*
X3088132Y10050119D01*
X3082290Y10054894D01*
X3075635Y10058450D01*
X3064256Y10061752D01*
X3061309Y10063988D01*
X3059328Y10067188D01*
X3058668Y10070846D01*
X3058668Y10093401D01*
X3057956Y10099700D01*
X3056026Y10105186D01*
X3052978Y10110063D01*
X3048863Y10114178D01*
X3043986Y10117226D01*
X3038500Y10119156D01*
X3032201Y10119868D01*
X2891078Y10119868D01*
X2884779Y10119156D01*
X2879293Y10117226D01*
X2874416Y10114178D01*
X2870301Y10110063D01*
X2867253Y10105186D01*
X2865323Y10099700D01*
X2864612Y10093401D01*
X2864612Y9952278D01*
X2865323Y9945979D01*
X2867253Y9940493D01*
X2870301Y9935616D01*
X2874416Y9931501D01*
X2879293Y9928453D01*
X2884779Y9926523D01*
X2891078Y9925812D01*
X3032201Y9925812D01*
X3038500Y9926523D01*
X3043986Y9928453D01*
X3048863Y9931501D01*
X3052876Y9934448D01*
X3056788Y9935210D01*
X3060649Y9934448D01*
X3063951Y9932212D01*
X3508451Y9487712D01*
X3510737Y9484156D01*
X3511448Y9479991D01*
X3510330Y9475927D01*
X3507689Y9472625D01*
X3503929Y9470694D01*
X3499713Y9470491D01*
X3490010Y9472015D01*
X3475278Y9472422D01*
X3460597Y9471101D01*
X3446170Y9467951D01*
X3432251Y9463024D01*
X3419043Y9456420D01*
X3406749Y9448292D01*
X3395522Y9438690D01*
X3385565Y9427768D01*
X3377031Y9415729D01*
X3370072Y9402724D01*
X3364737Y9388957D01*
X3361131Y9374682D01*
X3359302Y9360001D01*
X3359302Y9345269D01*
X3361131Y9330588D01*
X3364737Y9316313D01*
X3370072Y9302546D01*
X3374034Y9295130D01*
X3375202Y9291015D01*
X3374593Y9286748D01*
X3372256Y9283141D01*
X3287420Y9198305D01*
X3284118Y9196070D01*
X3280206Y9195308D01*
X2317394Y9195308D01*
X2313533Y9196070D01*
X2310282Y9198254D01*
X2308047Y9201505D01*
X2304389Y9210141D01*
X2297023Y9222892D01*
X2288133Y9234678D01*
X2277872Y9245295D01*
X2266340Y9254540D01*
X2253488Y9262516D01*
X2250440Y9265412D01*
X2248865Y9269323D01*
X2248966Y9273540D01*
X2250846Y9277350D01*
X2254046Y9280093D01*
X2260193Y9283395D01*
X2272233Y9291929D01*
X2283155Y9301835D01*
X2292756Y9313062D01*
X2300884Y9325356D01*
X2307488Y9338564D01*
X2312416Y9352483D01*
X2315565Y9366910D01*
X2316886Y9381591D01*
X2316480Y9396374D01*
X2314194Y9410954D01*
X2310130Y9425127D01*
X2304389Y9438741D01*
X2297023Y9451492D01*
X2288133Y9463278D01*
X2277872Y9473895D01*
X2266340Y9483140D01*
X2253488Y9491116D01*
X2250440Y9494012D01*
X2248865Y9497923D01*
X2248966Y9502140D01*
X2250846Y9505950D01*
X2254046Y9508693D01*
X2260193Y9511995D01*
X2272233Y9520529D01*
X2283155Y9530435D01*
X2292756Y9541662D01*
X2300884Y9553956D01*
X2307488Y9567164D01*
X2312416Y9581083D01*
X2315565Y9595510D01*
X2316886Y9610191D01*
X2316480Y9624974D01*
X2314194Y9639554D01*
X2310130Y9653727D01*
X2304389Y9667341D01*
X2297023Y9680092D01*
X2288133Y9691878D01*
X2277872Y9702495D01*
X2266340Y9711740D01*
X2253488Y9719716D01*
X2250440Y9722612D01*
X2248865Y9726523D01*
X2248966Y9730740D01*
X2250846Y9734550D01*
X2254046Y9737293D01*
X2260193Y9740595D01*
X2272233Y9749129D01*
X2283155Y9759035D01*
X2292756Y9770262D01*
X2300884Y9782556D01*
X2307488Y9795764D01*
X2312416Y9809683D01*
X2315565Y9824110D01*
X2316886Y9838791D01*
X2316480Y9853574D01*
X2314194Y9868154D01*
X2310130Y9882327D01*
X2304389Y9895941D01*
X2297023Y9908692D01*
X2288133Y9920478D01*
X2277872Y9931095D01*
X2266340Y9940340D01*
X2253792Y9948113D01*
X2252116Y9948875D01*
X2248560Y9951618D01*
X2246528Y9955580D01*
X2246477Y9957104D01*
X2244648Y9955784D01*
X2240991Y9954818D01*
X2237181Y9955276D01*
X2226360Y9958730D01*
X2211832Y9961473D01*
X2197100Y9962388D01*
X2182368Y9961473D01*
X2167839Y9958730D01*
X2157018Y9955276D01*
X2153208Y9954818D01*
X2149551Y9955784D01*
X2147722Y9957104D01*
X2147671Y9955580D01*
X2145639Y9951618D01*
X2142083Y9948875D01*
X2140407Y9948113D01*
X2127859Y9940340D01*
X2116328Y9931095D01*
X2106066Y9920478D01*
X2097176Y9908692D01*
X2089810Y9895941D01*
X2084070Y9882327D01*
X2080006Y9868154D01*
X2077720Y9853574D01*
X2077313Y9838791D01*
X2078634Y9824110D01*
X2081784Y9809683D01*
X2086711Y9795764D01*
X2093315Y9782556D01*
X2101443Y9770262D01*
X2111044Y9759035D01*
X2121966Y9749129D01*
X2134006Y9740595D01*
X2140153Y9737293D01*
X2143353Y9734550D01*
X2145233Y9730740D01*
X2145334Y9726523D01*
X2143760Y9722612D01*
X2140712Y9719716D01*
X2127859Y9711740D01*
X2116328Y9702495D01*
X2106066Y9691878D01*
X2097176Y9680092D01*
X2089810Y9667341D01*
X2084070Y9653727D01*
X2080006Y9639554D01*
X2077720Y9624974D01*
X2077313Y9610191D01*
X2078634Y9595510D01*
X2081784Y9581083D01*
X2086711Y9567164D01*
X2093315Y9553956D01*
X2101443Y9541662D01*
X2111044Y9530435D01*
X2121966Y9520529D01*
X2134006Y9511995D01*
X2140153Y9508693D01*
X2143353Y9505950D01*
X2145233Y9502140D01*
X2145334Y9497923D01*
X2143760Y9494012D01*
X2140712Y9491116D01*
X2127859Y9483140D01*
X2116328Y9473895D01*
X2106066Y9463278D01*
X2097176Y9451492D01*
X2089810Y9438741D01*
X2084070Y9425127D01*
X2080006Y9410954D01*
X2077720Y9396374D01*
X2077313Y9381591D01*
X2078634Y9366910D01*
X2081784Y9352483D01*
X2086965Y9337903D01*
X2087524Y9334195D01*
X2086711Y9330486D01*
X2084578Y9327337D01*
X2070354Y9313164D01*
X2066493Y9310827D01*
X2064207Y9307017D01*
X2038299Y9281058D01*
X2033168Y9274860D01*
X2029612Y9268155D01*
X2027428Y9260941D01*
X2026615Y9252915D01*
X2026615Y9227820D01*
X2025853Y9223908D01*
X2023618Y9220657D01*
X2020366Y9218422D01*
X2016455Y9217660D01*
X1996439Y9217660D01*
X1996439Y9162237D01*
X1996846Y9163050D01*
X2000046Y9165793D01*
X2006193Y9169095D01*
X2010562Y9172194D01*
X2014626Y9173870D01*
X2019046Y9173718D01*
X2022957Y9171686D01*
X2025650Y9168180D01*
X2026615Y9163913D01*
X2026615Y9149638D01*
X2025700Y9145473D01*
X2023160Y9142018D01*
X2019401Y9139936D01*
X2015134Y9139580D01*
X2011121Y9141002D01*
X1999488Y9148216D01*
X1996439Y9151162D01*
X1996439Y9095740D01*
X2025497Y9095740D01*
X2029815Y9094774D01*
X2033371Y9092031D01*
X2038299Y9086037D01*
X2338273Y8786012D01*
X2344521Y8780881D01*
X2351176Y8777325D01*
X2358390Y8775141D01*
X2366416Y8774328D01*
X3259632Y8774328D01*
X3263544Y8773566D01*
X3266846Y8771382D01*
X3366566Y8671661D01*
X3368751Y8668410D01*
X3369513Y8664651D01*
X3368852Y8660790D01*
X3364737Y8650173D01*
X3361131Y8635898D01*
X3359302Y8621217D01*
X3359302Y8606485D01*
X3361131Y8591854D01*
X3364737Y8577529D01*
X3370072Y8563762D01*
X3377031Y8550757D01*
X3385565Y8538718D01*
X3395522Y8527796D01*
X3406749Y8518194D01*
X3419043Y8510066D01*
X3421684Y8508746D01*
X3425190Y8505850D01*
X3427069Y8501786D01*
X3427069Y8497316D01*
X3425088Y8493252D01*
X3421532Y8490458D01*
X3417163Y8489442D01*
X2778709Y8489442D01*
X2774391Y8490407D01*
X2770936Y8493099D01*
X2768904Y8497011D01*
X2768701Y8501380D01*
X2770378Y8505444D01*
X2773629Y8508441D01*
X2783179Y8513927D01*
X2794965Y8522817D01*
X2805531Y8533079D01*
X2814777Y8544610D01*
X2822549Y8557158D01*
X2828747Y8570569D01*
X2833217Y8584641D01*
X2835910Y8599119D01*
X2836824Y8613851D01*
X2835910Y8628583D01*
X2833217Y8643112D01*
X2828747Y8657183D01*
X2822549Y8670544D01*
X2814777Y8683091D01*
X2805531Y8694623D01*
X2794965Y8704884D01*
X2783179Y8713774D01*
X2770378Y8721140D01*
X2756814Y8726932D01*
X2742590Y8730945D01*
X2728010Y8733231D01*
X2713278Y8733688D01*
X2698597Y8732316D01*
X2684170Y8729167D01*
X2670251Y8724239D01*
X2657043Y8717686D01*
X2644749Y8709507D01*
X2633522Y8699906D01*
X2623566Y8688984D01*
X2615031Y8676944D01*
X2608072Y8663940D01*
X2602738Y8650173D01*
X2599131Y8635898D01*
X2597302Y8621217D01*
X2597302Y8606485D01*
X2599131Y8591854D01*
X2602738Y8577529D01*
X2608072Y8563762D01*
X2615031Y8550757D01*
X2623566Y8538718D01*
X2633522Y8527796D01*
X2644749Y8518194D01*
X2657043Y8510066D01*
X2659684Y8508746D01*
X2663190Y8505850D01*
X2665069Y8501786D01*
X2665069Y8497316D01*
X2663088Y8493252D01*
X2659532Y8490458D01*
X2655163Y8489442D01*
X2381859Y8489442D01*
X2377948Y8490254D01*
X2374646Y8492439D01*
X1892757Y8974378D01*
X1890522Y8977680D01*
X1889760Y8981541D01*
X1889760Y8989060D01*
X1882241Y8989060D01*
X1878380Y8989822D01*
X1875078Y8992057D01*
X1862531Y9004554D01*
X1860346Y9007856D01*
X1859584Y9011767D01*
X1859584Y9085580D01*
X1860346Y9089491D01*
X1862531Y9092742D01*
X1865833Y9094978D01*
X1869744Y9095740D01*
X1889760Y9095740D01*
X1889760Y9151112D01*
X1886712Y9148216D01*
X1875078Y9141002D01*
X1871014Y9139580D01*
X1866747Y9139936D01*
X1863039Y9142018D01*
X1860448Y9145422D01*
X1859584Y9149638D01*
X1859584Y9163913D01*
X1860499Y9168231D01*
X1863191Y9171686D01*
X1867103Y9173718D01*
X1871522Y9173921D01*
X1875586Y9172194D01*
X1880006Y9169095D01*
X1886153Y9165793D01*
X1889353Y9163050D01*
X1889760Y9162237D01*
X1889760Y9217660D01*
X1869744Y9217660D01*
X1865833Y9218422D01*
X1862531Y9220657D01*
X1860346Y9223908D01*
X1859584Y9227820D01*
X1859584Y9314180D01*
X1860346Y9318091D01*
X1862531Y9321342D01*
X1865833Y9323578D01*
X1869744Y9324340D01*
X1889760Y9324340D01*
X1889760Y9379712D01*
X1886712Y9376816D01*
X1875078Y9369602D01*
X1871014Y9368180D01*
X1866747Y9368536D01*
X1863039Y9370618D01*
X1860448Y9374022D01*
X1859584Y9378238D01*
X1859584Y9392513D01*
X1860499Y9396831D01*
X1863191Y9400286D01*
X1867103Y9402318D01*
X1871522Y9402521D01*
X1875586Y9400794D01*
X1880006Y9397695D01*
X1886153Y9394393D01*
X1889353Y9391650D01*
X1889760Y9390837D01*
X1889760Y9446260D01*
X1869744Y9446260D01*
X1865833Y9447022D01*
X1862531Y9449257D01*
X1860346Y9452508D01*
X1859584Y9456420D01*
X1859584Y9481566D01*
X1858772Y9489592D01*
X1856587Y9496806D01*
X1853031Y9503460D01*
X1847900Y9509709D01*
X1821992Y9535617D01*
X1819706Y9539427D01*
X1815846Y9541764D01*
X1801622Y9555937D01*
X1799488Y9559086D01*
X1798675Y9562795D01*
X1799234Y9566503D01*
X1804416Y9581083D01*
X1807565Y9595510D01*
X1808937Y9610191D01*
X1808480Y9624974D01*
X1806193Y9639554D01*
X1802130Y9653727D01*
X1796389Y9667341D01*
X1789023Y9680092D01*
X1780133Y9691878D01*
X1769872Y9702495D01*
X1758340Y9711740D01*
X1745488Y9719716D01*
X1742439Y9722612D01*
X1740865Y9726523D01*
X1740966Y9730740D01*
X1742846Y9734550D01*
X1746046Y9737293D01*
X1752193Y9740595D01*
X1764233Y9749129D01*
X1775155Y9759035D01*
X1784756Y9770262D01*
X1792884Y9782556D01*
X1799488Y9795764D01*
X1804416Y9809683D01*
X1807565Y9824110D01*
X1808937Y9838791D01*
X1808480Y9853574D01*
X1806193Y9868154D01*
X1802130Y9882327D01*
X1796389Y9895941D01*
X1789023Y9908692D01*
X1780133Y9920478D01*
X1769872Y9931095D01*
X1758340Y9940340D01*
X1745792Y9948113D01*
X1744116Y9948875D01*
X1740560Y9951618D01*
X1738528Y9955580D01*
X1738375Y9960051D01*
X1740154Y9964166D01*
X1743557Y9967061D01*
X1752193Y9971735D01*
X1764233Y9980269D01*
X1775155Y9990175D01*
X1784756Y10001402D01*
X1792884Y10013696D01*
X1799488Y10026904D01*
X1804416Y10040823D01*
X1807565Y10055250D01*
X1808937Y10069931D01*
X1808480Y10084714D01*
X1806193Y10099294D01*
X1802130Y10113467D01*
X1796389Y10127081D01*
X1789023Y10139832D01*
X1780133Y10151618D01*
X1769872Y10162235D01*
X1758340Y10171480D01*
X1745792Y10179253D01*
X1732381Y10185400D01*
X1718360Y10189870D01*
X1703832Y10192613D01*
X1689100Y10193528D01*
X1674368Y10192613D01*
X1659839Y10189870D01*
X1645818Y10185400D01*
X1632407Y10179253D01*
X1619859Y10171480D01*
X1608328Y10162235D01*
X1598066Y10151618D01*
X1589176Y10139832D01*
X1581810Y10127081D01*
X1576070Y10113467D01*
X1572006Y10099294D01*
X1569720Y10084714D01*
X1569313Y10069931D01*
X1570634Y10055250D01*
X1573784Y10040823D01*
X1578711Y10026904D01*
X1585315Y10013696D01*
X1593443Y10001402D01*
X1603044Y9990175D01*
X1613966Y9980269D01*
X1626006Y9971735D01*
X1634642Y9967061D01*
X1638046Y9964166D01*
X1639824Y9960051D01*
X1639671Y9955580D01*
X1637639Y9951618D01*
X1634083Y9948875D01*
X1632407Y9948113D01*
X1619859Y9940340D01*
X1608328Y9931095D01*
X1598066Y9920478D01*
X1589176Y9908692D01*
X1581810Y9895941D01*
X1576070Y9882327D01*
X1572006Y9868154D01*
X1569720Y9853574D01*
X1569313Y9838791D01*
X1570634Y9824110D01*
X1573784Y9809683D01*
X1578711Y9795764D01*
X1585315Y9782556D01*
X1593443Y9770262D01*
X1603044Y9759035D01*
X1613966Y9749129D01*
X1626006Y9740595D01*
X1632153Y9737293D01*
X1635353Y9734550D01*
X1637233Y9730740D01*
X1637334Y9726523D01*
X1635760Y9722612D01*
X1632712Y9719716D01*
X1619859Y9711740D01*
X1608328Y9702495D01*
X1598066Y9691878D01*
X1589176Y9680092D01*
X1581810Y9667341D01*
X1576070Y9653727D01*
X1572006Y9639554D01*
X1569720Y9624974D01*
X1569313Y9610191D01*
X1570634Y9595510D01*
X1573784Y9581083D01*
X1578711Y9567164D01*
X1585315Y9553956D01*
X1593443Y9541662D01*
X1603044Y9530435D01*
X1613966Y9520529D01*
X1626006Y9511995D01*
X1632153Y9508693D01*
X1635353Y9505950D01*
X1637233Y9502140D01*
X1637334Y9497923D01*
X1635760Y9494012D01*
X1632712Y9491116D01*
X1619859Y9483140D01*
X1608328Y9473895D01*
X1598066Y9463278D01*
X1589176Y9451492D01*
X1581810Y9438741D01*
X1576070Y9425127D01*
X1572006Y9410954D01*
X1569720Y9396374D01*
X1569313Y9381591D01*
X1570634Y9366910D01*
X1573784Y9352483D01*
X1578711Y9338564D01*
X1585315Y9325356D01*
X1593443Y9313062D01*
X1603044Y9301835D01*
X1613966Y9291929D01*
X1626006Y9283395D01*
X1632153Y9280093D01*
X1635353Y9277350D01*
X1637233Y9273540D01*
X1637334Y9269323D01*
X1635760Y9265412D01*
X1632712Y9262516D01*
X1619859Y9254540D01*
X1608328Y9245295D01*
X1598066Y9234678D01*
X1589176Y9222892D01*
X1581810Y9210141D01*
X1576070Y9196527D01*
X1572006Y9182354D01*
X1569720Y9167774D01*
X1569313Y9152991D01*
X1570634Y9138310D01*
X1573784Y9123883D01*
X1578711Y9109964D01*
X1585315Y9096756D01*
X1593443Y9084462D01*
X1603044Y9073235D01*
X1613966Y9063329D01*
X1626006Y9054795D01*
X1639011Y9047784D01*
X1652778Y9042450D01*
X1667052Y9038894D01*
X1681734Y9037066D01*
X1696466Y9037066D01*
X1711147Y9038894D01*
X1725422Y9042450D01*
X1739188Y9047784D01*
X1752193Y9054795D01*
X1768652Y9066326D01*
X1772513Y9066936D01*
X1776272Y9066072D01*
X1779473Y9063888D01*
X1781606Y9060637D01*
X1782368Y9056776D01*
X1782368Y8992057D01*
X1783130Y8984030D01*
X1785315Y8976817D01*
X1788871Y8970111D01*
X1794002Y8963914D01*
X2334006Y8423910D01*
X2340203Y8418779D01*
X2346909Y8415223D01*
X2354122Y8413038D01*
X2362149Y8412226D01*
X4051147Y8412226D01*
X4055008Y8411464D01*
X4058310Y8409279D01*
X4535779Y7931810D01*
X4537964Y7928559D01*
X4538776Y7924800D01*
X4538065Y7920939D01*
X4533950Y7910322D01*
X4530394Y7896047D01*
X4528566Y7881366D01*
X4528566Y7866634D01*
X4530394Y7851952D01*
X4533950Y7837678D01*
X4539284Y7823911D01*
X4546295Y7810906D01*
X4554829Y7798866D01*
X4564735Y7787944D01*
X4575962Y7778343D01*
X4588256Y7770215D01*
X4593488Y7767624D01*
X4596942Y7764729D01*
X4598873Y7760665D01*
X4598822Y7756194D01*
X4596841Y7752130D01*
X4593336Y7749336D01*
X4588916Y7748320D01*
X3945737Y7748320D01*
X3941470Y7749286D01*
X3937965Y7751978D01*
X3935933Y7755890D01*
X3935780Y7760258D01*
X3937457Y7764322D01*
X3940657Y7767320D01*
X3952392Y7774076D01*
X3964178Y7782966D01*
X3974795Y7793228D01*
X3984040Y7804759D01*
X3991813Y7817307D01*
X3997960Y7830718D01*
X4002430Y7844739D01*
X4005173Y7859268D01*
X4006087Y7874000D01*
X4005173Y7888731D01*
X4002430Y7903260D01*
X3997960Y7917281D01*
X3991813Y7930692D01*
X3984040Y7943240D01*
X3974795Y7954772D01*
X3964178Y7965033D01*
X3952392Y7973923D01*
X3939641Y7981289D01*
X3926027Y7987030D01*
X3911854Y7991094D01*
X3897274Y7993380D01*
X3882491Y7993786D01*
X3867810Y7992465D01*
X3853383Y7989316D01*
X3839464Y7984388D01*
X3826256Y7977784D01*
X3813962Y7969656D01*
X3802735Y7960055D01*
X3792829Y7949133D01*
X3784295Y7937093D01*
X3777284Y7924088D01*
X3771950Y7910322D01*
X3768394Y7896047D01*
X3766565Y7881366D01*
X3766565Y7866634D01*
X3768394Y7851952D01*
X3771950Y7837678D01*
X3776065Y7827060D01*
X3776776Y7823200D01*
X3775964Y7819440D01*
X3773779Y7816189D01*
X3632301Y7674711D01*
X3628999Y7672527D01*
X3625138Y7671714D01*
X2663698Y7671714D01*
X2655671Y7670952D01*
X2648458Y7668768D01*
X2641803Y7665212D01*
X2635554Y7660081D01*
X1839975Y6864451D01*
X1834845Y6858253D01*
X1831289Y6851548D01*
X1829104Y6844334D01*
X1828292Y6836308D01*
X1828292Y6656882D01*
X1827580Y6653225D01*
X1825599Y6650024D01*
X1822602Y6647789D01*
X1814575Y6643827D01*
X1803196Y6636207D01*
X1792935Y6627164D01*
X1783892Y6616903D01*
X1776272Y6605524D01*
X1770227Y6593230D01*
X1765858Y6580276D01*
X1763166Y6566865D01*
X1762252Y6553200D01*
X1763166Y6539534D01*
X1765858Y6526123D01*
X1770227Y6513169D01*
X1776272Y6500876D01*
X1783892Y6489496D01*
X1790750Y6481673D01*
X1792732Y6478320D01*
X1793290Y6474510D01*
X1792376Y6470751D01*
X1790141Y6467652D01*
X1786940Y6465519D01*
X1783130Y6464808D01*
X1740407Y6464808D01*
X1732381Y6463995D01*
X1725168Y6461810D01*
X1718462Y6458254D01*
X1712264Y6453124D01*
X1658924Y6399834D01*
X1655825Y6397701D01*
X1652168Y6396837D01*
X1648460Y6397396D01*
X1639976Y6400241D01*
X1626565Y6402933D01*
X1612900Y6403848D01*
X1599234Y6402933D01*
X1585823Y6400241D01*
X1572869Y6395872D01*
X1560576Y6389827D01*
X1549196Y6382207D01*
X1538935Y6373164D01*
X1529892Y6362903D01*
X1522272Y6351524D01*
X1516227Y6339230D01*
X1511858Y6326276D01*
X1509166Y6312865D01*
X1508252Y6299200D01*
X1509166Y6285534D01*
X1511858Y6272123D01*
X1516227Y6259169D01*
X1522272Y6246876D01*
X1529892Y6235496D01*
X1538935Y6225235D01*
X1549196Y6216192D01*
X1560576Y6208572D01*
X1572869Y6202527D01*
X1585823Y6198158D01*
X1599234Y6195466D01*
G37*
G36*
X6591300Y10819892D02*
G01*
X6604914Y10820806D01*
X6618274Y10823549D01*
X6631178Y10828020D01*
X6643319Y10834166D01*
X6654546Y10841888D01*
X6664706Y10851032D01*
X6673494Y10861446D01*
X6680809Y10872927D01*
X6686550Y10885322D01*
X6690614Y10898327D01*
X6692849Y10911789D01*
X6693306Y10925403D01*
X6691985Y10938967D01*
X6688785Y10952226D01*
X6683908Y10964976D01*
X6677355Y10976914D01*
X6669278Y10987887D01*
X6659778Y10997692D01*
X6649059Y11006175D01*
X6637324Y11013135D01*
X6624777Y11018418D01*
X6611620Y11022025D01*
X6598107Y11023854D01*
X6584492Y11023854D01*
X6570980Y11022025D01*
X6557822Y11018418D01*
X6545275Y11013135D01*
X6533540Y11006175D01*
X6522821Y10997692D01*
X6513322Y10987887D01*
X6505244Y10976914D01*
X6498691Y10964976D01*
X6493814Y10952226D01*
X6490614Y10938967D01*
X6489293Y10925403D01*
X6489750Y10911789D01*
X6491986Y10898327D01*
X6496050Y10885322D01*
X6501790Y10872927D01*
X6509105Y10861446D01*
X6517894Y10851032D01*
X6528054Y10841888D01*
X6539280Y10834166D01*
X6551422Y10828020D01*
X6564325Y10823549D01*
X6577685Y10820806D01*
G37*
G36*
X6337300Y10565892D02*
G01*
X6350914Y10566806D01*
X6364274Y10569549D01*
X6377178Y10574020D01*
X6389319Y10580166D01*
X6400546Y10587888D01*
X6410706Y10597032D01*
X6419494Y10607446D01*
X6426809Y10618927D01*
X6432550Y10631322D01*
X6436614Y10644327D01*
X6438849Y10657789D01*
X6439306Y10671403D01*
X6437985Y10684967D01*
X6434785Y10698226D01*
X6429908Y10710976D01*
X6423355Y10722914D01*
X6415278Y10733887D01*
X6405778Y10743692D01*
X6395059Y10752175D01*
X6383324Y10759135D01*
X6370777Y10764418D01*
X6357620Y10768025D01*
X6344107Y10769854D01*
X6330492Y10769854D01*
X6316980Y10768025D01*
X6303822Y10764418D01*
X6291275Y10759135D01*
X6279540Y10752175D01*
X6268821Y10743692D01*
X6259322Y10733887D01*
X6251244Y10722914D01*
X6244691Y10710976D01*
X6239814Y10698226D01*
X6236614Y10684967D01*
X6235293Y10671403D01*
X6235750Y10657789D01*
X6237986Y10644327D01*
X6242050Y10631322D01*
X6247790Y10618927D01*
X6255105Y10607446D01*
X6263894Y10597032D01*
X6274054Y10587888D01*
X6285280Y10580166D01*
X6297422Y10574020D01*
X6310325Y10569549D01*
X6323685Y10566806D01*
G37*
G36*
X6591300Y10565892D02*
G01*
X6604914Y10566806D01*
X6618274Y10569549D01*
X6631178Y10574020D01*
X6643319Y10580166D01*
X6654546Y10587888D01*
X6664706Y10597032D01*
X6673494Y10607446D01*
X6680809Y10618927D01*
X6686550Y10631322D01*
X6690614Y10644327D01*
X6692849Y10657789D01*
X6693306Y10671403D01*
X6691985Y10684967D01*
X6688785Y10698226D01*
X6683908Y10710976D01*
X6677355Y10722914D01*
X6669278Y10733887D01*
X6659778Y10743692D01*
X6649059Y10752175D01*
X6637324Y10759135D01*
X6624777Y10764418D01*
X6611620Y10768025D01*
X6598107Y10769854D01*
X6584492Y10769854D01*
X6570980Y10768025D01*
X6557822Y10764418D01*
X6545275Y10759135D01*
X6533540Y10752175D01*
X6522821Y10743692D01*
X6513322Y10733887D01*
X6505244Y10722914D01*
X6498691Y10710976D01*
X6493814Y10698226D01*
X6490614Y10684967D01*
X6489293Y10671403D01*
X6489750Y10657789D01*
X6491986Y10644327D01*
X6496050Y10631322D01*
X6501790Y10618927D01*
X6509105Y10607446D01*
X6517894Y10597032D01*
X6528054Y10587888D01*
X6539280Y10580166D01*
X6551422Y10574020D01*
X6564325Y10569549D01*
X6577685Y10566806D01*
G37*
G36*
X1943100Y10558272D02*
G01*
X1966214Y10559237D01*
X1989175Y10562082D01*
X2011832Y10566857D01*
X2033981Y10573461D01*
X2055520Y10581843D01*
X2076297Y10592003D01*
X2096211Y10603839D01*
X2115007Y10617301D01*
X2132685Y10632236D01*
X2149043Y10648594D01*
X2163978Y10666272D01*
X2177440Y10685068D01*
X2189276Y10704982D01*
X2199436Y10725759D01*
X2207818Y10747298D01*
X2214422Y10769447D01*
X2219198Y10792104D01*
X2222042Y10815066D01*
X2223008Y10838180D01*
X2222042Y10861294D01*
X2219198Y10884255D01*
X2214422Y10906912D01*
X2207818Y10929061D01*
X2199436Y10950600D01*
X2189276Y10971377D01*
X2177440Y10991291D01*
X2163978Y11010087D01*
X2149043Y11027765D01*
X2132685Y11044123D01*
X2115007Y11059058D01*
X2096211Y11072520D01*
X2076297Y11084356D01*
X2055520Y11094516D01*
X2033981Y11102898D01*
X2011832Y11109502D01*
X1989175Y11114278D01*
X1966214Y11117122D01*
X1943100Y11118088D01*
X1919986Y11117122D01*
X1897024Y11114278D01*
X1874367Y11109502D01*
X1852218Y11102898D01*
X1830679Y11094516D01*
X1809902Y11084356D01*
X1789988Y11072520D01*
X1771192Y11059058D01*
X1753514Y11044123D01*
X1737156Y11027765D01*
X1722221Y11010087D01*
X1708759Y10991291D01*
X1696923Y10971377D01*
X1686763Y10950600D01*
X1678381Y10929061D01*
X1671777Y10906912D01*
X1667002Y10884255D01*
X1664157Y10861294D01*
X1663192Y10838180D01*
X1664157Y10815066D01*
X1667002Y10792104D01*
X1671777Y10769447D01*
X1678381Y10747298D01*
X1686763Y10725759D01*
X1696923Y10704982D01*
X1708759Y10685068D01*
X1722221Y10666272D01*
X1737156Y10648594D01*
X1753514Y10632236D01*
X1771192Y10617301D01*
X1789988Y10603839D01*
X1809902Y10592003D01*
X1830679Y10581843D01*
X1852218Y10573461D01*
X1874367Y10566857D01*
X1897024Y10562082D01*
X1919986Y10559237D01*
G37*
G36*
X2631236Y10365536D02*
G01*
X2650591Y10366959D01*
X2669692Y10370210D01*
X2688437Y10375341D01*
X2706573Y10382199D01*
X2723997Y10390835D01*
X2740507Y10401046D01*
X2755900Y10412831D01*
X2770124Y10426090D01*
X2782976Y10440619D01*
X2794406Y10456316D01*
X2804261Y10473029D01*
X2812440Y10490657D01*
X2818892Y10508945D01*
X2821635Y10520070D01*
X2823616Y10524032D01*
X2827121Y10526826D01*
X2831490Y10527792D01*
X3136036Y10527792D01*
X3140456Y10526776D01*
X3143961Y10523982D01*
X3151632Y10514482D01*
X3165195Y10500563D01*
X3180029Y10488066D01*
X3195980Y10477042D01*
X3212947Y10467594D01*
X3230778Y10459821D01*
X3249218Y10453827D01*
X3268167Y10449661D01*
X3287471Y10447324D01*
X3306876Y10446816D01*
X3326231Y10448239D01*
X3345332Y10451490D01*
X3364077Y10456621D01*
X3382213Y10463479D01*
X3399637Y10472115D01*
X3416147Y10482326D01*
X3431540Y10494111D01*
X3445764Y10507370D01*
X3458616Y10521899D01*
X3470046Y10537596D01*
X3479901Y10554309D01*
X3488080Y10571937D01*
X3494532Y10590225D01*
X3497275Y10601350D01*
X3499256Y10605312D01*
X3502761Y10608106D01*
X3507130Y10609072D01*
X3774236Y10609072D01*
X3778605Y10608106D01*
X3782110Y10605363D01*
X3784092Y10601401D01*
X3784244Y10596981D01*
X3783939Y10595406D01*
X3782060Y10576102D01*
X3782060Y10556697D01*
X3783939Y10537393D01*
X3787648Y10518343D01*
X3793185Y10499699D01*
X3800551Y10481716D01*
X3809542Y10464546D01*
X3820210Y10448290D01*
X3832351Y10433202D01*
X3845915Y10419283D01*
X3860749Y10406786D01*
X3876700Y10395762D01*
X3893667Y10386314D01*
X3911498Y10378541D01*
X3929938Y10372547D01*
X3948887Y10368381D01*
X3968191Y10366044D01*
X3987596Y10365536D01*
X4006951Y10366959D01*
X4026052Y10370210D01*
X4044797Y10375341D01*
X4062933Y10382199D01*
X4080357Y10390835D01*
X4096867Y10401046D01*
X4112260Y10412831D01*
X4126484Y10426090D01*
X4139336Y10440619D01*
X4150766Y10456316D01*
X4160621Y10473029D01*
X4168800Y10490657D01*
X4175251Y10508945D01*
X4179874Y10527792D01*
X4182668Y10546994D01*
X4183634Y10566400D01*
X4182668Y10585805D01*
X4179874Y10605008D01*
X4175251Y10623854D01*
X4168800Y10642142D01*
X4160621Y10659770D01*
X4150766Y10676483D01*
X4139336Y10692180D01*
X4126484Y10706709D01*
X4112260Y10719968D01*
X4096867Y10731754D01*
X4080357Y10741964D01*
X4062933Y10750600D01*
X4044797Y10757458D01*
X4026052Y10762589D01*
X4006951Y10765840D01*
X3987596Y10767263D01*
X3968191Y10766755D01*
X3948887Y10764418D01*
X3929938Y10760252D01*
X3911498Y10754258D01*
X3893667Y10746486D01*
X3876700Y10737037D01*
X3860749Y10726013D01*
X3845915Y10713516D01*
X3832351Y10699597D01*
X3824681Y10690098D01*
X3821176Y10687304D01*
X3816756Y10686288D01*
X3507130Y10686288D01*
X3502761Y10687253D01*
X3499256Y10690047D01*
X3497275Y10694009D01*
X3494532Y10705134D01*
X3488080Y10723422D01*
X3479901Y10741050D01*
X3470046Y10757763D01*
X3458616Y10773460D01*
X3445764Y10787989D01*
X3431540Y10801248D01*
X3416147Y10813034D01*
X3399637Y10823244D01*
X3382213Y10831880D01*
X3364077Y10838738D01*
X3345332Y10843869D01*
X3326231Y10847120D01*
X3306876Y10848543D01*
X3287471Y10848035D01*
X3268167Y10845698D01*
X3249218Y10841532D01*
X3230778Y10835538D01*
X3212947Y10827766D01*
X3195980Y10818317D01*
X3180029Y10807293D01*
X3165195Y10794796D01*
X3151632Y10780877D01*
X3139490Y10765790D01*
X3128822Y10749534D01*
X3119831Y10732363D01*
X3112465Y10714380D01*
X3106928Y10695736D01*
X3103219Y10676686D01*
X3101340Y10657382D01*
X3101340Y10637977D01*
X3103219Y10618673D01*
X3103524Y10617098D01*
X3103372Y10612678D01*
X3101390Y10608716D01*
X3097885Y10605973D01*
X3093516Y10605008D01*
X2831490Y10605008D01*
X2827121Y10605973D01*
X2823616Y10608767D01*
X2821635Y10612729D01*
X2818892Y10623854D01*
X2812440Y10642142D01*
X2804261Y10659770D01*
X2794406Y10676483D01*
X2782976Y10692180D01*
X2770124Y10706709D01*
X2755900Y10719968D01*
X2740507Y10731754D01*
X2723997Y10741964D01*
X2706573Y10750600D01*
X2688437Y10757458D01*
X2669692Y10762589D01*
X2650591Y10765840D01*
X2631236Y10767263D01*
X2611831Y10766755D01*
X2592527Y10764418D01*
X2573578Y10760252D01*
X2555138Y10754258D01*
X2537307Y10746486D01*
X2520340Y10737037D01*
X2504389Y10726013D01*
X2489555Y10713516D01*
X2475992Y10699597D01*
X2463850Y10684510D01*
X2453182Y10668254D01*
X2444191Y10651083D01*
X2436825Y10633100D01*
X2431288Y10614456D01*
X2427579Y10595406D01*
X2425700Y10576102D01*
X2425700Y10556697D01*
X2427579Y10537393D01*
X2431288Y10518343D01*
X2436825Y10499699D01*
X2444191Y10481716D01*
X2453182Y10464546D01*
X2463850Y10448290D01*
X2475992Y10433202D01*
X2489555Y10419283D01*
X2504389Y10406786D01*
X2520340Y10395762D01*
X2537307Y10386314D01*
X2555138Y10378541D01*
X2573578Y10372547D01*
X2592527Y10368381D01*
X2611831Y10366044D01*
G37*
G36*
X1612900Y6448552D02*
G01*
X1626565Y6449466D01*
X1639976Y6452158D01*
X1652930Y6456527D01*
X1665224Y6462572D01*
X1676603Y6470192D01*
X1686864Y6479235D01*
X1695907Y6489496D01*
X1703527Y6500876D01*
X1709572Y6513169D01*
X1713941Y6526123D01*
X1716633Y6539534D01*
X1717548Y6553200D01*
X1716633Y6566865D01*
X1713941Y6580276D01*
X1709572Y6593230D01*
X1703527Y6605524D01*
X1695907Y6616903D01*
X1686864Y6627164D01*
X1676603Y6636207D01*
X1665224Y6643827D01*
X1652930Y6649872D01*
X1639976Y6654241D01*
X1626565Y6656933D01*
X1612900Y6657848D01*
X1599234Y6656933D01*
X1585823Y6654241D01*
X1572869Y6649872D01*
X1560576Y6643827D01*
X1549196Y6636207D01*
X1538935Y6627164D01*
X1529892Y6616903D01*
X1522272Y6605524D01*
X1516227Y6593230D01*
X1511858Y6580276D01*
X1509166Y6566865D01*
X1508252Y6553200D01*
X1509166Y6539534D01*
X1511858Y6526123D01*
X1516227Y6513169D01*
X1522272Y6500876D01*
X1529892Y6489496D01*
X1538935Y6479235D01*
X1549196Y6470192D01*
X1560576Y6462572D01*
X1572869Y6456527D01*
X1585823Y6452158D01*
X1599234Y6449466D01*
G37*
G36*
X1358900Y6448552D02*
G01*
X1372565Y6449466D01*
X1385976Y6452158D01*
X1398930Y6456527D01*
X1411224Y6462572D01*
X1422603Y6470192D01*
X1432864Y6479235D01*
X1441907Y6489496D01*
X1449527Y6500876D01*
X1455572Y6513169D01*
X1459941Y6526123D01*
X1462633Y6539534D01*
X1463548Y6553200D01*
X1462633Y6566865D01*
X1459941Y6580276D01*
X1455572Y6593230D01*
X1449527Y6605524D01*
X1441907Y6616903D01*
X1432864Y6627164D01*
X1422603Y6636207D01*
X1411224Y6643827D01*
X1398930Y6649872D01*
X1385976Y6654241D01*
X1372565Y6656933D01*
X1358900Y6657848D01*
X1345234Y6656933D01*
X1331823Y6654241D01*
X1318869Y6649872D01*
X1306576Y6643827D01*
X1295196Y6636207D01*
X1284935Y6627164D01*
X1275892Y6616903D01*
X1268272Y6605524D01*
X1262227Y6593230D01*
X1257858Y6580276D01*
X1255166Y6566865D01*
X1254252Y6553200D01*
X1255166Y6539534D01*
X1257858Y6526123D01*
X1262227Y6513169D01*
X1268272Y6500876D01*
X1275892Y6489496D01*
X1284935Y6479235D01*
X1295196Y6470192D01*
X1306576Y6462572D01*
X1318869Y6456527D01*
X1331823Y6452158D01*
X1345234Y6449466D01*
G37*
G36*
X1104900Y6448552D02*
G01*
X1118565Y6449466D01*
X1131976Y6452158D01*
X1144930Y6456527D01*
X1157224Y6462572D01*
X1168603Y6470192D01*
X1178864Y6479235D01*
X1187907Y6489496D01*
X1195527Y6500876D01*
X1201572Y6513169D01*
X1205941Y6526123D01*
X1208633Y6539534D01*
X1209548Y6553200D01*
X1208633Y6566865D01*
X1205941Y6580276D01*
X1201572Y6593230D01*
X1195527Y6605524D01*
X1187907Y6616903D01*
X1178864Y6627164D01*
X1168603Y6636207D01*
X1157224Y6643827D01*
X1144930Y6649872D01*
X1131976Y6654241D01*
X1118565Y6656933D01*
X1104900Y6657848D01*
X1091234Y6656933D01*
X1077823Y6654241D01*
X1064869Y6649872D01*
X1052576Y6643827D01*
X1041196Y6636207D01*
X1030935Y6627164D01*
X1021892Y6616903D01*
X1014272Y6605524D01*
X1008227Y6593230D01*
X1003858Y6580276D01*
X1001166Y6566865D01*
X1000252Y6553200D01*
X1001166Y6539534D01*
X1003858Y6526123D01*
X1008227Y6513169D01*
X1014272Y6500876D01*
X1021892Y6489496D01*
X1030935Y6479235D01*
X1041196Y6470192D01*
X1052576Y6462572D01*
X1064869Y6456527D01*
X1077823Y6452158D01*
X1091234Y6449466D01*
G37*
G36*
X5168900Y6448552D02*
G01*
X5182565Y6449466D01*
X5195976Y6452158D01*
X5208930Y6456527D01*
X5221224Y6462572D01*
X5232603Y6470192D01*
X5242864Y6479235D01*
X5251907Y6489496D01*
X5259527Y6500876D01*
X5265572Y6513169D01*
X5269941Y6526123D01*
X5272633Y6539534D01*
X5273548Y6553200D01*
X5272633Y6566865D01*
X5269941Y6580276D01*
X5265572Y6593230D01*
X5259527Y6605524D01*
X5251907Y6616903D01*
X5242864Y6627164D01*
X5232603Y6636207D01*
X5221224Y6643827D01*
X5208930Y6649872D01*
X5195976Y6654241D01*
X5182565Y6656933D01*
X5168900Y6657848D01*
X5155234Y6656933D01*
X5141823Y6654241D01*
X5128869Y6649872D01*
X5116576Y6643827D01*
X5105196Y6636207D01*
X5094935Y6627164D01*
X5085892Y6616903D01*
X5078272Y6605524D01*
X5072227Y6593230D01*
X5067858Y6580276D01*
X5065166Y6566865D01*
X5064252Y6553200D01*
X5065166Y6539534D01*
X5067858Y6526123D01*
X5072227Y6513169D01*
X5078272Y6500876D01*
X5085892Y6489496D01*
X5094935Y6479235D01*
X5105196Y6470192D01*
X5116576Y6462572D01*
X5128869Y6456527D01*
X5141823Y6452158D01*
X5155234Y6449466D01*
G37*
G36*
X4914900Y6448552D02*
G01*
X4928565Y6449466D01*
X4941976Y6452158D01*
X4954930Y6456527D01*
X4967224Y6462572D01*
X4978603Y6470192D01*
X4988864Y6479235D01*
X4997907Y6489496D01*
X5005527Y6500876D01*
X5011572Y6513169D01*
X5015941Y6526123D01*
X5018633Y6539534D01*
X5019548Y6553200D01*
X5018633Y6566865D01*
X5015941Y6580276D01*
X5011572Y6593230D01*
X5005527Y6605524D01*
X4997907Y6616903D01*
X4988864Y6627164D01*
X4978603Y6636207D01*
X4967224Y6643827D01*
X4954930Y6649872D01*
X4941976Y6654241D01*
X4928565Y6656933D01*
X4914900Y6657848D01*
X4901234Y6656933D01*
X4887823Y6654241D01*
X4874869Y6649872D01*
X4862576Y6643827D01*
X4851196Y6636207D01*
X4840935Y6627164D01*
X4831892Y6616903D01*
X4824272Y6605524D01*
X4818227Y6593230D01*
X4813858Y6580276D01*
X4811166Y6566865D01*
X4810252Y6553200D01*
X4811166Y6539534D01*
X4813858Y6526123D01*
X4818227Y6513169D01*
X4824272Y6500876D01*
X4831892Y6489496D01*
X4840935Y6479235D01*
X4851196Y6470192D01*
X4862576Y6462572D01*
X4874869Y6456527D01*
X4887823Y6452158D01*
X4901234Y6449466D01*
G37*
G36*
X5422900Y6448552D02*
G01*
X5436565Y6449466D01*
X5449976Y6452158D01*
X5462930Y6456527D01*
X5475224Y6462572D01*
X5486603Y6470192D01*
X5496864Y6479235D01*
X5505907Y6489496D01*
X5513527Y6500876D01*
X5519572Y6513169D01*
X5523941Y6526123D01*
X5526633Y6539534D01*
X5527548Y6553200D01*
X5526633Y6566865D01*
X5523941Y6580276D01*
X5519572Y6593230D01*
X5513527Y6605524D01*
X5505907Y6616903D01*
X5496864Y6627164D01*
X5486603Y6636207D01*
X5475224Y6643827D01*
X5462930Y6649872D01*
X5449976Y6654241D01*
X5436565Y6656933D01*
X5422900Y6657848D01*
X5409234Y6656933D01*
X5395823Y6654241D01*
X5382869Y6649872D01*
X5370576Y6643827D01*
X5359196Y6636207D01*
X5348935Y6627164D01*
X5339892Y6616903D01*
X5332272Y6605524D01*
X5326227Y6593230D01*
X5321858Y6580276D01*
X5319166Y6566865D01*
X5318252Y6553200D01*
X5319166Y6539534D01*
X5321858Y6526123D01*
X5326227Y6513169D01*
X5332272Y6500876D01*
X5339892Y6489496D01*
X5348935Y6479235D01*
X5359196Y6470192D01*
X5370576Y6462572D01*
X5382869Y6456527D01*
X5395823Y6452158D01*
X5409234Y6449466D01*
G37*
G36*
X4660900Y6448552D02*
G01*
X4674565Y6449466D01*
X4687976Y6452158D01*
X4700930Y6456527D01*
X4713224Y6462572D01*
X4724603Y6470192D01*
X4734864Y6479235D01*
X4743907Y6489496D01*
X4751527Y6500876D01*
X4757572Y6513169D01*
X4761941Y6526123D01*
X4764633Y6539534D01*
X4765548Y6553200D01*
X4764633Y6566865D01*
X4761941Y6580276D01*
X4757572Y6593230D01*
X4751527Y6605524D01*
X4743907Y6616903D01*
X4734864Y6627164D01*
X4724603Y6636207D01*
X4713224Y6643827D01*
X4700930Y6649872D01*
X4687976Y6654241D01*
X4674565Y6656933D01*
X4660900Y6657848D01*
X4647234Y6656933D01*
X4633823Y6654241D01*
X4620869Y6649872D01*
X4608576Y6643827D01*
X4597196Y6636207D01*
X4586935Y6627164D01*
X4577892Y6616903D01*
X4570272Y6605524D01*
X4564227Y6593230D01*
X4559858Y6580276D01*
X4557166Y6566865D01*
X4556252Y6553200D01*
X4557166Y6539534D01*
X4559858Y6526123D01*
X4564227Y6513169D01*
X4570272Y6500876D01*
X4577892Y6489496D01*
X4586935Y6479235D01*
X4597196Y6470192D01*
X4608576Y6462572D01*
X4620869Y6456527D01*
X4633823Y6452158D01*
X4647234Y6449466D01*
G37*
G36*
X4421936Y10365536D02*
G01*
X4441291Y10366959D01*
X4460392Y10370210D01*
X4479137Y10375341D01*
X4497273Y10382199D01*
X4514697Y10390835D01*
X4531207Y10401046D01*
X4546600Y10412831D01*
X4560824Y10426090D01*
X4573676Y10440619D01*
X4585106Y10456316D01*
X4594961Y10473029D01*
X4603140Y10490657D01*
X4609592Y10508945D01*
X4614214Y10527792D01*
X4617008Y10546994D01*
X4617974Y10566400D01*
X4617008Y10585805D01*
X4615332Y10597438D01*
X4615637Y10601756D01*
X4617669Y10605566D01*
X4621174Y10608157D01*
X4625390Y10609072D01*
X4887417Y10609072D01*
X4890871Y10608462D01*
X4893868Y10606735D01*
X4896154Y10604093D01*
X4903165Y10580979D01*
X4910531Y10562996D01*
X4919522Y10545826D01*
X4930190Y10529570D01*
X4942332Y10514482D01*
X4955895Y10500563D01*
X4970729Y10488066D01*
X4986680Y10477042D01*
X5003647Y10467594D01*
X5021478Y10459821D01*
X5039918Y10453827D01*
X5058867Y10449661D01*
X5078171Y10447324D01*
X5097576Y10446816D01*
X5116931Y10448239D01*
X5136032Y10451490D01*
X5154777Y10456621D01*
X5172913Y10463479D01*
X5190337Y10472115D01*
X5206847Y10482326D01*
X5222240Y10494111D01*
X5236464Y10507370D01*
X5249316Y10521899D01*
X5260746Y10537596D01*
X5270601Y10554309D01*
X5278780Y10571937D01*
X5285232Y10590225D01*
X5287975Y10601350D01*
X5289956Y10605312D01*
X5293461Y10608106D01*
X5297830Y10609072D01*
X5564936Y10609072D01*
X5569305Y10608106D01*
X5572810Y10605363D01*
X5574792Y10601401D01*
X5574944Y10596981D01*
X5574639Y10595406D01*
X5572760Y10576102D01*
X5572760Y10556697D01*
X5574639Y10537393D01*
X5578348Y10518343D01*
X5583885Y10499699D01*
X5591251Y10481716D01*
X5600242Y10464546D01*
X5610910Y10448290D01*
X5623052Y10433202D01*
X5636615Y10419283D01*
X5651449Y10406786D01*
X5667400Y10395762D01*
X5684367Y10386314D01*
X5702198Y10378541D01*
X5720638Y10372547D01*
X5739587Y10368381D01*
X5758891Y10366044D01*
X5778296Y10365536D01*
X5797651Y10366959D01*
X5816752Y10370210D01*
X5835497Y10375341D01*
X5853633Y10382199D01*
X5871057Y10390835D01*
X5887567Y10401046D01*
X5902960Y10412831D01*
X5917184Y10426090D01*
X5930036Y10440619D01*
X5941466Y10456316D01*
X5951321Y10473029D01*
X5959500Y10490657D01*
X5965952Y10508945D01*
X5970574Y10527792D01*
X5973368Y10546994D01*
X5974334Y10566400D01*
X5973368Y10585805D01*
X5970574Y10605008D01*
X5965952Y10623854D01*
X5959500Y10642142D01*
X5951321Y10659770D01*
X5941466Y10676483D01*
X5930036Y10692180D01*
X5917184Y10706709D01*
X5902960Y10719968D01*
X5887567Y10731754D01*
X5871057Y10741964D01*
X5853633Y10750600D01*
X5835497Y10757458D01*
X5816752Y10762589D01*
X5797651Y10765840D01*
X5778296Y10767263D01*
X5758891Y10766755D01*
X5739587Y10764418D01*
X5720638Y10760252D01*
X5702198Y10754258D01*
X5684367Y10746486D01*
X5667400Y10737037D01*
X5651449Y10726013D01*
X5636615Y10713516D01*
X5623052Y10699597D01*
X5615381Y10690098D01*
X5611876Y10687304D01*
X5607456Y10686288D01*
X5297830Y10686288D01*
X5293461Y10687253D01*
X5289956Y10690047D01*
X5287975Y10694009D01*
X5285232Y10705134D01*
X5278780Y10723422D01*
X5270601Y10741050D01*
X5260746Y10757763D01*
X5249316Y10773460D01*
X5236464Y10787989D01*
X5222240Y10801248D01*
X5206847Y10813034D01*
X5190337Y10823244D01*
X5172913Y10831880D01*
X5154777Y10838738D01*
X5136032Y10843869D01*
X5116931Y10847120D01*
X5097576Y10848543D01*
X5078171Y10848035D01*
X5058867Y10845698D01*
X5039918Y10841532D01*
X5021478Y10835538D01*
X5003647Y10827766D01*
X4986680Y10818317D01*
X4970729Y10807293D01*
X4955895Y10794796D01*
X4942332Y10780877D01*
X4930190Y10765790D01*
X4919522Y10749534D01*
X4910531Y10732363D01*
X4903165Y10714380D01*
X4896154Y10691266D01*
X4893868Y10688624D01*
X4890871Y10686897D01*
X4887417Y10686288D01*
X4583176Y10686288D01*
X4580026Y10686796D01*
X4577181Y10688218D01*
X4560824Y10706709D01*
X4546600Y10719968D01*
X4531207Y10731754D01*
X4514697Y10741964D01*
X4497273Y10750600D01*
X4479137Y10757458D01*
X4460392Y10762589D01*
X4441291Y10765840D01*
X4421936Y10767263D01*
X4402531Y10766755D01*
X4383227Y10764418D01*
X4364278Y10760252D01*
X4345838Y10754258D01*
X4328007Y10746486D01*
X4311040Y10737037D01*
X4295089Y10726013D01*
X4280255Y10713516D01*
X4266692Y10699597D01*
X4254550Y10684510D01*
X4243882Y10668254D01*
X4234891Y10651083D01*
X4227525Y10633100D01*
X4221988Y10614456D01*
X4218279Y10595406D01*
X4216400Y10576102D01*
X4216400Y10556697D01*
X4218279Y10537393D01*
X4221988Y10518343D01*
X4227525Y10499699D01*
X4234891Y10481716D01*
X4243882Y10464546D01*
X4254550Y10448290D01*
X4266692Y10433202D01*
X4280255Y10419283D01*
X4295089Y10406786D01*
X4311040Y10395762D01*
X4328007Y10386314D01*
X4345838Y10378541D01*
X4364278Y10372547D01*
X4383227Y10368381D01*
X4402531Y10366044D01*
G37*
G36*
X6337300Y10311892D02*
G01*
X6350914Y10312806D01*
X6364274Y10315549D01*
X6377178Y10320020D01*
X6389319Y10326166D01*
X6400546Y10333888D01*
X6410706Y10343032D01*
X6419494Y10353446D01*
X6426809Y10364927D01*
X6432550Y10377322D01*
X6436614Y10390327D01*
X6438849Y10403789D01*
X6439306Y10417403D01*
X6437985Y10430967D01*
X6434785Y10444226D01*
X6429908Y10456976D01*
X6423355Y10468914D01*
X6415278Y10479887D01*
X6405778Y10489692D01*
X6395059Y10498175D01*
X6383324Y10505135D01*
X6370777Y10510418D01*
X6357620Y10514025D01*
X6344107Y10515854D01*
X6330492Y10515854D01*
X6316980Y10514025D01*
X6303822Y10510418D01*
X6291275Y10505135D01*
X6279540Y10498175D01*
X6268821Y10489692D01*
X6259322Y10479887D01*
X6251244Y10468914D01*
X6244691Y10456976D01*
X6239814Y10444226D01*
X6236614Y10430967D01*
X6235293Y10417403D01*
X6235750Y10403789D01*
X6237986Y10390327D01*
X6242050Y10377322D01*
X6247790Y10364927D01*
X6255105Y10353446D01*
X6263894Y10343032D01*
X6274054Y10333888D01*
X6285280Y10326166D01*
X6297422Y10320020D01*
X6310325Y10315549D01*
X6323685Y10312806D01*
G37*
G36*
X6591300Y10311892D02*
G01*
X6604914Y10312806D01*
X6618274Y10315549D01*
X6631178Y10320020D01*
X6643319Y10326166D01*
X6654546Y10333888D01*
X6664706Y10343032D01*
X6673494Y10353446D01*
X6680809Y10364927D01*
X6686550Y10377322D01*
X6690614Y10390327D01*
X6692849Y10403789D01*
X6693306Y10417403D01*
X6691985Y10430967D01*
X6688785Y10444226D01*
X6683908Y10456976D01*
X6677355Y10468914D01*
X6669278Y10479887D01*
X6659778Y10489692D01*
X6649059Y10498175D01*
X6637324Y10505135D01*
X6624777Y10510418D01*
X6611620Y10514025D01*
X6598107Y10515854D01*
X6584492Y10515854D01*
X6570980Y10514025D01*
X6557822Y10510418D01*
X6545275Y10505135D01*
X6533540Y10498175D01*
X6522821Y10489692D01*
X6513322Y10479887D01*
X6505244Y10468914D01*
X6498691Y10456976D01*
X6493814Y10444226D01*
X6490614Y10430967D01*
X6489293Y10417403D01*
X6489750Y10403789D01*
X6491986Y10390327D01*
X6496050Y10377322D01*
X6501790Y10364927D01*
X6509105Y10353446D01*
X6517894Y10343032D01*
X6528054Y10333888D01*
X6539280Y10326166D01*
X6551422Y10320020D01*
X6564325Y10315549D01*
X6577685Y10312806D01*
G37*
G36*
X4655312Y10308590D02*
G01*
X4710430Y10308590D01*
X4710430Y10363708D01*
X4681778Y10363708D01*
X4675479Y10362996D01*
X4669993Y10361066D01*
X4665116Y10358018D01*
X4661001Y10353903D01*
X4657953Y10349026D01*
X4656023Y10343540D01*
X4655312Y10337241D01*
G37*
G36*
X2864612Y10308590D02*
G01*
X2919730Y10308590D01*
X2919730Y10363708D01*
X2891078Y10363708D01*
X2884779Y10362996D01*
X2879293Y10361066D01*
X2874416Y10358018D01*
X2870301Y10353903D01*
X2867253Y10349026D01*
X2865323Y10343540D01*
X2864612Y10337241D01*
G37*
G36*
X3003550Y10169652D02*
G01*
X3032201Y10169652D01*
X3038500Y10170363D01*
X3043986Y10172293D01*
X3048863Y10175341D01*
X3052978Y10179456D01*
X3056026Y10184333D01*
X3057448Y10188397D01*
X3059582Y10191953D01*
X3062986Y10194340D01*
X3067050Y10195204D01*
X3071114Y10194340D01*
X3074517Y10191953D01*
X3076651Y10188397D01*
X3078073Y10184333D01*
X3081121Y10179456D01*
X3085236Y10175341D01*
X3090113Y10172293D01*
X3095599Y10170363D01*
X3101898Y10169652D01*
X3243021Y10169652D01*
X3249320Y10170363D01*
X3254806Y10172293D01*
X3259683Y10175341D01*
X3263798Y10179456D01*
X3266846Y10184333D01*
X3268776Y10189819D01*
X3269488Y10196118D01*
X3269488Y10337241D01*
X3268776Y10343540D01*
X3266846Y10349026D01*
X3263798Y10353903D01*
X3259683Y10358018D01*
X3254806Y10361066D01*
X3249320Y10362996D01*
X3243021Y10363708D01*
X3101898Y10363708D01*
X3095599Y10362996D01*
X3090113Y10361066D01*
X3085236Y10358018D01*
X3081121Y10353903D01*
X3078073Y10349026D01*
X3076651Y10344962D01*
X3074517Y10341406D01*
X3071114Y10339019D01*
X3067050Y10338155D01*
X3062986Y10339019D01*
X3059582Y10341406D01*
X3057448Y10344962D01*
X3056026Y10349026D01*
X3052978Y10353903D01*
X3048863Y10358018D01*
X3043986Y10361066D01*
X3038500Y10362996D01*
X3032201Y10363708D01*
X3003550Y10363708D01*
X3003550Y10308590D01*
X3065272Y10308590D01*
X3069183Y10307828D01*
X3072434Y10305592D01*
X3074670Y10302341D01*
X3075432Y10298430D01*
X3075432Y10234930D01*
X3074670Y10231018D01*
X3072434Y10227767D01*
X3069183Y10225532D01*
X3065272Y10224770D01*
X3003550Y10224770D01*
G37*
G36*
X2891078Y10169652D02*
G01*
X2919730Y10169652D01*
X2919730Y10224770D01*
X2864612Y10224770D01*
X2864612Y10196118D01*
X2865323Y10189819D01*
X2867253Y10184333D01*
X2870301Y10179456D01*
X2874416Y10175341D01*
X2879293Y10172293D01*
X2884779Y10170363D01*
G37*
G36*
X2089759Y10126980D02*
G01*
X2143760Y10126980D01*
X2143760Y10180777D01*
X2140407Y10179253D01*
X2127859Y10171480D01*
X2116328Y10162235D01*
X2106066Y10151618D01*
X2097176Y10139832D01*
G37*
G36*
X2250440Y10126980D02*
G01*
X2304440Y10126980D01*
X2297023Y10139832D01*
X2288133Y10151618D01*
X2277872Y10162235D01*
X2266340Y10171480D01*
X2253792Y10179253D01*
X2250440Y10180777D01*
G37*
G36*
X6337300Y10057892D02*
G01*
X6350914Y10058806D01*
X6364274Y10061549D01*
X6377178Y10066020D01*
X6389319Y10072166D01*
X6400546Y10079888D01*
X6410706Y10089032D01*
X6419494Y10099446D01*
X6426809Y10110927D01*
X6432550Y10123322D01*
X6436614Y10136327D01*
X6438849Y10149789D01*
X6439306Y10163403D01*
X6437985Y10176967D01*
X6434785Y10190226D01*
X6429908Y10202976D01*
X6423355Y10214914D01*
X6415278Y10225887D01*
X6405778Y10235692D01*
X6395059Y10244175D01*
X6383324Y10251135D01*
X6370777Y10256418D01*
X6357620Y10260025D01*
X6344107Y10261854D01*
X6330492Y10261854D01*
X6316980Y10260025D01*
X6303822Y10256418D01*
X6291275Y10251135D01*
X6279540Y10244175D01*
X6268821Y10235692D01*
X6259322Y10225887D01*
X6251244Y10214914D01*
X6244691Y10202976D01*
X6239814Y10190226D01*
X6236614Y10176967D01*
X6235293Y10163403D01*
X6235750Y10149789D01*
X6237986Y10136327D01*
X6242050Y10123322D01*
X6247790Y10110927D01*
X6255105Y10099446D01*
X6263894Y10089032D01*
X6274054Y10079888D01*
X6285280Y10072166D01*
X6297422Y10066020D01*
X6310325Y10061549D01*
X6323685Y10058806D01*
G37*
G36*
X2420620Y6459321D02*
G01*
X2427224Y6462572D01*
X2438603Y6470192D01*
X2448864Y6479235D01*
X2457907Y6489496D01*
X2465527Y6500876D01*
X2468778Y6507480D01*
X2420620Y6507480D01*
G37*
G36*
X2329180Y6459321D02*
G01*
X2329180Y6507480D01*
X2281021Y6507480D01*
X2284272Y6500876D01*
X2291892Y6489496D01*
X2300935Y6479235D01*
X2311196Y6470192D01*
X2322576Y6462572D01*
G37*
G36*
X2281021Y6598920D02*
G01*
X2329180Y6598920D01*
X2329180Y6647078D01*
X2322576Y6643827D01*
X2311196Y6636207D01*
X2300935Y6627164D01*
X2291892Y6616903D01*
X2284272Y6605524D01*
G37*
G36*
X2420620Y6598920D02*
G01*
X2468778Y6598920D01*
X2465527Y6605524D01*
X2457907Y6616903D01*
X2448864Y6627164D01*
X2438603Y6636207D01*
X2427224Y6643827D01*
X2420620Y6647078D01*
G37*
G36*
X6591300Y10057892D02*
G01*
X6604914Y10058806D01*
X6618274Y10061549D01*
X6631178Y10066020D01*
X6643319Y10072166D01*
X6654546Y10079888D01*
X6664706Y10089032D01*
X6673494Y10099446D01*
X6680809Y10110927D01*
X6686550Y10123322D01*
X6690614Y10136327D01*
X6692849Y10149789D01*
X6693306Y10163403D01*
X6691985Y10176967D01*
X6688785Y10190226D01*
X6683908Y10202976D01*
X6677355Y10214914D01*
X6669278Y10225887D01*
X6659778Y10235692D01*
X6649059Y10244175D01*
X6637324Y10251135D01*
X6624777Y10256418D01*
X6611620Y10260025D01*
X6598107Y10261854D01*
X6584492Y10261854D01*
X6570980Y10260025D01*
X6557822Y10256418D01*
X6545275Y10251135D01*
X6533540Y10244175D01*
X6522821Y10235692D01*
X6513322Y10225887D01*
X6505244Y10214914D01*
X6498691Y10202976D01*
X6493814Y10190226D01*
X6490614Y10176967D01*
X6489293Y10163403D01*
X6489750Y10149789D01*
X6491986Y10136327D01*
X6496050Y10123322D01*
X6501790Y10110927D01*
X6509105Y10099446D01*
X6517894Y10089032D01*
X6528054Y10079888D01*
X6539280Y10072166D01*
X6551422Y10066020D01*
X6564325Y10061549D01*
X6577685Y10058806D01*
G37*
G36*
X1835759Y10012680D02*
G01*
X1889760Y10012680D01*
X1889760Y10066477D01*
X1886407Y10064953D01*
X1873859Y10057180D01*
X1862328Y10047935D01*
X1852066Y10037318D01*
X1843176Y10025532D01*
G37*
G36*
X6513118Y7134352D02*
G01*
X6545580Y7134352D01*
X6545580Y7193280D01*
X6486652Y7193280D01*
X6486652Y7160818D01*
X6487363Y7154519D01*
X6489293Y7149033D01*
X6492341Y7144156D01*
X6496456Y7140041D01*
X6501333Y7136993D01*
X6506819Y7135063D01*
G37*
G36*
X6637020Y7134352D02*
G01*
X6669481Y7134352D01*
X6675780Y7135063D01*
X6681266Y7136993D01*
X6686143Y7140041D01*
X6690258Y7144156D01*
X6693306Y7149033D01*
X6695236Y7154519D01*
X6695948Y7160818D01*
X6695948Y7193280D01*
X6637020Y7193280D01*
G37*
G36*
X1996439Y10012680D02*
G01*
X2050440Y10012680D01*
X2043023Y10025532D01*
X2034133Y10037318D01*
X2023872Y10047935D01*
X2012340Y10057180D01*
X1999792Y10064953D01*
X1996439Y10066477D01*
G37*
G36*
X6637020Y7284720D02*
G01*
X6695948Y7284720D01*
X6695948Y7317181D01*
X6695236Y7323480D01*
X6693306Y7328966D01*
X6690258Y7333843D01*
X6686143Y7337958D01*
X6681266Y7341006D01*
X6675780Y7342936D01*
X6669481Y7343648D01*
X6637020Y7343648D01*
G37*
G36*
X6486652Y7284720D02*
G01*
X6545580Y7284720D01*
X6545580Y7343648D01*
X6513118Y7343648D01*
X6506819Y7342936D01*
X6501333Y7341006D01*
X6496456Y7337958D01*
X6492341Y7333843D01*
X6489293Y7328966D01*
X6487363Y7323480D01*
X6486652Y7317181D01*
G37*
G36*
X2143760Y9966096D02*
G01*
X2143760Y10020300D01*
X2090013Y10020300D01*
X2093315Y10013696D01*
X2101443Y10001402D01*
X2111044Y9990175D01*
X2121966Y9980269D01*
X2134006Y9971735D01*
X2142642Y9967061D01*
G37*
G36*
X1150620Y7350252D02*
G01*
X1183081Y7350252D01*
X1189380Y7350963D01*
X1194866Y7352893D01*
X1199743Y7355941D01*
X1203858Y7360056D01*
X1206906Y7364933D01*
X1208836Y7370419D01*
X1209548Y7376718D01*
X1209548Y7409180D01*
X1150620Y7409180D01*
G37*
G36*
X1026718Y7350252D02*
G01*
X1059180Y7350252D01*
X1059180Y7409180D01*
X1000252Y7409180D01*
X1000252Y7376718D01*
X1000963Y7370419D01*
X1002893Y7364933D01*
X1005941Y7360056D01*
X1010056Y7355941D01*
X1014933Y7352893D01*
X1020419Y7350963D01*
G37*
G36*
X1776018Y7362952D02*
G01*
X1932381Y7362952D01*
X1938680Y7363663D01*
X1944166Y7365593D01*
X1949043Y7368641D01*
X1953158Y7372756D01*
X1956206Y7377633D01*
X1958136Y7383119D01*
X1958848Y7389418D01*
X1958848Y7545781D01*
X1958136Y7552080D01*
X1956206Y7557566D01*
X1953158Y7562443D01*
X1949043Y7566558D01*
X1944166Y7569606D01*
X1938680Y7571536D01*
X1932381Y7572248D01*
X1776018Y7572248D01*
X1769719Y7571536D01*
X1764233Y7569606D01*
X1759356Y7566558D01*
X1755241Y7562443D01*
X1752193Y7557566D01*
X1750263Y7552080D01*
X1749552Y7545781D01*
X1749552Y7389418D01*
X1750263Y7383119D01*
X1752193Y7377633D01*
X1755241Y7372756D01*
X1759356Y7368641D01*
X1764233Y7365593D01*
X1769719Y7363663D01*
G37*
G36*
X4644491Y7385862D02*
G01*
X4659274Y7386320D01*
X4673854Y7388606D01*
X4688027Y7392670D01*
X4701641Y7398410D01*
X4714392Y7405776D01*
X4726178Y7414666D01*
X4736795Y7424928D01*
X4746040Y7436459D01*
X4753813Y7449007D01*
X4759960Y7462418D01*
X4764430Y7476439D01*
X4767173Y7490968D01*
X4768088Y7505700D01*
X4767173Y7520431D01*
X4764430Y7534960D01*
X4759960Y7548981D01*
X4753813Y7562392D01*
X4746040Y7574940D01*
X4736795Y7586472D01*
X4726178Y7596733D01*
X4714392Y7605623D01*
X4701641Y7612989D01*
X4688027Y7618730D01*
X4673854Y7622794D01*
X4659274Y7625080D01*
X4644491Y7625486D01*
X4629810Y7624165D01*
X4615383Y7621016D01*
X4601464Y7616088D01*
X4588256Y7609484D01*
X4575962Y7601356D01*
X4564735Y7591755D01*
X4554829Y7580833D01*
X4546295Y7568793D01*
X4539284Y7555788D01*
X4533950Y7542022D01*
X4530394Y7527747D01*
X4528566Y7513066D01*
X4528566Y7498334D01*
X4530394Y7483652D01*
X4533950Y7469378D01*
X4539284Y7455611D01*
X4546295Y7442606D01*
X4554829Y7430566D01*
X4564735Y7419644D01*
X4575962Y7410043D01*
X4588256Y7401915D01*
X4601464Y7395311D01*
X4615383Y7390384D01*
X4629810Y7387234D01*
G37*
G36*
X2250440Y9966096D02*
G01*
X2251557Y9967061D01*
X2260193Y9971735D01*
X2272233Y9980269D01*
X2283155Y9990175D01*
X2292756Y10001402D01*
X2300884Y10013696D01*
X2304186Y10020300D01*
X2250440Y10020300D01*
G37*
G36*
X6591300Y7388352D02*
G01*
X6604965Y7389266D01*
X6618376Y7391958D01*
X6631330Y7396327D01*
X6643624Y7402372D01*
X6655003Y7409992D01*
X6665264Y7419035D01*
X6674307Y7429296D01*
X6681927Y7440675D01*
X6687972Y7452969D01*
X6692341Y7465923D01*
X6695033Y7479334D01*
X6695948Y7493000D01*
X6695033Y7506665D01*
X6692341Y7520076D01*
X6687972Y7533030D01*
X6681927Y7545324D01*
X6674307Y7556703D01*
X6665264Y7566964D01*
X6655003Y7576007D01*
X6643624Y7583627D01*
X6631330Y7589672D01*
X6618376Y7594041D01*
X6604965Y7596733D01*
X6591300Y7597648D01*
X6577634Y7596733D01*
X6564223Y7594041D01*
X6551269Y7589672D01*
X6538976Y7583627D01*
X6527596Y7576007D01*
X6517335Y7566964D01*
X6508292Y7556703D01*
X6500672Y7545324D01*
X6494627Y7533030D01*
X6490258Y7520076D01*
X6487566Y7506665D01*
X6486652Y7493000D01*
X6487566Y7479334D01*
X6490258Y7465923D01*
X6494627Y7452969D01*
X6500672Y7440675D01*
X6508292Y7429296D01*
X6517335Y7419035D01*
X6527596Y7409992D01*
X6538976Y7402372D01*
X6551269Y7396327D01*
X6564223Y7391958D01*
X6577634Y7389266D01*
G37*
G36*
X1000252Y7500620D02*
G01*
X1059180Y7500620D01*
X1059180Y7559548D01*
X1026718Y7559548D01*
X1020419Y7558836D01*
X1014933Y7556906D01*
X1010056Y7553858D01*
X1005941Y7549743D01*
X1002893Y7544866D01*
X1000963Y7539380D01*
X1000252Y7533081D01*
G37*
G36*
X1150620Y7500620D02*
G01*
X1209548Y7500620D01*
X1209548Y7533081D01*
X1208836Y7539380D01*
X1206906Y7544866D01*
X1203858Y7549743D01*
X1199743Y7553858D01*
X1194866Y7556906D01*
X1189380Y7558836D01*
X1183081Y7559548D01*
X1150620Y7559548D01*
G37*
G36*
X6591300Y7642352D02*
G01*
X6604965Y7643266D01*
X6618376Y7645958D01*
X6631330Y7650327D01*
X6643624Y7656372D01*
X6655003Y7663992D01*
X6665264Y7673035D01*
X6674307Y7683296D01*
X6681927Y7694675D01*
X6687972Y7706969D01*
X6692341Y7719923D01*
X6695033Y7733334D01*
X6695948Y7747000D01*
X6695033Y7760665D01*
X6692341Y7774076D01*
X6687972Y7787030D01*
X6681927Y7799324D01*
X6674307Y7810703D01*
X6665264Y7820964D01*
X6655003Y7830007D01*
X6643624Y7837627D01*
X6631330Y7843672D01*
X6618376Y7848041D01*
X6604965Y7850733D01*
X6591300Y7851648D01*
X6577634Y7850733D01*
X6564223Y7848041D01*
X6551269Y7843672D01*
X6538976Y7837627D01*
X6527596Y7830007D01*
X6517335Y7820964D01*
X6508292Y7810703D01*
X6500672Y7799324D01*
X6494627Y7787030D01*
X6490258Y7774076D01*
X6487566Y7760665D01*
X6486652Y7747000D01*
X6487566Y7733334D01*
X6490258Y7719923D01*
X6494627Y7706969D01*
X6500672Y7694675D01*
X6508292Y7683296D01*
X6517335Y7673035D01*
X6527596Y7663992D01*
X6538976Y7656372D01*
X6551269Y7650327D01*
X6564223Y7645958D01*
X6577634Y7643266D01*
G37*
G36*
X5170728Y7680452D02*
G01*
X5217820Y7680452D01*
X5217820Y7727289D01*
X5144262Y7727289D01*
X5144262Y7706918D01*
X5144973Y7700619D01*
X5146903Y7695133D01*
X5149951Y7690256D01*
X5154066Y7686141D01*
X5158943Y7683093D01*
X5164429Y7681163D01*
G37*
G36*
X6635750Y9950450D02*
G01*
X6683095Y9950450D01*
X6677355Y9960914D01*
X6669278Y9971887D01*
X6659778Y9981692D01*
X6649059Y9990175D01*
X6637324Y9997135D01*
X6635750Y9997795D01*
G37*
G36*
X3475278Y7755280D02*
G01*
X3490010Y7755737D01*
X3504590Y7757972D01*
X3518814Y7762036D01*
X3532378Y7767777D01*
X3545179Y7775143D01*
X3556965Y7784033D01*
X3567531Y7794345D01*
X3576777Y7805826D01*
X3584549Y7818374D01*
X3590747Y7831785D01*
X3595217Y7845856D01*
X3597910Y7860334D01*
X3598824Y7875066D01*
X3597910Y7889798D01*
X3595217Y7904327D01*
X3590747Y7918399D01*
X3584549Y7931810D01*
X3576777Y7944358D01*
X3567531Y7955838D01*
X3556965Y7966100D01*
X3545179Y7974990D01*
X3532378Y7982407D01*
X3518814Y7988147D01*
X3504590Y7992160D01*
X3490010Y7994446D01*
X3475278Y7994903D01*
X3460597Y7993532D01*
X3446170Y7990382D01*
X3432251Y7985455D01*
X3419043Y7978902D01*
X3406749Y7970723D01*
X3395522Y7961122D01*
X3385565Y7950250D01*
X3377031Y7938160D01*
X3370072Y7925206D01*
X3364737Y7911439D01*
X3361131Y7897114D01*
X3359302Y7882483D01*
X3359302Y7867700D01*
X3361131Y7853070D01*
X3364737Y7838744D01*
X3370072Y7824978D01*
X3377031Y7811973D01*
X3385565Y7799933D01*
X3395522Y7789011D01*
X3406749Y7779410D01*
X3419043Y7771282D01*
X3432251Y7764678D01*
X3446170Y7759801D01*
X3460597Y7756652D01*
G37*
G36*
X2713278Y7755280D02*
G01*
X2728010Y7755737D01*
X2742590Y7757972D01*
X2756814Y7762036D01*
X2770378Y7767777D01*
X2783179Y7775143D01*
X2794965Y7784033D01*
X2805531Y7794345D01*
X2814777Y7805826D01*
X2822549Y7818374D01*
X2828747Y7831785D01*
X2833217Y7845856D01*
X2835910Y7860334D01*
X2836824Y7875066D01*
X2835910Y7889798D01*
X2833217Y7904327D01*
X2828747Y7918399D01*
X2822549Y7931810D01*
X2814777Y7944358D01*
X2805531Y7955838D01*
X2794965Y7966100D01*
X2783179Y7974990D01*
X2770378Y7982407D01*
X2756814Y7988147D01*
X2742590Y7992160D01*
X2728010Y7994446D01*
X2713278Y7994903D01*
X2698597Y7993532D01*
X2684170Y7990382D01*
X2670251Y7985455D01*
X2657043Y7978902D01*
X2644749Y7970723D01*
X2633522Y7961122D01*
X2623566Y7950250D01*
X2615031Y7938160D01*
X2608072Y7925206D01*
X2602738Y7911439D01*
X2599131Y7897114D01*
X2597302Y7882483D01*
X2597302Y7867700D01*
X2599131Y7853070D01*
X2602738Y7838744D01*
X2608072Y7824978D01*
X2615031Y7811973D01*
X2623566Y7799933D01*
X2633522Y7789011D01*
X2644749Y7779410D01*
X2657043Y7771282D01*
X2670251Y7764678D01*
X2684170Y7759801D01*
X2698597Y7756652D01*
G37*
G36*
X5144262Y7794599D02*
G01*
X5217820Y7794599D01*
X5217820Y7841488D01*
X5170728Y7841488D01*
X5164429Y7840776D01*
X5158943Y7838846D01*
X5154066Y7835798D01*
X5149951Y7831683D01*
X5146903Y7826806D01*
X5144973Y7821320D01*
X5144262Y7815021D01*
G37*
G36*
X5338470Y7794599D02*
G01*
X5411978Y7794599D01*
X5411978Y7815021D01*
X5411266Y7821320D01*
X5409336Y7826806D01*
X5406288Y7831683D01*
X5402173Y7835798D01*
X5397296Y7838846D01*
X5391810Y7840776D01*
X5385511Y7841488D01*
X5338470Y7841488D01*
G37*
G36*
X6591300Y7896352D02*
G01*
X6604965Y7897266D01*
X6618376Y7899958D01*
X6631330Y7904327D01*
X6643624Y7910372D01*
X6655003Y7917992D01*
X6665264Y7927035D01*
X6674307Y7937296D01*
X6681927Y7948675D01*
X6687972Y7960969D01*
X6692341Y7973923D01*
X6695033Y7987334D01*
X6695948Y8001000D01*
X6695033Y8014665D01*
X6692341Y8028076D01*
X6687972Y8041030D01*
X6681927Y8053324D01*
X6674307Y8064703D01*
X6665264Y8074964D01*
X6655003Y8084007D01*
X6643624Y8091627D01*
X6631330Y8097672D01*
X6618376Y8102041D01*
X6604965Y8104733D01*
X6591300Y8105648D01*
X6577634Y8104733D01*
X6564223Y8102041D01*
X6551269Y8097672D01*
X6538976Y8091627D01*
X6527596Y8084007D01*
X6517335Y8074964D01*
X6508292Y8064703D01*
X6500672Y8053324D01*
X6494627Y8041030D01*
X6490258Y8028076D01*
X6487566Y8014665D01*
X6486652Y8001000D01*
X6487566Y7987334D01*
X6490258Y7973923D01*
X6494627Y7960969D01*
X6500672Y7948675D01*
X6508292Y7937296D01*
X6517335Y7927035D01*
X6527596Y7917992D01*
X6538976Y7910372D01*
X6551269Y7904327D01*
X6564223Y7899958D01*
X6577634Y7897266D01*
G37*
G36*
X6499504Y9950450D02*
G01*
X6546850Y9950450D01*
X6546850Y9997795D01*
X6545275Y9997135D01*
X6533540Y9990175D01*
X6522821Y9981692D01*
X6513322Y9971887D01*
X6505244Y9960914D01*
G37*
G36*
X5362498Y9920732D02*
G01*
X5503621Y9920732D01*
X5509920Y9921443D01*
X5515406Y9923373D01*
X5520283Y9926421D01*
X5524398Y9930536D01*
X5527446Y9935413D01*
X5529376Y9940899D01*
X5530088Y9947198D01*
X5530088Y10088321D01*
X5529376Y10094620D01*
X5527446Y10100106D01*
X5524398Y10104983D01*
X5520283Y10109098D01*
X5515406Y10112146D01*
X5509920Y10114076D01*
X5503621Y10114788D01*
X5362498Y10114788D01*
X5356199Y10114076D01*
X5350713Y10112146D01*
X5345836Y10109098D01*
X5341721Y10104983D01*
X5338673Y10100106D01*
X5336743Y10094620D01*
X5336032Y10088321D01*
X5336032Y9947198D01*
X5336743Y9940899D01*
X5338673Y9935413D01*
X5341721Y9930536D01*
X5345836Y9926421D01*
X5350713Y9923373D01*
X5356199Y9921443D01*
G37*
G36*
X1943100Y8058912D02*
G01*
X1966214Y8059877D01*
X1989175Y8062722D01*
X2011832Y8067497D01*
X2033981Y8074101D01*
X2055520Y8082483D01*
X2076297Y8092643D01*
X2096211Y8104479D01*
X2115007Y8117941D01*
X2132685Y8132876D01*
X2149043Y8149234D01*
X2163978Y8166912D01*
X2177440Y8185708D01*
X2189276Y8205622D01*
X2199436Y8226399D01*
X2207818Y8247938D01*
X2214422Y8270087D01*
X2219198Y8292744D01*
X2222042Y8315706D01*
X2223008Y8338820D01*
X2222042Y8361934D01*
X2219198Y8384895D01*
X2214422Y8407552D01*
X2207818Y8429701D01*
X2199436Y8451240D01*
X2189276Y8472017D01*
X2177440Y8491931D01*
X2163978Y8510727D01*
X2149043Y8528405D01*
X2132685Y8544763D01*
X2115007Y8559698D01*
X2096211Y8573160D01*
X2076297Y8584996D01*
X2055520Y8595156D01*
X2033981Y8603538D01*
X2011832Y8610142D01*
X1989175Y8614918D01*
X1966214Y8617762D01*
X1943100Y8618728D01*
X1919986Y8617762D01*
X1897024Y8614918D01*
X1874367Y8610142D01*
X1852218Y8603538D01*
X1830679Y8595156D01*
X1809902Y8584996D01*
X1789988Y8573160D01*
X1771192Y8559698D01*
X1753514Y8544763D01*
X1737156Y8528405D01*
X1722221Y8510727D01*
X1708759Y8491931D01*
X1696923Y8472017D01*
X1686763Y8451240D01*
X1678381Y8429701D01*
X1671777Y8407552D01*
X1667002Y8384895D01*
X1664157Y8361934D01*
X1663192Y8338820D01*
X1664157Y8315706D01*
X1667002Y8292744D01*
X1671777Y8270087D01*
X1678381Y8247938D01*
X1686763Y8226399D01*
X1696923Y8205622D01*
X1708759Y8185708D01*
X1722221Y8166912D01*
X1737156Y8149234D01*
X1753514Y8132876D01*
X1771192Y8117941D01*
X1789988Y8104479D01*
X1809902Y8092643D01*
X1830679Y8082483D01*
X1852218Y8074101D01*
X1874367Y8067497D01*
X1897024Y8062722D01*
X1919986Y8059877D01*
G37*
G36*
X1996439Y9850577D02*
G01*
X1996846Y9851390D01*
X2000046Y9854133D01*
X2006193Y9857435D01*
X2018233Y9865969D01*
X2029155Y9875875D01*
X2038756Y9887102D01*
X2046884Y9899396D01*
X2050186Y9906000D01*
X1996439Y9906000D01*
G37*
G36*
X1889760Y9850577D02*
G01*
X1889760Y9906000D01*
X1836013Y9906000D01*
X1839315Y9899396D01*
X1847443Y9887102D01*
X1857044Y9875875D01*
X1867966Y9865969D01*
X1880006Y9857435D01*
X1886153Y9854133D01*
X1889353Y9851390D01*
G37*
G36*
X3470198Y8124647D02*
G01*
X3484930Y8125104D01*
X3499510Y8127390D01*
X3513734Y8131403D01*
X3527298Y8137194D01*
X3540099Y8144560D01*
X3551885Y8153450D01*
X3562451Y8163712D01*
X3571697Y8175193D01*
X3579469Y8187740D01*
X3585667Y8201152D01*
X3590137Y8215223D01*
X3592829Y8229752D01*
X3593744Y8244484D01*
X3592829Y8259216D01*
X3590137Y8273694D01*
X3585667Y8287766D01*
X3579469Y8301177D01*
X3571697Y8313724D01*
X3562451Y8325205D01*
X3551885Y8335518D01*
X3540099Y8344408D01*
X3527298Y8351774D01*
X3513734Y8357514D01*
X3499510Y8361578D01*
X3484930Y8363813D01*
X3470198Y8364270D01*
X3455466Y8362899D01*
X3441090Y8359749D01*
X3427171Y8354872D01*
X3413963Y8348268D01*
X3401618Y8340140D01*
X3390442Y8330539D01*
X3380486Y8319617D01*
X3371951Y8307578D01*
X3364992Y8294573D01*
X3359658Y8280806D01*
X3356051Y8266480D01*
X3354222Y8251850D01*
X3354222Y8237118D01*
X3356051Y8222437D01*
X3359658Y8208111D01*
X3364992Y8194395D01*
X3371951Y8181390D01*
X3380486Y8169300D01*
X3390442Y8158429D01*
X3401618Y8148828D01*
X3413963Y8140649D01*
X3427171Y8134096D01*
X3441090Y8129168D01*
X3455466Y8126018D01*
G37*
G36*
X2708198Y8124647D02*
G01*
X2722930Y8125104D01*
X2737510Y8127390D01*
X2751734Y8131403D01*
X2765298Y8137194D01*
X2778099Y8144560D01*
X2789885Y8153450D01*
X2800451Y8163712D01*
X2809697Y8175193D01*
X2817469Y8187740D01*
X2823667Y8201152D01*
X2828137Y8215223D01*
X2830830Y8229752D01*
X2831744Y8244484D01*
X2830830Y8259216D01*
X2828137Y8273694D01*
X2823667Y8287766D01*
X2817469Y8301177D01*
X2809697Y8313724D01*
X2800451Y8325205D01*
X2789885Y8335518D01*
X2778099Y8344408D01*
X2765298Y8351774D01*
X2751734Y8357514D01*
X2737510Y8361578D01*
X2722930Y8363813D01*
X2708198Y8364270D01*
X2693466Y8362899D01*
X2679090Y8359749D01*
X2665171Y8354872D01*
X2651963Y8348268D01*
X2639618Y8340140D01*
X2628442Y8330539D01*
X2618486Y8319617D01*
X2609951Y8307578D01*
X2602992Y8294573D01*
X2597658Y8280806D01*
X2594051Y8266480D01*
X2592222Y8251850D01*
X2592222Y8237118D01*
X2594051Y8222437D01*
X2597658Y8208111D01*
X2602992Y8194395D01*
X2609951Y8181390D01*
X2618486Y8169300D01*
X2628442Y8158429D01*
X2639618Y8148828D01*
X2651963Y8140649D01*
X2665171Y8134096D01*
X2679090Y8129168D01*
X2693466Y8126018D01*
G37*
G36*
X3926840Y8134959D02*
G01*
X3939692Y8142376D01*
X3951478Y8151266D01*
X3962095Y8161528D01*
X3971340Y8173059D01*
X3979113Y8185607D01*
X3980637Y8188959D01*
X3926840Y8188959D01*
G37*
G36*
X3820160Y8135213D02*
G01*
X3820160Y8188959D01*
X3766362Y8188959D01*
X3771595Y8179206D01*
X3780129Y8167166D01*
X3790035Y8156244D01*
X3801262Y8146643D01*
X3813556Y8138515D01*
G37*
G36*
X6591300Y8150352D02*
G01*
X6604965Y8151266D01*
X6618376Y8153958D01*
X6631330Y8158327D01*
X6643624Y8164372D01*
X6655003Y8171992D01*
X6665264Y8181035D01*
X6674307Y8191296D01*
X6681927Y8202675D01*
X6687972Y8214969D01*
X6692341Y8227923D01*
X6695033Y8241334D01*
X6695948Y8255000D01*
X6695033Y8268665D01*
X6692341Y8282076D01*
X6687972Y8295030D01*
X6681927Y8307324D01*
X6674307Y8318703D01*
X6665264Y8328964D01*
X6655003Y8338007D01*
X6643624Y8345627D01*
X6631330Y8351672D01*
X6618376Y8356041D01*
X6604965Y8358733D01*
X6591300Y8359648D01*
X6577634Y8358733D01*
X6564223Y8356041D01*
X6551269Y8351672D01*
X6538976Y8345627D01*
X6527596Y8338007D01*
X6517335Y8328964D01*
X6508292Y8318703D01*
X6500672Y8307324D01*
X6494627Y8295030D01*
X6490258Y8282076D01*
X6487566Y8268665D01*
X6486652Y8255000D01*
X6487566Y8241334D01*
X6490258Y8227923D01*
X6494627Y8214969D01*
X6500672Y8202675D01*
X6508292Y8191296D01*
X6517335Y8181035D01*
X6527596Y8171992D01*
X6538976Y8164372D01*
X6551269Y8158327D01*
X6564223Y8153958D01*
X6577634Y8151266D01*
G37*
G36*
X6635750Y9814356D02*
G01*
X6643319Y9818166D01*
X6654546Y9825888D01*
X6664706Y9835032D01*
X6673494Y9845446D01*
X6680809Y9856927D01*
X6682943Y9861550D01*
X6635750Y9861550D01*
G37*
G36*
X3766362Y8295640D02*
G01*
X3820160Y8295640D01*
X3820160Y8349386D01*
X3813556Y8346084D01*
X3801262Y8337956D01*
X3790035Y8328355D01*
X3780129Y8317433D01*
X3771595Y8305393D01*
G37*
G36*
X3926840Y8295640D02*
G01*
X3980637Y8295640D01*
X3979113Y8298992D01*
X3971340Y8311540D01*
X3962095Y8323072D01*
X3951478Y8333333D01*
X3939692Y8342223D01*
X3926840Y8349640D01*
G37*
G36*
X6591300Y8404352D02*
G01*
X6604965Y8405266D01*
X6618376Y8407958D01*
X6631330Y8412327D01*
X6643624Y8418372D01*
X6655003Y8425992D01*
X6665264Y8435035D01*
X6674307Y8445296D01*
X6681927Y8456676D01*
X6687972Y8468969D01*
X6692341Y8481923D01*
X6695033Y8495334D01*
X6695948Y8509000D01*
X6695033Y8522665D01*
X6692341Y8536076D01*
X6687972Y8549030D01*
X6681927Y8561324D01*
X6674307Y8572703D01*
X6665264Y8582964D01*
X6655003Y8592007D01*
X6643624Y8599627D01*
X6631330Y8605672D01*
X6618376Y8610041D01*
X6604965Y8612733D01*
X6591300Y8613648D01*
X6577634Y8612733D01*
X6564223Y8610041D01*
X6551269Y8605672D01*
X6538976Y8599627D01*
X6527596Y8592007D01*
X6517335Y8582964D01*
X6508292Y8572703D01*
X6500672Y8561324D01*
X6494627Y8549030D01*
X6490258Y8536076D01*
X6487566Y8522665D01*
X6486652Y8509000D01*
X6487566Y8495334D01*
X6490258Y8481923D01*
X6494627Y8468969D01*
X6500672Y8456676D01*
X6508292Y8445296D01*
X6517335Y8435035D01*
X6527596Y8425992D01*
X6538976Y8418372D01*
X6551269Y8412327D01*
X6564223Y8407958D01*
X6577634Y8405266D01*
G37*
G36*
X6546850Y9814356D02*
G01*
X6546850Y9861550D01*
X6499656Y9861550D01*
X6501790Y9856927D01*
X6509105Y9845446D01*
X6517894Y9835032D01*
X6528054Y9825888D01*
X6539280Y9818166D01*
G37*
G36*
X6337300Y9803892D02*
G01*
X6350914Y9804806D01*
X6364274Y9807549D01*
X6377178Y9812020D01*
X6389319Y9818166D01*
X6400546Y9825888D01*
X6410706Y9835032D01*
X6419494Y9845446D01*
X6426809Y9856927D01*
X6432550Y9869322D01*
X6436614Y9882327D01*
X6438849Y9895789D01*
X6439306Y9909403D01*
X6437985Y9922967D01*
X6434785Y9936226D01*
X6429908Y9948976D01*
X6423355Y9960914D01*
X6415278Y9971887D01*
X6405778Y9981692D01*
X6395059Y9990175D01*
X6383324Y9997135D01*
X6370777Y10002418D01*
X6357620Y10006025D01*
X6344107Y10007854D01*
X6330492Y10007854D01*
X6316980Y10006025D01*
X6303822Y10002418D01*
X6291275Y9997135D01*
X6279540Y9990175D01*
X6268821Y9981692D01*
X6259322Y9971887D01*
X6251244Y9960914D01*
X6244691Y9948976D01*
X6239814Y9936226D01*
X6236614Y9922967D01*
X6235293Y9909403D01*
X6235750Y9895789D01*
X6237986Y9882327D01*
X6242050Y9869322D01*
X6247790Y9856927D01*
X6255105Y9845446D01*
X6263894Y9835032D01*
X6274054Y9825888D01*
X6285280Y9818166D01*
X6297422Y9812020D01*
X6310325Y9807549D01*
X6323685Y9804806D01*
G37*
G36*
X4631791Y8503462D02*
G01*
X4646574Y8503920D01*
X4661154Y8506206D01*
X4675327Y8510270D01*
X4688941Y8516010D01*
X4701692Y8523376D01*
X4713478Y8532266D01*
X4724095Y8542528D01*
X4733340Y8554059D01*
X4741113Y8566607D01*
X4746701Y8578799D01*
X4748936Y8581898D01*
X4752187Y8583980D01*
X4755946Y8584692D01*
X4832705Y8584692D01*
X4836668Y8583879D01*
X4839970Y8581593D01*
X4842154Y8578189D01*
X4844084Y8573211D01*
X4851095Y8560206D01*
X4859629Y8548166D01*
X4869535Y8537244D01*
X4880762Y8527643D01*
X4893056Y8519515D01*
X4906264Y8512911D01*
X4920183Y8507984D01*
X4934610Y8504834D01*
X4949291Y8503462D01*
X4964074Y8503920D01*
X4978654Y8506206D01*
X4992827Y8510270D01*
X5006441Y8516010D01*
X5019192Y8523376D01*
X5030978Y8532266D01*
X5041595Y8542528D01*
X5050840Y8554059D01*
X5058613Y8566607D01*
X5064760Y8580018D01*
X5069230Y8594039D01*
X5071973Y8608568D01*
X5072888Y8623300D01*
X5071973Y8638032D01*
X5069230Y8652560D01*
X5064760Y8666581D01*
X5058613Y8679992D01*
X5050840Y8692540D01*
X5041595Y8704072D01*
X5030978Y8714333D01*
X5019192Y8723223D01*
X5006441Y8730589D01*
X4992827Y8736330D01*
X4978654Y8740394D01*
X4964074Y8742680D01*
X4949291Y8743086D01*
X4934610Y8741765D01*
X4920183Y8738616D01*
X4906264Y8733688D01*
X4893056Y8727084D01*
X4880762Y8718956D01*
X4869535Y8709355D01*
X4859629Y8698433D01*
X4851095Y8686393D01*
X4844084Y8673388D01*
X4842154Y8668410D01*
X4839970Y8665006D01*
X4836668Y8662720D01*
X4832705Y8661908D01*
X4755946Y8661908D01*
X4752187Y8662619D01*
X4748936Y8664702D01*
X4746701Y8667800D01*
X4741113Y8679992D01*
X4733340Y8692540D01*
X4724095Y8704072D01*
X4713478Y8714333D01*
X4701692Y8723223D01*
X4688941Y8730589D01*
X4675327Y8736330D01*
X4661154Y8740394D01*
X4646574Y8742680D01*
X4631791Y8743086D01*
X4617110Y8741765D01*
X4602683Y8738616D01*
X4588764Y8733688D01*
X4575556Y8727084D01*
X4563262Y8718956D01*
X4552035Y8709355D01*
X4542129Y8698433D01*
X4533595Y8686393D01*
X4526584Y8673388D01*
X4521250Y8659622D01*
X4517694Y8645347D01*
X4515866Y8630666D01*
X4515866Y8615934D01*
X4517694Y8601252D01*
X4521250Y8586978D01*
X4526584Y8573211D01*
X4533595Y8560206D01*
X4542129Y8548166D01*
X4552035Y8537244D01*
X4563262Y8527643D01*
X4575556Y8519515D01*
X4588764Y8512911D01*
X4602683Y8507984D01*
X4617110Y8504834D01*
G37*
G36*
X1996439Y9784080D02*
G01*
X2050440Y9784080D01*
X2043023Y9796932D01*
X2034133Y9808718D01*
X2023872Y9819335D01*
X2012340Y9828580D01*
X1999488Y9836556D01*
X1996439Y9839502D01*
G37*
G36*
X3926840Y8515959D02*
G01*
X3939692Y8523376D01*
X3951478Y8532266D01*
X3962095Y8542528D01*
X3971340Y8554059D01*
X3979113Y8566607D01*
X3980637Y8569960D01*
X3926840Y8569960D01*
G37*
G36*
X3820160Y8516213D02*
G01*
X3820160Y8569960D01*
X3766362Y8569960D01*
X3771595Y8560206D01*
X3780129Y8548166D01*
X3790035Y8537244D01*
X3801262Y8527643D01*
X3813556Y8519515D01*
G37*
G36*
X1835759Y9784080D02*
G01*
X1889760Y9784080D01*
X1889760Y9839452D01*
X1886712Y9836556D01*
X1873859Y9828580D01*
X1862328Y9819335D01*
X1852066Y9808718D01*
X1843176Y9796932D01*
G37*
G36*
X3766362Y8676640D02*
G01*
X3820160Y8676640D01*
X3820160Y8730386D01*
X3813556Y8727084D01*
X3801262Y8718956D01*
X3790035Y8709355D01*
X3780129Y8698433D01*
X3771595Y8686393D01*
G37*
G36*
X3926840Y8676640D02*
G01*
X3980637Y8676640D01*
X3979113Y8679992D01*
X3971340Y8692540D01*
X3962095Y8704072D01*
X3951478Y8714333D01*
X3939692Y8723223D01*
X3926840Y8730640D01*
G37*
G36*
X1996439Y9623196D02*
G01*
X1997557Y9624161D01*
X2006193Y9628835D01*
X2018233Y9637369D01*
X2029155Y9647275D01*
X2038756Y9658502D01*
X2046884Y9670796D01*
X2050186Y9677400D01*
X1996439Y9677400D01*
G37*
G36*
X1889760Y9623196D02*
G01*
X1889760Y9677400D01*
X1836013Y9677400D01*
X1839315Y9670796D01*
X1847443Y9658502D01*
X1857044Y9647275D01*
X1867966Y9637369D01*
X1880006Y9628835D01*
X1888642Y9624161D01*
G37*
G36*
X1835759Y9552940D02*
G01*
X1889760Y9552940D01*
X1889760Y9607245D01*
X1873859Y9597440D01*
X1862328Y9588195D01*
X1852066Y9577578D01*
X1843176Y9565792D01*
G37*
G36*
X1358900Y6194552D02*
G01*
X1372565Y6195466D01*
X1385976Y6198158D01*
X1398930Y6202527D01*
X1411224Y6208572D01*
X1422603Y6216192D01*
X1432864Y6225235D01*
X1441907Y6235496D01*
X1449527Y6246876D01*
X1455572Y6259169D01*
X1459941Y6272123D01*
X1462633Y6285534D01*
X1463548Y6299200D01*
X1462633Y6312865D01*
X1459941Y6326276D01*
X1455572Y6339230D01*
X1449527Y6351524D01*
X1441907Y6362903D01*
X1432864Y6373164D01*
X1422603Y6382207D01*
X1411224Y6389827D01*
X1398930Y6395872D01*
X1385976Y6400241D01*
X1372565Y6402933D01*
X1358900Y6403848D01*
X1345234Y6402933D01*
X1331823Y6400241D01*
X1318869Y6395872D01*
X1306576Y6389827D01*
X1295196Y6382207D01*
X1284935Y6373164D01*
X1275892Y6362903D01*
X1268272Y6351524D01*
X1262227Y6339230D01*
X1257858Y6326276D01*
X1255166Y6312865D01*
X1254252Y6299200D01*
X1255166Y6285534D01*
X1257858Y6272123D01*
X1262227Y6259169D01*
X1268272Y6246876D01*
X1275892Y6235496D01*
X1284935Y6225235D01*
X1295196Y6216192D01*
X1306576Y6208572D01*
X1318869Y6202527D01*
X1331823Y6198158D01*
X1345234Y6195466D01*
G37*
G36*
X1996439Y9552940D02*
G01*
X2050440Y9552940D01*
X2043023Y9565792D01*
X2034133Y9577578D01*
X2023872Y9588195D01*
X2012340Y9597440D01*
X1996439Y9607245D01*
G37*
G36*
X5755640Y8871813D02*
G01*
X5762244Y8875115D01*
X5774537Y8883243D01*
X5785764Y8892844D01*
X5795670Y8903766D01*
X5804204Y8915806D01*
X5809437Y8925560D01*
X5755640Y8925560D01*
G37*
G36*
X5594299Y9444075D02*
G01*
X5648147Y9444075D01*
X5648147Y9498076D01*
X5635244Y9490659D01*
X5623458Y9481769D01*
X5612892Y9471507D01*
X5603646Y9459976D01*
X5595874Y9447428D01*
G37*
G36*
X1996439Y8935262D02*
G01*
X2006193Y8940495D01*
X2018233Y8949029D01*
X2029155Y8958935D01*
X2038756Y8970162D01*
X2046884Y8982456D01*
X2050186Y8989060D01*
X1996439Y8989060D01*
G37*
G36*
X6602018Y9013952D02*
G01*
X6634480Y9013952D01*
X6634480Y9072880D01*
X6575552Y9072880D01*
X6575552Y9040418D01*
X6576263Y9034119D01*
X6578193Y9028633D01*
X6581241Y9023756D01*
X6585356Y9019641D01*
X6590233Y9016593D01*
X6595719Y9014663D01*
G37*
G36*
X6725920Y9013952D02*
G01*
X6758381Y9013952D01*
X6764680Y9014663D01*
X6770166Y9016593D01*
X6775043Y9019641D01*
X6779158Y9023756D01*
X6782206Y9028633D01*
X6784136Y9034119D01*
X6784848Y9040418D01*
X6784848Y9072880D01*
X6725920Y9072880D01*
G37*
G36*
X6426200Y9013952D02*
G01*
X6439865Y9014866D01*
X6453276Y9017558D01*
X6466230Y9021927D01*
X6478524Y9027972D01*
X6489903Y9035592D01*
X6500164Y9044635D01*
X6509207Y9054896D01*
X6516827Y9066276D01*
X6522872Y9078569D01*
X6527241Y9091523D01*
X6529933Y9104934D01*
X6530848Y9118600D01*
X6529933Y9132265D01*
X6527241Y9145676D01*
X6522872Y9158630D01*
X6516827Y9170924D01*
X6509207Y9182303D01*
X6500164Y9192564D01*
X6489903Y9201607D01*
X6478524Y9209227D01*
X6466230Y9215272D01*
X6453276Y9219641D01*
X6439865Y9222333D01*
X6426200Y9223248D01*
X6412534Y9222333D01*
X6399123Y9219641D01*
X6386169Y9215272D01*
X6373876Y9209227D01*
X6362496Y9201607D01*
X6352235Y9192564D01*
X6343192Y9182303D01*
X6335572Y9170924D01*
X6329527Y9158630D01*
X6325158Y9145676D01*
X6322466Y9132265D01*
X6321552Y9118600D01*
X6322466Y9104934D01*
X6325158Y9091523D01*
X6329527Y9078569D01*
X6335572Y9066276D01*
X6343192Y9054896D01*
X6352235Y9044635D01*
X6362496Y9035592D01*
X6373876Y9027972D01*
X6386169Y9021927D01*
X6399123Y9017558D01*
X6412534Y9014866D01*
G37*
G36*
X6172200Y9013952D02*
G01*
X6185865Y9014866D01*
X6199276Y9017558D01*
X6212230Y9021927D01*
X6224524Y9027972D01*
X6235903Y9035592D01*
X6246164Y9044635D01*
X6255207Y9054896D01*
X6262827Y9066276D01*
X6268872Y9078569D01*
X6273241Y9091523D01*
X6275933Y9104934D01*
X6276848Y9118600D01*
X6275933Y9132265D01*
X6273241Y9145676D01*
X6268872Y9158630D01*
X6262827Y9170924D01*
X6255207Y9182303D01*
X6246164Y9192564D01*
X6235903Y9201607D01*
X6224524Y9209227D01*
X6212230Y9215272D01*
X6199276Y9219641D01*
X6185865Y9222333D01*
X6172200Y9223248D01*
X6158534Y9222333D01*
X6145123Y9219641D01*
X6132169Y9215272D01*
X6119876Y9209227D01*
X6108496Y9201607D01*
X6098235Y9192564D01*
X6089192Y9182303D01*
X6081572Y9170924D01*
X6075527Y9158630D01*
X6071158Y9145676D01*
X6068466Y9132265D01*
X6067552Y9118600D01*
X6068466Y9104934D01*
X6071158Y9091523D01*
X6075527Y9078569D01*
X6081572Y9066276D01*
X6089192Y9054896D01*
X6098235Y9044635D01*
X6108496Y9035592D01*
X6119876Y9027972D01*
X6132169Y9021927D01*
X6145123Y9017558D01*
X6158534Y9014866D01*
G37*
G36*
X5755640Y9032240D02*
G01*
X5809437Y9032240D01*
X5804204Y9041993D01*
X5795670Y9054033D01*
X5785764Y9064955D01*
X5774537Y9074556D01*
X5762244Y9082684D01*
X5755640Y9085986D01*
G37*
G36*
X5595162Y9032240D02*
G01*
X5648960Y9032240D01*
X5648960Y9086240D01*
X5636107Y9078823D01*
X5624322Y9069933D01*
X5613704Y9059672D01*
X5604459Y9048140D01*
X5596686Y9035592D01*
G37*
G36*
X5754827Y9444075D02*
G01*
X5808624Y9444075D01*
X5803392Y9453829D01*
X5794857Y9465868D01*
X5784900Y9476790D01*
X5773674Y9486392D01*
X5761380Y9494520D01*
X5754827Y9497822D01*
G37*
G36*
X1996439Y9390837D02*
G01*
X1996846Y9391650D01*
X2000046Y9394393D01*
X2006193Y9397695D01*
X2018233Y9406229D01*
X2029155Y9416135D01*
X2038756Y9427362D01*
X2046884Y9439656D01*
X2050186Y9446260D01*
X1996439Y9446260D01*
G37*
G36*
X1996439Y9324340D02*
G01*
X2050440Y9324340D01*
X2043023Y9337192D01*
X2034133Y9348978D01*
X2023872Y9359595D01*
X2012340Y9368840D01*
X1999488Y9376816D01*
X1996439Y9379762D01*
G37*
G36*
X5754827Y9283649D02*
G01*
X5761380Y9286951D01*
X5773674Y9295079D01*
X5784900Y9304680D01*
X5794857Y9315602D01*
X5803392Y9327642D01*
X5808624Y9337395D01*
X5754827Y9337395D01*
G37*
G36*
X5648147Y9283395D02*
G01*
X5648147Y9337395D01*
X5594299Y9337395D01*
X5595874Y9334042D01*
X5603646Y9321495D01*
X5612892Y9309963D01*
X5623458Y9299702D01*
X5635244Y9290812D01*
G37*
G36*
X2713278Y9232798D02*
G01*
X2728010Y9233255D01*
X2742590Y9235541D01*
X2756814Y9239605D01*
X2770378Y9245346D01*
X2783179Y9252712D01*
X2794965Y9261602D01*
X2805531Y9271863D01*
X2814777Y9283395D01*
X2822549Y9295942D01*
X2828747Y9309354D01*
X2833217Y9323374D01*
X2835910Y9337903D01*
X2836824Y9352635D01*
X2835910Y9367367D01*
X2833217Y9381896D01*
X2828747Y9395917D01*
X2822549Y9409328D01*
X2814777Y9421876D01*
X2805531Y9433407D01*
X2794965Y9443669D01*
X2783179Y9452559D01*
X2770378Y9459925D01*
X2756814Y9465665D01*
X2742590Y9469729D01*
X2728010Y9472015D01*
X2713278Y9472422D01*
X2698597Y9471101D01*
X2684170Y9467951D01*
X2670251Y9463024D01*
X2657043Y9456420D01*
X2644749Y9448292D01*
X2633522Y9438690D01*
X2623566Y9427768D01*
X2615031Y9415729D01*
X2608072Y9402724D01*
X2602738Y9388957D01*
X2599131Y9374682D01*
X2597302Y9360001D01*
X2597302Y9345269D01*
X2599131Y9330588D01*
X2602738Y9316313D01*
X2608072Y9302546D01*
X2615031Y9289542D01*
X2623566Y9277502D01*
X2633522Y9266580D01*
X2644749Y9256979D01*
X2657043Y9248851D01*
X2670251Y9242247D01*
X2684170Y9237319D01*
X2698597Y9234170D01*
G37*
G36*
X6575552Y9164320D02*
G01*
X6634480Y9164320D01*
X6634480Y9223248D01*
X6602018Y9223248D01*
X6595719Y9222536D01*
X6590233Y9220606D01*
X6585356Y9217558D01*
X6581241Y9213443D01*
X6578193Y9208566D01*
X6576263Y9203080D01*
X6575552Y9196781D01*
G37*
G36*
X6725920Y9164320D02*
G01*
X6784848Y9164320D01*
X6784848Y9196781D01*
X6784136Y9203080D01*
X6782206Y9208566D01*
X6779158Y9213443D01*
X6775043Y9217558D01*
X6770166Y9220606D01*
X6764680Y9222536D01*
X6758381Y9223248D01*
X6725920Y9223248D01*
G37*

%LPD*%
D10*
X4752340Y10266679D02*
G01*
X4851577Y10266679D01*
X6591300Y9906000D02*
G01*
X6478777Y10018521D01*
X6034024Y10018521D01*
X5686628Y10365917D01*
X4876368Y10365917D01*
X4851577Y10341127D01*
X4851577Y10266679D01*
X1104900Y7454900D02*
G01*
X1211757Y7454900D01*
X2056079Y7124700D02*
G01*
X1541957Y7124700D01*
X1211757Y7454900D01*
X3873500Y8557513D02*
G01*
X4493006Y8557513D01*
X4617720Y8432800D01*
X4946421Y8432800D01*
X5142052Y8237169D01*
X5142052Y7760970D01*
X1943100Y9042400D02*
G01*
X2493772Y8491728D01*
X3807713Y8491728D01*
X3873500Y8557513D01*
X3873500Y8623300D02*
G01*
X3873500Y8557513D01*
X5278120Y7760970D02*
G01*
X5142052Y7760970D01*
X2961640Y10266679D02*
G01*
X3060877Y10266679D01*
X4752340Y10266679D02*
G01*
X3878834Y10266679D01*
X3779596Y10365917D01*
X3085668Y10365917D01*
X3060877Y10341127D01*
X3060877Y10266679D01*
X6680200Y9118600D02*
G01*
X6573342Y9118600D01*
X5701461Y9390735D02*
G01*
X6327927Y9390735D01*
X6573342Y9145320D01*
X6573342Y9118600D01*
X2961640Y10266679D02*
G01*
X2862402Y10266679D01*
X2197100Y10073639D02*
G01*
X2669362Y10073639D01*
X2862402Y10266679D01*
X1943100Y9959339D02*
G01*
X2057400Y10073639D01*
X2197100Y10073639D01*
X4940300Y8978900D02*
G01*
X5154701Y8978900D01*
X5850331Y8283270D01*
X5850331Y7937017D01*
X5676900Y7763586D01*
X5676900Y6553200D01*
X4635500Y8978900D02*
G01*
X4940300Y8978900D01*
X5278120Y7529829D02*
G01*
X5414187Y7529829D01*
X5563895Y7399045D02*
G01*
X5544972Y7399045D01*
X5414187Y7529829D01*
X5715000Y8623300D02*
G01*
X5649061Y8623300D01*
X5155133Y9117228D01*
X4011828Y9117228D01*
X3873500Y8978900D01*
X5210098Y7301229D02*
G01*
X5142052Y7301229D01*
X5278120Y7301229D02*
G01*
X5210098Y7301229D01*
X5433059Y10266679D02*
G01*
X5333822Y10266679D01*
X3859961Y9999446D02*
G01*
X3691966Y10167442D01*
X3642359Y10167442D01*
X3859961Y9390735D02*
G01*
X3859961Y9999446D01*
X5333822Y10266679D02*
G01*
X5333822Y10192232D01*
X5309031Y10167442D01*
X4027957Y10167442D01*
X3859961Y9999446D01*
X5142052Y7301229D02*
G01*
X5142052Y7605166D01*
X5149468Y7612583D01*
X5335219Y7612583D01*
X5715000Y7992363D01*
X5715000Y8242300D01*
X3642359Y10266679D02*
G01*
X3642359Y10167442D01*
X4780737Y8242300D02*
G01*
X4635500Y8242300D01*
X4953000Y8242300D02*
G01*
X4780737Y8242300D01*
X4780737Y8242300D02*
G01*
X4780737Y7827518D01*
X4662957Y7709738D01*
X3914266Y7709738D01*
X3131845Y6927316D01*
X2335022Y6927316D01*
X1973783Y6566077D01*
X1973783Y6492443D01*
X1907539Y6426200D01*
X1739900Y6426200D01*
X1612900Y6299200D01*
X3478961Y8613851D02*
G01*
X3279851Y8812961D01*
X2365933Y8812961D01*
X2065223Y9113672D01*
X2065223Y9253423D01*
X2197100Y9385300D01*
X4953000Y8623300D02*
G01*
X4635500Y8623300D01*
X5930900Y6553200D02*
G01*
X5761202Y6722897D01*
X5761202Y7761198D01*
X5891199Y7891195D01*
X5891199Y8628202D01*
X5669762Y8849639D01*
X5480558Y8849639D01*
X4939461Y9390735D01*
X4939461Y9390735D02*
G01*
X4621961Y9390735D01*
X2961640Y10022839D02*
G01*
X3060877Y10022839D01*
X4621961Y9390735D02*
G01*
X4497704Y9266478D01*
X3784295Y9266478D01*
X3060877Y9989896D01*
X3060877Y10022839D01*
X3886200Y7874000D02*
G01*
X3645331Y7633131D01*
X2663215Y7633131D01*
X1866900Y6836816D01*
X1866900Y6553200D01*
X2120900Y6553200D02*
G01*
X2420493Y6852793D01*
X3233293Y6852793D01*
X3886200Y7505700D01*
X2626359Y10566400D02*
G01*
X3220720Y10566400D01*
X3302000Y10647679D01*
X3302000Y10647679D02*
G01*
X3901440Y10647679D01*
X3982720Y10566400D01*
X5092700Y10647679D02*
G01*
X5692140Y10647679D01*
X5773420Y10566400D01*
X4417059Y10566400D02*
G01*
X4498340Y10647679D01*
X5092700Y10647679D01*
X1689100Y9613900D02*
G01*
X1820951Y9482048D01*
X1820951Y8991549D01*
X2361641Y8450859D01*
X4071340Y8450859D01*
X4648200Y7874000D01*
X3300425Y9156700D02*
G01*
X3473881Y8983243D01*
X2197100Y9156700D02*
G01*
X3300425Y9156700D01*
X3478961Y9352635D02*
G01*
X3478961Y9335236D01*
X3300425Y9156700D01*
X5142052Y7301229D02*
G01*
X4535119Y6694296D01*
X2860090Y6694296D01*
X2735783Y6569989D01*
X2735783Y6492443D01*
X2669540Y6426200D01*
X2501900Y6426200D01*
X2374900Y6299200D01*
D12*
G01*
X5278120Y7760970D03*
G01*
X5278120Y7529829D03*
G01*
X5278120Y7301229D03*
D13*
G01*
X5897879Y7529829D03*
D14*
G01*
X6337300Y9906000D03*
G01*
X6591300Y9906000D03*
G01*
X6337300Y10160000D03*
G01*
X6591300Y10160000D03*
G01*
X6337300Y10414000D03*
G01*
X6591300Y10414000D03*
G01*
X6337300Y10668000D03*
G01*
X6591300Y10668000D03*
G01*
X6337300Y10922000D03*
G01*
X6591300Y10922000D03*
D15*
G01*
X6591300Y8509000D03*
G01*
X6591300Y8255000D03*
G01*
X6591300Y8001000D03*
G01*
X6591300Y7747000D03*
G01*
X6591300Y7493000D03*
G36*
X6670040Y7160260D02*
G01*
X6670040Y7317739D01*
X6512559Y7317739D01*
X6512559Y7160260D01*
G37*
G36*
X1026160Y6377939D02*
G01*
X1183639Y6377939D01*
X1183639Y6220460D01*
X1026160Y6220460D01*
G37*
G01*
X1104900Y6553200D03*
G01*
X1358900Y6299200D03*
G01*
X1358900Y6553200D03*
G01*
X1612900Y6299200D03*
G01*
X1612900Y6553200D03*
G01*
X1866900Y6299200D03*
G01*
X1866900Y6553200D03*
G01*
X2120900Y6299200D03*
G01*
X2120900Y6553200D03*
G01*
X2374900Y6299200D03*
G01*
X2374900Y6553200D03*
G01*
X2628900Y6299200D03*
G01*
X2628900Y6553200D03*
G01*
X2882900Y6299200D03*
G01*
X2882900Y6553200D03*
G01*
X3136900Y6299200D03*
G01*
X3136900Y6553200D03*
G01*
X3390900Y6299200D03*
G01*
X3390900Y6553200D03*
G01*
X3644900Y6299200D03*
G01*
X3644900Y6553200D03*
G01*
X3898900Y6299200D03*
G01*
X3898900Y6553200D03*
G01*
X4152900Y6299200D03*
G01*
X4152900Y6553200D03*
G01*
X4406900Y6299200D03*
G01*
X4406900Y6553200D03*
G01*
X4660900Y6299200D03*
G01*
X4660900Y6553200D03*
G01*
X4914900Y6299200D03*
G01*
X4914900Y6553200D03*
G01*
X5168900Y6299200D03*
G01*
X5168900Y6553200D03*
G01*
X5422900Y6299200D03*
G01*
X5422900Y6553200D03*
G01*
X5676900Y6299200D03*
G01*
X5676900Y6553200D03*
G01*
X5930900Y6299200D03*
G01*
X5930900Y6553200D03*
D17*
G01*
X3982720Y10566400D03*
G01*
X2626359Y10566400D03*
G01*
X3302000Y10647679D03*
G36*
X3360420Y10337800D02*
G01*
X3502659Y10337800D01*
X3502659Y10195560D01*
X3360420Y10195560D01*
G37*
G36*
X3101340Y10337800D02*
G01*
X3243579Y10337800D01*
X3243579Y10195560D01*
X3101340Y10195560D01*
G37*
G36*
X2890520Y10337800D02*
G01*
X3032759Y10337800D01*
X3032759Y10195560D01*
X2890520Y10195560D01*
G37*
G36*
X3571240Y10337800D02*
G01*
X3713479Y10337800D01*
X3713479Y10195560D01*
X3571240Y10195560D01*
G37*
G36*
X3571240Y10088879D02*
G01*
X3713479Y10088879D01*
X3713479Y9946639D01*
X3571240Y9946639D01*
G37*
G36*
X2890520Y10093960D02*
G01*
X3032759Y10093960D01*
X3032759Y9951720D01*
X2890520Y9951720D01*
G37*
G01*
X5773420Y10566400D03*
G01*
X4417059Y10566400D03*
G01*
X5092700Y10647679D03*
G36*
X5151120Y10337800D02*
G01*
X5293359Y10337800D01*
X5293359Y10195560D01*
X5151120Y10195560D01*
G37*
G36*
X4892040Y10337800D02*
G01*
X5034279Y10337800D01*
X5034279Y10195560D01*
X4892040Y10195560D01*
G37*
G36*
X4681220Y10337800D02*
G01*
X4823459Y10337800D01*
X4823459Y10195560D01*
X4681220Y10195560D01*
G37*
G36*
X5361940Y10337800D02*
G01*
X5504179Y10337800D01*
X5504179Y10195560D01*
X5361940Y10195560D01*
G37*
G36*
X5361940Y10088879D02*
G01*
X5504179Y10088879D01*
X5504179Y9946639D01*
X5361940Y9946639D01*
G37*
G36*
X4681220Y10093960D02*
G01*
X4823459Y10093960D01*
X4823459Y9951720D01*
X4681220Y9951720D01*
G37*
D16*
G01*
X1854200Y7467600D03*
D15*
G01*
X6172200Y9118600D03*
G01*
X6426200Y9118600D03*
D16*
G01*
X6680200Y9118600D03*
D19*
G01*
X3886200Y7874000D03*
G01*
X4648200Y7874000D03*
G01*
X3886200Y7505700D03*
G01*
X4648200Y7505700D03*
G01*
X4621961Y9390735D03*
G01*
X3859961Y9390735D03*
G01*
X5701461Y9390735D03*
G01*
X4939461Y9390735D03*
G01*
X4635500Y8978900D03*
G01*
X3873500Y8978900D03*
G01*
X5702300Y8978900D03*
G01*
X4940300Y8978900D03*
G01*
X3873500Y8623300D03*
G01*
X4635500Y8623300D03*
G01*
X4953000Y8623300D03*
G01*
X5715000Y8623300D03*
G01*
X3873500Y8242300D03*
G01*
X4635500Y8242300D03*
G01*
X4953000Y8242300D03*
G01*
X5715000Y8242300D03*
G01*
X2711881Y8983243D03*
G01*
X3473881Y8983243D03*
G01*
X2711881Y8244484D03*
G01*
X3473881Y8244484D03*
G01*
X2711881Y7505700D03*
G01*
X3473881Y7505700D03*
G01*
X2716961Y9352635D03*
G01*
X3478961Y9352635D03*
G01*
X2716961Y8613851D03*
G01*
X3478961Y8613851D03*
G01*
X2716961Y7875092D03*
G01*
X3478961Y7875092D03*
D16*
G01*
X1104900Y7454900D03*
D19*
G01*
X1943100Y9271000D03*
G01*
X1943100Y9499600D03*
G01*
X1943100Y9730739D03*
G01*
X1943100Y9959339D03*
G01*
X1689100Y9156700D03*
G01*
X1689100Y9385300D03*
G01*
X1689100Y9613900D03*
G01*
X1689100Y9842500D03*
D20*
G01*
X1943100Y8338820D03*
G01*
X1943100Y10838179D03*
D19*
G01*
X1943100Y9042400D03*
G01*
X1689100Y10073639D03*
G01*
X2197100Y9156700D03*
G01*
X2197100Y9385300D03*
G01*
X2197100Y9613900D03*
G01*
X2197100Y9842500D03*
G01*
X2197100Y10073639D03*
D11*
G01*
X2056079Y7124700D03*
G01*
X5563895Y7399045D03*
M02*
