M48
METRIC,LZ,000.000
;FILE_FORMAT=3:3
;TYPE=PLATED
;Layer: Drill PTH
;EasyEDA v6.4.25, 2021-12-02T19:10:48+01:00
;15ecca0207564e248d2aa7e8b5e7a0d8,208c6ab82c1b43e5b5e4dc1230921930,10
;Gerber Generator version 0.2
;Holesize 1 = 0.306 mm
T01C0.306
;Holesize 2 = 0.889 mm
T02C0.889
;Holesize 3 = 0.900 mm
T03C0.900
;Holesize 4 = 1.016 mm
T04C1.016
;Holesize 5 = 1.100 mm
T05C1.100
;Holesize 6 = 2.302 mm
T06C2.302
;Holesize 7 = 3.302 mm
T07C3.302
%
G05
G90
T01
X020561Y071247
X055639Y073990
T02
X065913Y085090
X065913Y082550
X065913Y080010
X065913Y077470
X065913Y074930
X065913Y072390
X011049Y062992
X011049Y065532
X013589Y062992
X013589Y065532
X016129Y062992
X016129Y065532
X018669Y062992
X018669Y065532
X021209Y062992
X021209Y065532
X023749Y062992
X023749Y065532
X026289Y062992
X026289Y065532
X028829Y062992
X028829Y065532
X031369Y062992
X031369Y065532
X033909Y062992
X033909Y065532
X036449Y062992
X036449Y065532
X038989Y062992
X038989Y065532
X041529Y062992
X041529Y065532
X044069Y062992
X044069Y065532
X046609Y062992
X046609Y065532
X049149Y062992
X049149Y065532
X051689Y062992
X051689Y065532
X054229Y062992
X054229Y065532
X056769Y062992
X056769Y065532
X059309Y062992
X059309Y065532
X018542Y074676
X061722Y091186
X064262Y091186
X066802Y091186
X011049Y074549
T03
X034315Y102667
X031725Y102667
X029616Y102667
X036424Y102667
X036424Y100178
X029616Y100228
X052222Y102667
X049632Y102667
X047523Y102667
X054331Y102667
X054331Y100178
X047523Y100228
X038862Y078740
X046482Y078740
X038862Y075057
X046482Y075057
X046220Y093907
X038600Y093907
X057015Y093907
X049395Y093907
X046355Y089789
X038735Y089789
X057023Y089789
X049403Y089789
X038735Y086233
X046355Y086233
X049530Y086233
X057150Y086233
X038735Y082423
X046355Y082423
X049530Y082423
X057150Y082423
X027119Y089833
X034739Y089833
X027119Y082445
X034739Y082445
X027119Y075057
X034739Y075057
X027170Y093526
X034790Y093526
X027170Y086139
X034790Y086139
X027170Y078751
X034790Y078751
T04
X019431Y092710
X019431Y094996
X019431Y097307
X019431Y099593
X016891Y091567
X016891Y093853
X016891Y096139
X016891Y098425
X019431Y090424
X016891Y100736
X021971Y091567
X021971Y093853
X021971Y096139
X021971Y098425
X021971Y100736
T05
X063373Y099060
X065913Y099060
X063373Y101600
X065913Y101600
X063373Y104140
X065913Y104140
X063373Y106680
X065913Y106680
X063373Y109220
X065913Y109220
T06
X039827Y105664
X026264Y105664
X033020Y106477
X057734Y105664
X044171Y105664
X050927Y106477
T07
X019431Y083388
X019431Y108382
M30
