G04 Layer: BottomSilkLayer*
G04 EasyEDA v6.4.25, 2021-12-02T19:10:48+01:00*
G04 15ecca0207564e248d2aa7e8b5e7a0d8,208c6ab82c1b43e5b5e4dc1230921930,10*
G04 Gerber Generator version 0.2*
G04 Scale: 100 percent, Rotated: No, Reflected: No *
G04 Dimensions in millimeters *
G04 leading zeros omitted , absolute positions ,4 integer and 5 decimal *
%FSLAX45Y45*%
%MOMM*%

%ADD10C,0.2540*%
%ADD21C,0.2032*%
%ADD22C,0.2030*%
%ADD24C,0.1524*%

%LPD*%
D24*
X6157653Y9762835D02*
G01*
X6168044Y9752444D01*
X6173238Y9736858D01*
X6173238Y9716076D01*
X6168044Y9700491D01*
X6157653Y9690100D01*
X6147262Y9690100D01*
X6136871Y9695294D01*
X6131674Y9700491D01*
X6126479Y9710882D01*
X6116088Y9742055D01*
X6110894Y9752444D01*
X6105697Y9757641D01*
X6095306Y9762835D01*
X6079721Y9762835D01*
X6069329Y9752444D01*
X6064135Y9736858D01*
X6064135Y9716076D01*
X6069329Y9700491D01*
X6079721Y9690100D01*
X6173238Y9797125D02*
G01*
X6064135Y9797125D01*
X6173238Y9797125D02*
G01*
X6173238Y9843884D01*
X6168044Y9859472D01*
X6162847Y9864666D01*
X6152456Y9869863D01*
X6136871Y9869863D01*
X6126479Y9864666D01*
X6121285Y9859472D01*
X6116088Y9843884D01*
X6116088Y9797125D01*
X6173238Y9904153D02*
G01*
X6064135Y9904153D01*
X6147262Y9943637D02*
G01*
X6152456Y9943637D01*
X6162847Y9948834D01*
X6168044Y9954028D01*
X6173238Y9964420D01*
X6173238Y9985202D01*
X6168044Y9995593D01*
X6162847Y10000787D01*
X6152456Y10005984D01*
X6142065Y10005984D01*
X6131674Y10000787D01*
X6116088Y9990396D01*
X6064135Y9938443D01*
X6064135Y10011178D01*
X6194021Y10081836D02*
G01*
X6183629Y10071445D01*
X6168044Y10061054D01*
X6147262Y10050665D01*
X6121285Y10045468D01*
X6100503Y10045468D01*
X6074524Y10050665D01*
X6053744Y10061054D01*
X6038156Y10071445D01*
X6027765Y10081836D01*
X6173238Y10116126D02*
G01*
X6064135Y10116126D01*
X6173238Y10116126D02*
G01*
X6173238Y10183667D01*
X6121285Y10116126D02*
G01*
X6121285Y10157691D01*
X6064135Y10116126D02*
G01*
X6064135Y10183667D01*
X6173238Y10254325D02*
G01*
X6064135Y10254325D01*
X6173238Y10217957D02*
G01*
X6173238Y10290695D01*
X6173238Y10324985D02*
G01*
X6064135Y10324985D01*
X6173238Y10397721D02*
G01*
X6064135Y10397721D01*
X6121285Y10324985D02*
G01*
X6121285Y10397721D01*
X6173238Y10432011D02*
G01*
X6064135Y10432011D01*
X6173238Y10432011D02*
G01*
X6173238Y10499552D01*
X6121285Y10432011D02*
G01*
X6121285Y10473575D01*
X6064135Y10432011D02*
G01*
X6064135Y10499552D01*
X6173238Y10533842D02*
G01*
X6064135Y10533842D01*
X6173238Y10533842D02*
G01*
X6173238Y10580601D01*
X6168044Y10596186D01*
X6162847Y10601383D01*
X6152456Y10606577D01*
X6142065Y10606577D01*
X6131674Y10601383D01*
X6126479Y10596186D01*
X6121285Y10580601D01*
X6121285Y10533842D01*
X6121285Y10570210D02*
G01*
X6064135Y10606577D01*
X6173238Y10640867D02*
G01*
X6064135Y10640867D01*
X6173238Y10640867D02*
G01*
X6064135Y10713605D01*
X6173238Y10713605D02*
G01*
X6064135Y10713605D01*
X6173238Y10747895D02*
G01*
X6064135Y10747895D01*
X6173238Y10747895D02*
G01*
X6173238Y10815434D01*
X6121285Y10747895D02*
G01*
X6121285Y10789457D01*
X6064135Y10747895D02*
G01*
X6064135Y10815434D01*
X6173238Y10886094D02*
G01*
X6064135Y10886094D01*
X6173238Y10849724D02*
G01*
X6173238Y10922462D01*
X6194021Y10956752D02*
G01*
X6183629Y10967143D01*
X6168044Y10977534D01*
X6147262Y10987925D01*
X6121285Y10993120D01*
X6100503Y10993120D01*
X6074524Y10987925D01*
X6053744Y10977534D01*
X6038156Y10967143D01*
X6027765Y10956752D01*
X6335453Y7337135D02*
G01*
X6345844Y7326744D01*
X6351038Y7311158D01*
X6351038Y7290376D01*
X6345844Y7274791D01*
X6335453Y7264400D01*
X6325062Y7264400D01*
X6314671Y7269594D01*
X6309474Y7274791D01*
X6304279Y7285182D01*
X6293888Y7316355D01*
X6288694Y7326744D01*
X6283497Y7331941D01*
X6273106Y7337135D01*
X6257521Y7337135D01*
X6247129Y7326744D01*
X6241935Y7311158D01*
X6241935Y7290376D01*
X6247129Y7274791D01*
X6257521Y7264400D01*
X6351038Y7371425D02*
G01*
X6241935Y7371425D01*
X6351038Y7371425D02*
G01*
X6351038Y7418184D01*
X6345844Y7433772D01*
X6340647Y7438966D01*
X6330256Y7444163D01*
X6314671Y7444163D01*
X6304279Y7438966D01*
X6299085Y7433772D01*
X6293888Y7418184D01*
X6293888Y7371425D01*
X6351038Y7478453D02*
G01*
X6241935Y7478453D01*
X6330256Y7512743D02*
G01*
X6335453Y7523134D01*
X6351038Y7538720D01*
X6241935Y7538720D01*
X6371821Y7609377D02*
G01*
X6361429Y7598986D01*
X6345844Y7588595D01*
X6325062Y7578204D01*
X6299085Y7573010D01*
X6278303Y7573010D01*
X6252324Y7578204D01*
X6231544Y7588595D01*
X6215956Y7598986D01*
X6205565Y7609377D01*
X6335453Y7716405D02*
G01*
X6345844Y7706014D01*
X6351038Y7690426D01*
X6351038Y7669644D01*
X6345844Y7654058D01*
X6335453Y7643667D01*
X6325062Y7643667D01*
X6314671Y7648864D01*
X6309474Y7654058D01*
X6304279Y7664450D01*
X6293888Y7695623D01*
X6288694Y7706014D01*
X6283497Y7711208D01*
X6273106Y7716405D01*
X6257521Y7716405D01*
X6247129Y7706014D01*
X6241935Y7690426D01*
X6241935Y7669644D01*
X6247129Y7654058D01*
X6257521Y7643667D01*
X6351038Y7750695D02*
G01*
X6241935Y7750695D01*
X6351038Y7750695D02*
G01*
X6351038Y7787063D01*
X6345844Y7802648D01*
X6335453Y7813039D01*
X6325062Y7818234D01*
X6309474Y7823431D01*
X6283497Y7823431D01*
X6267912Y7818234D01*
X6257521Y7813039D01*
X6247129Y7802648D01*
X6241935Y7787063D01*
X6241935Y7750695D01*
X6205565Y7857721D02*
G01*
X6205565Y7951238D01*
X6325062Y8063461D02*
G01*
X6335453Y8058264D01*
X6345844Y8047875D01*
X6351038Y8037484D01*
X6351038Y8016702D01*
X6345844Y8006311D01*
X6335453Y7995920D01*
X6325062Y7990725D01*
X6309474Y7985528D01*
X6283497Y7985528D01*
X6267912Y7990725D01*
X6257521Y7995920D01*
X6247129Y8006311D01*
X6241935Y8016702D01*
X6241935Y8037484D01*
X6247129Y8047875D01*
X6257521Y8058264D01*
X6267912Y8063461D01*
X6351038Y8139315D02*
G01*
X6241935Y8097751D01*
X6351038Y8139315D02*
G01*
X6241935Y8180877D01*
X6278303Y8113336D02*
G01*
X6278303Y8165292D01*
X6351038Y8215167D02*
G01*
X6241935Y8215167D01*
X6351038Y8215167D02*
G01*
X6351038Y8261926D01*
X6345844Y8277514D01*
X6340647Y8282708D01*
X6330256Y8287905D01*
X6319865Y8287905D01*
X6309474Y8282708D01*
X6304279Y8277514D01*
X6299085Y8261926D01*
X6299085Y8215167D01*
X6299085Y8251535D02*
G01*
X6241935Y8287905D01*
X6351038Y8322195D02*
G01*
X6241935Y8322195D01*
X6351038Y8322195D02*
G01*
X6351038Y8358563D01*
X6345844Y8374148D01*
X6335453Y8384539D01*
X6325062Y8389734D01*
X6309474Y8394931D01*
X6283497Y8394931D01*
X6267912Y8389734D01*
X6257521Y8384539D01*
X6247129Y8374148D01*
X6241935Y8358563D01*
X6241935Y8322195D01*
X6371821Y8429221D02*
G01*
X6361429Y8439612D01*
X6345844Y8450003D01*
X6325062Y8460394D01*
X6299085Y8465588D01*
X6278303Y8465588D01*
X6252324Y8460394D01*
X6231544Y8450003D01*
X6215956Y8439612D01*
X6205565Y8429221D01*
D10*
X6197600Y10160000D02*
G01*
X6019800Y10160000D01*
X6027420Y10165079D01*
X6197600Y10160000D02*
G01*
X6197600Y10668000D01*
X6022340Y10668000D01*
X6027420Y10668000D01*
X6904304Y9398990D02*
G01*
X6904304Y11428984D01*
X6024295Y11428984D01*
X6024295Y9398990D01*
X6904304Y9398990D01*
D21*
X6718300Y7302500D02*
G01*
X6718300Y7112000D01*
X6464300Y7112000D01*
X6464300Y8636000D01*
X6718300Y8636000D01*
D22*
X6718300Y8636000D02*
G01*
X6718300Y7302500D01*
D10*
X2600959Y11117579D02*
G01*
X2600959Y10668000D01*
X2600959Y10668000D02*
G01*
X2600959Y9837420D01*
X4003040Y9842500D02*
G01*
X4003040Y10467339D01*
X4003040Y10467339D02*
G01*
X4003040Y10668000D01*
X4003040Y10668000D02*
G01*
X4003040Y11117579D01*
X4003040Y10668000D02*
G01*
X3972559Y10668000D01*
X3972559Y10668000D02*
G01*
X3972559Y10467339D01*
X3972559Y10467339D02*
G01*
X4003040Y10467339D01*
X2600959Y10668000D02*
G01*
X2631440Y10668000D01*
X2631440Y10668000D02*
G01*
X2631440Y10467339D01*
X2631440Y10467339D02*
G01*
X2606040Y10467339D01*
X4391659Y11117579D02*
G01*
X4391659Y10668000D01*
X4391659Y10668000D02*
G01*
X4391659Y9837420D01*
X5793740Y9842500D02*
G01*
X5793740Y10467339D01*
X5793740Y10467339D02*
G01*
X5793740Y10668000D01*
X5793740Y10668000D02*
G01*
X5793740Y11117579D01*
X5793740Y10668000D02*
G01*
X5763259Y10668000D01*
X5763259Y10668000D02*
G01*
X5763259Y10467339D01*
X5763259Y10467339D02*
G01*
X5793740Y10467339D01*
X4391659Y10668000D02*
G01*
X4422140Y10668000D01*
X4422140Y10668000D02*
G01*
X4422140Y10467339D01*
X4422140Y10467339D02*
G01*
X4396740Y10467339D01*
M02*
