G04 Layer: TopSilkLayer*
G04 EasyEDA v6.4.25, 2021-12-02T19:10:48+01:00*
G04 15ecca0207564e248d2aa7e8b5e7a0d8,208c6ab82c1b43e5b5e4dc1230921930,10*
G04 Gerber Generator version 0.2*
G04 Scale: 100 percent, Rotated: No, Reflected: No *
G04 Dimensions in millimeters *
G04 leading zeros omitted , absolute positions ,4 integer and 5 decimal *
%FSLAX45Y45*%
%MOMM*%

%ADD10C,0.2540*%
%ADD21C,0.2032*%
%ADD22C,0.2030*%
%ADD23C,0.2007*%
%ADD24C,0.1524*%

%LPD*%
D21*
X6140450Y8940037D02*
G01*
X6140450Y8844534D01*
X6108700Y8940037D02*
G01*
X6172454Y8940037D01*
X6202425Y8908287D02*
G01*
X6252209Y8844534D01*
X6252209Y8908287D02*
G01*
X6202425Y8844534D01*
X6352286Y8940037D02*
G01*
X6352286Y8844534D01*
X6352286Y8940037D02*
G01*
X6393179Y8940037D01*
X6406895Y8935465D01*
X6411468Y8930894D01*
X6416040Y8922004D01*
X6416040Y8912860D01*
X6411468Y8903715D01*
X6406895Y8899144D01*
X6393179Y8894571D01*
X6352286Y8894571D01*
X6384036Y8894571D02*
G01*
X6416040Y8844534D01*
X6446011Y8908287D02*
G01*
X6496050Y8844534D01*
X6496050Y8908287D02*
G01*
X6446011Y8844534D01*
X6323075Y8178545D02*
G01*
X6331965Y8187689D01*
X6336538Y8201405D01*
X6336538Y8219694D01*
X6331965Y8233155D01*
X6323075Y8242300D01*
X6313931Y8242300D01*
X6304788Y8237728D01*
X6300215Y8233155D01*
X6295643Y8224012D01*
X6286500Y8196834D01*
X6282181Y8187689D01*
X6277609Y8183118D01*
X6268465Y8178545D01*
X6254750Y8178545D01*
X6245606Y8187689D01*
X6241034Y8201405D01*
X6241034Y8219694D01*
X6245606Y8233155D01*
X6254750Y8242300D01*
X6336538Y8148573D02*
G01*
X6241034Y8148573D01*
X6336538Y8148573D02*
G01*
X6336538Y8107679D01*
X6331965Y8094218D01*
X6327393Y8089645D01*
X6318504Y8085073D01*
X6304788Y8085073D01*
X6295643Y8089645D01*
X6291072Y8094218D01*
X6286500Y8107679D01*
X6286500Y8148573D01*
X6336538Y8055102D02*
G01*
X6241034Y8055102D01*
X6318504Y8025129D02*
G01*
X6323075Y8015986D01*
X6336538Y8002270D01*
X6241034Y8002270D01*
X6354825Y7870444D02*
G01*
X6345681Y7879587D01*
X6331965Y7888731D01*
X6313931Y7897876D01*
X6291072Y7902194D01*
X6273038Y7902194D01*
X6250177Y7897876D01*
X6232143Y7888731D01*
X6218427Y7879587D01*
X6209284Y7870444D01*
X6323075Y7776971D02*
G01*
X6331965Y7785862D01*
X6336538Y7799578D01*
X6336538Y7817865D01*
X6331965Y7831328D01*
X6323075Y7840471D01*
X6313931Y7840471D01*
X6304788Y7835900D01*
X6300215Y7831328D01*
X6295643Y7822184D01*
X6286500Y7795005D01*
X6282181Y7785862D01*
X6277609Y7781289D01*
X6268465Y7776971D01*
X6254750Y7776971D01*
X6245606Y7785862D01*
X6241034Y7799578D01*
X6241034Y7817865D01*
X6245606Y7831328D01*
X6254750Y7840471D01*
X6336538Y7746745D02*
G01*
X6241034Y7746745D01*
X6336538Y7746745D02*
G01*
X6336538Y7714995D01*
X6331965Y7701279D01*
X6323075Y7692389D01*
X6313931Y7687818D01*
X6300215Y7683245D01*
X6277609Y7683245D01*
X6263893Y7687818D01*
X6254750Y7692389D01*
X6245606Y7701279D01*
X6241034Y7714995D01*
X6241034Y7746745D01*
X6354825Y7653273D02*
G01*
X6345681Y7644129D01*
X6331965Y7634986D01*
X6313931Y7625842D01*
X6291072Y7621270D01*
X6273038Y7621270D01*
X6250177Y7625842D01*
X6232143Y7634986D01*
X6218427Y7644129D01*
X6209284Y7653273D01*
X6157975Y10680445D02*
G01*
X6166865Y10689589D01*
X6171438Y10703305D01*
X6171438Y10721594D01*
X6166865Y10735055D01*
X6157975Y10744200D01*
X6148831Y10744200D01*
X6139688Y10739628D01*
X6135115Y10735055D01*
X6130543Y10725912D01*
X6121400Y10698734D01*
X6117081Y10689589D01*
X6112509Y10685018D01*
X6103365Y10680445D01*
X6089650Y10680445D01*
X6080506Y10689589D01*
X6075934Y10703305D01*
X6075934Y10721594D01*
X6080506Y10735055D01*
X6089650Y10744200D01*
X6171438Y10650474D02*
G01*
X6075934Y10650474D01*
X6171438Y10650474D02*
G01*
X6171438Y10609579D01*
X6166865Y10596118D01*
X6162293Y10591545D01*
X6153404Y10586974D01*
X6139688Y10586974D01*
X6130543Y10591545D01*
X6125972Y10596118D01*
X6121400Y10609579D01*
X6121400Y10650474D01*
X6171438Y10557002D02*
G01*
X6075934Y10557002D01*
X6148831Y10522458D02*
G01*
X6153404Y10522458D01*
X6162293Y10517886D01*
X6166865Y10513313D01*
X6171438Y10504170D01*
X6171438Y10486136D01*
X6166865Y10476992D01*
X6162293Y10472420D01*
X6153404Y10467847D01*
X6144259Y10467847D01*
X6135115Y10472420D01*
X6121400Y10481563D01*
X6075934Y10527029D01*
X6075934Y10463276D01*
X6189725Y10331450D02*
G01*
X6180581Y10340594D01*
X6166865Y10349737D01*
X6148831Y10358628D01*
X6125972Y10363200D01*
X6107938Y10363200D01*
X6085077Y10358628D01*
X6067043Y10349737D01*
X6053327Y10340594D01*
X6044184Y10331450D01*
X6171438Y10301478D02*
G01*
X6075934Y10301478D01*
X6171438Y10301478D02*
G01*
X6171438Y10242295D01*
X6125972Y10301478D02*
G01*
X6125972Y10265155D01*
X6075934Y10301478D02*
G01*
X6075934Y10242295D01*
X6171438Y10180574D02*
G01*
X6075934Y10180574D01*
X6171438Y10212324D02*
G01*
X6171438Y10148824D01*
X6171438Y10118852D02*
G01*
X6075934Y10118852D01*
X6171438Y10055097D02*
G01*
X6075934Y10055097D01*
X6125972Y10118852D02*
G01*
X6125972Y10055097D01*
X6171438Y10025126D02*
G01*
X6075934Y10025126D01*
X6171438Y10025126D02*
G01*
X6171438Y9965944D01*
X6125972Y10025126D02*
G01*
X6125972Y9988804D01*
X6075934Y10025126D02*
G01*
X6075934Y9965944D01*
X6171438Y9935971D02*
G01*
X6075934Y9935971D01*
X6171438Y9935971D02*
G01*
X6171438Y9895078D01*
X6166865Y9881362D01*
X6162293Y9877044D01*
X6153404Y9872471D01*
X6144259Y9872471D01*
X6135115Y9877044D01*
X6130543Y9881362D01*
X6125972Y9895078D01*
X6125972Y9935971D01*
X6125972Y9904221D02*
G01*
X6075934Y9872471D01*
X6171438Y9842500D02*
G01*
X6075934Y9842500D01*
X6171438Y9842500D02*
G01*
X6075934Y9778745D01*
X6171438Y9778745D02*
G01*
X6075934Y9778745D01*
X6171438Y9748774D02*
G01*
X6075934Y9748774D01*
X6171438Y9748774D02*
G01*
X6171438Y9689592D01*
X6125972Y9748774D02*
G01*
X6125972Y9712452D01*
X6075934Y9748774D02*
G01*
X6075934Y9689592D01*
X6171438Y9627870D02*
G01*
X6075934Y9627870D01*
X6171438Y9659620D02*
G01*
X6171438Y9596120D01*
X6189725Y9565894D02*
G01*
X6180581Y9557004D01*
X6166865Y9547860D01*
X6148831Y9538715D01*
X6125972Y9534144D01*
X6107938Y9534144D01*
X6085077Y9538715D01*
X6067043Y9547860D01*
X6053327Y9557004D01*
X6044184Y9565894D01*
X1003300Y7098537D02*
G01*
X1003300Y7003034D01*
X1003300Y7098537D02*
G01*
X1062481Y7098537D01*
X1003300Y7053071D02*
G01*
X1039621Y7053071D01*
X1092454Y7098537D02*
G01*
X1092454Y7003034D01*
X1092454Y7098537D02*
G01*
X1133347Y7098537D01*
X1146810Y7093965D01*
X1151381Y7089394D01*
X1155954Y7080504D01*
X1155954Y7066787D01*
X1151381Y7057644D01*
X1146810Y7053071D01*
X1133347Y7048500D01*
X1092454Y7048500D01*
X1254252Y7075931D02*
G01*
X1249679Y7085076D01*
X1240536Y7093965D01*
X1231392Y7098537D01*
X1213357Y7098537D01*
X1204213Y7093965D01*
X1195070Y7085076D01*
X1190497Y7075931D01*
X1185926Y7062215D01*
X1185926Y7039610D01*
X1190497Y7025894D01*
X1195070Y7016750D01*
X1204213Y7007605D01*
X1213357Y7003034D01*
X1231392Y7003034D01*
X1240536Y7007605D01*
X1249679Y7016750D01*
X1254252Y7025894D01*
X1254252Y7039610D01*
X1231392Y7039610D02*
G01*
X1254252Y7039610D01*
X1320545Y7098537D02*
G01*
X1284223Y7003034D01*
X1320545Y7098537D02*
G01*
X1356868Y7003034D01*
X1297939Y7035037D02*
G01*
X1343405Y7035037D01*
X1456944Y7098537D02*
G01*
X1456944Y7003034D01*
X1520697Y7098537D02*
G01*
X1520697Y7003034D01*
X1456944Y7053071D02*
G01*
X1520697Y7053071D01*
X1586992Y7098537D02*
G01*
X1550670Y7003034D01*
X1586992Y7098537D02*
G01*
X1623313Y7003034D01*
X1564131Y7035037D02*
G01*
X1609597Y7035037D01*
X1685036Y7098537D02*
G01*
X1685036Y7003034D01*
X1653286Y7098537D02*
G01*
X1717039Y7098537D01*
X1003300Y6882637D02*
G01*
X1003300Y6787134D01*
X1003300Y6882637D02*
G01*
X1035050Y6882637D01*
X1048765Y6878065D01*
X1057910Y6869176D01*
X1062481Y6860031D01*
X1067054Y6846315D01*
X1067054Y6823710D01*
X1062481Y6809994D01*
X1057910Y6800850D01*
X1048765Y6791705D01*
X1035050Y6787134D01*
X1003300Y6787134D01*
X1097026Y6823710D02*
G01*
X1151381Y6823710D01*
X1151381Y6832600D01*
X1146810Y6841744D01*
X1142492Y6846315D01*
X1133347Y6850887D01*
X1119631Y6850887D01*
X1110487Y6846315D01*
X1101597Y6837171D01*
X1097026Y6823710D01*
X1097026Y6814565D01*
X1101597Y6800850D01*
X1110487Y6791705D01*
X1119631Y6787134D01*
X1133347Y6787134D01*
X1142492Y6791705D01*
X1151381Y6800850D01*
X1231392Y6837171D02*
G01*
X1226820Y6846315D01*
X1213357Y6850887D01*
X1199642Y6850887D01*
X1185926Y6846315D01*
X1181607Y6837171D01*
X1185926Y6828281D01*
X1195070Y6823710D01*
X1217929Y6819137D01*
X1226820Y6814565D01*
X1231392Y6805421D01*
X1231392Y6800850D01*
X1226820Y6791705D01*
X1213357Y6787134D01*
X1199642Y6787134D01*
X1185926Y6791705D01*
X1181607Y6800850D01*
X1261363Y6882637D02*
G01*
X1265936Y6878065D01*
X1270507Y6882637D01*
X1265936Y6887210D01*
X1261363Y6882637D01*
X1265936Y6850887D02*
G01*
X1265936Y6787134D01*
X1355089Y6850887D02*
G01*
X1355089Y6778244D01*
X1350518Y6764528D01*
X1345945Y6759955D01*
X1337055Y6755384D01*
X1323339Y6755384D01*
X1314195Y6759955D01*
X1355089Y6837171D02*
G01*
X1345945Y6846315D01*
X1337055Y6850887D01*
X1323339Y6850887D01*
X1314195Y6846315D01*
X1305052Y6837171D01*
X1300479Y6823710D01*
X1300479Y6814565D01*
X1305052Y6800850D01*
X1314195Y6791705D01*
X1323339Y6787134D01*
X1337055Y6787134D01*
X1345945Y6791705D01*
X1355089Y6800850D01*
X1385062Y6850887D02*
G01*
X1385062Y6787134D01*
X1385062Y6832600D02*
G01*
X1398778Y6846315D01*
X1407921Y6850887D01*
X1421384Y6850887D01*
X1430528Y6846315D01*
X1435100Y6832600D01*
X1435100Y6787134D01*
X1465071Y6823710D02*
G01*
X1519681Y6823710D01*
X1519681Y6832600D01*
X1515110Y6841744D01*
X1510537Y6846315D01*
X1501394Y6850887D01*
X1487931Y6850887D01*
X1478787Y6846315D01*
X1469644Y6837171D01*
X1465071Y6823710D01*
X1465071Y6814565D01*
X1469644Y6800850D01*
X1478787Y6791705D01*
X1487931Y6787134D01*
X1501394Y6787134D01*
X1510537Y6791705D01*
X1519681Y6800850D01*
X1604263Y6882637D02*
G01*
X1604263Y6787134D01*
X1604263Y6837171D02*
G01*
X1595120Y6846315D01*
X1585976Y6850887D01*
X1572513Y6850887D01*
X1563370Y6846315D01*
X1554226Y6837171D01*
X1549654Y6823710D01*
X1549654Y6814565D01*
X1554226Y6800850D01*
X1563370Y6791705D01*
X1572513Y6787134D01*
X1585976Y6787134D01*
X1595120Y6791705D01*
X1604263Y6800850D01*
X1704086Y6882637D02*
G01*
X1704086Y6787134D01*
X1704086Y6837171D02*
G01*
X1713229Y6846315D01*
X1722373Y6850887D01*
X1736089Y6850887D01*
X1745234Y6846315D01*
X1754123Y6837171D01*
X1758695Y6823710D01*
X1758695Y6814565D01*
X1754123Y6800850D01*
X1745234Y6791705D01*
X1736089Y6787134D01*
X1722373Y6787134D01*
X1713229Y6791705D01*
X1704086Y6800850D01*
X1793239Y6850887D02*
G01*
X1820671Y6787134D01*
X1847850Y6850887D02*
G01*
X1820671Y6787134D01*
X1811528Y6769100D01*
X1802384Y6759955D01*
X1793239Y6755384D01*
X1788668Y6755384D01*
X1947925Y6882637D02*
G01*
X1947925Y6787134D01*
X1947925Y6882637D02*
G01*
X1984247Y6787134D01*
X2020570Y6882637D02*
G01*
X1984247Y6787134D01*
X2020570Y6882637D02*
G01*
X2020570Y6787134D01*
X2050541Y6882637D02*
G01*
X2055113Y6878065D01*
X2059686Y6882637D01*
X2055113Y6887210D01*
X2050541Y6882637D01*
X2055113Y6850887D02*
G01*
X2055113Y6787134D01*
X2089658Y6882637D02*
G01*
X2089658Y6787134D01*
X2174240Y6850887D02*
G01*
X2174240Y6787134D01*
X2174240Y6837171D02*
G01*
X2165095Y6846315D01*
X2155952Y6850887D01*
X2142490Y6850887D01*
X2133345Y6846315D01*
X2124202Y6837171D01*
X2119629Y6823710D01*
X2119629Y6814565D01*
X2124202Y6800850D01*
X2133345Y6791705D01*
X2142490Y6787134D01*
X2155952Y6787134D01*
X2165095Y6791705D01*
X2174240Y6800850D01*
X2204211Y6850887D02*
G01*
X2204211Y6787134D01*
X2204211Y6832600D02*
G01*
X2217927Y6846315D01*
X2226818Y6850887D01*
X2240534Y6850887D01*
X2249677Y6846315D01*
X2254250Y6832600D01*
X2254250Y6787134D01*
X2354325Y6882637D02*
G01*
X2390647Y6787134D01*
X2426970Y6882637D02*
G01*
X2390647Y6787134D01*
X2456941Y6882637D02*
G01*
X2461513Y6878065D01*
X2466086Y6882637D01*
X2461513Y6887210D01*
X2456941Y6882637D01*
X2461513Y6850887D02*
G01*
X2461513Y6787134D01*
X2550668Y6882637D02*
G01*
X2550668Y6787134D01*
X2550668Y6837171D02*
G01*
X2541524Y6846315D01*
X2532379Y6850887D01*
X2518663Y6850887D01*
X2509774Y6846315D01*
X2500629Y6837171D01*
X2496058Y6823710D01*
X2496058Y6814565D01*
X2500629Y6800850D01*
X2509774Y6791705D01*
X2518663Y6787134D01*
X2532379Y6787134D01*
X2541524Y6791705D01*
X2550668Y6800850D01*
X2634995Y6850887D02*
G01*
X2634995Y6787134D01*
X2634995Y6837171D02*
G01*
X2626106Y6846315D01*
X2616961Y6850887D01*
X2603245Y6850887D01*
X2594102Y6846315D01*
X2585211Y6837171D01*
X2580640Y6823710D01*
X2580640Y6814565D01*
X2585211Y6800850D01*
X2594102Y6791705D01*
X2603245Y6787134D01*
X2616961Y6787134D01*
X2626106Y6791705D01*
X2634995Y6800850D01*
X2665222Y6882637D02*
G01*
X2665222Y6787134D01*
X2710688Y6850887D02*
G01*
X2665222Y6805421D01*
X2683256Y6823710D02*
G01*
X2715006Y6787134D01*
X2767838Y6850887D02*
G01*
X2758693Y6846315D01*
X2749550Y6837171D01*
X2745231Y6823710D01*
X2745231Y6814565D01*
X2749550Y6800850D01*
X2758693Y6791705D01*
X2767838Y6787134D01*
X2781554Y6787134D01*
X2790697Y6791705D01*
X2799588Y6800850D01*
X2804159Y6814565D01*
X2804159Y6823710D01*
X2799588Y6837171D01*
X2790697Y6846315D01*
X2781554Y6850887D01*
X2767838Y6850887D01*
X2834131Y6850887D02*
G01*
X2861563Y6787134D01*
X2888741Y6850887D02*
G01*
X2861563Y6787134D01*
X2918713Y6882637D02*
G01*
X2923286Y6878065D01*
X2927858Y6882637D01*
X2923286Y6887210D01*
X2918713Y6882637D01*
X2923286Y6850887D02*
G01*
X2923286Y6787134D01*
X3012440Y6837171D02*
G01*
X3003295Y6846315D01*
X2994152Y6850887D01*
X2980690Y6850887D01*
X2971545Y6846315D01*
X2962402Y6837171D01*
X2957829Y6823710D01*
X2957829Y6814565D01*
X2962402Y6800850D01*
X2971545Y6791705D01*
X2980690Y6787134D01*
X2994152Y6787134D01*
X3003295Y6791705D01*
X3012440Y6800850D01*
D24*
X3494277Y6833108D02*
G01*
X3488943Y6843521D01*
X3478529Y6853936D01*
X3468370Y6859015D01*
X3447541Y6859015D01*
X3437127Y6853936D01*
X3426713Y6843521D01*
X3421379Y6833108D01*
X3416300Y6817360D01*
X3416300Y6791452D01*
X3421379Y6775958D01*
X3426713Y6765544D01*
X3437127Y6755129D01*
X3447541Y6750050D01*
X3468370Y6750050D01*
X3478529Y6755129D01*
X3488943Y6765544D01*
X3494277Y6775958D01*
X3494277Y6791452D01*
X3468370Y6791452D02*
G01*
X3494277Y6791452D01*
X3528568Y6859015D02*
G01*
X3528568Y6750050D01*
X3528568Y6859015D02*
G01*
X3575304Y6859015D01*
X3590797Y6853936D01*
X3596131Y6848602D01*
X3601211Y6838187D01*
X3601211Y6822694D01*
X3596131Y6812279D01*
X3590797Y6807200D01*
X3575304Y6801865D01*
X3528568Y6801865D01*
X3635502Y6859015D02*
G01*
X3635502Y6750050D01*
X3701034Y6859015D02*
G01*
X3690620Y6853936D01*
X3680206Y6843521D01*
X3675125Y6833108D01*
X3669791Y6817360D01*
X3669791Y6791452D01*
X3675125Y6775958D01*
X3680206Y6765544D01*
X3690620Y6755129D01*
X3701034Y6750050D01*
X3721861Y6750050D01*
X3732275Y6755129D01*
X3742690Y6765544D01*
X3747770Y6775958D01*
X3752850Y6791452D01*
X3752850Y6817360D01*
X3747770Y6833108D01*
X3742690Y6843521D01*
X3732275Y6853936D01*
X3721861Y6859015D01*
X3701034Y6859015D01*
X3818381Y6859015D02*
G01*
X3802888Y6853936D01*
X3792474Y6838187D01*
X3787140Y6812279D01*
X3787140Y6796786D01*
X3792474Y6770623D01*
X3802888Y6755129D01*
X3818381Y6750050D01*
X3828795Y6750050D01*
X3844290Y6755129D01*
X3854704Y6770623D01*
X3860038Y6796786D01*
X3860038Y6812279D01*
X3854704Y6838187D01*
X3844290Y6853936D01*
X3828795Y6859015D01*
X3818381Y6859015D01*
X2870200Y9805415D02*
G01*
X2870200Y9696450D01*
X2942843Y9805415D02*
G01*
X2870200Y9732771D01*
X2896108Y9758679D02*
G01*
X2942843Y9696450D01*
X2977134Y9805415D02*
G01*
X2977134Y9696450D01*
X2977134Y9805415D02*
G01*
X3044697Y9805415D01*
X2977134Y9753600D02*
G01*
X3018790Y9753600D01*
X2977134Y9696450D02*
G01*
X3044697Y9696450D01*
X3078988Y9805415D02*
G01*
X3120643Y9753600D01*
X3120643Y9696450D01*
X3162300Y9805415D02*
G01*
X3120643Y9753600D01*
X3196590Y9805415D02*
G01*
X3196590Y9696450D01*
X3196590Y9805415D02*
G01*
X3243325Y9805415D01*
X3258820Y9800336D01*
X3263900Y9795002D01*
X3269234Y9784587D01*
X3269234Y9774174D01*
X3263900Y9763760D01*
X3258820Y9758679D01*
X3243325Y9753600D01*
X3196590Y9753600D02*
G01*
X3243325Y9753600D01*
X3258820Y9748265D01*
X3263900Y9743186D01*
X3269234Y9732771D01*
X3269234Y9717024D01*
X3263900Y9706610D01*
X3258820Y9701529D01*
X3243325Y9696450D01*
X3196590Y9696450D01*
X3334765Y9805415D02*
G01*
X3324352Y9800336D01*
X3313938Y9789921D01*
X3308604Y9779508D01*
X3303524Y9763760D01*
X3303524Y9737852D01*
X3308604Y9722358D01*
X3313938Y9711944D01*
X3324352Y9701529D01*
X3334765Y9696450D01*
X3355340Y9696450D01*
X3365754Y9701529D01*
X3376168Y9711944D01*
X3381502Y9722358D01*
X3386581Y9737852D01*
X3386581Y9763760D01*
X3381502Y9779508D01*
X3376168Y9789921D01*
X3365754Y9800336D01*
X3355340Y9805415D01*
X3334765Y9805415D01*
X3462527Y9805415D02*
G01*
X3420872Y9696450D01*
X3462527Y9805415D02*
G01*
X3503929Y9696450D01*
X3436620Y9732771D02*
G01*
X3488436Y9732771D01*
X3538220Y9805415D02*
G01*
X3538220Y9696450D01*
X3538220Y9805415D02*
G01*
X3585209Y9805415D01*
X3600704Y9800336D01*
X3605784Y9795002D01*
X3611118Y9784587D01*
X3611118Y9774174D01*
X3605784Y9763760D01*
X3600704Y9758679D01*
X3585209Y9753600D01*
X3538220Y9753600D01*
X3574795Y9753600D02*
G01*
X3611118Y9696450D01*
X3645408Y9805415D02*
G01*
X3645408Y9696450D01*
X3645408Y9805415D02*
G01*
X3681729Y9805415D01*
X3697224Y9800336D01*
X3707638Y9789921D01*
X3712972Y9779508D01*
X3718052Y9763760D01*
X3718052Y9737852D01*
X3712972Y9722358D01*
X3707638Y9711944D01*
X3697224Y9701529D01*
X3681729Y9696450D01*
X3645408Y9696450D01*
X3073400Y10158221D02*
G01*
X3077972Y10160508D01*
X3084829Y10167365D01*
X3084829Y10118852D01*
X3314445Y10155936D02*
G01*
X3314445Y10158221D01*
X3316731Y10162794D01*
X3319018Y10165079D01*
X3323590Y10167365D01*
X3332988Y10167365D01*
X3337559Y10165079D01*
X3339845Y10162794D01*
X3342131Y10158221D01*
X3342131Y10153650D01*
X3339845Y10148824D01*
X3335274Y10141965D01*
X3312159Y10118852D01*
X3344418Y10118852D01*
X2849372Y10167365D02*
G01*
X2874772Y10167365D01*
X2861056Y10148824D01*
X2867913Y10148824D01*
X2872486Y10146537D01*
X2874772Y10144252D01*
X2877058Y10137394D01*
X2877058Y10132821D01*
X2874772Y10125710D01*
X2870200Y10121137D01*
X2863341Y10118852D01*
X2856229Y10118852D01*
X2849372Y10121137D01*
X2847086Y10123424D01*
X2844800Y10128250D01*
X3553713Y10162286D02*
G01*
X3530600Y10130028D01*
X3565143Y10130028D01*
X3553713Y10162286D02*
G01*
X3553713Y10113771D01*
X2864865Y9918445D02*
G01*
X2841752Y9918445D01*
X2839465Y9897618D01*
X2841752Y9899904D01*
X2848609Y9902189D01*
X2855722Y9902189D01*
X2862579Y9899904D01*
X2867152Y9895331D01*
X2869438Y9888474D01*
X2869438Y9883902D01*
X2867152Y9876789D01*
X2862579Y9872218D01*
X2855722Y9869931D01*
X2848609Y9869931D01*
X2841752Y9872218D01*
X2839465Y9874504D01*
X2837179Y9879329D01*
X3540506Y9906508D02*
G01*
X3538220Y9911079D01*
X3531361Y9913365D01*
X3526790Y9913365D01*
X3519677Y9911079D01*
X3515106Y9904221D01*
X3512820Y9892537D01*
X3512820Y9881108D01*
X3515106Y9871710D01*
X3519677Y9867137D01*
X3526790Y9864852D01*
X3529075Y9864852D01*
X3535934Y9867137D01*
X3540506Y9871710D01*
X3542791Y9878821D01*
X3542791Y9881108D01*
X3540506Y9887965D01*
X3535934Y9892537D01*
X3529075Y9894824D01*
X3526790Y9894824D01*
X3519677Y9892537D01*
X3515106Y9887965D01*
X3512820Y9881108D01*
X4787900Y9805415D02*
G01*
X4787900Y9696450D01*
X4787900Y9805415D02*
G01*
X4829556Y9696450D01*
X4870958Y9805415D02*
G01*
X4829556Y9696450D01*
X4870958Y9805415D02*
G01*
X4870958Y9696450D01*
X4936490Y9805415D02*
G01*
X4926075Y9800336D01*
X4915661Y9789921D01*
X4910581Y9779508D01*
X4905247Y9763760D01*
X4905247Y9737852D01*
X4910581Y9722358D01*
X4915661Y9711944D01*
X4926075Y9701529D01*
X4936490Y9696450D01*
X4957318Y9696450D01*
X4967731Y9701529D01*
X4978145Y9711944D01*
X4983225Y9722358D01*
X4988559Y9737852D01*
X4988559Y9763760D01*
X4983225Y9779508D01*
X4978145Y9789921D01*
X4967731Y9800336D01*
X4957318Y9805415D01*
X4936490Y9805415D01*
X5022850Y9805415D02*
G01*
X5022850Y9727437D01*
X5027929Y9711944D01*
X5038343Y9701529D01*
X5053838Y9696450D01*
X5064252Y9696450D01*
X5080000Y9701529D01*
X5090159Y9711944D01*
X5095493Y9727437D01*
X5095493Y9805415D01*
X5202427Y9789921D02*
G01*
X5192013Y9800336D01*
X5176520Y9805415D01*
X5155691Y9805415D01*
X5140197Y9800336D01*
X5129784Y9789921D01*
X5129784Y9779508D01*
X5134863Y9769094D01*
X5140197Y9763760D01*
X5150611Y9758679D01*
X5181600Y9748265D01*
X5192013Y9743186D01*
X5197347Y9737852D01*
X5202427Y9727437D01*
X5202427Y9711944D01*
X5192013Y9701529D01*
X5176520Y9696450D01*
X5155691Y9696450D01*
X5140197Y9701529D01*
X5129784Y9711944D01*
X5236718Y9805415D02*
G01*
X5236718Y9696450D01*
X5236718Y9805415D02*
G01*
X5304281Y9805415D01*
X5236718Y9753600D02*
G01*
X5278374Y9753600D01*
X5236718Y9696450D02*
G01*
X5304281Y9696450D01*
X4864100Y10158221D02*
G01*
X4868672Y10160508D01*
X4875529Y10167365D01*
X4875529Y10118852D01*
X5105145Y10155936D02*
G01*
X5105145Y10158221D01*
X5107431Y10162794D01*
X5109718Y10165079D01*
X5114290Y10167365D01*
X5123688Y10167365D01*
X5128259Y10165079D01*
X5130545Y10162794D01*
X5132831Y10158221D01*
X5132831Y10153650D01*
X5130545Y10148824D01*
X5125974Y10141965D01*
X5102859Y10118852D01*
X5135118Y10118852D01*
X4640072Y10167365D02*
G01*
X4665472Y10167365D01*
X4651756Y10148824D01*
X4658613Y10148824D01*
X4663186Y10146537D01*
X4665472Y10144252D01*
X4667758Y10137394D01*
X4667758Y10132821D01*
X4665472Y10125710D01*
X4660900Y10121137D01*
X4654041Y10118852D01*
X4646929Y10118852D01*
X4640072Y10121137D01*
X4637786Y10123424D01*
X4635500Y10128250D01*
X5344413Y10162286D02*
G01*
X5321300Y10130028D01*
X5355843Y10130028D01*
X5344413Y10162286D02*
G01*
X5344413Y10113771D01*
X4655565Y9918445D02*
G01*
X4632452Y9918445D01*
X4630165Y9897618D01*
X4632452Y9899904D01*
X4639309Y9902189D01*
X4646422Y9902189D01*
X4653279Y9899904D01*
X4657852Y9895331D01*
X4660138Y9888474D01*
X4660138Y9883902D01*
X4657852Y9876789D01*
X4653279Y9872218D01*
X4646422Y9869931D01*
X4639309Y9869931D01*
X4632452Y9872218D01*
X4630165Y9874504D01*
X4627879Y9879329D01*
X5331206Y9906508D02*
G01*
X5328920Y9911079D01*
X5322061Y9913365D01*
X5317490Y9913365D01*
X5310377Y9911079D01*
X5305806Y9904221D01*
X5303520Y9892537D01*
X5303520Y9881108D01*
X5305806Y9871710D01*
X5310377Y9867137D01*
X5317490Y9864852D01*
X5319775Y9864852D01*
X5326634Y9867137D01*
X5331206Y9871710D01*
X5333491Y9878821D01*
X5333491Y9881108D01*
X5331206Y9887965D01*
X5326634Y9892537D01*
X5319775Y9894824D01*
X5317490Y9894824D01*
X5310377Y9892537D01*
X5305806Y9887965D01*
X5303520Y9881108D01*
X1727200Y7786115D02*
G01*
X1768855Y7677150D01*
X1810257Y7786115D02*
G01*
X1768855Y7677150D01*
X1922526Y7760208D02*
G01*
X1917445Y7770621D01*
X1907031Y7781036D01*
X1896618Y7786115D01*
X1875789Y7786115D01*
X1865376Y7781036D01*
X1854962Y7770621D01*
X1849881Y7760208D01*
X1844547Y7744460D01*
X1844547Y7718552D01*
X1849881Y7703058D01*
X1854962Y7692644D01*
X1865376Y7682229D01*
X1875789Y7677150D01*
X1896618Y7677150D01*
X1907031Y7682229D01*
X1917445Y7692644D01*
X1922526Y7703058D01*
X2034793Y7760208D02*
G01*
X2029459Y7770621D01*
X2019300Y7781036D01*
X2008886Y7786115D01*
X1988058Y7786115D01*
X1977643Y7781036D01*
X1967229Y7770621D01*
X1962150Y7760208D01*
X1956815Y7744460D01*
X1956815Y7718552D01*
X1962150Y7703058D01*
X1967229Y7692644D01*
X1977643Y7682229D01*
X1988058Y7677150D01*
X2008886Y7677150D01*
X2019300Y7682229D01*
X2029459Y7692644D01*
X2034793Y7703058D01*
X2105406Y7806944D02*
G01*
X2094991Y7796529D01*
X2084577Y7781036D01*
X2074163Y7760208D01*
X2069084Y7734300D01*
X2069084Y7713471D01*
X2074163Y7687310D01*
X2084577Y7666736D01*
X2094991Y7650987D01*
X2105406Y7640573D01*
X2202179Y7786115D02*
G01*
X2150109Y7786115D01*
X2145029Y7739379D01*
X2150109Y7744460D01*
X2165604Y7749794D01*
X2181352Y7749794D01*
X2196845Y7744460D01*
X2207259Y7734300D01*
X2212340Y7718552D01*
X2212340Y7708137D01*
X2207259Y7692644D01*
X2196845Y7682229D01*
X2181352Y7677150D01*
X2165604Y7677150D01*
X2150109Y7682229D01*
X2145029Y7687310D01*
X2139695Y7697723D01*
X2246629Y7786115D02*
G01*
X2288286Y7677150D01*
X2329941Y7786115D02*
G01*
X2288286Y7677150D01*
X2364231Y7806944D02*
G01*
X2374645Y7796529D01*
X2385059Y7781036D01*
X2395220Y7760208D01*
X2400554Y7734300D01*
X2400554Y7713471D01*
X2395220Y7687310D01*
X2385059Y7666736D01*
X2374645Y7650987D01*
X2364231Y7640573D01*
X6121400Y8776715D02*
G01*
X6121400Y8698737D01*
X6126479Y8683244D01*
X6136893Y8672829D01*
X6152641Y8667750D01*
X6163056Y8667750D01*
X6178550Y8672829D01*
X6188963Y8683244D01*
X6194043Y8698737D01*
X6194043Y8776715D01*
X6269990Y8776715D02*
G01*
X6228334Y8667750D01*
X6269990Y8776715D02*
G01*
X6311645Y8667750D01*
X6244081Y8704071D02*
G01*
X6295897Y8704071D01*
X6345936Y8776715D02*
G01*
X6345936Y8667750D01*
X6345936Y8776715D02*
G01*
X6392672Y8776715D01*
X6408165Y8771636D01*
X6413500Y8766302D01*
X6418579Y8755887D01*
X6418579Y8745474D01*
X6413500Y8735060D01*
X6408165Y8729979D01*
X6392672Y8724900D01*
X6345936Y8724900D01*
X6382258Y8724900D02*
G01*
X6418579Y8667750D01*
X6489191Y8776715D02*
G01*
X6489191Y8667750D01*
X6452870Y8776715D02*
G01*
X6525513Y8776715D01*
X4013200Y8090915D02*
G01*
X4013200Y7981950D01*
X4013200Y8090915D02*
G01*
X4059936Y8090915D01*
X4075429Y8085836D01*
X4080763Y8080502D01*
X4085843Y8070087D01*
X4085843Y8059673D01*
X4080763Y8049260D01*
X4075429Y8044179D01*
X4059936Y8039100D01*
X4013200Y8039100D01*
X4049522Y8039100D02*
G01*
X4085843Y7981950D01*
X4172204Y8090915D02*
G01*
X4120134Y8018271D01*
X4198111Y8018271D01*
X4172204Y8090915D02*
G01*
X4172204Y7981950D01*
X4268724Y8111744D02*
G01*
X4258309Y8101329D01*
X4248150Y8085836D01*
X4237736Y8065008D01*
X4232402Y8039100D01*
X4232402Y8018271D01*
X4237736Y7992110D01*
X4248150Y7971536D01*
X4258309Y7955787D01*
X4268724Y7945373D01*
X4365497Y8075421D02*
G01*
X4360163Y8085836D01*
X4344670Y8090915D01*
X4334256Y8090915D01*
X4318761Y8085836D01*
X4308347Y8070087D01*
X4303013Y8044179D01*
X4303013Y8018271D01*
X4308347Y7997444D01*
X4318761Y7987029D01*
X4334256Y7981950D01*
X4339590Y7981950D01*
X4355084Y7987029D01*
X4365497Y7997444D01*
X4370577Y8012937D01*
X4370577Y8018271D01*
X4365497Y8033765D01*
X4355084Y8044179D01*
X4339590Y8049260D01*
X4334256Y8049260D01*
X4318761Y8044179D01*
X4308347Y8033765D01*
X4303013Y8018271D01*
X4431029Y8090915D02*
G01*
X4415281Y8085836D01*
X4410202Y8075421D01*
X4410202Y8065008D01*
X4415281Y8054594D01*
X4425695Y8049260D01*
X4446524Y8044179D01*
X4462018Y8039100D01*
X4472431Y8028686D01*
X4477765Y8018271D01*
X4477765Y8002523D01*
X4472431Y7992110D01*
X4467352Y7987029D01*
X4451604Y7981950D01*
X4431029Y7981950D01*
X4415281Y7987029D01*
X4410202Y7992110D01*
X4404868Y8002523D01*
X4404868Y8018271D01*
X4410202Y8028686D01*
X4420615Y8039100D01*
X4436109Y8044179D01*
X4456938Y8049260D01*
X4467352Y8054594D01*
X4472431Y8065008D01*
X4472431Y8075421D01*
X4467352Y8085836D01*
X4451604Y8090915D01*
X4431029Y8090915D01*
X4512056Y8111744D02*
G01*
X4522470Y8101329D01*
X4532629Y8085836D01*
X4543043Y8065008D01*
X4548377Y8039100D01*
X4548377Y8018271D01*
X4543043Y7992110D01*
X4532629Y7971536D01*
X4522470Y7955787D01*
X4512056Y7945373D01*
X4000500Y7735315D02*
G01*
X4000500Y7626350D01*
X4000500Y7735315D02*
G01*
X4047236Y7735315D01*
X4062729Y7730236D01*
X4068063Y7724902D01*
X4073143Y7714487D01*
X4073143Y7704073D01*
X4068063Y7693660D01*
X4062729Y7688579D01*
X4047236Y7683500D01*
X4000500Y7683500D01*
X4036822Y7683500D02*
G01*
X4073143Y7626350D01*
X4169918Y7735315D02*
G01*
X4117847Y7735315D01*
X4112768Y7688579D01*
X4117847Y7693660D01*
X4133595Y7698994D01*
X4149090Y7698994D01*
X4164584Y7693660D01*
X4174997Y7683500D01*
X4180331Y7667752D01*
X4180331Y7657337D01*
X4174997Y7641844D01*
X4164584Y7631429D01*
X4149090Y7626350D01*
X4133595Y7626350D01*
X4117847Y7631429D01*
X4112768Y7636510D01*
X4107434Y7646923D01*
X4250943Y7756144D02*
G01*
X4240529Y7745729D01*
X4230115Y7730236D01*
X4219702Y7709408D01*
X4214622Y7683500D01*
X4214622Y7662671D01*
X4219702Y7636510D01*
X4230115Y7615936D01*
X4240529Y7600187D01*
X4250943Y7589773D01*
X4347463Y7719821D02*
G01*
X4342384Y7730236D01*
X4326890Y7735315D01*
X4316475Y7735315D01*
X4300727Y7730236D01*
X4290313Y7714487D01*
X4285234Y7688579D01*
X4285234Y7662671D01*
X4290313Y7641844D01*
X4300727Y7631429D01*
X4316475Y7626350D01*
X4321556Y7626350D01*
X4337050Y7631429D01*
X4347463Y7641844D01*
X4352797Y7657337D01*
X4352797Y7662671D01*
X4347463Y7678165D01*
X4337050Y7688579D01*
X4321556Y7693660D01*
X4316475Y7693660D01*
X4300727Y7688579D01*
X4290313Y7678165D01*
X4285234Y7662671D01*
X4412995Y7735315D02*
G01*
X4397502Y7730236D01*
X4392168Y7719821D01*
X4392168Y7709408D01*
X4397502Y7698994D01*
X4407915Y7693660D01*
X4428490Y7688579D01*
X4444238Y7683500D01*
X4454652Y7673086D01*
X4459731Y7662671D01*
X4459731Y7646923D01*
X4454652Y7636510D01*
X4449318Y7631429D01*
X4433824Y7626350D01*
X4412995Y7626350D01*
X4397502Y7631429D01*
X4392168Y7636510D01*
X4387088Y7646923D01*
X4387088Y7662671D01*
X4392168Y7673086D01*
X4402581Y7683500D01*
X4418329Y7688579D01*
X4438904Y7693660D01*
X4449318Y7698994D01*
X4454652Y7709408D01*
X4454652Y7719821D01*
X4449318Y7730236D01*
X4433824Y7735315D01*
X4412995Y7735315D01*
X4494022Y7756144D02*
G01*
X4504436Y7745729D01*
X4514850Y7730236D01*
X4525263Y7709408D01*
X4530343Y7683500D01*
X4530343Y7662671D01*
X4525263Y7636510D01*
X4514850Y7615936D01*
X4504436Y7600187D01*
X4494022Y7589773D01*
X5486400Y7113015D02*
G01*
X5486400Y7035037D01*
X5491479Y7019544D01*
X5501893Y7009129D01*
X5517641Y7004050D01*
X5528056Y7004050D01*
X5543550Y7009129D01*
X5553963Y7019544D01*
X5559043Y7035037D01*
X5559043Y7113015D01*
X5598668Y7087108D02*
G01*
X5598668Y7092187D01*
X5603747Y7102602D01*
X5609081Y7107936D01*
X5619495Y7113015D01*
X5640070Y7113015D01*
X5650484Y7107936D01*
X5655818Y7102602D01*
X5660897Y7092187D01*
X5660897Y7081773D01*
X5655818Y7071360D01*
X5645404Y7055865D01*
X5593334Y7004050D01*
X5666231Y7004050D01*
X3987800Y9627615D02*
G01*
X3987800Y9518650D01*
X3987800Y9627615D02*
G01*
X4034536Y9627615D01*
X4050029Y9622536D01*
X4055363Y9617202D01*
X4060443Y9606787D01*
X4060443Y9596374D01*
X4055363Y9585960D01*
X4050029Y9580879D01*
X4034536Y9575800D01*
X3987800Y9575800D01*
X4024122Y9575800D02*
G01*
X4060443Y9518650D01*
X4157218Y9612121D02*
G01*
X4151884Y9622536D01*
X4136390Y9627615D01*
X4125975Y9627615D01*
X4110481Y9622536D01*
X4100068Y9606787D01*
X4094734Y9580879D01*
X4094734Y9554971D01*
X4100068Y9534144D01*
X4110481Y9523729D01*
X4125975Y9518650D01*
X4131309Y9518650D01*
X4146804Y9523729D01*
X4157218Y9534144D01*
X4162297Y9549637D01*
X4162297Y9554971D01*
X4157218Y9570465D01*
X4146804Y9580879D01*
X4131309Y9585960D01*
X4125975Y9585960D01*
X4110481Y9580879D01*
X4100068Y9570465D01*
X4094734Y9554971D01*
X4232909Y9648444D02*
G01*
X4222750Y9638029D01*
X4212336Y9622536D01*
X4201922Y9601708D01*
X4196588Y9575800D01*
X4196588Y9554971D01*
X4201922Y9528810D01*
X4212336Y9508236D01*
X4222750Y9492487D01*
X4232909Y9482074D01*
X4319270Y9627615D02*
G01*
X4267200Y9554971D01*
X4345177Y9554971D01*
X4319270Y9627615D02*
G01*
X4319270Y9518650D01*
X4379468Y9627615D02*
G01*
X4379468Y9518650D01*
X4452365Y9627615D02*
G01*
X4379468Y9554971D01*
X4405629Y9580879D02*
G01*
X4452365Y9518650D01*
X4559300Y9627615D02*
G01*
X4507229Y9518650D01*
X4486656Y9627615D02*
G01*
X4559300Y9627615D01*
X4593590Y9648444D02*
G01*
X4604004Y9638029D01*
X4614418Y9622536D01*
X4624831Y9601708D01*
X4629911Y9575800D01*
X4629911Y9554971D01*
X4624831Y9528810D01*
X4614418Y9508236D01*
X4604004Y9492487D01*
X4593590Y9482074D01*
X5080000Y9614915D02*
G01*
X5080000Y9505950D01*
X5080000Y9614915D02*
G01*
X5126736Y9614915D01*
X5142229Y9609836D01*
X5147563Y9604502D01*
X5152643Y9594087D01*
X5152643Y9583674D01*
X5147563Y9573260D01*
X5142229Y9568179D01*
X5126736Y9563100D01*
X5080000Y9563100D01*
X5116322Y9563100D02*
G01*
X5152643Y9505950D01*
X5259831Y9614915D02*
G01*
X5207761Y9505950D01*
X5186934Y9614915D02*
G01*
X5259831Y9614915D01*
X5330443Y9635744D02*
G01*
X5320029Y9625329D01*
X5309615Y9609836D01*
X5299202Y9589008D01*
X5294122Y9563100D01*
X5294122Y9542271D01*
X5299202Y9516110D01*
X5309615Y9495536D01*
X5320029Y9479787D01*
X5330443Y9469374D01*
X5390641Y9614915D02*
G01*
X5375147Y9609836D01*
X5369813Y9599421D01*
X5369813Y9589008D01*
X5375147Y9578594D01*
X5385561Y9573260D01*
X5406390Y9568179D01*
X5421884Y9563100D01*
X5432297Y9552686D01*
X5437377Y9542271D01*
X5437377Y9526524D01*
X5432297Y9516110D01*
X5426963Y9511029D01*
X5411470Y9505950D01*
X5390641Y9505950D01*
X5375147Y9511029D01*
X5369813Y9516110D01*
X5364734Y9526524D01*
X5364734Y9542271D01*
X5369813Y9552686D01*
X5380227Y9563100D01*
X5395975Y9568179D01*
X5416550Y9573260D01*
X5426963Y9578594D01*
X5432297Y9589008D01*
X5432297Y9599421D01*
X5426963Y9609836D01*
X5411470Y9614915D01*
X5390641Y9614915D01*
X5471668Y9614915D02*
G01*
X5471668Y9505950D01*
X5544565Y9614915D02*
G01*
X5471668Y9542271D01*
X5497829Y9568179D02*
G01*
X5544565Y9505950D01*
X5578856Y9635744D02*
G01*
X5589270Y9625329D01*
X5599429Y9609836D01*
X5609843Y9589008D01*
X5615177Y9563100D01*
X5615177Y9542271D01*
X5609843Y9516110D01*
X5599429Y9495536D01*
X5589270Y9479787D01*
X5578856Y9469374D01*
X4000500Y9208515D02*
G01*
X4000500Y9099550D01*
X4000500Y9208515D02*
G01*
X4047236Y9208515D01*
X4062729Y9203436D01*
X4068063Y9198102D01*
X4073143Y9187687D01*
X4073143Y9177274D01*
X4068063Y9166860D01*
X4062729Y9161779D01*
X4047236Y9156700D01*
X4000500Y9156700D01*
X4036822Y9156700D02*
G01*
X4073143Y9099550D01*
X4133595Y9208515D02*
G01*
X4117847Y9203436D01*
X4112768Y9193021D01*
X4112768Y9182608D01*
X4117847Y9172194D01*
X4128261Y9166860D01*
X4149090Y9161779D01*
X4164584Y9156700D01*
X4174997Y9146286D01*
X4180331Y9135871D01*
X4180331Y9120124D01*
X4174997Y9109710D01*
X4169918Y9104629D01*
X4154170Y9099550D01*
X4133595Y9099550D01*
X4117847Y9104629D01*
X4112768Y9109710D01*
X4107434Y9120124D01*
X4107434Y9135871D01*
X4112768Y9146286D01*
X4123181Y9156700D01*
X4138675Y9161779D01*
X4159504Y9166860D01*
X4169918Y9172194D01*
X4174997Y9182608D01*
X4174997Y9193021D01*
X4169918Y9203436D01*
X4154170Y9208515D01*
X4133595Y9208515D01*
X4250943Y9229344D02*
G01*
X4240529Y9218929D01*
X4230115Y9203436D01*
X4219702Y9182608D01*
X4214622Y9156700D01*
X4214622Y9135871D01*
X4219702Y9109710D01*
X4230115Y9089136D01*
X4240529Y9073387D01*
X4250943Y9062974D01*
X4337050Y9208515D02*
G01*
X4285234Y9135871D01*
X4363211Y9135871D01*
X4337050Y9208515D02*
G01*
X4337050Y9099550D01*
X4397502Y9208515D02*
G01*
X4397502Y9099550D01*
X4470145Y9208515D02*
G01*
X4397502Y9135871D01*
X4423409Y9161779D02*
G01*
X4470145Y9099550D01*
X4577079Y9208515D02*
G01*
X4525263Y9099550D01*
X4504436Y9208515D02*
G01*
X4577079Y9208515D01*
X4611370Y9229344D02*
G01*
X4621784Y9218929D01*
X4632197Y9203436D01*
X4642611Y9182608D01*
X4647945Y9156700D01*
X4647945Y9135871D01*
X4642611Y9109710D01*
X4632197Y9089136D01*
X4621784Y9073387D01*
X4611370Y9062974D01*
X5080000Y9208515D02*
G01*
X5080000Y9099550D01*
X5080000Y9208515D02*
G01*
X5126736Y9208515D01*
X5142229Y9203436D01*
X5147563Y9198102D01*
X5152643Y9187687D01*
X5152643Y9177274D01*
X5147563Y9166860D01*
X5142229Y9161779D01*
X5126736Y9156700D01*
X5080000Y9156700D01*
X5116322Y9156700D02*
G01*
X5152643Y9099550D01*
X5254497Y9172194D02*
G01*
X5249418Y9156700D01*
X5239004Y9146286D01*
X5223509Y9140952D01*
X5218175Y9140952D01*
X5202681Y9146286D01*
X5192268Y9156700D01*
X5186934Y9172194D01*
X5186934Y9177274D01*
X5192268Y9193021D01*
X5202681Y9203436D01*
X5218175Y9208515D01*
X5223509Y9208515D01*
X5239004Y9203436D01*
X5249418Y9193021D01*
X5254497Y9172194D01*
X5254497Y9146286D01*
X5249418Y9120124D01*
X5239004Y9104629D01*
X5223509Y9099550D01*
X5213095Y9099550D01*
X5197347Y9104629D01*
X5192268Y9115044D01*
X5325109Y9229344D02*
G01*
X5314950Y9218929D01*
X5304536Y9203436D01*
X5294122Y9182608D01*
X5288788Y9156700D01*
X5288788Y9135871D01*
X5294122Y9109710D01*
X5304536Y9089136D01*
X5314950Y9073387D01*
X5325109Y9062974D01*
X5385561Y9208515D02*
G01*
X5369813Y9203436D01*
X5364734Y9193021D01*
X5364734Y9182608D01*
X5369813Y9172194D01*
X5380227Y9166860D01*
X5401056Y9161779D01*
X5416550Y9156700D01*
X5426963Y9146286D01*
X5432297Y9135871D01*
X5432297Y9120124D01*
X5426963Y9109710D01*
X5421884Y9104629D01*
X5406390Y9099550D01*
X5385561Y9099550D01*
X5369813Y9104629D01*
X5364734Y9109710D01*
X5359400Y9120124D01*
X5359400Y9135871D01*
X5364734Y9146286D01*
X5375147Y9156700D01*
X5390641Y9161779D01*
X5411470Y9166860D01*
X5421884Y9172194D01*
X5426963Y9182608D01*
X5426963Y9193021D01*
X5421884Y9203436D01*
X5406390Y9208515D01*
X5385561Y9208515D01*
X5466588Y9208515D02*
G01*
X5466588Y9099550D01*
X5539231Y9208515D02*
G01*
X5466588Y9135871D01*
X5492495Y9161779D02*
G01*
X5539231Y9099550D01*
X5573522Y9229344D02*
G01*
X5583936Y9218929D01*
X5594350Y9203436D01*
X5604763Y9182608D01*
X5609843Y9156700D01*
X5609843Y9135871D01*
X5604763Y9109710D01*
X5594350Y9089136D01*
X5583936Y9073387D01*
X5573522Y9062974D01*
X4000500Y8852915D02*
G01*
X4000500Y8743950D01*
X4000500Y8852915D02*
G01*
X4047236Y8852915D01*
X4062729Y8847836D01*
X4068063Y8842502D01*
X4073143Y8832087D01*
X4073143Y8821674D01*
X4068063Y8811260D01*
X4062729Y8806179D01*
X4047236Y8801100D01*
X4000500Y8801100D01*
X4036822Y8801100D02*
G01*
X4073143Y8743950D01*
X4107434Y8832087D02*
G01*
X4117847Y8837421D01*
X4133595Y8852915D01*
X4133595Y8743950D01*
X4198874Y8852915D02*
G01*
X4183379Y8847836D01*
X4172965Y8832087D01*
X4167886Y8806179D01*
X4167886Y8790686D01*
X4172965Y8764524D01*
X4183379Y8749029D01*
X4198874Y8743950D01*
X4209288Y8743950D01*
X4225036Y8749029D01*
X4235450Y8764524D01*
X4240529Y8790686D01*
X4240529Y8806179D01*
X4235450Y8832087D01*
X4225036Y8847836D01*
X4209288Y8852915D01*
X4198874Y8852915D01*
X4311141Y8873744D02*
G01*
X4300727Y8863329D01*
X4290313Y8847836D01*
X4279900Y8827008D01*
X4274820Y8801100D01*
X4274820Y8780271D01*
X4279900Y8754110D01*
X4290313Y8733536D01*
X4300727Y8717787D01*
X4311141Y8707374D01*
X4371340Y8852915D02*
G01*
X4355845Y8847836D01*
X4350765Y8837421D01*
X4350765Y8827008D01*
X4355845Y8816594D01*
X4366259Y8811260D01*
X4387088Y8806179D01*
X4402581Y8801100D01*
X4412995Y8790686D01*
X4418329Y8780271D01*
X4418329Y8764524D01*
X4412995Y8754110D01*
X4407915Y8749029D01*
X4392168Y8743950D01*
X4371340Y8743950D01*
X4355845Y8749029D01*
X4350765Y8754110D01*
X4345431Y8764524D01*
X4345431Y8780271D01*
X4350765Y8790686D01*
X4361179Y8801100D01*
X4376674Y8806179D01*
X4397502Y8811260D01*
X4407915Y8816594D01*
X4412995Y8827008D01*
X4412995Y8837421D01*
X4407915Y8847836D01*
X4392168Y8852915D01*
X4371340Y8852915D01*
X4452620Y8852915D02*
G01*
X4452620Y8743950D01*
X4525263Y8852915D02*
G01*
X4452620Y8780271D01*
X4478527Y8806179D02*
G01*
X4525263Y8743950D01*
X4559554Y8873744D02*
G01*
X4569968Y8863329D01*
X4580381Y8847836D01*
X4590795Y8827008D01*
X4595875Y8801100D01*
X4595875Y8780271D01*
X4590795Y8754110D01*
X4580381Y8733536D01*
X4569968Y8717787D01*
X4559554Y8707374D01*
X5080000Y8852915D02*
G01*
X5080000Y8743950D01*
X5080000Y8852915D02*
G01*
X5126736Y8852915D01*
X5142229Y8847836D01*
X5147563Y8842502D01*
X5152643Y8832087D01*
X5152643Y8821674D01*
X5147563Y8811260D01*
X5142229Y8806179D01*
X5126736Y8801100D01*
X5080000Y8801100D01*
X5116322Y8801100D02*
G01*
X5152643Y8743950D01*
X5186934Y8832087D02*
G01*
X5197347Y8837421D01*
X5213095Y8852915D01*
X5213095Y8743950D01*
X5247386Y8832087D02*
G01*
X5257800Y8837421D01*
X5273293Y8852915D01*
X5273293Y8743950D01*
X5343906Y8873744D02*
G01*
X5333491Y8863329D01*
X5323077Y8847836D01*
X5312663Y8827008D01*
X5307584Y8801100D01*
X5307584Y8780271D01*
X5312663Y8754110D01*
X5323077Y8733536D01*
X5333491Y8717787D01*
X5343906Y8707374D01*
X5430265Y8852915D02*
G01*
X5378195Y8780271D01*
X5456174Y8780271D01*
X5430265Y8852915D02*
G01*
X5430265Y8743950D01*
X5490463Y8852915D02*
G01*
X5490463Y8743950D01*
X5563108Y8852915D02*
G01*
X5490463Y8780271D01*
X5516372Y8806179D02*
G01*
X5563108Y8743950D01*
X5670295Y8852915D02*
G01*
X5618225Y8743950D01*
X5597397Y8852915D02*
G01*
X5670295Y8852915D01*
X5704586Y8873744D02*
G01*
X5715000Y8863329D01*
X5725159Y8847836D01*
X5735574Y8827008D01*
X5740908Y8801100D01*
X5740908Y8780271D01*
X5735574Y8754110D01*
X5725159Y8733536D01*
X5715000Y8717787D01*
X5704586Y8707374D01*
X4013200Y8459215D02*
G01*
X4013200Y8350250D01*
X4013200Y8459215D02*
G01*
X4059936Y8459215D01*
X4075429Y8454136D01*
X4080763Y8448802D01*
X4085843Y8438387D01*
X4085843Y8427974D01*
X4080763Y8417560D01*
X4075429Y8412479D01*
X4059936Y8407400D01*
X4013200Y8407400D01*
X4049522Y8407400D02*
G01*
X4085843Y8350250D01*
X4120134Y8438387D02*
G01*
X4130547Y8443721D01*
X4146295Y8459215D01*
X4146295Y8350250D01*
X4185665Y8433308D02*
G01*
X4185665Y8438387D01*
X4191000Y8448802D01*
X4196079Y8454136D01*
X4206493Y8459215D01*
X4227322Y8459215D01*
X4237736Y8454136D01*
X4242815Y8448802D01*
X4248150Y8438387D01*
X4248150Y8427974D01*
X4242815Y8417560D01*
X4232402Y8402065D01*
X4180586Y8350250D01*
X4253229Y8350250D01*
X4323841Y8480044D02*
G01*
X4313427Y8469629D01*
X4303013Y8454136D01*
X4292600Y8433308D01*
X4287520Y8407400D01*
X4287520Y8386571D01*
X4292600Y8360410D01*
X4303013Y8339836D01*
X4313427Y8324087D01*
X4323841Y8313673D01*
X4384040Y8459215D02*
G01*
X4368545Y8454136D01*
X4363465Y8443721D01*
X4363465Y8433308D01*
X4368545Y8422894D01*
X4378959Y8417560D01*
X4399788Y8412479D01*
X4415281Y8407400D01*
X4425695Y8396986D01*
X4431029Y8386571D01*
X4431029Y8370823D01*
X4425695Y8360410D01*
X4420615Y8355329D01*
X4404868Y8350250D01*
X4384040Y8350250D01*
X4368545Y8355329D01*
X4363465Y8360410D01*
X4358131Y8370823D01*
X4358131Y8386571D01*
X4363465Y8396986D01*
X4373879Y8407400D01*
X4389374Y8412479D01*
X4410202Y8417560D01*
X4420615Y8422894D01*
X4425695Y8433308D01*
X4425695Y8443721D01*
X4420615Y8454136D01*
X4404868Y8459215D01*
X4384040Y8459215D01*
X4465320Y8459215D02*
G01*
X4465320Y8350250D01*
X4537963Y8459215D02*
G01*
X4465320Y8386571D01*
X4491227Y8412479D02*
G01*
X4537963Y8350250D01*
X4572254Y8480044D02*
G01*
X4582668Y8469629D01*
X4593081Y8454136D01*
X4603495Y8433308D01*
X4608575Y8407400D01*
X4608575Y8386571D01*
X4603495Y8360410D01*
X4593081Y8339836D01*
X4582668Y8324087D01*
X4572254Y8313673D01*
X5092700Y8459215D02*
G01*
X5092700Y8350250D01*
X5092700Y8459215D02*
G01*
X5139436Y8459215D01*
X5154929Y8454136D01*
X5160263Y8448802D01*
X5165343Y8438387D01*
X5165343Y8427974D01*
X5160263Y8417560D01*
X5154929Y8412479D01*
X5139436Y8407400D01*
X5092700Y8407400D01*
X5129022Y8407400D02*
G01*
X5165343Y8350250D01*
X5199634Y8438387D02*
G01*
X5210047Y8443721D01*
X5225795Y8459215D01*
X5225795Y8350250D01*
X5270500Y8459215D02*
G01*
X5327650Y8459215D01*
X5296408Y8417560D01*
X5311902Y8417560D01*
X5322315Y8412479D01*
X5327650Y8407400D01*
X5332729Y8391652D01*
X5332729Y8381237D01*
X5327650Y8365744D01*
X5317236Y8355329D01*
X5301488Y8350250D01*
X5285993Y8350250D01*
X5270500Y8355329D01*
X5265165Y8360410D01*
X5260086Y8370823D01*
X5403341Y8480044D02*
G01*
X5392927Y8469629D01*
X5382513Y8454136D01*
X5372100Y8433308D01*
X5367020Y8407400D01*
X5367020Y8386571D01*
X5372100Y8360410D01*
X5382513Y8339836D01*
X5392927Y8324087D01*
X5403341Y8313673D01*
X5489702Y8459215D02*
G01*
X5437631Y8386571D01*
X5515609Y8386571D01*
X5489702Y8459215D02*
G01*
X5489702Y8350250D01*
X5549900Y8459215D02*
G01*
X5549900Y8350250D01*
X5622543Y8459215D02*
G01*
X5549900Y8386571D01*
X5575808Y8412479D02*
G01*
X5622543Y8350250D01*
X5729731Y8459215D02*
G01*
X5677661Y8350250D01*
X5656834Y8459215D02*
G01*
X5729731Y8459215D01*
X5764022Y8480044D02*
G01*
X5774436Y8469629D01*
X5784850Y8454136D01*
X5795009Y8433308D01*
X5800343Y8407400D01*
X5800343Y8386571D01*
X5795009Y8360410D01*
X5784850Y8339836D01*
X5774436Y8324087D01*
X5764022Y8313673D01*
X2806700Y9195815D02*
G01*
X2806700Y9086850D01*
X2806700Y9195815D02*
G01*
X2853436Y9195815D01*
X2868929Y9190736D01*
X2874263Y9185402D01*
X2879343Y9174987D01*
X2879343Y9164574D01*
X2874263Y9154160D01*
X2868929Y9149079D01*
X2853436Y9144000D01*
X2806700Y9144000D01*
X2843022Y9144000D02*
G01*
X2879343Y9086850D01*
X2913634Y9174987D02*
G01*
X2924047Y9180321D01*
X2939795Y9195815D01*
X2939795Y9086850D01*
X2974086Y9195815D02*
G01*
X2974086Y9086850D01*
X2974086Y9195815D02*
G01*
X3020822Y9195815D01*
X3036315Y9190736D01*
X3041650Y9185402D01*
X3046729Y9174987D01*
X3046729Y9159494D01*
X3041650Y9149079D01*
X3036315Y9144000D01*
X3020822Y9138665D01*
X2974086Y9138665D01*
X3117341Y9216644D02*
G01*
X3106927Y9206229D01*
X3096513Y9190736D01*
X3086100Y9169908D01*
X3081020Y9144000D01*
X3081020Y9123171D01*
X3086100Y9097010D01*
X3096513Y9076436D01*
X3106927Y9060687D01*
X3117341Y9050274D01*
X3177540Y9195815D02*
G01*
X3162045Y9190736D01*
X3156965Y9180321D01*
X3156965Y9169908D01*
X3162045Y9159494D01*
X3172459Y9154160D01*
X3193288Y9149079D01*
X3208781Y9144000D01*
X3219195Y9133586D01*
X3224529Y9123171D01*
X3224529Y9107424D01*
X3219195Y9097010D01*
X3214115Y9091929D01*
X3198368Y9086850D01*
X3177540Y9086850D01*
X3162045Y9091929D01*
X3156965Y9097010D01*
X3151631Y9107424D01*
X3151631Y9123171D01*
X3156965Y9133586D01*
X3167379Y9144000D01*
X3182874Y9149079D01*
X3203702Y9154160D01*
X3214115Y9159494D01*
X3219195Y9169908D01*
X3219195Y9180321D01*
X3214115Y9190736D01*
X3198368Y9195815D01*
X3177540Y9195815D01*
X3289808Y9195815D02*
G01*
X3274313Y9190736D01*
X3263900Y9174987D01*
X3258820Y9149079D01*
X3258820Y9133586D01*
X3263900Y9107424D01*
X3274313Y9091929D01*
X3289808Y9086850D01*
X3300222Y9086850D01*
X3315970Y9091929D01*
X3326129Y9107424D01*
X3331463Y9133586D01*
X3331463Y9149079D01*
X3326129Y9174987D01*
X3315970Y9190736D01*
X3300222Y9195815D01*
X3289808Y9195815D01*
X3396995Y9195815D02*
G01*
X3381247Y9190736D01*
X3370834Y9174987D01*
X3365754Y9149079D01*
X3365754Y9133586D01*
X3370834Y9107424D01*
X3381247Y9091929D01*
X3396995Y9086850D01*
X3407409Y9086850D01*
X3422904Y9091929D01*
X3433318Y9107424D01*
X3438397Y9133586D01*
X3438397Y9149079D01*
X3433318Y9174987D01*
X3422904Y9190736D01*
X3407409Y9195815D01*
X3396995Y9195815D01*
X3472688Y9216644D02*
G01*
X3483102Y9206229D01*
X3493515Y9190736D01*
X3503929Y9169908D01*
X3509009Y9144000D01*
X3509009Y9123171D01*
X3503929Y9097010D01*
X3493515Y9076436D01*
X3483102Y9060687D01*
X3472688Y9050274D01*
X2806700Y8459215D02*
G01*
X2806700Y8350250D01*
X2806700Y8459215D02*
G01*
X2853436Y8459215D01*
X2868929Y8454136D01*
X2874263Y8448802D01*
X2879343Y8438387D01*
X2879343Y8427974D01*
X2874263Y8417560D01*
X2868929Y8412479D01*
X2853436Y8407400D01*
X2806700Y8407400D01*
X2843022Y8407400D02*
G01*
X2879343Y8350250D01*
X2918968Y8433308D02*
G01*
X2918968Y8438387D01*
X2924047Y8448802D01*
X2929381Y8454136D01*
X2939795Y8459215D01*
X2960370Y8459215D01*
X2970784Y8454136D01*
X2976118Y8448802D01*
X2981197Y8438387D01*
X2981197Y8427974D01*
X2976118Y8417560D01*
X2965704Y8402065D01*
X2913634Y8350250D01*
X2986531Y8350250D01*
X3020822Y8459215D02*
G01*
X3020822Y8350250D01*
X3020822Y8459215D02*
G01*
X3067558Y8459215D01*
X3083052Y8454136D01*
X3088386Y8448802D01*
X3093465Y8438387D01*
X3093465Y8422894D01*
X3088386Y8412479D01*
X3083052Y8407400D01*
X3067558Y8402065D01*
X3020822Y8402065D01*
X3164077Y8480044D02*
G01*
X3153663Y8469629D01*
X3143250Y8454136D01*
X3133090Y8433308D01*
X3127756Y8407400D01*
X3127756Y8386571D01*
X3133090Y8360410D01*
X3143250Y8339836D01*
X3153663Y8324087D01*
X3164077Y8313673D01*
X3224529Y8459215D02*
G01*
X3208781Y8454136D01*
X3203702Y8443721D01*
X3203702Y8433308D01*
X3208781Y8422894D01*
X3219195Y8417560D01*
X3240024Y8412479D01*
X3255518Y8407400D01*
X3265931Y8396986D01*
X3271265Y8386571D01*
X3271265Y8370823D01*
X3265931Y8360410D01*
X3260852Y8355329D01*
X3245104Y8350250D01*
X3224529Y8350250D01*
X3208781Y8355329D01*
X3203702Y8360410D01*
X3198368Y8370823D01*
X3198368Y8386571D01*
X3203702Y8396986D01*
X3214115Y8407400D01*
X3229609Y8412479D01*
X3250438Y8417560D01*
X3260852Y8422894D01*
X3265931Y8433308D01*
X3265931Y8443721D01*
X3260852Y8454136D01*
X3245104Y8459215D01*
X3224529Y8459215D01*
X3336543Y8459215D02*
G01*
X3321050Y8454136D01*
X3310636Y8438387D01*
X3305556Y8412479D01*
X3305556Y8396986D01*
X3310636Y8370823D01*
X3321050Y8355329D01*
X3336543Y8350250D01*
X3346958Y8350250D01*
X3362706Y8355329D01*
X3373120Y8370823D01*
X3378200Y8396986D01*
X3378200Y8412479D01*
X3373120Y8438387D01*
X3362706Y8454136D01*
X3346958Y8459215D01*
X3336543Y8459215D01*
X3443731Y8459215D02*
G01*
X3427984Y8454136D01*
X3417570Y8438387D01*
X3412490Y8412479D01*
X3412490Y8396986D01*
X3417570Y8370823D01*
X3427984Y8355329D01*
X3443731Y8350250D01*
X3454145Y8350250D01*
X3469640Y8355329D01*
X3480054Y8370823D01*
X3485134Y8396986D01*
X3485134Y8412479D01*
X3480054Y8438387D01*
X3469640Y8454136D01*
X3454145Y8459215D01*
X3443731Y8459215D01*
X3519424Y8480044D02*
G01*
X3529838Y8469629D01*
X3540252Y8454136D01*
X3550665Y8433308D01*
X3556000Y8407400D01*
X3556000Y8386571D01*
X3550665Y8360410D01*
X3540252Y8339836D01*
X3529838Y8324087D01*
X3519424Y8313673D01*
X2819400Y7722615D02*
G01*
X2819400Y7613650D01*
X2819400Y7722615D02*
G01*
X2866136Y7722615D01*
X2881629Y7717536D01*
X2886963Y7712202D01*
X2892043Y7701787D01*
X2892043Y7691373D01*
X2886963Y7680960D01*
X2881629Y7675879D01*
X2866136Y7670800D01*
X2819400Y7670800D01*
X2855722Y7670800D02*
G01*
X2892043Y7613650D01*
X2936747Y7722615D02*
G01*
X2993897Y7722615D01*
X2962909Y7680960D01*
X2978404Y7680960D01*
X2988818Y7675879D01*
X2993897Y7670800D01*
X2999231Y7655052D01*
X2999231Y7644637D01*
X2993897Y7629144D01*
X2983484Y7618729D01*
X2967990Y7613650D01*
X2952495Y7613650D01*
X2936747Y7618729D01*
X2931668Y7623810D01*
X2926334Y7634223D01*
X3033522Y7722615D02*
G01*
X3033522Y7613650D01*
X3033522Y7722615D02*
G01*
X3080258Y7722615D01*
X3095752Y7717536D01*
X3101086Y7712202D01*
X3106165Y7701787D01*
X3106165Y7686294D01*
X3101086Y7675879D01*
X3095752Y7670800D01*
X3080258Y7665465D01*
X3033522Y7665465D01*
X3176777Y7743444D02*
G01*
X3166363Y7733029D01*
X3155950Y7717536D01*
X3145790Y7696708D01*
X3140456Y7670800D01*
X3140456Y7649971D01*
X3145790Y7623810D01*
X3155950Y7603236D01*
X3166363Y7587487D01*
X3176777Y7577073D01*
X3237229Y7722615D02*
G01*
X3221481Y7717536D01*
X3216402Y7707121D01*
X3216402Y7696708D01*
X3221481Y7686294D01*
X3231895Y7680960D01*
X3252724Y7675879D01*
X3268218Y7670800D01*
X3278631Y7660386D01*
X3283965Y7649971D01*
X3283965Y7634223D01*
X3278631Y7623810D01*
X3273552Y7618729D01*
X3257804Y7613650D01*
X3237229Y7613650D01*
X3221481Y7618729D01*
X3216402Y7623810D01*
X3211068Y7634223D01*
X3211068Y7649971D01*
X3216402Y7660386D01*
X3226815Y7670800D01*
X3242309Y7675879D01*
X3263138Y7680960D01*
X3273552Y7686294D01*
X3278631Y7696708D01*
X3278631Y7707121D01*
X3273552Y7717536D01*
X3257804Y7722615D01*
X3237229Y7722615D01*
X3349243Y7722615D02*
G01*
X3333750Y7717536D01*
X3323336Y7701787D01*
X3318256Y7675879D01*
X3318256Y7660386D01*
X3323336Y7634223D01*
X3333750Y7618729D01*
X3349243Y7613650D01*
X3359658Y7613650D01*
X3375406Y7618729D01*
X3385820Y7634223D01*
X3390900Y7660386D01*
X3390900Y7675879D01*
X3385820Y7701787D01*
X3375406Y7717536D01*
X3359658Y7722615D01*
X3349243Y7722615D01*
X3456431Y7722615D02*
G01*
X3440684Y7717536D01*
X3430270Y7701787D01*
X3425190Y7675879D01*
X3425190Y7660386D01*
X3430270Y7634223D01*
X3440684Y7618729D01*
X3456431Y7613650D01*
X3466845Y7613650D01*
X3482340Y7618729D01*
X3492754Y7634223D01*
X3497834Y7660386D01*
X3497834Y7675879D01*
X3492754Y7701787D01*
X3482340Y7717536D01*
X3466845Y7722615D01*
X3456431Y7722615D01*
X3532124Y7743444D02*
G01*
X3542538Y7733029D01*
X3552952Y7717536D01*
X3563365Y7696708D01*
X3568700Y7670800D01*
X3568700Y7649971D01*
X3563365Y7623810D01*
X3552952Y7603236D01*
X3542538Y7587487D01*
X3532124Y7577073D01*
X2793161Y9620351D02*
G01*
X2793161Y9511385D01*
X2793161Y9620351D02*
G01*
X2839897Y9620351D01*
X2855391Y9615271D01*
X2860725Y9609937D01*
X2865805Y9599523D01*
X2865805Y9589109D01*
X2860725Y9578695D01*
X2855391Y9573615D01*
X2839897Y9568535D01*
X2793161Y9568535D01*
X2829483Y9568535D02*
G01*
X2865805Y9511385D01*
X2900095Y9599523D02*
G01*
X2910509Y9604857D01*
X2926257Y9620351D01*
X2926257Y9511385D01*
X2996869Y9641179D02*
G01*
X2986455Y9630765D01*
X2976041Y9615271D01*
X2965627Y9594443D01*
X2960547Y9568535D01*
X2960547Y9547707D01*
X2965627Y9521545D01*
X2976041Y9500971D01*
X2986455Y9485223D01*
X2996869Y9474809D01*
X3082975Y9620351D02*
G01*
X3031159Y9547707D01*
X3109137Y9547707D01*
X3082975Y9620351D02*
G01*
X3082975Y9511385D01*
X3174415Y9620351D02*
G01*
X3158921Y9615271D01*
X3148507Y9599523D01*
X3143427Y9573615D01*
X3143427Y9558121D01*
X3148507Y9531959D01*
X3158921Y9516465D01*
X3174415Y9511385D01*
X3184829Y9511385D01*
X3200577Y9516465D01*
X3210991Y9531959D01*
X3216071Y9558121D01*
X3216071Y9573615D01*
X3210991Y9599523D01*
X3200577Y9615271D01*
X3184829Y9620351D01*
X3174415Y9620351D01*
X3281603Y9620351D02*
G01*
X3265855Y9615271D01*
X3255441Y9599523D01*
X3250361Y9573615D01*
X3250361Y9558121D01*
X3255441Y9531959D01*
X3265855Y9516465D01*
X3281603Y9511385D01*
X3292017Y9511385D01*
X3307511Y9516465D01*
X3317925Y9531959D01*
X3323005Y9558121D01*
X3323005Y9573615D01*
X3317925Y9599523D01*
X3307511Y9615271D01*
X3292017Y9620351D01*
X3281603Y9620351D01*
X3357295Y9641179D02*
G01*
X3367709Y9630765D01*
X3378123Y9615271D01*
X3388537Y9594443D01*
X3393871Y9568535D01*
X3393871Y9547707D01*
X3388537Y9521545D01*
X3378123Y9500971D01*
X3367709Y9485223D01*
X3357295Y9474809D01*
X2831261Y8843474D02*
G01*
X2831261Y8734508D01*
X2831261Y8843474D02*
G01*
X2877997Y8843474D01*
X2893491Y8838394D01*
X2898825Y8833060D01*
X2903905Y8822646D01*
X2903905Y8812232D01*
X2898825Y8801818D01*
X2893491Y8796738D01*
X2877997Y8791658D01*
X2831261Y8791658D01*
X2867583Y8791658D02*
G01*
X2903905Y8734508D01*
X2943529Y8817566D02*
G01*
X2943529Y8822646D01*
X2948609Y8833060D01*
X2953943Y8838394D01*
X2964357Y8843474D01*
X2984931Y8843474D01*
X2995345Y8838394D01*
X3000679Y8833060D01*
X3005759Y8822646D01*
X3005759Y8812232D01*
X3000679Y8801818D01*
X2990265Y8786324D01*
X2938195Y8734508D01*
X3011093Y8734508D01*
X3081705Y8864302D02*
G01*
X3071291Y8853888D01*
X3060877Y8838394D01*
X3050463Y8817566D01*
X3045383Y8791658D01*
X3045383Y8770830D01*
X3050463Y8744668D01*
X3060877Y8724094D01*
X3071291Y8708346D01*
X3081705Y8697932D01*
X3167811Y8843474D02*
G01*
X3115995Y8770830D01*
X3193973Y8770830D01*
X3167811Y8843474D02*
G01*
X3167811Y8734508D01*
X3259251Y8843474D02*
G01*
X3243757Y8838394D01*
X3233343Y8822646D01*
X3228263Y8796738D01*
X3228263Y8781244D01*
X3233343Y8755082D01*
X3243757Y8739588D01*
X3259251Y8734508D01*
X3269665Y8734508D01*
X3285413Y8739588D01*
X3295827Y8755082D01*
X3300907Y8781244D01*
X3300907Y8796738D01*
X3295827Y8822646D01*
X3285413Y8838394D01*
X3269665Y8843474D01*
X3259251Y8843474D01*
X3366439Y8843474D02*
G01*
X3350691Y8838394D01*
X3340531Y8822646D01*
X3335197Y8796738D01*
X3335197Y8781244D01*
X3340531Y8755082D01*
X3350691Y8739588D01*
X3366439Y8734508D01*
X3376853Y8734508D01*
X3392347Y8739588D01*
X3402761Y8755082D01*
X3407841Y8781244D01*
X3407841Y8796738D01*
X3402761Y8822646D01*
X3392347Y8838394D01*
X3376853Y8843474D01*
X3366439Y8843474D01*
X3442131Y8864302D02*
G01*
X3452545Y8853888D01*
X3462959Y8838394D01*
X3473373Y8817566D01*
X3478707Y8791658D01*
X3478707Y8770830D01*
X3473373Y8744668D01*
X3462959Y8724094D01*
X3452545Y8708346D01*
X3442131Y8697932D01*
X2843961Y8130098D02*
G01*
X2843961Y8021132D01*
X2843961Y8130098D02*
G01*
X2890697Y8130098D01*
X2906191Y8125018D01*
X2911525Y8119684D01*
X2916605Y8109270D01*
X2916605Y8098856D01*
X2911525Y8088442D01*
X2906191Y8083362D01*
X2890697Y8078282D01*
X2843961Y8078282D01*
X2880283Y8078282D02*
G01*
X2916605Y8021132D01*
X2961309Y8130098D02*
G01*
X3018459Y8130098D01*
X2987471Y8088442D01*
X3002965Y8088442D01*
X3013379Y8083362D01*
X3018459Y8078282D01*
X3023793Y8062534D01*
X3023793Y8052120D01*
X3018459Y8036626D01*
X3008045Y8026212D01*
X2992551Y8021132D01*
X2977057Y8021132D01*
X2961309Y8026212D01*
X2956229Y8031292D01*
X2950895Y8041706D01*
X3094405Y8150926D02*
G01*
X3083991Y8140512D01*
X3073577Y8125018D01*
X3063163Y8104190D01*
X3058083Y8078282D01*
X3058083Y8057454D01*
X3063163Y8031292D01*
X3073577Y8010718D01*
X3083991Y7994970D01*
X3094405Y7984556D01*
X3180511Y8130098D02*
G01*
X3128695Y8057454D01*
X3206673Y8057454D01*
X3180511Y8130098D02*
G01*
X3180511Y8021132D01*
X3271951Y8130098D02*
G01*
X3256457Y8125018D01*
X3246043Y8109270D01*
X3240963Y8083362D01*
X3240963Y8067868D01*
X3246043Y8041706D01*
X3256457Y8026212D01*
X3271951Y8021132D01*
X3282365Y8021132D01*
X3298113Y8026212D01*
X3308527Y8041706D01*
X3313607Y8067868D01*
X3313607Y8083362D01*
X3308527Y8109270D01*
X3298113Y8125018D01*
X3282365Y8130098D01*
X3271951Y8130098D01*
X3379139Y8130098D02*
G01*
X3363391Y8125018D01*
X3353231Y8109270D01*
X3347897Y8083362D01*
X3347897Y8067868D01*
X3353231Y8041706D01*
X3363391Y8026212D01*
X3379139Y8021132D01*
X3389553Y8021132D01*
X3405047Y8026212D01*
X3415461Y8041706D01*
X3420541Y8067868D01*
X3420541Y8083362D01*
X3415461Y8109270D01*
X3405047Y8125018D01*
X3389553Y8130098D01*
X3379139Y8130098D01*
X3454831Y8150926D02*
G01*
X3465245Y8140512D01*
X3475659Y8125018D01*
X3486073Y8104190D01*
X3491407Y8078282D01*
X3491407Y8057454D01*
X3486073Y8031292D01*
X3475659Y8010718D01*
X3465245Y7994970D01*
X3454831Y7984556D01*
X1055878Y7760208D02*
G01*
X1050544Y7770621D01*
X1040129Y7781036D01*
X1029970Y7786115D01*
X1009142Y7786115D01*
X998728Y7781036D01*
X988313Y7770621D01*
X982979Y7760208D01*
X977900Y7744460D01*
X977900Y7718552D01*
X982979Y7703058D01*
X988313Y7692644D01*
X998728Y7682229D01*
X1009142Y7677150D01*
X1029970Y7677150D01*
X1040129Y7682229D01*
X1050544Y7692644D01*
X1055878Y7703058D01*
X1055878Y7718552D01*
X1029970Y7718552D02*
G01*
X1055878Y7718552D01*
X1090168Y7786115D02*
G01*
X1090168Y7677150D01*
X1090168Y7786115D02*
G01*
X1162812Y7677150D01*
X1162812Y7786115D02*
G01*
X1162812Y7677150D01*
X1197102Y7786115D02*
G01*
X1197102Y7677150D01*
X1197102Y7786115D02*
G01*
X1233423Y7786115D01*
X1249171Y7781036D01*
X1259586Y7770621D01*
X1264665Y7760208D01*
X1270000Y7744460D01*
X1270000Y7718552D01*
X1264665Y7703058D01*
X1259586Y7692644D01*
X1249171Y7682229D01*
X1233423Y7677150D01*
X1197102Y7677150D01*
X2475484Y9321800D02*
G01*
X2584450Y9363455D01*
X2475484Y9404858D02*
G01*
X2584450Y9363455D01*
X2501391Y9517126D02*
G01*
X2490977Y9512045D01*
X2480563Y9501631D01*
X2475484Y9491218D01*
X2475484Y9470389D01*
X2480563Y9459976D01*
X2490977Y9449562D01*
X2501391Y9444481D01*
X2517140Y9439147D01*
X2543047Y9439147D01*
X2558541Y9444481D01*
X2568956Y9449562D01*
X2579370Y9459976D01*
X2584450Y9470389D01*
X2584450Y9491218D01*
X2579370Y9501631D01*
X2568956Y9512045D01*
X2558541Y9517126D01*
X2543047Y9517126D01*
X2543047Y9491218D02*
G01*
X2543047Y9517126D01*
X2475484Y9593071D02*
G01*
X2584450Y9551415D01*
X2475484Y9593071D02*
G01*
X2584450Y9634474D01*
X2548127Y9566910D02*
G01*
X2548127Y9618979D01*
D21*
X977900Y6680200D02*
G01*
X977900Y6172200D01*
X6057900Y6172200D01*
X6057900Y6680200D01*
X977900Y6680200D01*
D10*
X4003040Y11117579D02*
G01*
X2600959Y11117579D01*
X2600959Y9837420D02*
G01*
X4003040Y9842500D01*
X5793740Y11117579D02*
G01*
X4391659Y11117579D01*
X4391659Y9837420D02*
G01*
X5793740Y9842500D01*
D21*
X1981200Y7340600D02*
G01*
X1727200Y7340600D01*
X1727200Y7594600D01*
X1981200Y7594600D01*
X1981200Y7404100D01*
D22*
X1981200Y7340600D02*
G01*
X1981200Y7404100D01*
D21*
X6616700Y8991600D02*
G01*
X6807200Y8991600D01*
X6807200Y9245600D01*
X6045200Y9245600D01*
X6045200Y8991600D01*
D22*
X6045200Y8991600D02*
G01*
X6616700Y8991600D01*
D10*
X4013200Y7950200D02*
G01*
X4521200Y7950200D01*
X4521200Y7950200D02*
G01*
X4521200Y7874000D01*
X4521200Y7874000D02*
G01*
X4521200Y7797800D01*
X4521200Y7797800D02*
G01*
X4013200Y7797800D01*
X4013200Y7797800D02*
G01*
X4013200Y7874000D01*
X4013200Y7874000D02*
G01*
X4013200Y7950200D01*
X4521200Y7874000D02*
G01*
X4546600Y7874000D01*
X4013200Y7874000D02*
G01*
X3987800Y7874000D01*
X4013200Y7581900D02*
G01*
X4521200Y7581900D01*
X4521200Y7581900D02*
G01*
X4521200Y7505700D01*
X4521200Y7505700D02*
G01*
X4521200Y7429500D01*
X4521200Y7429500D02*
G01*
X4013200Y7429500D01*
X4013200Y7429500D02*
G01*
X4013200Y7505700D01*
X4013200Y7505700D02*
G01*
X4013200Y7581900D01*
X4521200Y7505700D02*
G01*
X4546600Y7505700D01*
X4013200Y7505700D02*
G01*
X3987800Y7505700D01*
D23*
X5425186Y7195565D02*
G01*
X5425186Y7865618D01*
X5750052Y7865618D01*
X5750052Y7195565D01*
X5425186Y7195565D01*
D10*
X4494961Y9314535D02*
G01*
X3986961Y9314535D01*
X3986961Y9314535D02*
G01*
X3986961Y9390735D01*
X3986961Y9390735D02*
G01*
X3986961Y9466935D01*
X3986961Y9466935D02*
G01*
X4494961Y9466935D01*
X4494961Y9466935D02*
G01*
X4494961Y9390735D01*
X4494961Y9390735D02*
G01*
X4494961Y9314535D01*
X3986961Y9390735D02*
G01*
X3961561Y9390735D01*
X4494961Y9390735D02*
G01*
X4520361Y9390735D01*
X5574461Y9314535D02*
G01*
X5066461Y9314535D01*
X5066461Y9314535D02*
G01*
X5066461Y9390735D01*
X5066461Y9390735D02*
G01*
X5066461Y9466935D01*
X5066461Y9466935D02*
G01*
X5574461Y9466935D01*
X5574461Y9466935D02*
G01*
X5574461Y9390735D01*
X5574461Y9390735D02*
G01*
X5574461Y9314535D01*
X5066461Y9390735D02*
G01*
X5041061Y9390735D01*
X5574461Y9390735D02*
G01*
X5599861Y9390735D01*
X4508500Y8902700D02*
G01*
X4000500Y8902700D01*
X4000500Y8902700D02*
G01*
X4000500Y8978900D01*
X4000500Y8978900D02*
G01*
X4000500Y9055100D01*
X4000500Y9055100D02*
G01*
X4508500Y9055100D01*
X4508500Y9055100D02*
G01*
X4508500Y8978900D01*
X4508500Y8978900D02*
G01*
X4508500Y8902700D01*
X4000500Y8978900D02*
G01*
X3975100Y8978900D01*
X4508500Y8978900D02*
G01*
X4533900Y8978900D01*
X5575300Y8902700D02*
G01*
X5067300Y8902700D01*
X5067300Y8902700D02*
G01*
X5067300Y8978900D01*
X5067300Y8978900D02*
G01*
X5067300Y9055100D01*
X5067300Y9055100D02*
G01*
X5575300Y9055100D01*
X5575300Y9055100D02*
G01*
X5575300Y8978900D01*
X5575300Y8978900D02*
G01*
X5575300Y8902700D01*
X5067300Y8978900D02*
G01*
X5041900Y8978900D01*
X5575300Y8978900D02*
G01*
X5600700Y8978900D01*
X4000500Y8699500D02*
G01*
X4508500Y8699500D01*
X4508500Y8699500D02*
G01*
X4508500Y8623300D01*
X4508500Y8623300D02*
G01*
X4508500Y8547100D01*
X4508500Y8547100D02*
G01*
X4000500Y8547100D01*
X4000500Y8547100D02*
G01*
X4000500Y8623300D01*
X4000500Y8623300D02*
G01*
X4000500Y8699500D01*
X4508500Y8623300D02*
G01*
X4533900Y8623300D01*
X4000500Y8623300D02*
G01*
X3975100Y8623300D01*
X5080000Y8699500D02*
G01*
X5588000Y8699500D01*
X5588000Y8699500D02*
G01*
X5588000Y8623300D01*
X5588000Y8623300D02*
G01*
X5588000Y8547100D01*
X5588000Y8547100D02*
G01*
X5080000Y8547100D01*
X5080000Y8547100D02*
G01*
X5080000Y8623300D01*
X5080000Y8623300D02*
G01*
X5080000Y8699500D01*
X5588000Y8623300D02*
G01*
X5613400Y8623300D01*
X5080000Y8623300D02*
G01*
X5054600Y8623300D01*
X4000500Y8318500D02*
G01*
X4508500Y8318500D01*
X4508500Y8318500D02*
G01*
X4508500Y8242300D01*
X4508500Y8242300D02*
G01*
X4508500Y8166100D01*
X4508500Y8166100D02*
G01*
X4000500Y8166100D01*
X4000500Y8166100D02*
G01*
X4000500Y8242300D01*
X4000500Y8242300D02*
G01*
X4000500Y8318500D01*
X4508500Y8242300D02*
G01*
X4533900Y8242300D01*
X4000500Y8242300D02*
G01*
X3975100Y8242300D01*
X5080000Y8318500D02*
G01*
X5588000Y8318500D01*
X5588000Y8318500D02*
G01*
X5588000Y8242300D01*
X5588000Y8242300D02*
G01*
X5588000Y8166100D01*
X5588000Y8166100D02*
G01*
X5080000Y8166100D01*
X5080000Y8166100D02*
G01*
X5080000Y8242300D01*
X5080000Y8242300D02*
G01*
X5080000Y8318500D01*
X5588000Y8242300D02*
G01*
X5613400Y8242300D01*
X5080000Y8242300D02*
G01*
X5054600Y8242300D01*
X2838876Y8983251D02*
G01*
X2813476Y8983251D01*
X3346876Y8983251D02*
G01*
X3372276Y8983251D01*
X2838876Y8983251D02*
G01*
X2838876Y9059451D01*
X2838876Y8907051D02*
G01*
X2838876Y8983251D01*
X3346876Y8907051D02*
G01*
X2838876Y8907051D01*
X3346876Y8983251D02*
G01*
X3346876Y8907051D01*
X3346876Y9059451D02*
G01*
X3346876Y8983251D01*
X2838876Y9059451D02*
G01*
X3346876Y9059451D01*
X2838876Y8244474D02*
G01*
X2813476Y8244474D01*
X3346876Y8244474D02*
G01*
X3372276Y8244474D01*
X2838876Y8244474D02*
G01*
X2838876Y8320674D01*
X2838876Y8168274D02*
G01*
X2838876Y8244474D01*
X3346876Y8168274D02*
G01*
X2838876Y8168274D01*
X3346876Y8244474D02*
G01*
X3346876Y8168274D01*
X3346876Y8320674D02*
G01*
X3346876Y8244474D01*
X2838876Y8320674D02*
G01*
X3346876Y8320674D01*
X2838876Y7505697D02*
G01*
X2813476Y7505697D01*
X3346876Y7505697D02*
G01*
X3372276Y7505697D01*
X2838876Y7505697D02*
G01*
X2838876Y7581897D01*
X2838876Y7429497D02*
G01*
X2838876Y7505697D01*
X3346876Y7429497D02*
G01*
X2838876Y7429497D01*
X3346876Y7505697D02*
G01*
X3346876Y7429497D01*
X3346876Y7581897D02*
G01*
X3346876Y7505697D01*
X2838876Y7581897D02*
G01*
X3346876Y7581897D01*
X2843961Y9428835D02*
G01*
X3351961Y9428835D01*
X3351961Y9428835D02*
G01*
X3351961Y9352635D01*
X3351961Y9352635D02*
G01*
X3351961Y9276435D01*
X3351961Y9276435D02*
G01*
X2843961Y9276435D01*
X2843961Y9276435D02*
G01*
X2843961Y9352635D01*
X2843961Y9352635D02*
G01*
X2843961Y9428835D01*
X3351961Y9352635D02*
G01*
X3377361Y9352635D01*
X2843961Y9352635D02*
G01*
X2818561Y9352635D01*
X2843961Y8690058D02*
G01*
X3351961Y8690058D01*
X3351961Y8690058D02*
G01*
X3351961Y8613858D01*
X3351961Y8613858D02*
G01*
X3351961Y8537658D01*
X3351961Y8537658D02*
G01*
X2843961Y8537658D01*
X2843961Y8537658D02*
G01*
X2843961Y8613858D01*
X2843961Y8613858D02*
G01*
X2843961Y8690058D01*
X3351961Y8613858D02*
G01*
X3377361Y8613858D01*
X2843961Y8613858D02*
G01*
X2818561Y8613858D01*
X2843961Y7951282D02*
G01*
X3351961Y7951282D01*
X3351961Y7951282D02*
G01*
X3351961Y7875082D01*
X3351961Y7875082D02*
G01*
X3351961Y7798882D01*
X3351961Y7798882D02*
G01*
X2843961Y7798882D01*
X2843961Y7798882D02*
G01*
X2843961Y7875082D01*
X2843961Y7875082D02*
G01*
X2843961Y7951282D01*
X3351961Y7875082D02*
G01*
X3377361Y7875082D01*
X2843961Y7875082D02*
G01*
X2818561Y7875082D01*
D21*
X1231900Y7327900D02*
G01*
X977900Y7327900D01*
X977900Y7581900D01*
X1231900Y7581900D01*
X1231900Y7391400D01*
D22*
X1231900Y7327900D02*
G01*
X1231900Y7391400D01*
D10*
X2400300Y8049260D02*
G01*
X1196339Y8049260D01*
X2400300Y11127739D02*
G01*
X1196339Y11127739D01*
X2400300Y8049260D02*
G01*
X2400300Y11127739D01*
M02*
